<?xml version="1.0" encoding="UTF-8" standalone="no"?>
<!DOCTYPE svg PUBLIC "-//W3C//DTD SVG 1.1//EN"
 "http://www.w3.org/Graphics/SVG/1.1/DTD/svg11.dtd">
<!-- Generated by graphviz version 2.43.0 (0)
 -->
<!-- Title: protodot Pages: 1 -->
<svg width="370pt" height="557pt"
 viewBox="0.00 0.00 370.00 557.00" xmlns="http://www.w3.org/2000/svg" xmlns:xlink="http://www.w3.org/1999/xlink">
<g id="graph0" class="graph" transform="scale(1 1) rotate(0) translate(4 553)">
<title>protodot</title>
<g id="a_graph0"><a xlink:title="mcfs.board">
<text text-anchor="middle" x="181" y="-7.8" font-family="Times,serif" font-size="14.00">mcfs.board</text>
</a>
</g>
<g id="clust1" class="cluster">
<title>cluster_4a45dd18e682</title>
<g id="a_clust1"><a xlink:title="mcfs.board">
<polygon fill="#caff70" stroke="black" points="191,-31 191,-541 354,-541 354,-31 191,-31"/>
<text text-anchor="middle" x="272.5" y="-525.8" font-family="Times,serif" font-size="14.00">mcfs.board</text>
</a>
</g>
</g>
<!-- Node_Ja_103 -->
<g id="node1" class="node">
<title>Node_Ja_103</title>
<g id="a_node1"><a xlink:title="LEDState">
<polygon fill="#b2df8a" stroke="transparent" points="232.5,-458.5 232.5,-505.5 312.5,-505.5 312.5,-458.5 232.5,-458.5"/>
<polygon fill="#33a02c" stroke="transparent" points="233.5,-489 233.5,-504 311.5,-504 311.5,-489 233.5,-489"/>
<text text-anchor="start" x="235.5" y="-495" font-family="Ubuntu" font-size="10.00">enum </text>
<text text-anchor="start" x="263.5" y="-495" font-family="Ubuntu" font-weight="bold" font-size="10.00">LEDState</text>
<polygon fill="#b2df8a" stroke="transparent" points="233.5,-474 233.5,-489 290.5,-489 290.5,-474 233.5,-474"/>
<text text-anchor="start" x="235.5" y="-479" font-family="Ubuntu" font-size="10.00">LED_OFF</text>
<polygon fill="#b2df8a" stroke="transparent" points="290.5,-474 290.5,-489 311.5,-489 311.5,-474 290.5,-474"/>
<text text-anchor="start" x="292.5" y="-479" font-family="Ubuntu" font-size="10.00">0</text>
<polygon fill="#b2df8a" stroke="transparent" points="233.5,-459 233.5,-474 290.5,-474 290.5,-459 233.5,-459"/>
<text text-anchor="start" x="235.5" y="-464" font-family="Ubuntu" font-size="10.00">LED_ON</text>
<polygon fill="#b2df8a" stroke="transparent" points="290.5,-459 290.5,-474 311.5,-474 311.5,-459 290.5,-459"/>
<text text-anchor="start" x="292.5" y="-464" font-family="Ubuntu" font-size="10.00">1</text>
<polygon fill="none" stroke="black" points="232.5,-458.5 232.5,-505.5 312.5,-505.5 312.5,-458.5 232.5,-458.5"/>
</a>
</g>
</g>
<!-- Node_Ja_104 -->
<g id="node2" class="node">
<title>Node_Ja_104</title>
<g id="a_node2"><a xlink:title="BoardType">
<polygon fill="#b2df8a" stroke="transparent" points="213.5,-355.5 213.5,-432.5 331.5,-432.5 331.5,-355.5 213.5,-355.5"/>
<polygon fill="#33a02c" stroke="transparent" points="214.5,-416 214.5,-431 330.5,-431 330.5,-416 214.5,-416"/>
<text text-anchor="start" x="249.5" y="-422" font-family="Ubuntu" font-size="10.00">enum </text>
<text text-anchor="start" x="277.5" y="-422" font-family="Ubuntu" font-weight="bold" font-size="10.00">BoardType</text>
<polygon fill="#b2df8a" stroke="transparent" points="214.5,-401 214.5,-416 319.5,-416 319.5,-401 214.5,-401"/>
<text text-anchor="start" x="216.5" y="-406" font-family="Ubuntu" font-size="10.00">SERVER</text>
<polygon fill="#b2df8a" stroke="transparent" points="319.5,-401 319.5,-416 330.5,-416 330.5,-401 319.5,-401"/>
<text text-anchor="start" x="321.5" y="-406" font-family="Ubuntu" font-size="10.00">0</text>
<polygon fill="#b2df8a" stroke="transparent" points="214.5,-386 214.5,-401 319.5,-401 319.5,-386 214.5,-386"/>
<text text-anchor="start" x="216.5" y="-391" font-family="Ubuntu" font-size="10.00">FLIGHT_COMPUTER</text>
<polygon fill="#b2df8a" stroke="transparent" points="319.5,-386 319.5,-401 330.5,-401 330.5,-386 319.5,-386"/>
<text text-anchor="start" x="321.5" y="-391" font-family="Ubuntu" font-size="10.00">1</text>
<polygon fill="#b2df8a" stroke="transparent" points="214.5,-371 214.5,-386 319.5,-386 319.5,-371 214.5,-371"/>
<text text-anchor="start" x="216.5" y="-376" font-family="Ubuntu" font-size="10.00">GROUND_COMPUTER</text>
<polygon fill="#b2df8a" stroke="transparent" points="319.5,-371 319.5,-386 330.5,-386 330.5,-371 319.5,-371"/>
<text text-anchor="start" x="321.5" y="-376" font-family="Ubuntu" font-size="10.00">2</text>
<polygon fill="#b2df8a" stroke="transparent" points="214.5,-356 214.5,-371 319.5,-371 319.5,-356 214.5,-356"/>
<text text-anchor="start" x="216.5" y="-361" font-family="Ubuntu" font-size="10.00">SAM</text>
<polygon fill="#b2df8a" stroke="transparent" points="319.5,-356 319.5,-371 330.5,-371 330.5,-356 319.5,-356"/>
<text text-anchor="start" x="321.5" y="-361" font-family="Ubuntu" font-size="10.00">3</text>
<polygon fill="none" stroke="black" points="213.5,-355.5 213.5,-432.5 331.5,-432.5 331.5,-355.5 213.5,-355.5"/>
</a>
</g>
</g>
<!-- Node_Ja_101 -->
<g id="node3" class="node">
<title>Node_Ja_101</title>
<g id="a_node3"><a xlink:title="ChannelType">
<polygon fill="#b2df8a" stroke="transparent" points="207,-117 207,-329 338,-329 338,-117 207,-117"/>
<polygon fill="#33a02c" stroke="transparent" points="208.5,-313 208.5,-328 337.5,-328 337.5,-313 208.5,-313"/>
<text text-anchor="start" x="245.5" y="-319" font-family="Ubuntu" font-size="10.00">enum </text>
<text text-anchor="start" x="273.5" y="-319" font-family="Ubuntu" font-weight="bold" font-size="10.00">ChannelType</text>
<polygon fill="#b2df8a" stroke="transparent" points="208.5,-298 208.5,-313 320.5,-313 320.5,-298 208.5,-298"/>
<text text-anchor="start" x="210.5" y="-303" font-family="Ubuntu" font-size="10.00">GPIO</text>
<polygon fill="#b2df8a" stroke="transparent" points="320.5,-298 320.5,-313 337.5,-313 337.5,-298 320.5,-298"/>
<text text-anchor="start" x="322.5" y="-303" font-family="Ubuntu" font-size="10.00">0</text>
<polygon fill="#b2df8a" stroke="transparent" points="208.5,-283 208.5,-298 320.5,-298 320.5,-283 208.5,-283"/>
<text text-anchor="start" x="210.5" y="-288" font-family="Ubuntu" font-size="10.00">LED</text>
<polygon fill="#b2df8a" stroke="transparent" points="320.5,-283 320.5,-298 337.5,-298 337.5,-283 320.5,-283"/>
<text text-anchor="start" x="322.5" y="-288" font-family="Ubuntu" font-size="10.00">1</text>
<polygon fill="#b2df8a" stroke="transparent" points="208.5,-268 208.5,-283 320.5,-283 320.5,-268 208.5,-268"/>
<text text-anchor="start" x="210.5" y="-273" font-family="Ubuntu" font-size="10.00">RAIL_3V3</text>
<polygon fill="#b2df8a" stroke="transparent" points="320.5,-268 320.5,-283 337.5,-283 337.5,-268 320.5,-268"/>
<text text-anchor="start" x="322.5" y="-273" font-family="Ubuntu" font-size="10.00">2</text>
<polygon fill="#b2df8a" stroke="transparent" points="208.5,-253 208.5,-268 320.5,-268 320.5,-253 208.5,-253"/>
<text text-anchor="start" x="210.5" y="-258" font-family="Ubuntu" font-size="10.00">RAIL_5V</text>
<polygon fill="#b2df8a" stroke="transparent" points="320.5,-253 320.5,-268 337.5,-268 337.5,-253 320.5,-253"/>
<text text-anchor="start" x="322.5" y="-258" font-family="Ubuntu" font-size="10.00">3</text>
<polygon fill="#b2df8a" stroke="transparent" points="208.5,-238 208.5,-253 320.5,-253 320.5,-238 208.5,-238"/>
<text text-anchor="start" x="210.5" y="-243" font-family="Ubuntu" font-size="10.00">RAIL_5V5</text>
<polygon fill="#b2df8a" stroke="transparent" points="320.5,-238 320.5,-253 337.5,-253 337.5,-238 320.5,-238"/>
<text text-anchor="start" x="322.5" y="-243" font-family="Ubuntu" font-size="10.00">4</text>
<polygon fill="#b2df8a" stroke="transparent" points="208.5,-223 208.5,-238 320.5,-238 320.5,-223 208.5,-223"/>
<text text-anchor="start" x="210.5" y="-228" font-family="Ubuntu" font-size="10.00">RAIL_24V</text>
<polygon fill="#b2df8a" stroke="transparent" points="320.5,-223 320.5,-238 337.5,-238 337.5,-223 320.5,-223"/>
<text text-anchor="start" x="322.5" y="-228" font-family="Ubuntu" font-size="10.00">5</text>
<polygon fill="#b2df8a" stroke="transparent" points="208.5,-208 208.5,-223 320.5,-223 320.5,-208 208.5,-208"/>
<text text-anchor="start" x="210.5" y="-213" font-family="Ubuntu" font-size="10.00">CURRENT_LOOP</text>
<polygon fill="#b2df8a" stroke="transparent" points="320.5,-208 320.5,-223 337.5,-223 337.5,-208 320.5,-208"/>
<text text-anchor="start" x="322.5" y="-213" font-family="Ubuntu" font-size="10.00">6</text>
<polygon fill="#b2df8a" stroke="transparent" points="208.5,-193 208.5,-208 320.5,-208 320.5,-193 208.5,-193"/>
<text text-anchor="start" x="210.5" y="-198" font-family="Ubuntu" font-size="10.00">DIFFERENTIAL_SIGNAL</text>
<polygon fill="#b2df8a" stroke="transparent" points="320.5,-193 320.5,-208 337.5,-208 337.5,-193 320.5,-193"/>
<text text-anchor="start" x="322.5" y="-198" font-family="Ubuntu" font-size="10.00">7</text>
<polygon fill="#b2df8a" stroke="transparent" points="208.5,-178 208.5,-193 320.5,-193 320.5,-178 208.5,-178"/>
<text text-anchor="start" x="210.5" y="-183" font-family="Ubuntu" font-size="10.00">TC</text>
<polygon fill="#b2df8a" stroke="transparent" points="320.5,-178 320.5,-193 337.5,-193 337.5,-178 320.5,-178"/>
<text text-anchor="start" x="322.5" y="-183" font-family="Ubuntu" font-size="10.00">8</text>
<polygon fill="#b2df8a" stroke="transparent" points="208.5,-163 208.5,-178 320.5,-178 320.5,-163 208.5,-163"/>
<text text-anchor="start" x="210.5" y="-168" font-family="Ubuntu" font-size="10.00">RTD</text>
<polygon fill="#b2df8a" stroke="transparent" points="320.5,-163 320.5,-178 337.5,-178 337.5,-163 320.5,-163"/>
<text text-anchor="start" x="322.5" y="-168" font-family="Ubuntu" font-size="10.00">9</text>
<polygon fill="#b2df8a" stroke="transparent" points="208.5,-148 208.5,-163 320.5,-163 320.5,-148 208.5,-148"/>
<text text-anchor="start" x="210.5" y="-153" font-family="Ubuntu" font-size="10.00">VALVE</text>
<polygon fill="#b2df8a" stroke="transparent" points="320.5,-148 320.5,-163 337.5,-163 337.5,-148 320.5,-148"/>
<text text-anchor="start" x="322.5" y="-153" font-family="Ubuntu" font-size="10.00">10</text>
<polygon fill="#b2df8a" stroke="transparent" points="208.5,-133 208.5,-148 320.5,-148 320.5,-133 208.5,-133"/>
<text text-anchor="start" x="210.5" y="-138" font-family="Ubuntu" font-size="10.00">VALVE_CURRENT</text>
<polygon fill="#b2df8a" stroke="transparent" points="320.5,-133 320.5,-148 337.5,-148 337.5,-133 320.5,-133"/>
<text text-anchor="start" x="322.5" y="-138" font-family="Ubuntu" font-size="10.00">11</text>
<polygon fill="#b2df8a" stroke="transparent" points="208.5,-118 208.5,-133 320.5,-133 320.5,-118 208.5,-118"/>
<text text-anchor="start" x="210.5" y="-123" font-family="Ubuntu" font-size="10.00">VALVE_VOLTAGE</text>
<polygon fill="#b2df8a" stroke="transparent" points="320.5,-118 320.5,-133 337.5,-133 337.5,-118 320.5,-118"/>
<text text-anchor="start" x="322.5" y="-123" font-family="Ubuntu" font-size="10.00">12</text>
<polygon fill="none" stroke="black" points="207,-117 207,-329 338,-329 338,-117 207,-117"/>
</a>
</g>
</g>
<!-- Node_Ja_102 -->
<g id="node4" class="node">
<title>Node_Ja_102</title>
<g id="a_node4"><a xlink:title="ValveState">
<polygon fill="#b2df8a" stroke="transparent" points="227.5,-43.5 227.5,-90.5 317.5,-90.5 317.5,-43.5 227.5,-43.5"/>
<polygon fill="#33a02c" stroke="transparent" points="228.5,-74 228.5,-89 316.5,-89 316.5,-74 228.5,-74"/>
<text text-anchor="start" x="233.5" y="-80" font-family="Ubuntu" font-size="10.00">enum </text>
<text text-anchor="start" x="261.5" y="-80" font-family="Ubuntu" font-weight="bold" font-size="10.00">ValveState</text>
<polygon fill="#b2df8a" stroke="transparent" points="228.5,-59 228.5,-74 305.5,-74 305.5,-59 228.5,-59"/>
<text text-anchor="start" x="230.5" y="-64" font-family="Ubuntu" font-size="10.00">VALVE_OPEN</text>
<polygon fill="#b2df8a" stroke="transparent" points="305.5,-59 305.5,-74 316.5,-74 316.5,-59 305.5,-59"/>
<text text-anchor="start" x="307.5" y="-64" font-family="Ubuntu" font-size="10.00">0</text>
<polygon fill="#b2df8a" stroke="transparent" points="228.5,-44 228.5,-59 305.5,-59 305.5,-44 228.5,-44"/>
<text text-anchor="start" x="230.5" y="-49" font-family="Ubuntu" font-size="10.00">VALVE_CLOSED</text>
<polygon fill="#b2df8a" stroke="transparent" points="305.5,-44 305.5,-59 316.5,-59 316.5,-44 305.5,-44"/>
<text text-anchor="start" x="307.5" y="-49" font-family="Ubuntu" font-size="10.00">1</text>
<polygon fill="none" stroke="black" points="227.5,-43.5 227.5,-90.5 317.5,-90.5 317.5,-43.5 227.5,-43.5"/>
</a>
</g>
</g>
<!-- Node_Ja_100 -->
<g id="node5" class="node">
<title>Node_Ja_100</title>
<g id="a_node5"><a xlink:title="mcfs.board.ChannelIdentifier">
<polygon fill="#fffaf0" stroke="transparent" points="8,-200 8,-262 155,-262 155,-200 8,-200"/>
<polygon fill="#e31a1c" stroke="transparent" points="9.5,-246 9.5,-261 154.5,-261 154.5,-246 9.5,-246"/>
<text text-anchor="start" x="67.5" y="-252" font-family="Ubuntu" font-weight="bold" font-size="10.00">ChannelIdentifier</text>
<text text-anchor="start" x="15.5" y="-236" font-family="Ubuntu" font-size="10.00">1</text>
<text text-anchor="start" x="26.5" y="-236" font-family="Ubuntu" font-size="10.00">board_id</text>
<polygon fill="#a6cee3" stroke="transparent" points="90.5,-231 90.5,-246 154.5,-246 154.5,-231 90.5,-231"/>
<text text-anchor="start" x="123.5" y="-237" font-family="Ubuntu" font-style="italic" font-size="10.00">uint32</text>
<text text-anchor="start" x="15.5" y="-221" font-family="Ubuntu" font-size="10.00">2</text>
<text text-anchor="start" x="26.5" y="-221" font-family="Ubuntu" font-size="10.00">channel_type</text>
<polygon fill="#b2df8a" stroke="transparent" points="90.5,-216 90.5,-231 154.5,-231 154.5,-216 90.5,-216"/>
<text text-anchor="start" x="92.5" y="-222" font-family="Ubuntu" text-decoration="underline" font-size="10.00">ChannelType</text>
<text text-anchor="start" x="15.5" y="-206" font-family="Ubuntu" font-size="10.00">3</text>
<text text-anchor="start" x="26.5" y="-206" font-family="Ubuntu" font-size="10.00">channel</text>
<polygon fill="#a6cee3" stroke="transparent" points="90.5,-201 90.5,-216 154.5,-216 154.5,-201 90.5,-201"/>
<text text-anchor="start" x="123.5" y="-207" font-family="Ubuntu" font-style="italic" font-size="10.00">uint32</text>
<polygon fill="none" stroke="black" points="8,-200 8,-262 155,-262 155,-200 8,-200"/>
</a>
</g>
</g>
<!-- Node_Ja_100&#45;&gt;Node_Ja_101 -->
<g id="edge1" class="edge">
<title>Node_Ja_100:e&#45;&gt;Node_Ja_101</title>
<g id="a_edge1"><a xlink:title="Ja_100 &#45;&#45;&gt; Ja_101">
<path fill="none" stroke="#008000" d="M155.5,-223C166.22,-223 177.49,-223 188.62,-223"/>
<polygon fill="#008000" stroke="#008000" points="188.79,-226.5 198.79,-223 188.79,-219.5 188.79,-226.5"/>
</a>
</g>
</g>
</g>
</svg>
