<?xml version="1.0" encoding="UTF-8" standalone="no"?>
<!DOCTYPE svg PUBLIC "-//W3C//DTD SVG 1.1//EN"
 "http://www.w3.org/Graphics/SVG/1.1/DTD/svg11.dtd">
<!-- Generated by graphviz version 2.43.0 (0)
 -->
<!-- Title: protodot Pages: 1 -->
<svg width="788pt" height="557pt"
 viewBox="0.00 0.00 788.00 557.00" xmlns="http://www.w3.org/2000/svg" xmlns:xlink="http://www.w3.org/1999/xlink">
<g id="graph0" class="graph" transform="scale(1 1) rotate(0) translate(4 553)">
<title>protodot</title>
<g id="a_graph0"><a xlink:title="mcfs.command">
<text text-anchor="middle" x="390" y="-7.8" font-family="Times,serif" font-size="14.00">mcfs.command</text>
</a>
</g>
<g id="clust1" class="cluster">
<title>cluster_d12fc5b0b749</title>
<g id="a_clust1"><a xlink:title="board.proto">
<polygon fill="#caff70" stroke="black" points="410,-291 410,-400 589,-400 589,-291 410,-291"/>
<text text-anchor="middle" x="499.5" y="-384.8" font-family="Times,serif" font-size="14.00">board.proto</text>
</a>
</g>
</g>
<g id="clust2" class="cluster">
<title>cluster_4a45dd18e682</title>
<g id="a_clust2"><a xlink:title="mcfs.board">
<polygon fill="#caff70" stroke="black" points="609,-31 609,-541 772,-541 772,-31 609,-31"/>
<text text-anchor="middle" x="690.5" y="-525.8" font-family="Times,serif" font-size="14.00">mcfs.board</text>
</a>
</g>
</g>
<!-- Node_Ja_106 -->
<g id="node1" class="node">
<title>Node_Ja_106</title>
<g id="a_node1"><a xlink:title="mcfs.command.ClickValve">
<polygon fill="#fffaf0" stroke="transparent" points="185,-335.5 185,-382.5 374,-382.5 374,-335.5 185,-335.5"/>
<polygon fill="#e31a1c" stroke="transparent" points="186.5,-366 186.5,-381 373.5,-381 373.5,-366 186.5,-366"/>
<text text-anchor="start" x="320.5" y="-372" font-family="Ubuntu" font-weight="bold" font-size="10.00">ClickValve</text>
<text text-anchor="start" x="192.5" y="-356" font-family="Ubuntu" font-size="10.00">1</text>
<text text-anchor="start" x="203.5" y="-356" font-family="Ubuntu" font-size="10.00">valve</text>
<polygon fill="#fb9a99" stroke="transparent" points="230.5,-351 230.5,-366 373.5,-366 373.5,-351 230.5,-351"/>
<text text-anchor="start" x="232.5" y="-357" font-family="Ubuntu" font-weight="bold" font-size="10.00">mcfs.board.ChannelIdentifier</text>
<text text-anchor="start" x="192.5" y="-341" font-family="Ubuntu" font-size="10.00">2</text>
<text text-anchor="start" x="203.5" y="-341" font-family="Ubuntu" font-size="10.00">state</text>
<polygon fill="#b2df8a" stroke="transparent" points="230.5,-336 230.5,-351 373.5,-351 373.5,-336 230.5,-336"/>
<text text-anchor="start" x="271.5" y="-342" font-family="Ubuntu" text-decoration="underline" font-size="10.00">mcfs.board.ValveState</text>
<polygon fill="none" stroke="black" points="185,-335.5 185,-382.5 374,-382.5 374,-335.5 185,-335.5"/>
</a>
</g>
</g>
<!-- Node_Ja_100 -->
<g id="node4" class="node">
<title>Node_Ja_100</title>
<g id="a_node4"><a xlink:title="mcfs.board.ChannelIdentifier">
<polygon fill="#fffaf0" stroke="transparent" points="426,-303 426,-365 573,-365 573,-303 426,-303"/>
<polygon fill="#e31a1c" stroke="transparent" points="427.5,-349 427.5,-364 572.5,-364 572.5,-349 427.5,-349"/>
<text text-anchor="start" x="485.5" y="-355" font-family="Ubuntu" font-weight="bold" font-size="10.00">ChannelIdentifier</text>
<text text-anchor="start" x="433.5" y="-339" font-family="Ubuntu" font-size="10.00">1</text>
<text text-anchor="start" x="444.5" y="-339" font-family="Ubuntu" font-size="10.00">board_id</text>
<polygon fill="#a6cee3" stroke="transparent" points="508.5,-334 508.5,-349 572.5,-349 572.5,-334 508.5,-334"/>
<text text-anchor="start" x="541.5" y="-340" font-family="Ubuntu" font-style="italic" font-size="10.00">uint32</text>
<text text-anchor="start" x="433.5" y="-324" font-family="Ubuntu" font-size="10.00">2</text>
<text text-anchor="start" x="444.5" y="-324" font-family="Ubuntu" font-size="10.00">channel_type</text>
<polygon fill="#b2df8a" stroke="transparent" points="508.5,-319 508.5,-334 572.5,-334 572.5,-319 508.5,-319"/>
<text text-anchor="start" x="510.5" y="-325" font-family="Ubuntu" text-decoration="underline" font-size="10.00">ChannelType</text>
<text text-anchor="start" x="433.5" y="-309" font-family="Ubuntu" font-size="10.00">3</text>
<text text-anchor="start" x="444.5" y="-309" font-family="Ubuntu" font-size="10.00">channel</text>
<polygon fill="#a6cee3" stroke="transparent" points="508.5,-304 508.5,-319 572.5,-319 572.5,-304 508.5,-304"/>
<text text-anchor="start" x="541.5" y="-310" font-family="Ubuntu" font-style="italic" font-size="10.00">uint32</text>
<polygon fill="none" stroke="black" points="426,-303 426,-365 573,-365 573,-303 426,-303"/>
</a>
</g>
</g>
<!-- Node_Ja_106&#45;&gt;Node_Ja_100 -->
<g id="edge1" class="edge">
<title>Node_Ja_106:e&#45;&gt;Node_Ja_100:header</title>
<g id="a_edge1"><a xlink:title="Ja_106 &#45;&#45;&gt; Ja_100">
<path fill="none" stroke="#000000" d="M374.5,-358C393.82,-358 401.02,-357.3 416.37,-357.07"/>
<polygon fill="#000000" stroke="#000000" points="416.53,-360.57 426.5,-357 416.48,-353.57 416.53,-360.57"/>
</a>
</g>
</g>
<!-- Node_Ja_102 -->
<g id="node6" class="node">
<title>Node_Ja_102</title>
<g id="a_node6"><a xlink:title="ValveState">
<polygon fill="#b2df8a" stroke="transparent" points="645.5,-458.5 645.5,-505.5 735.5,-505.5 735.5,-458.5 645.5,-458.5"/>
<polygon fill="#33a02c" stroke="transparent" points="646.5,-489 646.5,-504 734.5,-504 734.5,-489 646.5,-489"/>
<text text-anchor="start" x="651.5" y="-495" font-family="Ubuntu" font-size="10.00">enum </text>
<text text-anchor="start" x="679.5" y="-495" font-family="Ubuntu" font-weight="bold" font-size="10.00">ValveState</text>
<polygon fill="#b2df8a" stroke="transparent" points="646.5,-474 646.5,-489 723.5,-489 723.5,-474 646.5,-474"/>
<text text-anchor="start" x="648.5" y="-479" font-family="Ubuntu" font-size="10.00">VALVE_OPEN</text>
<polygon fill="#b2df8a" stroke="transparent" points="723.5,-474 723.5,-489 734.5,-489 734.5,-474 723.5,-474"/>
<text text-anchor="start" x="725.5" y="-479" font-family="Ubuntu" font-size="10.00">0</text>
<polygon fill="#b2df8a" stroke="transparent" points="646.5,-459 646.5,-474 723.5,-474 723.5,-459 646.5,-459"/>
<text text-anchor="start" x="648.5" y="-464" font-family="Ubuntu" font-size="10.00">VALVE_CLOSED</text>
<polygon fill="#b2df8a" stroke="transparent" points="723.5,-459 723.5,-474 734.5,-474 734.5,-459 723.5,-459"/>
<text text-anchor="start" x="725.5" y="-464" font-family="Ubuntu" font-size="10.00">1</text>
<polygon fill="none" stroke="black" points="645.5,-458.5 645.5,-505.5 735.5,-505.5 735.5,-458.5 645.5,-458.5"/>
</a>
</g>
</g>
<!-- Node_Ja_106&#45;&gt;Node_Ja_102 -->
<g id="edge2" class="edge">
<title>Node_Ja_106:e&#45;&gt;Node_Ja_102</title>
<g id="a_edge2"><a xlink:title="Ja_106 &#45;&#45;&gt; Ja_102">
<path fill="none" stroke="#008000" d="M374.5,-343C405.87,-343 385.18,-384.82 410,-404 473.49,-453.07 566.18,-471.27 627.15,-478.02"/>
<polygon fill="#008000" stroke="#008000" points="627.1,-481.54 637.4,-479.08 627.82,-474.57 627.1,-481.54"/>
</a>
</g>
</g>
<!-- Node_Ja_107 -->
<g id="node2" class="node">
<title>Node_Ja_107</title>
<g id="a_node2"><a xlink:title="mcfs.command.SetLED">
<polygon fill="#fffaf0" stroke="transparent" points="186,-262.5 186,-309.5 373,-309.5 373,-262.5 186,-262.5"/>
<polygon fill="#e31a1c" stroke="transparent" points="187.5,-293 187.5,-308 372.5,-308 372.5,-293 187.5,-293"/>
<text text-anchor="start" x="333.5" y="-299" font-family="Ubuntu" font-weight="bold" font-size="10.00">SetLED</text>
<text text-anchor="start" x="193.5" y="-283" font-family="Ubuntu" font-size="10.00">1</text>
<text text-anchor="start" x="204.5" y="-283" font-family="Ubuntu" font-size="10.00">led</text>
<polygon fill="#fb9a99" stroke="transparent" points="229.5,-278 229.5,-293 372.5,-293 372.5,-278 229.5,-278"/>
<text text-anchor="start" x="231.5" y="-284" font-family="Ubuntu" font-weight="bold" font-size="10.00">mcfs.board.ChannelIdentifier</text>
<text text-anchor="start" x="193.5" y="-268" font-family="Ubuntu" font-size="10.00">2</text>
<text text-anchor="start" x="204.5" y="-268" font-family="Ubuntu" font-size="10.00">state</text>
<polygon fill="#b2df8a" stroke="transparent" points="229.5,-263 229.5,-278 372.5,-278 372.5,-263 229.5,-263"/>
<text text-anchor="start" x="276.5" y="-269" font-family="Ubuntu" text-decoration="underline" font-size="10.00">mcfs.board.LEDState</text>
<polygon fill="none" stroke="black" points="186,-262.5 186,-309.5 373,-309.5 373,-262.5 186,-262.5"/>
</a>
</g>
</g>
<!-- Node_Ja_107&#45;&gt;Node_Ja_100 -->
<g id="edge3" class="edge">
<title>Node_Ja_107:e&#45;&gt;Node_Ja_100:header</title>
<g id="a_edge3"><a xlink:title="Ja_107 &#45;&#45;&gt; Ja_100">
<path fill="none" stroke="#000000" d="M373.5,-285C409.35,-285 391.3,-343.62 416.63,-355.07"/>
<polygon fill="#000000" stroke="#000000" points="416.01,-358.52 426.5,-357 417.36,-351.65 416.01,-358.52"/>
</a>
</g>
</g>
<!-- Node_Ja_103 -->
<g id="node7" class="node">
<title>Node_Ja_103</title>
<g id="a_node7"><a xlink:title="LEDState">
<polygon fill="#b2df8a" stroke="transparent" points="650.5,-146.5 650.5,-193.5 730.5,-193.5 730.5,-146.5 650.5,-146.5"/>
<polygon fill="#33a02c" stroke="transparent" points="651.5,-177 651.5,-192 729.5,-192 729.5,-177 651.5,-177"/>
<text text-anchor="start" x="653.5" y="-183" font-family="Ubuntu" font-size="10.00">enum </text>
<text text-anchor="start" x="681.5" y="-183" font-family="Ubuntu" font-weight="bold" font-size="10.00">LEDState</text>
<polygon fill="#b2df8a" stroke="transparent" points="651.5,-162 651.5,-177 708.5,-177 708.5,-162 651.5,-162"/>
<text text-anchor="start" x="653.5" y="-167" font-family="Ubuntu" font-size="10.00">LED_OFF</text>
<polygon fill="#b2df8a" stroke="transparent" points="708.5,-162 708.5,-177 729.5,-177 729.5,-162 708.5,-162"/>
<text text-anchor="start" x="710.5" y="-167" font-family="Ubuntu" font-size="10.00">0</text>
<polygon fill="#b2df8a" stroke="transparent" points="651.5,-147 651.5,-162 708.5,-162 708.5,-147 651.5,-147"/>
<text text-anchor="start" x="653.5" y="-152" font-family="Ubuntu" font-size="10.00">LED_ON</text>
<polygon fill="#b2df8a" stroke="transparent" points="708.5,-147 708.5,-162 729.5,-162 729.5,-147 708.5,-147"/>
<text text-anchor="start" x="710.5" y="-152" font-family="Ubuntu" font-size="10.00">1</text>
<polygon fill="none" stroke="black" points="650.5,-146.5 650.5,-193.5 730.5,-193.5 730.5,-146.5 650.5,-146.5"/>
</a>
</g>
</g>
<!-- Node_Ja_107&#45;&gt;Node_Ja_103 -->
<g id="edge4" class="edge">
<title>Node_Ja_107:e&#45;&gt;Node_Ja_103</title>
<g id="a_edge4"><a xlink:title="Ja_107 &#45;&#45;&gt; Ja_103">
<path fill="none" stroke="#008000" d="M373.5,-270C424.54,-270 556.6,-221.97 632.88,-192.49"/>
<polygon fill="#008000" stroke="#008000" points="634.29,-195.69 642.35,-188.81 631.76,-189.17 634.29,-195.69"/>
</a>
</g>
</g>
<!-- Node_Ja_105 -->
<g id="node3" class="node">
<title>Node_Ja_105</title>
<g id="a_node3"><a xlink:title="mcfs.command.Command">
<polygon fill="#fffaf0" stroke="transparent" points="8,-318 8,-384 133,-384 133,-318 8,-318"/>
<polygon fill="#e31a1c" stroke="transparent" points="9.5,-368 9.5,-383 132.5,-383 132.5,-368 9.5,-368"/>
<text text-anchor="start" x="84.5" y="-374" font-family="Ubuntu" font-weight="bold" font-size="10.00">Command</text>
<polygon fill="#fdbf6f" stroke="transparent" points="9.5,-353 9.5,-368 132.5,-368 132.5,-353 9.5,-353"/>
<text text-anchor="start" x="11.5" y="-358" font-family="Ubuntu" font-size="10.00">command</text>
<polygon fill="#fdbf6f" stroke="transparent" points="9.5,-338 9.5,-353 13.5,-353 13.5,-338 9.5,-338"/>
<text text-anchor="start" x="15.5" y="-343" font-family="Ubuntu" font-size="10.00">1</text>
<text text-anchor="start" x="26.5" y="-343" font-family="Ubuntu" font-size="10.00">click_valve</text>
<polygon fill="#fb9a99" stroke="transparent" points="77.5,-338 77.5,-353 132.5,-353 132.5,-338 77.5,-338"/>
<text text-anchor="start" x="79.5" y="-344" font-family="Ubuntu" font-weight="bold" font-size="10.00">ClickValve</text>
<polygon fill="#fdbf6f" stroke="transparent" points="9.5,-323 9.5,-338 13.5,-338 13.5,-323 9.5,-323"/>
<text text-anchor="start" x="15.5" y="-328" font-family="Ubuntu" font-size="10.00">2</text>
<text text-anchor="start" x="26.5" y="-328" font-family="Ubuntu" font-size="10.00">set_led</text>
<polygon fill="#fb9a99" stroke="transparent" points="77.5,-323 77.5,-338 132.5,-338 132.5,-323 77.5,-323"/>
<text text-anchor="start" x="93.5" y="-329" font-family="Ubuntu" font-weight="bold" font-size="10.00">SetLED</text>
<polygon fill="#fdbf6f" stroke="transparent" points="9.5,-319 9.5,-323 132.5,-323 132.5,-319 9.5,-319"/>
<polygon fill="none" stroke="black" points="8,-318 8,-384 133,-384 133,-318 8,-318"/>
</a>
</g>
</g>
<!-- Node_Ja_105&#45;&gt;Node_Ja_106 -->
<g id="edge6" class="edge">
<title>Node_Ja_105:e&#45;&gt;Node_Ja_106:header</title>
<g id="a_edge6"><a xlink:title="Ja_105 &#45;&#45;&gt; Ja_106">
<path fill="none" stroke="#000000" d="M133.5,-345C156.03,-345 158.71,-366.03 175.35,-372.27"/>
<polygon fill="#000000" stroke="#000000" points="175.05,-375.77 185.5,-374 176.23,-368.87 175.05,-375.77"/>
</a>
</g>
</g>
<!-- Node_Ja_105&#45;&gt;Node_Ja_107 -->
<g id="edge7" class="edge">
<title>Node_Ja_105:e&#45;&gt;Node_Ja_107:header</title>
<g id="a_edge7"><a xlink:title="Ja_105 &#45;&#45;&gt; Ja_107">
<path fill="none" stroke="#000000" d="M133.5,-330C156.37,-330 159.25,-308.97 176.18,-302.73"/>
<polygon fill="#000000" stroke="#000000" points="177.22,-306.1 186.5,-301 176.06,-299.2 177.22,-306.1"/>
</a>
</g>
</g>
<!-- Node_Ja_101 -->
<g id="node5" class="node">
<title>Node_Ja_101</title>
<g id="a_node5"><a xlink:title="ChannelType">
<polygon fill="#b2df8a" stroke="transparent" points="625,-220 625,-432 756,-432 756,-220 625,-220"/>
<polygon fill="#33a02c" stroke="transparent" points="626.5,-416 626.5,-431 755.5,-431 755.5,-416 626.5,-416"/>
<text text-anchor="start" x="663.5" y="-422" font-family="Ubuntu" font-size="10.00">enum </text>
<text text-anchor="start" x="691.5" y="-422" font-family="Ubuntu" font-weight="bold" font-size="10.00">ChannelType</text>
<polygon fill="#b2df8a" stroke="transparent" points="626.5,-401 626.5,-416 738.5,-416 738.5,-401 626.5,-401"/>
<text text-anchor="start" x="628.5" y="-406" font-family="Ubuntu" font-size="10.00">GPIO</text>
<polygon fill="#b2df8a" stroke="transparent" points="738.5,-401 738.5,-416 755.5,-416 755.5,-401 738.5,-401"/>
<text text-anchor="start" x="740.5" y="-406" font-family="Ubuntu" font-size="10.00">0</text>
<polygon fill="#b2df8a" stroke="transparent" points="626.5,-386 626.5,-401 738.5,-401 738.5,-386 626.5,-386"/>
<text text-anchor="start" x="628.5" y="-391" font-family="Ubuntu" font-size="10.00">LED</text>
<polygon fill="#b2df8a" stroke="transparent" points="738.5,-386 738.5,-401 755.5,-401 755.5,-386 738.5,-386"/>
<text text-anchor="start" x="740.5" y="-391" font-family="Ubuntu" font-size="10.00">1</text>
<polygon fill="#b2df8a" stroke="transparent" points="626.5,-371 626.5,-386 738.5,-386 738.5,-371 626.5,-371"/>
<text text-anchor="start" x="628.5" y="-376" font-family="Ubuntu" font-size="10.00">RAIL_3V3</text>
<polygon fill="#b2df8a" stroke="transparent" points="738.5,-371 738.5,-386 755.5,-386 755.5,-371 738.5,-371"/>
<text text-anchor="start" x="740.5" y="-376" font-family="Ubuntu" font-size="10.00">2</text>
<polygon fill="#b2df8a" stroke="transparent" points="626.5,-356 626.5,-371 738.5,-371 738.5,-356 626.5,-356"/>
<text text-anchor="start" x="628.5" y="-361" font-family="Ubuntu" font-size="10.00">RAIL_5V</text>
<polygon fill="#b2df8a" stroke="transparent" points="738.5,-356 738.5,-371 755.5,-371 755.5,-356 738.5,-356"/>
<text text-anchor="start" x="740.5" y="-361" font-family="Ubuntu" font-size="10.00">3</text>
<polygon fill="#b2df8a" stroke="transparent" points="626.5,-341 626.5,-356 738.5,-356 738.5,-341 626.5,-341"/>
<text text-anchor="start" x="628.5" y="-346" font-family="Ubuntu" font-size="10.00">RAIL_5V5</text>
<polygon fill="#b2df8a" stroke="transparent" points="738.5,-341 738.5,-356 755.5,-356 755.5,-341 738.5,-341"/>
<text text-anchor="start" x="740.5" y="-346" font-family="Ubuntu" font-size="10.00">4</text>
<polygon fill="#b2df8a" stroke="transparent" points="626.5,-326 626.5,-341 738.5,-341 738.5,-326 626.5,-326"/>
<text text-anchor="start" x="628.5" y="-331" font-family="Ubuntu" font-size="10.00">RAIL_24V</text>
<polygon fill="#b2df8a" stroke="transparent" points="738.5,-326 738.5,-341 755.5,-341 755.5,-326 738.5,-326"/>
<text text-anchor="start" x="740.5" y="-331" font-family="Ubuntu" font-size="10.00">5</text>
<polygon fill="#b2df8a" stroke="transparent" points="626.5,-311 626.5,-326 738.5,-326 738.5,-311 626.5,-311"/>
<text text-anchor="start" x="628.5" y="-316" font-family="Ubuntu" font-size="10.00">CURRENT_LOOP</text>
<polygon fill="#b2df8a" stroke="transparent" points="738.5,-311 738.5,-326 755.5,-326 755.5,-311 738.5,-311"/>
<text text-anchor="start" x="740.5" y="-316" font-family="Ubuntu" font-size="10.00">6</text>
<polygon fill="#b2df8a" stroke="transparent" points="626.5,-296 626.5,-311 738.5,-311 738.5,-296 626.5,-296"/>
<text text-anchor="start" x="628.5" y="-301" font-family="Ubuntu" font-size="10.00">DIFFERENTIAL_SIGNAL</text>
<polygon fill="#b2df8a" stroke="transparent" points="738.5,-296 738.5,-311 755.5,-311 755.5,-296 738.5,-296"/>
<text text-anchor="start" x="740.5" y="-301" font-family="Ubuntu" font-size="10.00">7</text>
<polygon fill="#b2df8a" stroke="transparent" points="626.5,-281 626.5,-296 738.5,-296 738.5,-281 626.5,-281"/>
<text text-anchor="start" x="628.5" y="-286" font-family="Ubuntu" font-size="10.00">TC</text>
<polygon fill="#b2df8a" stroke="transparent" points="738.5,-281 738.5,-296 755.5,-296 755.5,-281 738.5,-281"/>
<text text-anchor="start" x="740.5" y="-286" font-family="Ubuntu" font-size="10.00">8</text>
<polygon fill="#b2df8a" stroke="transparent" points="626.5,-266 626.5,-281 738.5,-281 738.5,-266 626.5,-266"/>
<text text-anchor="start" x="628.5" y="-271" font-family="Ubuntu" font-size="10.00">RTD</text>
<polygon fill="#b2df8a" stroke="transparent" points="738.5,-266 738.5,-281 755.5,-281 755.5,-266 738.5,-266"/>
<text text-anchor="start" x="740.5" y="-271" font-family="Ubuntu" font-size="10.00">9</text>
<polygon fill="#b2df8a" stroke="transparent" points="626.5,-251 626.5,-266 738.5,-266 738.5,-251 626.5,-251"/>
<text text-anchor="start" x="628.5" y="-256" font-family="Ubuntu" font-size="10.00">VALVE</text>
<polygon fill="#b2df8a" stroke="transparent" points="738.5,-251 738.5,-266 755.5,-266 755.5,-251 738.5,-251"/>
<text text-anchor="start" x="740.5" y="-256" font-family="Ubuntu" font-size="10.00">10</text>
<polygon fill="#b2df8a" stroke="transparent" points="626.5,-236 626.5,-251 738.5,-251 738.5,-236 626.5,-236"/>
<text text-anchor="start" x="628.5" y="-241" font-family="Ubuntu" font-size="10.00">VALVE_CURRENT</text>
<polygon fill="#b2df8a" stroke="transparent" points="738.5,-236 738.5,-251 755.5,-251 755.5,-236 738.5,-236"/>
<text text-anchor="start" x="740.5" y="-241" font-family="Ubuntu" font-size="10.00">11</text>
<polygon fill="#b2df8a" stroke="transparent" points="626.5,-221 626.5,-236 738.5,-236 738.5,-221 626.5,-221"/>
<text text-anchor="start" x="628.5" y="-226" font-family="Ubuntu" font-size="10.00">VALVE_VOLTAGE</text>
<polygon fill="#b2df8a" stroke="transparent" points="738.5,-221 738.5,-236 755.5,-236 755.5,-221 738.5,-221"/>
<text text-anchor="start" x="740.5" y="-226" font-family="Ubuntu" font-size="10.00">12</text>
<polygon fill="none" stroke="black" points="625,-220 625,-432 756,-432 756,-220 625,-220"/>
</a>
</g>
</g>
<!-- Node_Ja_100&#45;&gt;Node_Ja_101 -->
<g id="edge5" class="edge">
<title>Node_Ja_100:e&#45;&gt;Node_Ja_101</title>
<g id="a_edge5"><a xlink:title="Ja_100 &#45;&#45;&gt; Ja_101">
<path fill="none" stroke="#008000" d="M573.5,-326C584.22,-326 595.49,-326 606.62,-326"/>
<polygon fill="#008000" stroke="#008000" points="606.79,-329.5 616.79,-326 606.79,-322.5 606.79,-329.5"/>
</a>
</g>
</g>
<!-- Node_Ja_104 -->
<g id="node8" class="node">
<title>Node_Ja_104</title>
<g id="a_node8"><a xlink:title="BoardType">
<polygon fill="#b2df8a" stroke="transparent" points="631.5,-43.5 631.5,-120.5 749.5,-120.5 749.5,-43.5 631.5,-43.5"/>
<polygon fill="#33a02c" stroke="transparent" points="632.5,-104 632.5,-119 748.5,-119 748.5,-104 632.5,-104"/>
<text text-anchor="start" x="667.5" y="-110" font-family="Ubuntu" font-size="10.00">enum </text>
<text text-anchor="start" x="695.5" y="-110" font-family="Ubuntu" font-weight="bold" font-size="10.00">BoardType</text>
<polygon fill="#b2df8a" stroke="transparent" points="632.5,-89 632.5,-104 737.5,-104 737.5,-89 632.5,-89"/>
<text text-anchor="start" x="634.5" y="-94" font-family="Ubuntu" font-size="10.00">SERVER</text>
<polygon fill="#b2df8a" stroke="transparent" points="737.5,-89 737.5,-104 748.5,-104 748.5,-89 737.5,-89"/>
<text text-anchor="start" x="739.5" y="-94" font-family="Ubuntu" font-size="10.00">0</text>
<polygon fill="#b2df8a" stroke="transparent" points="632.5,-74 632.5,-89 737.5,-89 737.5,-74 632.5,-74"/>
<text text-anchor="start" x="634.5" y="-79" font-family="Ubuntu" font-size="10.00">FLIGHT_COMPUTER</text>
<polygon fill="#b2df8a" stroke="transparent" points="737.5,-74 737.5,-89 748.5,-89 748.5,-74 737.5,-74"/>
<text text-anchor="start" x="739.5" y="-79" font-family="Ubuntu" font-size="10.00">1</text>
<polygon fill="#b2df8a" stroke="transparent" points="632.5,-59 632.5,-74 737.5,-74 737.5,-59 632.5,-59"/>
<text text-anchor="start" x="634.5" y="-64" font-family="Ubuntu" font-size="10.00">GROUND_COMPUTER</text>
<polygon fill="#b2df8a" stroke="transparent" points="737.5,-59 737.5,-74 748.5,-74 748.5,-59 737.5,-59"/>
<text text-anchor="start" x="739.5" y="-64" font-family="Ubuntu" font-size="10.00">2</text>
<polygon fill="#b2df8a" stroke="transparent" points="632.5,-44 632.5,-59 737.5,-59 737.5,-44 632.5,-44"/>
<text text-anchor="start" x="634.5" y="-49" font-family="Ubuntu" font-size="10.00">SAM</text>
<polygon fill="#b2df8a" stroke="transparent" points="737.5,-44 737.5,-59 748.5,-59 748.5,-44 737.5,-44"/>
<text text-anchor="start" x="739.5" y="-49" font-family="Ubuntu" font-size="10.00">3</text>
<polygon fill="none" stroke="black" points="631.5,-43.5 631.5,-120.5 749.5,-120.5 749.5,-43.5 631.5,-43.5"/>
</a>
</g>
</g>
</g>
</svg>
