<?xml version="1.0" encoding="UTF-8" standalone="no"?>
<!DOCTYPE svg PUBLIC "-//W3C//DTD SVG 1.1//EN"
 "http://www.w3.org/Graphics/SVG/1.1/DTD/svg11.dtd">
<!-- Generated by graphviz version 2.43.0 (0)
 -->
<!-- Title: protodot Pages: 1 -->
<svg width="179pt" height="172pt"
 viewBox="0.00 0.00 179.00 172.00" xmlns="http://www.w3.org/2000/svg" xmlns:xlink="http://www.w3.org/1999/xlink">
<g id="graph0" class="graph" transform="scale(1 1) rotate(0) translate(4 168)">
<title>protodot</title>
<g id="a_graph0"><a xlink:title="mcfs.common">
<text text-anchor="middle" x="85.5" y="-7.8" font-family="Times,serif" font-size="14.00">mcfs.common</text>
</a>
</g>
<g id="clust1" class="cluster">
<title>cluster_60945c2a214e</title>
<g id="a_clust1"><a xlink:title="mcfs.common">
<polygon fill="#caff70" stroke="black" points="8,-31 8,-156 163,-156 163,-31 8,-31"/>
<text text-anchor="middle" x="85.5" y="-140.8" font-family="Times,serif" font-size="14.00">mcfs.common</text>
</a>
</g>
</g>
<!-- Node_Ja_100 -->
<g id="node1" class="node">
<title>Node_Ja_100</title>
<g id="a_node1"><a xlink:title="LogLevel">
<polygon fill="#b2df8a" stroke="transparent" points="24,-43.5 24,-120.5 147,-120.5 147,-43.5 24,-43.5"/>
<polygon fill="#33a02c" stroke="transparent" points="25.5,-104 25.5,-119 146.5,-119 146.5,-104 25.5,-104"/>
<text text-anchor="start" x="71.5" y="-110" font-family="Ubuntu" font-size="10.00">enum </text>
<text text-anchor="start" x="99.5" y="-110" font-family="Ubuntu" font-weight="bold" font-size="10.00">LogLevel</text>
<polygon fill="#b2df8a" stroke="transparent" points="25.5,-89 25.5,-104 135.5,-104 135.5,-89 25.5,-89"/>
<text text-anchor="start" x="27.5" y="-94" font-family="Ubuntu" font-size="10.00">LOG_LEVEL_DATA</text>
<polygon fill="#b2df8a" stroke="transparent" points="135.5,-89 135.5,-104 146.5,-104 146.5,-89 135.5,-89"/>
<text text-anchor="start" x="137.5" y="-94" font-family="Ubuntu" font-size="10.00">0</text>
<polygon fill="#b2df8a" stroke="transparent" points="25.5,-74 25.5,-89 135.5,-89 135.5,-74 25.5,-74"/>
<text text-anchor="start" x="27.5" y="-79" font-family="Ubuntu" font-size="10.00">LOG_LEVEL_DEBUG</text>
<polygon fill="#b2df8a" stroke="transparent" points="135.5,-74 135.5,-89 146.5,-89 146.5,-74 135.5,-74"/>
<text text-anchor="start" x="137.5" y="-79" font-family="Ubuntu" font-size="10.00">1</text>
<polygon fill="#b2df8a" stroke="transparent" points="25.5,-59 25.5,-74 135.5,-74 135.5,-59 25.5,-59"/>
<text text-anchor="start" x="27.5" y="-64" font-family="Ubuntu" font-size="10.00">LOG_LEVEL_WARNING</text>
<polygon fill="#b2df8a" stroke="transparent" points="135.5,-59 135.5,-74 146.5,-74 146.5,-59 135.5,-59"/>
<text text-anchor="start" x="137.5" y="-64" font-family="Ubuntu" font-size="10.00">2</text>
<polygon fill="#b2df8a" stroke="transparent" points="25.5,-44 25.5,-59 135.5,-59 135.5,-44 25.5,-44"/>
<text text-anchor="start" x="27.5" y="-49" font-family="Ubuntu" font-size="10.00">LOG_LEVEL_ERROR</text>
<polygon fill="#b2df8a" stroke="transparent" points="135.5,-44 135.5,-59 146.5,-59 146.5,-44 135.5,-44"/>
<text text-anchor="start" x="137.5" y="-49" font-family="Ubuntu" font-size="10.00">3</text>
<polygon fill="none" stroke="black" points="24,-43.5 24,-120.5 147,-120.5 147,-43.5 24,-43.5"/>
</a>
</g>
</g>
</g>
</svg>
