<?xml version="1.0" encoding="UTF-8" standalone="no"?>
<!DOCTYPE svg PUBLIC "-//W3C//DTD SVG 1.1//EN"
 "http://www.w3.org/Graphics/SVG/1.1/DTD/svg11.dtd">
<!-- Generated by graphviz version 2.43.0 (0)
 -->
<!-- Title: protodot Pages: 1 -->
<svg width="819pt" height="392pt"
 viewBox="0.00 0.00 819.00 392.00" xmlns="http://www.w3.org/2000/svg" xmlns:xlink="http://www.w3.org/1999/xlink">
<g id="graph0" class="graph" transform="scale(1 1) rotate(0) translate(4 388)">
<title>protodot</title>
<g id="a_graph0"><a xlink:title="mcfs.command">
<text text-anchor="middle" x="405.5" y="-7.8" font-family="Times,serif" font-size="14.00">mcfs.command</text>
</a>
</g>
<g id="clust1" class="cluster">
<title>cluster_60945c2a214e</title>
<g id="a_clust1"><a xlink:title="mcfs.common">
<polygon fill="#caff70" stroke="black" points="453,-251 453,-376 608,-376 608,-251 453,-251"/>
<text text-anchor="middle" x="530.5" y="-360.8" font-family="Times,serif" font-size="14.00">mcfs.common</text>
</a>
</g>
</g>
<g id="clust2" class="cluster">
<title>cluster_aff9eb45ba08</title>
<g id="a_clust2"><a xlink:title="device.proto">
<polygon fill="#caff70" stroke="black" points="462.5,-134 462.5,-243 598.5,-243 598.5,-134 462.5,-134"/>
<text text-anchor="middle" x="530.5" y="-227.8" font-family="Times,serif" font-size="14.00">device.proto</text>
</a>
</g>
</g>
<g id="clust3" class="cluster">
<title>cluster_008970577f45</title>
<g id="a_clust3"><a xlink:title="mcfs.device">
<polygon fill="#caff70" stroke="black" points="628,-31 628,-319 803,-319 803,-31 628,-31"/>
<text text-anchor="middle" x="715.5" y="-303.8" font-family="Times,serif" font-size="14.00">mcfs.device</text>
</a>
</g>
</g>
<!-- Node_Ja_104 -->
<g id="node1" class="node">
<title>Node_Ja_104</title>
<g id="a_node1"><a xlink:title="mcfs.command.Command">
<polygon fill="#fffaf0" stroke="transparent" points="8,-204 8,-270 164,-270 164,-204 8,-204"/>
<polygon fill="#e31a1c" stroke="transparent" points="9,-254 9,-269 163,-269 163,-254 9,-254"/>
<text text-anchor="start" x="115" y="-260" font-family="Ubuntu" font-weight="bold" font-size="10.00">Command</text>
<polygon fill="#fdbf6f" stroke="transparent" points="9,-239 9,-254 163,-254 163,-239 9,-239"/>
<text text-anchor="start" x="11" y="-244" font-family="Ubuntu" font-size="10.00">command</text>
<polygon fill="#fdbf6f" stroke="transparent" points="9,-224 9,-239 13,-239 13,-224 9,-224"/>
<text text-anchor="start" x="15" y="-229" font-family="Ubuntu" font-size="10.00">1</text>
<text text-anchor="start" x="26" y="-229" font-family="Ubuntu" font-size="10.00">data_directive</text>
<polygon fill="#fb9a99" stroke="transparent" points="92,-224 92,-239 163,-239 163,-224 92,-224"/>
<text text-anchor="start" x="94" y="-230" font-family="Ubuntu" font-weight="bold" font-size="10.00">DataDirective</text>
<polygon fill="#fdbf6f" stroke="transparent" points="9,-209 9,-224 13,-224 13,-209 9,-209"/>
<text text-anchor="start" x="15" y="-214" font-family="Ubuntu" font-size="10.00">2</text>
<text text-anchor="start" x="26" y="-214" font-family="Ubuntu" font-size="10.00">click_valve</text>
<polygon fill="#fb9a99" stroke="transparent" points="92,-209 92,-224 163,-224 163,-209 92,-209"/>
<text text-anchor="start" x="110" y="-215" font-family="Ubuntu" font-weight="bold" font-size="10.00">ClickValve</text>
<polygon fill="#fdbf6f" stroke="transparent" points="9,-205 9,-209 163,-209 163,-205 9,-205"/>
<polygon fill="none" stroke="black" points="8,-204 8,-270 164,-270 164,-204 8,-204"/>
</a>
</g>
</g>
<!-- Node_Ja_105 -->
<g id="node2" class="node">
<title>Node_Ja_105</title>
<g id="a_node2"><a xlink:title="mcfs.command.DataDirective">
<polygon fill="#fffaf0" stroke="transparent" points="216,-206.5 216,-283.5 417,-283.5 417,-206.5 216,-206.5"/>
<polygon fill="#e31a1c" stroke="transparent" points="217.5,-267 217.5,-282 416.5,-282 416.5,-267 217.5,-267"/>
<text text-anchor="start" x="347.5" y="-273" font-family="Ubuntu" font-weight="bold" font-size="10.00">DataDirective</text>
<text text-anchor="start" x="223.5" y="-257" font-family="Ubuntu" font-size="10.00">1</text>
<text text-anchor="start" x="234.5" y="-257" font-family="Ubuntu" font-size="10.00">node</text>
<polygon fill="#fb9a99" stroke="transparent" points="282.5,-252 282.5,-267 416.5,-267 416.5,-252 282.5,-252"/>
<text text-anchor="start" x="284.5" y="-258" font-family="Ubuntu" font-weight="bold" font-size="10.00">mcfs.device.NodeIdentifier</text>
<text text-anchor="start" x="223.5" y="-242" font-family="Ubuntu" font-size="10.00">2</text>
<text text-anchor="start" x="234.5" y="-242" font-family="Ubuntu" font-size="10.00">level</text>
<polygon fill="#b2df8a" stroke="transparent" points="282.5,-237 282.5,-252 416.5,-252 416.5,-237 282.5,-237"/>
<text text-anchor="start" x="308.5" y="-243" font-family="Ubuntu" text-decoration="underline" font-size="10.00">mcfs.common.LogLevel</text>
<text text-anchor="start" x="223.5" y="-227" font-family="Ubuntu" font-size="10.00">3</text>
<text text-anchor="start" x="234.5" y="-227" font-family="Ubuntu" font-size="10.00">freq_log</text>
<polygon fill="#a6cee3" stroke="transparent" points="282.5,-222 282.5,-237 416.5,-237 416.5,-222 282.5,-222"/>
<text text-anchor="start" x="392.5" y="-228" font-family="Ubuntu" font-style="italic" font-size="10.00">float</text>
<text text-anchor="start" x="223.5" y="-212" font-family="Ubuntu" font-size="10.00">4</text>
<text text-anchor="start" x="234.5" y="-212" font-family="Ubuntu" font-size="10.00">freq_send</text>
<polygon fill="#a6cee3" stroke="transparent" points="282.5,-207 282.5,-222 416.5,-222 416.5,-207 282.5,-207"/>
<text text-anchor="start" x="392.5" y="-213" font-family="Ubuntu" font-style="italic" font-size="10.00">float</text>
<polygon fill="none" stroke="black" points="216,-206.5 216,-283.5 417,-283.5 417,-206.5 216,-206.5"/>
</a>
</g>
</g>
<!-- Node_Ja_104&#45;&gt;Node_Ja_105 -->
<g id="edge2" class="edge">
<title>Node_Ja_104:e&#45;&gt;Node_Ja_105:header</title>
<g id="a_edge2"><a xlink:title="Ja_104 &#45;&#45;&gt; Ja_105">
<path fill="none" stroke="#000000" d="M164,-231C190.4,-231 187.6,-264.09 206.24,-272.88"/>
<polygon fill="#000000" stroke="#000000" points="206,-276.4 216.5,-275 207.42,-269.55 206,-276.4"/>
</a>
</g>
</g>
<!-- Node_Ja_106 -->
<g id="node3" class="node">
<title>Node_Ja_106</title>
<g id="a_node3"><a xlink:title="mcfs.command.ClickValve">
<polygon fill="#fffaf0" stroke="transparent" points="226.5,-133.5 226.5,-180.5 406.5,-180.5 406.5,-133.5 226.5,-133.5"/>
<polygon fill="#e31a1c" stroke="transparent" points="227.5,-164 227.5,-179 405.5,-179 405.5,-164 227.5,-164"/>
<text text-anchor="start" x="352.5" y="-170" font-family="Ubuntu" font-weight="bold" font-size="10.00">ClickValve</text>
<text text-anchor="start" x="233.5" y="-154" font-family="Ubuntu" font-size="10.00">1</text>
<text text-anchor="start" x="244.5" y="-154" font-family="Ubuntu" font-size="10.00">valve</text>
<polygon fill="#fb9a99" stroke="transparent" points="271.5,-149 271.5,-164 405.5,-164 405.5,-149 271.5,-149"/>
<text text-anchor="start" x="273.5" y="-155" font-family="Ubuntu" font-weight="bold" font-size="10.00">mcfs.device.NodeIdentifier</text>
<text text-anchor="start" x="233.5" y="-139" font-family="Ubuntu" font-size="10.00">2</text>
<text text-anchor="start" x="244.5" y="-139" font-family="Ubuntu" font-size="10.00">state</text>
<polygon fill="#b2df8a" stroke="transparent" points="271.5,-134 271.5,-149 405.5,-149 405.5,-134 271.5,-134"/>
<text text-anchor="start" x="301.5" y="-140" font-family="Ubuntu" text-decoration="underline" font-size="10.00">mcfs.device.ValveState</text>
<polygon fill="none" stroke="black" points="226.5,-133.5 226.5,-180.5 406.5,-180.5 406.5,-133.5 226.5,-133.5"/>
</a>
</g>
</g>
<!-- Node_Ja_104&#45;&gt;Node_Ja_106 -->
<g id="edge3" class="edge">
<title>Node_Ja_104:e&#45;&gt;Node_Ja_106:header</title>
<g id="a_edge3"><a xlink:title="Ja_104 &#45;&#45;&gt; Ja_106">
<path fill="none" stroke="#000000" d="M164,-216C194.12,-216 193.26,-181.4 216.36,-173.57"/>
<polygon fill="#000000" stroke="#000000" points="217.15,-176.99 226.5,-172 216.08,-170.07 217.15,-176.99"/>
</a>
</g>
</g>
<!-- Node_Ja_100 -->
<g id="node4" class="node">
<title>Node_Ja_100</title>
<g id="a_node4"><a xlink:title="LogLevel">
<polygon fill="#b2df8a" stroke="transparent" points="469,-263.5 469,-340.5 592,-340.5 592,-263.5 469,-263.5"/>
<polygon fill="#33a02c" stroke="transparent" points="470.5,-324 470.5,-339 591.5,-339 591.5,-324 470.5,-324"/>
<text text-anchor="start" x="516.5" y="-330" font-family="Ubuntu" font-size="10.00">enum </text>
<text text-anchor="start" x="544.5" y="-330" font-family="Ubuntu" font-weight="bold" font-size="10.00">LogLevel</text>
<polygon fill="#b2df8a" stroke="transparent" points="470.5,-309 470.5,-324 580.5,-324 580.5,-309 470.5,-309"/>
<text text-anchor="start" x="472.5" y="-314" font-family="Ubuntu" font-size="10.00">LOG_LEVEL_DATA</text>
<polygon fill="#b2df8a" stroke="transparent" points="580.5,-309 580.5,-324 591.5,-324 591.5,-309 580.5,-309"/>
<text text-anchor="start" x="582.5" y="-314" font-family="Ubuntu" font-size="10.00">0</text>
<polygon fill="#b2df8a" stroke="transparent" points="470.5,-294 470.5,-309 580.5,-309 580.5,-294 470.5,-294"/>
<text text-anchor="start" x="472.5" y="-299" font-family="Ubuntu" font-size="10.00">LOG_LEVEL_DEBUG</text>
<polygon fill="#b2df8a" stroke="transparent" points="580.5,-294 580.5,-309 591.5,-309 591.5,-294 580.5,-294"/>
<text text-anchor="start" x="582.5" y="-299" font-family="Ubuntu" font-size="10.00">1</text>
<polygon fill="#b2df8a" stroke="transparent" points="470.5,-279 470.5,-294 580.5,-294 580.5,-279 470.5,-279"/>
<text text-anchor="start" x="472.5" y="-284" font-family="Ubuntu" font-size="10.00">LOG_LEVEL_WARNING</text>
<polygon fill="#b2df8a" stroke="transparent" points="580.5,-279 580.5,-294 591.5,-294 591.5,-279 580.5,-279"/>
<text text-anchor="start" x="582.5" y="-284" font-family="Ubuntu" font-size="10.00">2</text>
<polygon fill="#b2df8a" stroke="transparent" points="470.5,-264 470.5,-279 580.5,-279 580.5,-264 470.5,-264"/>
<text text-anchor="start" x="472.5" y="-269" font-family="Ubuntu" font-size="10.00">LOG_LEVEL_ERROR</text>
<polygon fill="#b2df8a" stroke="transparent" points="580.5,-264 580.5,-279 591.5,-279 591.5,-264 580.5,-264"/>
<text text-anchor="start" x="582.5" y="-269" font-family="Ubuntu" font-size="10.00">3</text>
<polygon fill="none" stroke="black" points="469,-263.5 469,-340.5 592,-340.5 592,-263.5 469,-263.5"/>
</a>
</g>
</g>
<!-- Node_Ja_105&#45;&gt;Node_Ja_100 -->
<g id="edge5" class="edge">
<title>Node_Ja_105:e&#45;&gt;Node_Ja_100</title>
<g id="a_edge5"><a xlink:title="Ja_105 &#45;&#45;&gt; Ja_100">
<path fill="none" stroke="#008000" d="M417.5,-244C433.04,-244 448.57,-248.46 462.9,-254.9"/>
<polygon fill="#008000" stroke="#008000" points="461.61,-258.16 472.13,-259.39 464.67,-251.87 461.61,-258.16"/>
</a>
</g>
</g>
<!-- Node_Ja_101 -->
<g id="node5" class="node">
<title>Node_Ja_101</title>
<g id="a_node5"><a xlink:title="mcfs.device.NodeIdentifier">
<polygon fill="#fffaf0" stroke="transparent" points="478.5,-146 478.5,-208 582.5,-208 582.5,-146 478.5,-146"/>
<polygon fill="#e31a1c" stroke="transparent" points="479.5,-192 479.5,-207 581.5,-207 581.5,-192 479.5,-192"/>
<text text-anchor="start" x="507.5" y="-198" font-family="Ubuntu" font-weight="bold" font-size="10.00">NodeIdentifier</text>
<text text-anchor="start" x="485.5" y="-182" font-family="Ubuntu" font-size="10.00">1</text>
<text text-anchor="start" x="496.5" y="-182" font-family="Ubuntu" font-size="10.00">board_id</text>
<polygon fill="#a6cee3" stroke="transparent" points="539.5,-177 539.5,-192 581.5,-192 581.5,-177 539.5,-177"/>
<text text-anchor="start" x="550.5" y="-183" font-family="Ubuntu" font-style="italic" font-size="10.00">uint32</text>
<text text-anchor="start" x="485.5" y="-167" font-family="Ubuntu" font-size="10.00">2</text>
<text text-anchor="start" x="496.5" y="-167" font-family="Ubuntu" font-size="10.00">channel</text>
<polygon fill="#b2df8a" stroke="transparent" points="539.5,-162 539.5,-177 581.5,-177 581.5,-162 539.5,-162"/>
<text text-anchor="start" x="541.5" y="-168" font-family="Ubuntu" text-decoration="underline" font-size="10.00">Channel</text>
<text text-anchor="start" x="485.5" y="-152" font-family="Ubuntu" font-size="10.00">3</text>
<text text-anchor="start" x="496.5" y="-152" font-family="Ubuntu" font-size="10.00">node_id</text>
<polygon fill="#a6cee3" stroke="transparent" points="539.5,-147 539.5,-162 581.5,-162 581.5,-147 539.5,-147"/>
<text text-anchor="start" x="550.5" y="-153" font-family="Ubuntu" font-style="italic" font-size="10.00">uint32</text>
<polygon fill="none" stroke="black" points="478.5,-146 478.5,-208 582.5,-208 582.5,-146 478.5,-146"/>
</a>
</g>
</g>
<!-- Node_Ja_105&#45;&gt;Node_Ja_101 -->
<g id="edge4" class="edge">
<title>Node_Ja_105:e&#45;&gt;Node_Ja_101:header</title>
<g id="a_edge4"><a xlink:title="Ja_105 &#45;&#45;&gt; Ja_101">
<path fill="none" stroke="#000000" d="M417.5,-260C451.67,-260 442.98,-211.57 468.44,-201.73"/>
<polygon fill="#000000" stroke="#000000" points="469.24,-205.15 478.5,-200 468.05,-198.25 469.24,-205.15"/>
</a>
</g>
</g>
<!-- Node_Ja_106&#45;&gt;Node_Ja_101 -->
<g id="edge6" class="edge">
<title>Node_Ja_106:e&#45;&gt;Node_Ja_101:header</title>
<g id="a_edge6"><a xlink:title="Ja_106 &#45;&#45;&gt; Ja_101">
<path fill="none" stroke="#000000" d="M406.5,-156C440.19,-156 441.19,-191.52 468.24,-198.73"/>
<polygon fill="#000000" stroke="#000000" points="468.15,-202.25 478.5,-200 469.01,-195.3 468.15,-202.25"/>
</a>
</g>
</g>
<!-- Node_Ja_103 -->
<g id="node7" class="node">
<title>Node_Ja_103</title>
<g id="a_node7"><a xlink:title="ValveState">
<polygon fill="#b2df8a" stroke="transparent" points="670.5,-43.5 670.5,-90.5 760.5,-90.5 760.5,-43.5 670.5,-43.5"/>
<polygon fill="#33a02c" stroke="transparent" points="671.5,-74 671.5,-89 759.5,-89 759.5,-74 671.5,-74"/>
<text text-anchor="start" x="676.5" y="-80" font-family="Ubuntu" font-size="10.00">enum </text>
<text text-anchor="start" x="704.5" y="-80" font-family="Ubuntu" font-weight="bold" font-size="10.00">ValveState</text>
<polygon fill="#b2df8a" stroke="transparent" points="671.5,-59 671.5,-74 748.5,-74 748.5,-59 671.5,-59"/>
<text text-anchor="start" x="673.5" y="-64" font-family="Ubuntu" font-size="10.00">VALVE_OPEN</text>
<polygon fill="#b2df8a" stroke="transparent" points="748.5,-59 748.5,-74 759.5,-74 759.5,-59 748.5,-59"/>
<text text-anchor="start" x="750.5" y="-64" font-family="Ubuntu" font-size="10.00">0</text>
<polygon fill="#b2df8a" stroke="transparent" points="671.5,-44 671.5,-59 748.5,-59 748.5,-44 671.5,-44"/>
<text text-anchor="start" x="673.5" y="-49" font-family="Ubuntu" font-size="10.00">VALVE_CLOSED</text>
<polygon fill="#b2df8a" stroke="transparent" points="748.5,-44 748.5,-59 759.5,-59 759.5,-44 748.5,-44"/>
<text text-anchor="start" x="750.5" y="-49" font-family="Ubuntu" font-size="10.00">1</text>
<polygon fill="none" stroke="black" points="670.5,-43.5 670.5,-90.5 760.5,-90.5 760.5,-43.5 670.5,-43.5"/>
</a>
</g>
</g>
<!-- Node_Ja_106&#45;&gt;Node_Ja_103 -->
<g id="edge7" class="edge">
<title>Node_Ja_106:e&#45;&gt;Node_Ja_103</title>
<g id="a_edge7"><a xlink:title="Ja_106 &#45;&#45;&gt; Ja_103">
<path fill="none" stroke="#008000" d="M406.5,-141C407.28,-141 562.92,-103.53 652.62,-81.91"/>
<polygon fill="#008000" stroke="#008000" points="653.52,-85.3 662.42,-79.55 651.88,-78.49 653.52,-85.3"/>
</a>
</g>
</g>
<!-- Node_Ja_102 -->
<g id="node6" class="node">
<title>Node_Ja_102</title>
<g id="a_node6"><a xlink:title="Channel">
<polygon fill="#b2df8a" stroke="transparent" points="644,-116.5 644,-283.5 787,-283.5 787,-116.5 644,-116.5"/>
<polygon fill="#33a02c" stroke="transparent" points="645.5,-267 645.5,-282 786.5,-282 786.5,-267 645.5,-267"/>
<text text-anchor="start" x="716.5" y="-273" font-family="Ubuntu" font-size="10.00">enum </text>
<text text-anchor="start" x="744.5" y="-273" font-family="Ubuntu" font-weight="bold" font-size="10.00">Channel</text>
<polygon fill="#b2df8a" stroke="transparent" points="645.5,-252 645.5,-267 775.5,-267 775.5,-252 645.5,-252"/>
<text text-anchor="start" x="647.5" y="-257" font-family="Ubuntu" font-size="10.00">GPIO</text>
<polygon fill="#b2df8a" stroke="transparent" points="775.5,-252 775.5,-267 786.5,-267 786.5,-252 775.5,-252"/>
<text text-anchor="start" x="777.5" y="-257" font-family="Ubuntu" font-size="10.00">0</text>
<polygon fill="#b2df8a" stroke="transparent" points="645.5,-237 645.5,-252 775.5,-252 775.5,-237 645.5,-237"/>
<text text-anchor="start" x="647.5" y="-242" font-family="Ubuntu" font-size="10.00">LED</text>
<polygon fill="#b2df8a" stroke="transparent" points="775.5,-237 775.5,-252 786.5,-252 786.5,-237 775.5,-237"/>
<text text-anchor="start" x="777.5" y="-242" font-family="Ubuntu" font-size="10.00">1</text>
<polygon fill="#b2df8a" stroke="transparent" points="645.5,-222 645.5,-237 775.5,-237 775.5,-222 645.5,-222"/>
<text text-anchor="start" x="647.5" y="-227" font-family="Ubuntu" font-size="10.00">RAIL_3V3</text>
<polygon fill="#b2df8a" stroke="transparent" points="775.5,-222 775.5,-237 786.5,-237 786.5,-222 775.5,-222"/>
<text text-anchor="start" x="777.5" y="-227" font-family="Ubuntu" font-size="10.00">2</text>
<polygon fill="#b2df8a" stroke="transparent" points="645.5,-207 645.5,-222 775.5,-222 775.5,-207 645.5,-207"/>
<text text-anchor="start" x="647.5" y="-212" font-family="Ubuntu" font-size="10.00">RAIL_5V</text>
<polygon fill="#b2df8a" stroke="transparent" points="775.5,-207 775.5,-222 786.5,-222 786.5,-207 775.5,-207"/>
<text text-anchor="start" x="777.5" y="-212" font-family="Ubuntu" font-size="10.00">3</text>
<polygon fill="#b2df8a" stroke="transparent" points="645.5,-192 645.5,-207 775.5,-207 775.5,-192 645.5,-192"/>
<text text-anchor="start" x="647.5" y="-197" font-family="Ubuntu" font-size="10.00">RAIL_5V5</text>
<polygon fill="#b2df8a" stroke="transparent" points="775.5,-192 775.5,-207 786.5,-207 786.5,-192 775.5,-192"/>
<text text-anchor="start" x="777.5" y="-197" font-family="Ubuntu" font-size="10.00">4</text>
<polygon fill="#b2df8a" stroke="transparent" points="645.5,-177 645.5,-192 775.5,-192 775.5,-177 645.5,-177"/>
<text text-anchor="start" x="647.5" y="-182" font-family="Ubuntu" font-size="10.00">RAIL_24V</text>
<polygon fill="#b2df8a" stroke="transparent" points="775.5,-177 775.5,-192 786.5,-192 786.5,-177 775.5,-177"/>
<text text-anchor="start" x="777.5" y="-182" font-family="Ubuntu" font-size="10.00">5</text>
<polygon fill="#b2df8a" stroke="transparent" points="645.5,-162 645.5,-177 775.5,-177 775.5,-162 645.5,-162"/>
<text text-anchor="start" x="647.5" y="-167" font-family="Ubuntu" font-size="10.00">CURRENT_LOOP</text>
<polygon fill="#b2df8a" stroke="transparent" points="775.5,-162 775.5,-177 786.5,-177 786.5,-162 775.5,-162"/>
<text text-anchor="start" x="777.5" y="-167" font-family="Ubuntu" font-size="10.00">6</text>
<polygon fill="#b2df8a" stroke="transparent" points="645.5,-147 645.5,-162 775.5,-162 775.5,-147 645.5,-147"/>
<text text-anchor="start" x="647.5" y="-152" font-family="Ubuntu" font-size="10.00">DIFFERENTIAL_SIGNAL</text>
<polygon fill="#b2df8a" stroke="transparent" points="775.5,-147 775.5,-162 786.5,-162 786.5,-147 775.5,-147"/>
<text text-anchor="start" x="777.5" y="-152" font-family="Ubuntu" font-size="10.00">7</text>
<polygon fill="#b2df8a" stroke="transparent" points="645.5,-132 645.5,-147 775.5,-147 775.5,-132 645.5,-132"/>
<text text-anchor="start" x="647.5" y="-137" font-family="Ubuntu" font-size="10.00">TEMPERATURE_DETECTOR</text>
<polygon fill="#b2df8a" stroke="transparent" points="775.5,-132 775.5,-147 786.5,-147 786.5,-132 775.5,-132"/>
<text text-anchor="start" x="777.5" y="-137" font-family="Ubuntu" font-size="10.00">8</text>
<polygon fill="#b2df8a" stroke="transparent" points="645.5,-117 645.5,-132 775.5,-132 775.5,-117 645.5,-117"/>
<text text-anchor="start" x="647.5" y="-122" font-family="Ubuntu" font-size="10.00">VALVE</text>
<polygon fill="#b2df8a" stroke="transparent" points="775.5,-117 775.5,-132 786.5,-132 786.5,-117 775.5,-117"/>
<text text-anchor="start" x="777.5" y="-122" font-family="Ubuntu" font-size="10.00">9</text>
<polygon fill="none" stroke="black" points="644,-116.5 644,-283.5 787,-283.5 787,-116.5 644,-116.5"/>
</a>
</g>
</g>
<!-- Node_Ja_101&#45;&gt;Node_Ja_102 -->
<g id="edge1" class="edge">
<title>Node_Ja_101:e&#45;&gt;Node_Ja_102</title>
<g id="a_edge1"><a xlink:title="Ja_101 &#45;&#45;&gt; Ja_102">
<path fill="none" stroke="#008000" d="M582.5,-169C596.75,-169 611.64,-170.73 626.07,-173.38"/>
<polygon fill="#008000" stroke="#008000" points="625.49,-176.83 635.98,-175.35 626.85,-169.97 625.49,-176.83"/>
</a>
</g>
</g>
</g>
</svg>
