<?xml version="1.0" encoding="UTF-8" standalone="no"?>
<!DOCTYPE svg PUBLIC "-//W3C//DTD SVG 1.1//EN"
 "http://www.w3.org/Graphics/SVG/1.1/DTD/svg11.dtd">
<!-- Generated by graphviz version 2.43.0 (0)
 -->
<!-- Title: protodot Pages: 1 -->
<svg width="883pt" height="506pt"
 viewBox="0.00 0.00 883.00 506.00" xmlns="http://www.w3.org/2000/svg" xmlns:xlink="http://www.w3.org/1999/xlink">
<g id="graph0" class="graph" transform="scale(1 1) rotate(0) translate(4 502)">
<title>protodot</title>
<g id="a_graph0"><a xlink:title="mcfs.command">
<text text-anchor="middle" x="437.5" y="-7.8" font-family="Times,serif" font-size="14.00">mcfs.command</text>
</a>
</g>
<g id="clust1" class="cluster">
<title>cluster_008970577f45</title>
<g id="a_clust1"><a xlink:title="mcfs.device">
<polygon fill="#caff70" stroke="black" points="692,-31 692,-480 867,-480 867,-31 692,-31"/>
<text text-anchor="middle" x="779.5" y="-464.8" font-family="Times,serif" font-size="14.00">mcfs.device</text>
</a>
</g>
</g>
<g id="clust2" class="cluster">
<title>cluster_60945c2a214e</title>
<g id="a_clust2"><a xlink:title="mcfs.common">
<polygon fill="#caff70" stroke="black" points="517,-365 517,-490 672,-490 672,-365 517,-365"/>
<text text-anchor="middle" x="594.5" y="-474.8" font-family="Times,serif" font-size="14.00">mcfs.common</text>
</a>
</g>
</g>
<g id="clust3" class="cluster">
<title>cluster_aff9eb45ba08</title>
<g id="a_clust3"><a xlink:title="device.proto">
<polygon fill="#caff70" stroke="black" points="526.5,-248 526.5,-357 662.5,-357 662.5,-248 526.5,-248"/>
<text text-anchor="middle" x="594.5" y="-341.8" font-family="Times,serif" font-size="14.00">device.proto</text>
</a>
</g>
</g>
<!-- Node_Ja_102 -->
<g id="node1" class="node">
<title>Node_Ja_102</title>
<g id="a_node1"><a xlink:title="Channel">
<polygon fill="#b2df8a" stroke="transparent" points="708,-277.5 708,-444.5 851,-444.5 851,-277.5 708,-277.5"/>
<polygon fill="#33a02c" stroke="transparent" points="709.5,-428 709.5,-443 850.5,-443 850.5,-428 709.5,-428"/>
<text text-anchor="start" x="780.5" y="-434" font-family="Ubuntu" font-size="10.00">enum </text>
<text text-anchor="start" x="808.5" y="-434" font-family="Ubuntu" font-weight="bold" font-size="10.00">Channel</text>
<polygon fill="#b2df8a" stroke="transparent" points="709.5,-413 709.5,-428 839.5,-428 839.5,-413 709.5,-413"/>
<text text-anchor="start" x="711.5" y="-418" font-family="Ubuntu" font-size="10.00">GPIO</text>
<polygon fill="#b2df8a" stroke="transparent" points="839.5,-413 839.5,-428 850.5,-428 850.5,-413 839.5,-413"/>
<text text-anchor="start" x="841.5" y="-418" font-family="Ubuntu" font-size="10.00">0</text>
<polygon fill="#b2df8a" stroke="transparent" points="709.5,-398 709.5,-413 839.5,-413 839.5,-398 709.5,-398"/>
<text text-anchor="start" x="711.5" y="-403" font-family="Ubuntu" font-size="10.00">LED</text>
<polygon fill="#b2df8a" stroke="transparent" points="839.5,-398 839.5,-413 850.5,-413 850.5,-398 839.5,-398"/>
<text text-anchor="start" x="841.5" y="-403" font-family="Ubuntu" font-size="10.00">1</text>
<polygon fill="#b2df8a" stroke="transparent" points="709.5,-383 709.5,-398 839.5,-398 839.5,-383 709.5,-383"/>
<text text-anchor="start" x="711.5" y="-388" font-family="Ubuntu" font-size="10.00">RAIL_3V3</text>
<polygon fill="#b2df8a" stroke="transparent" points="839.5,-383 839.5,-398 850.5,-398 850.5,-383 839.5,-383"/>
<text text-anchor="start" x="841.5" y="-388" font-family="Ubuntu" font-size="10.00">2</text>
<polygon fill="#b2df8a" stroke="transparent" points="709.5,-368 709.5,-383 839.5,-383 839.5,-368 709.5,-368"/>
<text text-anchor="start" x="711.5" y="-373" font-family="Ubuntu" font-size="10.00">RAIL_5V</text>
<polygon fill="#b2df8a" stroke="transparent" points="839.5,-368 839.5,-383 850.5,-383 850.5,-368 839.5,-368"/>
<text text-anchor="start" x="841.5" y="-373" font-family="Ubuntu" font-size="10.00">3</text>
<polygon fill="#b2df8a" stroke="transparent" points="709.5,-353 709.5,-368 839.5,-368 839.5,-353 709.5,-353"/>
<text text-anchor="start" x="711.5" y="-358" font-family="Ubuntu" font-size="10.00">RAIL_5V5</text>
<polygon fill="#b2df8a" stroke="transparent" points="839.5,-353 839.5,-368 850.5,-368 850.5,-353 839.5,-353"/>
<text text-anchor="start" x="841.5" y="-358" font-family="Ubuntu" font-size="10.00">4</text>
<polygon fill="#b2df8a" stroke="transparent" points="709.5,-338 709.5,-353 839.5,-353 839.5,-338 709.5,-338"/>
<text text-anchor="start" x="711.5" y="-343" font-family="Ubuntu" font-size="10.00">RAIL_24V</text>
<polygon fill="#b2df8a" stroke="transparent" points="839.5,-338 839.5,-353 850.5,-353 850.5,-338 839.5,-338"/>
<text text-anchor="start" x="841.5" y="-343" font-family="Ubuntu" font-size="10.00">5</text>
<polygon fill="#b2df8a" stroke="transparent" points="709.5,-323 709.5,-338 839.5,-338 839.5,-323 709.5,-323"/>
<text text-anchor="start" x="711.5" y="-328" font-family="Ubuntu" font-size="10.00">CURRENT_LOOP</text>
<polygon fill="#b2df8a" stroke="transparent" points="839.5,-323 839.5,-338 850.5,-338 850.5,-323 839.5,-323"/>
<text text-anchor="start" x="841.5" y="-328" font-family="Ubuntu" font-size="10.00">6</text>
<polygon fill="#b2df8a" stroke="transparent" points="709.5,-308 709.5,-323 839.5,-323 839.5,-308 709.5,-308"/>
<text text-anchor="start" x="711.5" y="-313" font-family="Ubuntu" font-size="10.00">DIFFERENTIAL_SIGNAL</text>
<polygon fill="#b2df8a" stroke="transparent" points="839.5,-308 839.5,-323 850.5,-323 850.5,-308 839.5,-308"/>
<text text-anchor="start" x="841.5" y="-313" font-family="Ubuntu" font-size="10.00">7</text>
<polygon fill="#b2df8a" stroke="transparent" points="709.5,-293 709.5,-308 839.5,-308 839.5,-293 709.5,-293"/>
<text text-anchor="start" x="711.5" y="-298" font-family="Ubuntu" font-size="10.00">TEMPERATURE_DETECTOR</text>
<polygon fill="#b2df8a" stroke="transparent" points="839.5,-293 839.5,-308 850.5,-308 850.5,-293 839.5,-293"/>
<text text-anchor="start" x="841.5" y="-298" font-family="Ubuntu" font-size="10.00">8</text>
<polygon fill="#b2df8a" stroke="transparent" points="709.5,-278 709.5,-293 839.5,-293 839.5,-278 709.5,-278"/>
<text text-anchor="start" x="711.5" y="-283" font-family="Ubuntu" font-size="10.00">VALVE</text>
<polygon fill="#b2df8a" stroke="transparent" points="839.5,-278 839.5,-293 850.5,-293 850.5,-278 839.5,-278"/>
<text text-anchor="start" x="841.5" y="-283" font-family="Ubuntu" font-size="10.00">9</text>
<polygon fill="none" stroke="black" points="708,-277.5 708,-444.5 851,-444.5 851,-277.5 708,-277.5"/>
</a>
</g>
</g>
<!-- Node_Ja_103 -->
<g id="node2" class="node">
<title>Node_Ja_103</title>
<g id="a_node2"><a xlink:title="ValveState">
<polygon fill="#b2df8a" stroke="transparent" points="734.5,-204.5 734.5,-251.5 824.5,-251.5 824.5,-204.5 734.5,-204.5"/>
<polygon fill="#33a02c" stroke="transparent" points="735.5,-235 735.5,-250 823.5,-250 823.5,-235 735.5,-235"/>
<text text-anchor="start" x="740.5" y="-241" font-family="Ubuntu" font-size="10.00">enum </text>
<text text-anchor="start" x="768.5" y="-241" font-family="Ubuntu" font-weight="bold" font-size="10.00">ValveState</text>
<polygon fill="#b2df8a" stroke="transparent" points="735.5,-220 735.5,-235 812.5,-235 812.5,-220 735.5,-220"/>
<text text-anchor="start" x="737.5" y="-225" font-family="Ubuntu" font-size="10.00">VALVE_OPEN</text>
<polygon fill="#b2df8a" stroke="transparent" points="812.5,-220 812.5,-235 823.5,-235 823.5,-220 812.5,-220"/>
<text text-anchor="start" x="814.5" y="-225" font-family="Ubuntu" font-size="10.00">0</text>
<polygon fill="#b2df8a" stroke="transparent" points="735.5,-205 735.5,-220 812.5,-220 812.5,-205 735.5,-205"/>
<text text-anchor="start" x="737.5" y="-210" font-family="Ubuntu" font-size="10.00">VALVE_CLOSED</text>
<polygon fill="#b2df8a" stroke="transparent" points="812.5,-205 812.5,-220 823.5,-220 823.5,-205 812.5,-205"/>
<text text-anchor="start" x="814.5" y="-210" font-family="Ubuntu" font-size="10.00">1</text>
<polygon fill="none" stroke="black" points="734.5,-204.5 734.5,-251.5 824.5,-251.5 824.5,-204.5 734.5,-204.5"/>
</a>
</g>
</g>
<!-- Node_Ja_104 -->
<g id="node3" class="node">
<title>Node_Ja_104</title>
<g id="a_node3"><a xlink:title="LEDState">
<polygon fill="#b2df8a" stroke="transparent" points="739.5,-131.5 739.5,-178.5 819.5,-178.5 819.5,-131.5 739.5,-131.5"/>
<polygon fill="#33a02c" stroke="transparent" points="740.5,-162 740.5,-177 818.5,-177 818.5,-162 740.5,-162"/>
<text text-anchor="start" x="742.5" y="-168" font-family="Ubuntu" font-size="10.00">enum </text>
<text text-anchor="start" x="770.5" y="-168" font-family="Ubuntu" font-weight="bold" font-size="10.00">LEDState</text>
<polygon fill="#b2df8a" stroke="transparent" points="740.5,-147 740.5,-162 797.5,-162 797.5,-147 740.5,-147"/>
<text text-anchor="start" x="742.5" y="-152" font-family="Ubuntu" font-size="10.00">LED_OFF</text>
<polygon fill="#b2df8a" stroke="transparent" points="797.5,-147 797.5,-162 818.5,-162 818.5,-147 797.5,-147"/>
<text text-anchor="start" x="799.5" y="-152" font-family="Ubuntu" font-size="10.00">0</text>
<polygon fill="#b2df8a" stroke="transparent" points="740.5,-132 740.5,-147 797.5,-147 797.5,-132 740.5,-132"/>
<text text-anchor="start" x="742.5" y="-137" font-family="Ubuntu" font-size="10.00">LED_ON</text>
<polygon fill="#b2df8a" stroke="transparent" points="797.5,-132 797.5,-147 818.5,-147 818.5,-132 797.5,-132"/>
<text text-anchor="start" x="799.5" y="-137" font-family="Ubuntu" font-size="10.00">1</text>
<polygon fill="none" stroke="black" points="739.5,-131.5 739.5,-178.5 819.5,-178.5 819.5,-131.5 739.5,-131.5"/>
</a>
</g>
</g>
<!-- Node_Ja_105 -->
<g id="node4" class="node">
<title>Node_Ja_105</title>
<g id="a_node4"><a xlink:title="DeviceType">
<polygon fill="#b2df8a" stroke="transparent" points="725,-43 725,-105 834,-105 834,-43 725,-43"/>
<polygon fill="#33a02c" stroke="transparent" points="726.5,-89 726.5,-104 833.5,-104 833.5,-89 726.5,-89"/>
<text text-anchor="start" x="748.5" y="-95" font-family="Ubuntu" font-size="10.00">enum </text>
<text text-anchor="start" x="776.5" y="-95" font-family="Ubuntu" font-weight="bold" font-size="10.00">DeviceType</text>
<polygon fill="#b2df8a" stroke="transparent" points="726.5,-74 726.5,-89 822.5,-89 822.5,-74 726.5,-74"/>
<text text-anchor="start" x="728.5" y="-79" font-family="Ubuntu" font-size="10.00">SERVER</text>
<polygon fill="#b2df8a" stroke="transparent" points="822.5,-74 822.5,-89 833.5,-89 833.5,-74 822.5,-74"/>
<text text-anchor="start" x="824.5" y="-79" font-family="Ubuntu" font-size="10.00">0</text>
<polygon fill="#b2df8a" stroke="transparent" points="726.5,-59 726.5,-74 822.5,-74 822.5,-59 726.5,-59"/>
<text text-anchor="start" x="728.5" y="-64" font-family="Ubuntu" font-size="10.00">FLIGHT_COMPUTER</text>
<polygon fill="#b2df8a" stroke="transparent" points="822.5,-59 822.5,-74 833.5,-74 833.5,-59 822.5,-59"/>
<text text-anchor="start" x="824.5" y="-64" font-family="Ubuntu" font-size="10.00">1</text>
<polygon fill="#b2df8a" stroke="transparent" points="726.5,-44 726.5,-59 822.5,-59 822.5,-44 726.5,-44"/>
<text text-anchor="start" x="728.5" y="-49" font-family="Ubuntu" font-size="10.00">SAM</text>
<polygon fill="#b2df8a" stroke="transparent" points="822.5,-44 822.5,-59 833.5,-59 833.5,-44 822.5,-44"/>
<text text-anchor="start" x="824.5" y="-49" font-family="Ubuntu" font-size="10.00">2</text>
<polygon fill="none" stroke="black" points="725,-43 725,-105 834,-105 834,-43 725,-43"/>
</a>
</g>
</g>
<!-- Node_Ja_106 -->
<g id="node5" class="node">
<title>Node_Ja_106</title>
<g id="a_node5"><a xlink:title="mcfs.command.Command">
<polygon fill="#fffaf0" stroke="transparent" points="8,-188 8,-284 189,-284 189,-188 8,-188"/>
<polygon fill="#e31a1c" stroke="transparent" points="9.5,-268 9.5,-283 188.5,-283 188.5,-268 9.5,-268"/>
<text text-anchor="start" x="140.5" y="-274" font-family="Ubuntu" font-weight="bold" font-size="10.00">Command</text>
<polygon fill="#fdbf6f" stroke="transparent" points="9.5,-253 9.5,-268 188.5,-268 188.5,-253 9.5,-253"/>
<text text-anchor="start" x="11.5" y="-258" font-family="Ubuntu" font-size="10.00">command</text>
<polygon fill="#fdbf6f" stroke="transparent" points="9.5,-238 9.5,-253 13.5,-253 13.5,-238 9.5,-238"/>
<text text-anchor="start" x="15.5" y="-243" font-family="Ubuntu" font-size="10.00">1</text>
<text text-anchor="start" x="26.5" y="-243" font-family="Ubuntu" font-size="10.00">data_directive</text>
<polygon fill="#fb9a99" stroke="transparent" points="105.5,-238 105.5,-253 188.5,-253 188.5,-238 105.5,-238"/>
<text text-anchor="start" x="119.5" y="-244" font-family="Ubuntu" font-weight="bold" font-size="10.00">DataDirective</text>
<polygon fill="#fdbf6f" stroke="transparent" points="9.5,-223 9.5,-238 13.5,-238 13.5,-223 9.5,-223"/>
<text text-anchor="start" x="15.5" y="-228" font-family="Ubuntu" font-size="10.00">2</text>
<text text-anchor="start" x="26.5" y="-228" font-family="Ubuntu" font-size="10.00">click_valve</text>
<polygon fill="#fb9a99" stroke="transparent" points="105.5,-223 105.5,-238 188.5,-238 188.5,-223 105.5,-223"/>
<text text-anchor="start" x="135.5" y="-229" font-family="Ubuntu" font-weight="bold" font-size="10.00">ClickValve</text>
<polygon fill="#fdbf6f" stroke="transparent" points="9.5,-208 9.5,-223 13.5,-223 13.5,-208 9.5,-208"/>
<text text-anchor="start" x="15.5" y="-213" font-family="Ubuntu" font-size="10.00">3</text>
<text text-anchor="start" x="26.5" y="-213" font-family="Ubuntu" font-size="10.00">set_led</text>
<polygon fill="#fb9a99" stroke="transparent" points="105.5,-208 105.5,-223 188.5,-223 188.5,-208 105.5,-208"/>
<text text-anchor="start" x="149.5" y="-214" font-family="Ubuntu" font-weight="bold" font-size="10.00">SetLED</text>
<polygon fill="#fdbf6f" stroke="transparent" points="9.5,-193 9.5,-208 13.5,-208 13.5,-193 9.5,-193"/>
<text text-anchor="start" x="15.5" y="-198" font-family="Ubuntu" font-size="10.00">4</text>
<text text-anchor="start" x="26.5" y="-198" font-family="Ubuntu" font-size="10.00">device_discovery</text>
<polygon fill="#fb9a99" stroke="transparent" points="105.5,-193 105.5,-208 188.5,-208 188.5,-193 105.5,-193"/>
<text text-anchor="start" x="107.5" y="-199" font-family="Ubuntu" font-weight="bold" font-size="10.00">DeviceDiscovery</text>
<polygon fill="#fdbf6f" stroke="transparent" points="9.5,-189 9.5,-193 188.5,-193 188.5,-189 9.5,-189"/>
<polygon fill="none" stroke="black" points="8,-188 8,-284 189,-284 189,-188 8,-188"/>
</a>
</g>
</g>
<!-- Node_Ja_109 -->
<g id="node6" class="node">
<title>Node_Ja_109</title>
<g id="a_node6"><a xlink:title="mcfs.command.SetLED">
<polygon fill="#fffaf0" stroke="transparent" points="272,-147.5 272,-194.5 450,-194.5 450,-147.5 272,-147.5"/>
<polygon fill="#e31a1c" stroke="transparent" points="273,-178 273,-193 449,-193 449,-178 273,-178"/>
<text text-anchor="start" x="410" y="-184" font-family="Ubuntu" font-weight="bold" font-size="10.00">SetLED</text>
<text text-anchor="start" x="279" y="-168" font-family="Ubuntu" font-size="10.00">1</text>
<text text-anchor="start" x="290" y="-168" font-family="Ubuntu" font-size="10.00">led</text>
<polygon fill="#fb9a99" stroke="transparent" points="315,-163 315,-178 449,-178 449,-163 315,-163"/>
<text text-anchor="start" x="317" y="-169" font-family="Ubuntu" font-weight="bold" font-size="10.00">mcfs.device.NodeIdentifier</text>
<text text-anchor="start" x="279" y="-153" font-family="Ubuntu" font-size="10.00">2</text>
<text text-anchor="start" x="290" y="-153" font-family="Ubuntu" font-size="10.00">state</text>
<polygon fill="#b2df8a" stroke="transparent" points="315,-148 315,-163 449,-163 449,-148 315,-148"/>
<text text-anchor="start" x="351" y="-154" font-family="Ubuntu" text-decoration="underline" font-size="10.00">mcfs.device.LEDState</text>
<polygon fill="none" stroke="black" points="272,-147.5 272,-194.5 450,-194.5 450,-147.5 272,-147.5"/>
</a>
</g>
</g>
<!-- Node_Ja_106&#45;&gt;Node_Ja_109 -->
<g id="edge6" class="edge">
<title>Node_Ja_106:e&#45;&gt;Node_Ja_109:header</title>
<g id="a_edge6"><a xlink:title="Ja_106 &#45;&#45;&gt; Ja_109">
<path fill="none" stroke="#000000" d="M189.5,-215C224.72,-215 231.94,-191.18 261.91,-186.72"/>
<polygon fill="#000000" stroke="#000000" points="262.27,-190.2 272,-186 261.78,-183.22 262.27,-190.2"/>
</a>
</g>
</g>
<!-- Node_Ja_110 -->
<g id="node7" class="node">
<title>Node_Ja_110</title>
<g id="a_node7"><a xlink:title="mcfs.command.DeviceDiscovery">
<polygon fill="#fffaf0" stroke="transparent" points="241,-78 241,-110 481,-110 481,-78 241,-78"/>
<polygon fill="#e31a1c" stroke="transparent" points="242,-94 242,-109 480,-109 480,-94 242,-94"/>
<text text-anchor="start" x="399" y="-100" font-family="Ubuntu" font-weight="bold" font-size="10.00">DeviceDiscovery</text>
<text text-anchor="start" x="248" y="-84" font-family="Ubuntu" font-size="10.00">1</text>
<text text-anchor="start" x="259" y="-84" font-family="Ubuntu" font-size="10.00">requesting_device_type</text>
<polygon fill="#b2df8a" stroke="transparent" points="370,-79 370,-94 480,-94 480,-79 370,-79"/>
<text text-anchor="start" x="372" y="-85" font-family="Ubuntu" text-decoration="underline" font-size="10.00">mcfs.device.DeviceType</text>
<polygon fill="none" stroke="black" points="241,-78 241,-110 481,-110 481,-78 241,-78"/>
</a>
</g>
</g>
<!-- Node_Ja_106&#45;&gt;Node_Ja_110 -->
<g id="edge7" class="edge">
<title>Node_Ja_106:e&#45;&gt;Node_Ja_110:header</title>
<g id="a_edge7"><a xlink:title="Ja_106 &#45;&#45;&gt; Ja_110">
<path fill="none" stroke="#000000" d="M189.5,-200C234.86,-200 198.54,-116.71 231.14,-103.7"/>
<polygon fill="#000000" stroke="#000000" points="231.74,-107.15 241,-102 230.55,-100.25 231.74,-107.15"/>
</a>
</g>
</g>
<!-- Node_Ja_107 -->
<g id="node8" class="node">
<title>Node_Ja_107</title>
<g id="a_node8"><a xlink:title="mcfs.command.DataDirective">
<polygon fill="#fffaf0" stroke="transparent" points="260.5,-293.5 260.5,-370.5 461.5,-370.5 461.5,-293.5 260.5,-293.5"/>
<polygon fill="#e31a1c" stroke="transparent" points="262,-354 262,-369 461,-369 461,-354 262,-354"/>
<text text-anchor="start" x="392" y="-360" font-family="Ubuntu" font-weight="bold" font-size="10.00">DataDirective</text>
<text text-anchor="start" x="268" y="-344" font-family="Ubuntu" font-size="10.00">1</text>
<text text-anchor="start" x="279" y="-344" font-family="Ubuntu" font-size="10.00">node</text>
<polygon fill="#fb9a99" stroke="transparent" points="327,-339 327,-354 461,-354 461,-339 327,-339"/>
<text text-anchor="start" x="329" y="-345" font-family="Ubuntu" font-weight="bold" font-size="10.00">mcfs.device.NodeIdentifier</text>
<text text-anchor="start" x="268" y="-329" font-family="Ubuntu" font-size="10.00">2</text>
<text text-anchor="start" x="279" y="-329" font-family="Ubuntu" font-size="10.00">level</text>
<polygon fill="#b2df8a" stroke="transparent" points="327,-324 327,-339 461,-339 461,-324 327,-324"/>
<text text-anchor="start" x="353" y="-330" font-family="Ubuntu" text-decoration="underline" font-size="10.00">mcfs.common.LogLevel</text>
<text text-anchor="start" x="268" y="-314" font-family="Ubuntu" font-size="10.00">3</text>
<text text-anchor="start" x="279" y="-314" font-family="Ubuntu" font-size="10.00">freq_log</text>
<polygon fill="#a6cee3" stroke="transparent" points="327,-309 327,-324 461,-324 461,-309 327,-309"/>
<text text-anchor="start" x="437" y="-315" font-family="Ubuntu" font-style="italic" font-size="10.00">float</text>
<text text-anchor="start" x="268" y="-299" font-family="Ubuntu" font-size="10.00">4</text>
<text text-anchor="start" x="279" y="-299" font-family="Ubuntu" font-size="10.00">freq_send</text>
<polygon fill="#a6cee3" stroke="transparent" points="327,-294 327,-309 461,-309 461,-294 327,-294"/>
<text text-anchor="start" x="437" y="-300" font-family="Ubuntu" font-style="italic" font-size="10.00">float</text>
<polygon fill="none" stroke="black" points="260.5,-293.5 260.5,-370.5 461.5,-370.5 461.5,-293.5 260.5,-293.5"/>
</a>
</g>
</g>
<!-- Node_Ja_106&#45;&gt;Node_Ja_107 -->
<g id="edge5" class="edge">
<title>Node_Ja_106:e&#45;&gt;Node_Ja_107:header</title>
<g id="a_edge5"><a xlink:title="Ja_106 &#45;&#45;&gt; Ja_107">
<path fill="none" stroke="#000000" d="M189.5,-246C246.28,-246 206.21,-347.95 250.88,-360.7"/>
<polygon fill="#000000" stroke="#000000" points="250.63,-364.19 261,-362 251.53,-357.25 250.63,-364.19"/>
</a>
</g>
</g>
<!-- Node_Ja_108 -->
<g id="node9" class="node">
<title>Node_Ja_108</title>
<g id="a_node9"><a xlink:title="mcfs.command.ClickValve">
<polygon fill="#fffaf0" stroke="transparent" points="271,-220.5 271,-267.5 451,-267.5 451,-220.5 271,-220.5"/>
<polygon fill="#e31a1c" stroke="transparent" points="272,-251 272,-266 450,-266 450,-251 272,-251"/>
<text text-anchor="start" x="397" y="-257" font-family="Ubuntu" font-weight="bold" font-size="10.00">ClickValve</text>
<text text-anchor="start" x="278" y="-241" font-family="Ubuntu" font-size="10.00">1</text>
<text text-anchor="start" x="289" y="-241" font-family="Ubuntu" font-size="10.00">valve</text>
<polygon fill="#fb9a99" stroke="transparent" points="316,-236 316,-251 450,-251 450,-236 316,-236"/>
<text text-anchor="start" x="318" y="-242" font-family="Ubuntu" font-weight="bold" font-size="10.00">mcfs.device.NodeIdentifier</text>
<text text-anchor="start" x="278" y="-226" font-family="Ubuntu" font-size="10.00">2</text>
<text text-anchor="start" x="289" y="-226" font-family="Ubuntu" font-size="10.00">state</text>
<polygon fill="#b2df8a" stroke="transparent" points="316,-221 316,-236 450,-236 450,-221 316,-221"/>
<text text-anchor="start" x="346" y="-227" font-family="Ubuntu" text-decoration="underline" font-size="10.00">mcfs.device.ValveState</text>
<polygon fill="none" stroke="black" points="271,-220.5 271,-267.5 451,-267.5 451,-220.5 271,-220.5"/>
</a>
</g>
</g>
<!-- Node_Ja_106&#45;&gt;Node_Ja_108 -->
<g id="edge11" class="edge">
<title>Node_Ja_106:e&#45;&gt;Node_Ja_108:header</title>
<g id="a_edge11"><a xlink:title="Ja_106 &#45;&#45;&gt; Ja_108">
<path fill="none" stroke="#000000" d="M189.5,-230C224.34,-230 231.39,-253.82 261.02,-258.28"/>
<polygon fill="#000000" stroke="#000000" points="260.77,-261.77 271,-259 261.28,-254.79 260.77,-261.77"/>
</a>
</g>
</g>
<!-- Node_Ja_109&#45;&gt;Node_Ja_104 -->
<g id="edge9" class="edge">
<title>Node_Ja_109:e&#45;&gt;Node_Ja_104</title>
<g id="a_edge9"><a xlink:title="Ja_109 &#45;&#45;&gt; Ja_104">
<path fill="none" stroke="#008000" d="M450,-155C545.14,-155 655.79,-155 721.32,-155"/>
<polygon fill="#008000" stroke="#008000" points="721.44,-158.5 731.44,-155 721.44,-151.5 721.44,-158.5"/>
</a>
</g>
</g>
<!-- Node_Ja_101 -->
<g id="node11" class="node">
<title>Node_Ja_101</title>
<g id="a_node11"><a xlink:title="mcfs.device.NodeIdentifier">
<polygon fill="#fffaf0" stroke="transparent" points="542.5,-260 542.5,-322 646.5,-322 646.5,-260 542.5,-260"/>
<polygon fill="#e31a1c" stroke="transparent" points="543.5,-306 543.5,-321 645.5,-321 645.5,-306 543.5,-306"/>
<text text-anchor="start" x="571.5" y="-312" font-family="Ubuntu" font-weight="bold" font-size="10.00">NodeIdentifier</text>
<text text-anchor="start" x="549.5" y="-296" font-family="Ubuntu" font-size="10.00">1</text>
<text text-anchor="start" x="560.5" y="-296" font-family="Ubuntu" font-size="10.00">board_id</text>
<polygon fill="#a6cee3" stroke="transparent" points="603.5,-291 603.5,-306 645.5,-306 645.5,-291 603.5,-291"/>
<text text-anchor="start" x="614.5" y="-297" font-family="Ubuntu" font-style="italic" font-size="10.00">uint32</text>
<text text-anchor="start" x="549.5" y="-281" font-family="Ubuntu" font-size="10.00">2</text>
<text text-anchor="start" x="560.5" y="-281" font-family="Ubuntu" font-size="10.00">channel</text>
<polygon fill="#b2df8a" stroke="transparent" points="603.5,-276 603.5,-291 645.5,-291 645.5,-276 603.5,-276"/>
<text text-anchor="start" x="605.5" y="-282" font-family="Ubuntu" text-decoration="underline" font-size="10.00">Channel</text>
<text text-anchor="start" x="549.5" y="-266" font-family="Ubuntu" font-size="10.00">3</text>
<text text-anchor="start" x="560.5" y="-266" font-family="Ubuntu" font-size="10.00">node_id</text>
<polygon fill="#a6cee3" stroke="transparent" points="603.5,-261 603.5,-276 645.5,-276 645.5,-261 603.5,-261"/>
<text text-anchor="start" x="614.5" y="-267" font-family="Ubuntu" font-style="italic" font-size="10.00">uint32</text>
<polygon fill="none" stroke="black" points="542.5,-260 542.5,-322 646.5,-322 646.5,-260 542.5,-260"/>
</a>
</g>
</g>
<!-- Node_Ja_109&#45;&gt;Node_Ja_101 -->
<g id="edge3" class="edge">
<title>Node_Ja_109:e&#45;&gt;Node_Ja_101:header</title>
<g id="a_edge3"><a xlink:title="Ja_109 &#45;&#45;&gt; Ja_101">
<path fill="none" stroke="#000000" d="M450,-170C522.35,-170 471.93,-300.28 532.3,-313"/>
<polygon fill="#000000" stroke="#000000" points="532.21,-316.51 542.5,-314 532.89,-309.54 532.21,-316.51"/>
</a>
</g>
</g>
<!-- Node_Ja_110&#45;&gt;Node_Ja_105 -->
<g id="edge10" class="edge">
<title>Node_Ja_110:e&#45;&gt;Node_Ja_105</title>
<g id="a_edge10"><a xlink:title="Ja_110 &#45;&#45;&gt; Ja_105">
<path fill="none" stroke="#008000" d="M481,-86C558.21,-86 646.59,-81.92 706.83,-78.51"/>
<polygon fill="#008000" stroke="#008000" points="707.21,-82 716.99,-77.93 706.81,-75.01 707.21,-82"/>
</a>
</g>
</g>
<!-- Node_Ja_100 -->
<g id="node10" class="node">
<title>Node_Ja_100</title>
<g id="a_node10"><a xlink:title="LogLevel">
<polygon fill="#b2df8a" stroke="transparent" points="533,-377.5 533,-454.5 656,-454.5 656,-377.5 533,-377.5"/>
<polygon fill="#33a02c" stroke="transparent" points="534.5,-438 534.5,-453 655.5,-453 655.5,-438 534.5,-438"/>
<text text-anchor="start" x="580.5" y="-444" font-family="Ubuntu" font-size="10.00">enum </text>
<text text-anchor="start" x="608.5" y="-444" font-family="Ubuntu" font-weight="bold" font-size="10.00">LogLevel</text>
<polygon fill="#b2df8a" stroke="transparent" points="534.5,-423 534.5,-438 644.5,-438 644.5,-423 534.5,-423"/>
<text text-anchor="start" x="536.5" y="-428" font-family="Ubuntu" font-size="10.00">LOG_LEVEL_DATA</text>
<polygon fill="#b2df8a" stroke="transparent" points="644.5,-423 644.5,-438 655.5,-438 655.5,-423 644.5,-423"/>
<text text-anchor="start" x="646.5" y="-428" font-family="Ubuntu" font-size="10.00">0</text>
<polygon fill="#b2df8a" stroke="transparent" points="534.5,-408 534.5,-423 644.5,-423 644.5,-408 534.5,-408"/>
<text text-anchor="start" x="536.5" y="-413" font-family="Ubuntu" font-size="10.00">LOG_LEVEL_DEBUG</text>
<polygon fill="#b2df8a" stroke="transparent" points="644.5,-408 644.5,-423 655.5,-423 655.5,-408 644.5,-408"/>
<text text-anchor="start" x="646.5" y="-413" font-family="Ubuntu" font-size="10.00">1</text>
<polygon fill="#b2df8a" stroke="transparent" points="534.5,-393 534.5,-408 644.5,-408 644.5,-393 534.5,-393"/>
<text text-anchor="start" x="536.5" y="-398" font-family="Ubuntu" font-size="10.00">LOG_LEVEL_WARNING</text>
<polygon fill="#b2df8a" stroke="transparent" points="644.5,-393 644.5,-408 655.5,-408 655.5,-393 644.5,-393"/>
<text text-anchor="start" x="646.5" y="-398" font-family="Ubuntu" font-size="10.00">2</text>
<polygon fill="#b2df8a" stroke="transparent" points="534.5,-378 534.5,-393 644.5,-393 644.5,-378 534.5,-378"/>
<text text-anchor="start" x="536.5" y="-383" font-family="Ubuntu" font-size="10.00">LOG_LEVEL_ERROR</text>
<polygon fill="#b2df8a" stroke="transparent" points="644.5,-378 644.5,-393 655.5,-393 655.5,-378 644.5,-378"/>
<text text-anchor="start" x="646.5" y="-383" font-family="Ubuntu" font-size="10.00">3</text>
<polygon fill="none" stroke="black" points="533,-377.5 533,-454.5 656,-454.5 656,-377.5 533,-377.5"/>
</a>
</g>
</g>
<!-- Node_Ja_107&#45;&gt;Node_Ja_100 -->
<g id="edge12" class="edge">
<title>Node_Ja_107:e&#45;&gt;Node_Ja_100</title>
<g id="a_edge12"><a xlink:title="Ja_107 &#45;&#45;&gt; Ja_100">
<path fill="none" stroke="#008000" d="M462,-331C469.89,-331 497.64,-348.47 525.64,-367.56"/>
<polygon fill="#008000" stroke="#008000" points="523.69,-370.47 533.91,-373.25 527.65,-364.7 523.69,-370.47"/>
</a>
</g>
</g>
<!-- Node_Ja_107&#45;&gt;Node_Ja_101 -->
<g id="edge8" class="edge">
<title>Node_Ja_107:e&#45;&gt;Node_Ja_101:header</title>
<g id="a_edge8"><a xlink:title="Ja_107 &#45;&#45;&gt; Ja_101">
<path fill="none" stroke="#000000" d="M462,-347C497.04,-347 502.93,-319.9 532.5,-314.82"/>
<polygon fill="#000000" stroke="#000000" points="532.82,-318.3 542.5,-314 532.25,-311.32 532.82,-318.3"/>
</a>
</g>
</g>
<!-- Node_Ja_108&#45;&gt;Node_Ja_103 -->
<g id="edge2" class="edge">
<title>Node_Ja_108:e&#45;&gt;Node_Ja_103</title>
<g id="a_edge2"><a xlink:title="Ja_108 &#45;&#45;&gt; Ja_103">
<path fill="none" stroke="#008000" d="M451,-228C543.29,-228 650.21,-228 716.1,-228"/>
<polygon fill="#008000" stroke="#008000" points="716.32,-231.5 726.32,-228 716.32,-224.5 716.32,-231.5"/>
</a>
</g>
</g>
<!-- Node_Ja_108&#45;&gt;Node_Ja_101 -->
<g id="edge1" class="edge">
<title>Node_Ja_108:e&#45;&gt;Node_Ja_101:header</title>
<g id="a_edge1"><a xlink:title="Ja_108 &#45;&#45;&gt; Ja_101">
<path fill="none" stroke="#000000" d="M451,-243C498.85,-243 492.33,-304.37 532.53,-313"/>
<polygon fill="#000000" stroke="#000000" points="532.2,-316.48 542.5,-314 532.9,-309.52 532.2,-316.48"/>
</a>
</g>
</g>
<!-- Node_Ja_101&#45;&gt;Node_Ja_102 -->
<g id="edge4" class="edge">
<title>Node_Ja_101:e&#45;&gt;Node_Ja_102</title>
<g id="a_edge4"><a xlink:title="Ja_101 &#45;&#45;&gt; Ja_102">
<path fill="none" stroke="#008000" d="M646.5,-283C661.68,-283 676.64,-286.87 690.73,-292.88"/>
<polygon fill="#008000" stroke="#008000" points="689.32,-296.08 699.86,-297.13 692.27,-289.74 689.32,-296.08"/>
</a>
</g>
</g>
</g>
</svg>
