<?xml version="1.0" encoding="UTF-8" standalone="no"?>
<!DOCTYPE svg PUBLIC "-//W3C//DTD SVG 1.1//EN"
 "http://www.w3.org/Graphics/SVG/1.1/DTD/svg11.dtd">
<!-- Generated by graphviz version 2.43.0 (0)
 -->
<!-- Title: protodot Pages: 1 -->
<svg width="821pt" height="767pt"
 viewBox="0.00 0.00 821.00 767.00" xmlns="http://www.w3.org/2000/svg" xmlns:xlink="http://www.w3.org/1999/xlink">
<g id="graph0" class="graph" transform="scale(1 1) rotate(0) translate(4 763)">
<title>protodot</title>
<g id="a_graph0"><a xlink:title="mcfs.data">
<text text-anchor="middle" x="406.5" y="-7.8" font-family="Times,serif" font-size="14.00">mcfs.data</text>
</a>
</g>
<g id="clust1" class="cluster">
<title>cluster_008970577f45</title>
<g id="a_clust1"><a xlink:title="mcfs.device">
<polygon fill="#caff70" stroke="black" points="630,-302 630,-751 805,-751 805,-302 630,-302"/>
<text text-anchor="middle" x="717.5" y="-735.8" font-family="Times,serif" font-size="14.00">mcfs.device</text>
</a>
</g>
</g>
<g id="clust2" class="cluster">
<title>cluster_61262a03deff</title>
<g id="a_clust2"><a xlink:title="external/timestamp.proto">
<polygon fill="#caff70" stroke="black" points="474,-421 474,-516 610,-516 610,-421 474,-421"/>
<text text-anchor="middle" x="542" y="-500.8" font-family="Times,serif" font-size="14.00">timestamp.proto</text>
</a>
</g>
</g>
<g id="clust3" class="cluster">
<title>cluster_aff9eb45ba08</title>
<g id="a_clust3"><a xlink:title="device.proto">
<polygon fill="#caff70" stroke="black" points="474,-524 474,-633 610,-633 610,-524 474,-524"/>
<text text-anchor="middle" x="542" y="-617.8" font-family="Times,serif" font-size="14.00">device.proto</text>
</a>
</g>
</g>
<!-- Node_Ja_103 -->
<g id="node1" class="node">
<title>Node_Ja_103</title>
<g id="a_node1"><a xlink:title="LEDState">
<polygon fill="#b2df8a" stroke="transparent" points="677.5,-668.5 677.5,-715.5 757.5,-715.5 757.5,-668.5 677.5,-668.5"/>
<polygon fill="#33a02c" stroke="transparent" points="678.5,-699 678.5,-714 756.5,-714 756.5,-699 678.5,-699"/>
<text text-anchor="start" x="680.5" y="-705" font-family="Ubuntu" font-size="10.00">enum </text>
<text text-anchor="start" x="708.5" y="-705" font-family="Ubuntu" font-weight="bold" font-size="10.00">LEDState</text>
<polygon fill="#b2df8a" stroke="transparent" points="678.5,-684 678.5,-699 735.5,-699 735.5,-684 678.5,-684"/>
<text text-anchor="start" x="680.5" y="-689" font-family="Ubuntu" font-size="10.00">LED_OFF</text>
<polygon fill="#b2df8a" stroke="transparent" points="735.5,-684 735.5,-699 756.5,-699 756.5,-684 735.5,-684"/>
<text text-anchor="start" x="737.5" y="-689" font-family="Ubuntu" font-size="10.00">0</text>
<polygon fill="#b2df8a" stroke="transparent" points="678.5,-669 678.5,-684 735.5,-684 735.5,-669 678.5,-669"/>
<text text-anchor="start" x="680.5" y="-674" font-family="Ubuntu" font-size="10.00">LED_ON</text>
<polygon fill="#b2df8a" stroke="transparent" points="735.5,-669 735.5,-684 756.5,-684 756.5,-669 735.5,-669"/>
<text text-anchor="start" x="737.5" y="-674" font-family="Ubuntu" font-size="10.00">1</text>
<polygon fill="none" stroke="black" points="677.5,-668.5 677.5,-715.5 757.5,-715.5 757.5,-668.5 677.5,-668.5"/>
</a>
</g>
</g>
<!-- Node_Ja_101 -->
<g id="node2" class="node">
<title>Node_Ja_101</title>
<g id="a_node2"><a xlink:title="Channel">
<polygon fill="#b2df8a" stroke="transparent" points="646,-475.5 646,-642.5 789,-642.5 789,-475.5 646,-475.5"/>
<polygon fill="#33a02c" stroke="transparent" points="647.5,-626 647.5,-641 788.5,-641 788.5,-626 647.5,-626"/>
<text text-anchor="start" x="718.5" y="-632" font-family="Ubuntu" font-size="10.00">enum </text>
<text text-anchor="start" x="746.5" y="-632" font-family="Ubuntu" font-weight="bold" font-size="10.00">Channel</text>
<polygon fill="#b2df8a" stroke="transparent" points="647.5,-611 647.5,-626 777.5,-626 777.5,-611 647.5,-611"/>
<text text-anchor="start" x="649.5" y="-616" font-family="Ubuntu" font-size="10.00">GPIO</text>
<polygon fill="#b2df8a" stroke="transparent" points="777.5,-611 777.5,-626 788.5,-626 788.5,-611 777.5,-611"/>
<text text-anchor="start" x="779.5" y="-616" font-family="Ubuntu" font-size="10.00">0</text>
<polygon fill="#b2df8a" stroke="transparent" points="647.5,-596 647.5,-611 777.5,-611 777.5,-596 647.5,-596"/>
<text text-anchor="start" x="649.5" y="-601" font-family="Ubuntu" font-size="10.00">LED</text>
<polygon fill="#b2df8a" stroke="transparent" points="777.5,-596 777.5,-611 788.5,-611 788.5,-596 777.5,-596"/>
<text text-anchor="start" x="779.5" y="-601" font-family="Ubuntu" font-size="10.00">1</text>
<polygon fill="#b2df8a" stroke="transparent" points="647.5,-581 647.5,-596 777.5,-596 777.5,-581 647.5,-581"/>
<text text-anchor="start" x="649.5" y="-586" font-family="Ubuntu" font-size="10.00">RAIL_3V3</text>
<polygon fill="#b2df8a" stroke="transparent" points="777.5,-581 777.5,-596 788.5,-596 788.5,-581 777.5,-581"/>
<text text-anchor="start" x="779.5" y="-586" font-family="Ubuntu" font-size="10.00">2</text>
<polygon fill="#b2df8a" stroke="transparent" points="647.5,-566 647.5,-581 777.5,-581 777.5,-566 647.5,-566"/>
<text text-anchor="start" x="649.5" y="-571" font-family="Ubuntu" font-size="10.00">RAIL_5V</text>
<polygon fill="#b2df8a" stroke="transparent" points="777.5,-566 777.5,-581 788.5,-581 788.5,-566 777.5,-566"/>
<text text-anchor="start" x="779.5" y="-571" font-family="Ubuntu" font-size="10.00">3</text>
<polygon fill="#b2df8a" stroke="transparent" points="647.5,-551 647.5,-566 777.5,-566 777.5,-551 647.5,-551"/>
<text text-anchor="start" x="649.5" y="-556" font-family="Ubuntu" font-size="10.00">RAIL_5V5</text>
<polygon fill="#b2df8a" stroke="transparent" points="777.5,-551 777.5,-566 788.5,-566 788.5,-551 777.5,-551"/>
<text text-anchor="start" x="779.5" y="-556" font-family="Ubuntu" font-size="10.00">4</text>
<polygon fill="#b2df8a" stroke="transparent" points="647.5,-536 647.5,-551 777.5,-551 777.5,-536 647.5,-536"/>
<text text-anchor="start" x="649.5" y="-541" font-family="Ubuntu" font-size="10.00">RAIL_24V</text>
<polygon fill="#b2df8a" stroke="transparent" points="777.5,-536 777.5,-551 788.5,-551 788.5,-536 777.5,-536"/>
<text text-anchor="start" x="779.5" y="-541" font-family="Ubuntu" font-size="10.00">5</text>
<polygon fill="#b2df8a" stroke="transparent" points="647.5,-521 647.5,-536 777.5,-536 777.5,-521 647.5,-521"/>
<text text-anchor="start" x="649.5" y="-526" font-family="Ubuntu" font-size="10.00">CURRENT_LOOP</text>
<polygon fill="#b2df8a" stroke="transparent" points="777.5,-521 777.5,-536 788.5,-536 788.5,-521 777.5,-521"/>
<text text-anchor="start" x="779.5" y="-526" font-family="Ubuntu" font-size="10.00">6</text>
<polygon fill="#b2df8a" stroke="transparent" points="647.5,-506 647.5,-521 777.5,-521 777.5,-506 647.5,-506"/>
<text text-anchor="start" x="649.5" y="-511" font-family="Ubuntu" font-size="10.00">DIFFERENTIAL_SIGNAL</text>
<polygon fill="#b2df8a" stroke="transparent" points="777.5,-506 777.5,-521 788.5,-521 788.5,-506 777.5,-506"/>
<text text-anchor="start" x="779.5" y="-511" font-family="Ubuntu" font-size="10.00">7</text>
<polygon fill="#b2df8a" stroke="transparent" points="647.5,-491 647.5,-506 777.5,-506 777.5,-491 647.5,-491"/>
<text text-anchor="start" x="649.5" y="-496" font-family="Ubuntu" font-size="10.00">TEMPERATURE_DETECTOR</text>
<polygon fill="#b2df8a" stroke="transparent" points="777.5,-491 777.5,-506 788.5,-506 788.5,-491 777.5,-491"/>
<text text-anchor="start" x="779.5" y="-496" font-family="Ubuntu" font-size="10.00">8</text>
<polygon fill="#b2df8a" stroke="transparent" points="647.5,-476 647.5,-491 777.5,-491 777.5,-476 647.5,-476"/>
<text text-anchor="start" x="649.5" y="-481" font-family="Ubuntu" font-size="10.00">VALVE</text>
<polygon fill="#b2df8a" stroke="transparent" points="777.5,-476 777.5,-491 788.5,-491 788.5,-476 777.5,-476"/>
<text text-anchor="start" x="779.5" y="-481" font-family="Ubuntu" font-size="10.00">9</text>
<polygon fill="none" stroke="black" points="646,-475.5 646,-642.5 789,-642.5 789,-475.5 646,-475.5"/>
</a>
</g>
</g>
<!-- Node_Ja_102 -->
<g id="node3" class="node">
<title>Node_Ja_102</title>
<g id="a_node3"><a xlink:title="ValveState">
<polygon fill="#b2df8a" stroke="transparent" points="672.5,-402.5 672.5,-449.5 762.5,-449.5 762.5,-402.5 672.5,-402.5"/>
<polygon fill="#33a02c" stroke="transparent" points="673.5,-433 673.5,-448 761.5,-448 761.5,-433 673.5,-433"/>
<text text-anchor="start" x="678.5" y="-439" font-family="Ubuntu" font-size="10.00">enum </text>
<text text-anchor="start" x="706.5" y="-439" font-family="Ubuntu" font-weight="bold" font-size="10.00">ValveState</text>
<polygon fill="#b2df8a" stroke="transparent" points="673.5,-418 673.5,-433 750.5,-433 750.5,-418 673.5,-418"/>
<text text-anchor="start" x="675.5" y="-423" font-family="Ubuntu" font-size="10.00">VALVE_OPEN</text>
<polygon fill="#b2df8a" stroke="transparent" points="750.5,-418 750.5,-433 761.5,-433 761.5,-418 750.5,-418"/>
<text text-anchor="start" x="752.5" y="-423" font-family="Ubuntu" font-size="10.00">0</text>
<polygon fill="#b2df8a" stroke="transparent" points="673.5,-403 673.5,-418 750.5,-418 750.5,-403 673.5,-403"/>
<text text-anchor="start" x="675.5" y="-408" font-family="Ubuntu" font-size="10.00">VALVE_CLOSED</text>
<polygon fill="#b2df8a" stroke="transparent" points="750.5,-403 750.5,-418 761.5,-418 761.5,-403 750.5,-403"/>
<text text-anchor="start" x="752.5" y="-408" font-family="Ubuntu" font-size="10.00">1</text>
<polygon fill="none" stroke="black" points="672.5,-402.5 672.5,-449.5 762.5,-449.5 762.5,-402.5 672.5,-402.5"/>
</a>
</g>
</g>
<!-- Node_Ja_104 -->
<g id="node4" class="node">
<title>Node_Ja_104</title>
<g id="a_node4"><a xlink:title="DeviceType">
<polygon fill="#b2df8a" stroke="transparent" points="663,-314 663,-376 772,-376 772,-314 663,-314"/>
<polygon fill="#33a02c" stroke="transparent" points="664.5,-360 664.5,-375 771.5,-375 771.5,-360 664.5,-360"/>
<text text-anchor="start" x="686.5" y="-366" font-family="Ubuntu" font-size="10.00">enum </text>
<text text-anchor="start" x="714.5" y="-366" font-family="Ubuntu" font-weight="bold" font-size="10.00">DeviceType</text>
<polygon fill="#b2df8a" stroke="transparent" points="664.5,-345 664.5,-360 760.5,-360 760.5,-345 664.5,-345"/>
<text text-anchor="start" x="666.5" y="-350" font-family="Ubuntu" font-size="10.00">SERVER</text>
<polygon fill="#b2df8a" stroke="transparent" points="760.5,-345 760.5,-360 771.5,-360 771.5,-345 760.5,-345"/>
<text text-anchor="start" x="762.5" y="-350" font-family="Ubuntu" font-size="10.00">0</text>
<polygon fill="#b2df8a" stroke="transparent" points="664.5,-330 664.5,-345 760.5,-345 760.5,-330 664.5,-330"/>
<text text-anchor="start" x="666.5" y="-335" font-family="Ubuntu" font-size="10.00">FLIGHT_COMPUTER</text>
<polygon fill="#b2df8a" stroke="transparent" points="760.5,-330 760.5,-345 771.5,-345 771.5,-330 760.5,-330"/>
<text text-anchor="start" x="762.5" y="-335" font-family="Ubuntu" font-size="10.00">1</text>
<polygon fill="#b2df8a" stroke="transparent" points="664.5,-315 664.5,-330 760.5,-330 760.5,-315 664.5,-315"/>
<text text-anchor="start" x="666.5" y="-320" font-family="Ubuntu" font-size="10.00">SAM</text>
<polygon fill="#b2df8a" stroke="transparent" points="760.5,-315 760.5,-330 771.5,-330 771.5,-315 760.5,-315"/>
<text text-anchor="start" x="762.5" y="-320" font-family="Ubuntu" font-size="10.00">2</text>
<polygon fill="none" stroke="black" points="663,-314 663,-376 772,-376 772,-314 663,-314"/>
</a>
</g>
</g>
<!-- Node_Ja_105 -->
<g id="node5" class="node">
<title>Node_Ja_105</title>
<g id="a_node5"><a xlink:title="google.protobuf.Timestamp">
<polygon fill="#fffaf0" stroke="transparent" points="499,-433.5 499,-480.5 585,-480.5 585,-433.5 499,-433.5"/>
<polygon fill="#e31a1c" stroke="transparent" points="500,-464 500,-479 584,-479 584,-464 500,-464"/>
<text text-anchor="start" x="530" y="-470" font-family="Ubuntu" font-weight="bold" font-size="10.00">Timestamp</text>
<text text-anchor="start" x="506" y="-454" font-family="Ubuntu" font-size="10.00">1</text>
<text text-anchor="start" x="517" y="-454" font-family="Ubuntu" font-size="10.00">seconds</text>
<polygon fill="#a6cee3" stroke="transparent" points="556,-449 556,-464 584,-464 584,-449 556,-449"/>
<text text-anchor="start" x="558" y="-455" font-family="Ubuntu" font-style="italic" font-size="10.00">int64</text>
<text text-anchor="start" x="506" y="-439" font-family="Ubuntu" font-size="10.00">2</text>
<text text-anchor="start" x="517" y="-439" font-family="Ubuntu" font-size="10.00">nanos</text>
<polygon fill="#a6cee3" stroke="transparent" points="556,-434 556,-449 584,-449 584,-434 556,-434"/>
<text text-anchor="start" x="558" y="-440" font-family="Ubuntu" font-style="italic" font-size="10.00">int32</text>
<polygon fill="none" stroke="black" points="499,-433.5 499,-480.5 585,-480.5 585,-433.5 499,-433.5"/>
</a>
</g>
</g>
<!-- Node_Ja_110 -->
<g id="node6" class="node">
<title>Node_Ja_110</title>
<g id="a_node6"><a xlink:title="mcfs.data.I64Array">
<polygon fill="#fffaf0" stroke="transparent" points="500.5,-201 500.5,-233 583.5,-233 583.5,-201 500.5,-201"/>
<polygon fill="#e31a1c" stroke="transparent" points="502,-217 502,-232 583,-232 583,-217 502,-217"/>
<text text-anchor="start" x="539" y="-223" font-family="Ubuntu" font-weight="bold" font-size="10.00">I64Array</text>
<text text-anchor="start" x="504" y="-207" font-family="Ubuntu" font-size="10.00">[...]</text>
<text text-anchor="start" x="521" y="-207" font-family="Ubuntu" font-size="10.00">1</text>
<text text-anchor="start" x="532" y="-207" font-family="Ubuntu" font-size="10.00">data</text>
<polygon fill="#a6cee3" stroke="transparent" points="555,-202 555,-217 583,-217 583,-202 555,-202"/>
<text text-anchor="start" x="557" y="-208" font-family="Ubuntu" font-style="italic" font-size="10.00">int32</text>
<polygon fill="none" stroke="black" points="500.5,-201 500.5,-233 583.5,-233 583.5,-201 500.5,-201"/>
</a>
</g>
</g>
<!-- Node_Ja_106 -->
<g id="node7" class="node">
<title>Node_Ja_106</title>
<g id="a_node7"><a xlink:title="mcfs.data.Data">
<polygon fill="#fffaf0" stroke="transparent" points="8,-381 8,-413 144,-413 144,-381 8,-381"/>
<polygon fill="#e31a1c" stroke="transparent" points="9,-397 9,-412 143,-412 143,-397 9,-397"/>
<text text-anchor="start" x="118" y="-403" font-family="Ubuntu" font-weight="bold" font-size="10.00">Data</text>
<text text-anchor="start" x="11" y="-387" font-family="Ubuntu" font-size="10.00">[...]</text>
<text text-anchor="start" x="28" y="-387" font-family="Ubuntu" font-size="10.00">1</text>
<text text-anchor="start" x="39" y="-387" font-family="Ubuntu" font-size="10.00">node_data</text>
<polygon fill="#fb9a99" stroke="transparent" points="90,-382 90,-397 143,-397 143,-382 90,-382"/>
<text text-anchor="start" x="92" y="-388" font-family="Ubuntu" font-weight="bold" font-size="10.00">NodeData</text>
<polygon fill="none" stroke="black" points="8,-381 8,-413 144,-413 144,-381 8,-381"/>
</a>
</g>
</g>
<!-- Node_Ja_114 -->
<g id="node14" class="node">
<title>Node_Ja_114</title>
<g id="a_node14"><a xlink:title="mcfs.data.NodeData">
<polygon fill="#fffaf0" stroke="transparent" points="196,-211 196,-397 438,-397 438,-211 196,-211"/>
<polygon fill="#e31a1c" stroke="transparent" points="197,-381 197,-396 437,-396 437,-381 197,-381"/>
<text text-anchor="start" x="386" y="-387" font-family="Ubuntu" font-weight="bold" font-size="10.00">NodeData</text>
<text text-anchor="start" x="222" y="-371" font-family="Ubuntu" font-size="10.00">1</text>
<text text-anchor="start" x="233" y="-371" font-family="Ubuntu" font-size="10.00">node</text>
<polygon fill="#fb9a99" stroke="transparent" points="302,-366 302,-381 437,-381 437,-366 302,-366"/>
<text text-anchor="start" x="305" y="-372" font-family="Ubuntu" font-weight="bold" font-size="10.00">mcfs.device.NodeIdentifier</text>
<text text-anchor="start" x="222" y="-356" font-family="Ubuntu" font-size="10.00">2</text>
<text text-anchor="start" x="233" y="-356" font-family="Ubuntu" font-size="10.00">timestamp</text>
<polygon fill="#fb9a99" stroke="transparent" points="302,-351 302,-366 437,-366 437,-351 302,-351"/>
<text text-anchor="start" x="304" y="-357" font-family="Ubuntu" font-weight="bold" font-size="10.00">google.protobuf.Timestamp</text>
<text text-anchor="start" x="199" y="-341" font-family="Ubuntu" font-size="10.00">[...]</text>
<text text-anchor="start" x="222" y="-341" font-family="Ubuntu" font-size="10.00">3</text>
<text text-anchor="start" x="233" y="-341" font-family="Ubuntu" font-size="10.00">micros_offsets</text>
<polygon fill="#a6cee3" stroke="transparent" points="302,-336 302,-351 437,-351 437,-336 302,-336"/>
<text text-anchor="start" x="406" y="-342" font-family="Ubuntu" font-style="italic" font-size="10.00">uint32</text>
<polygon fill="#fdbf6f" stroke="transparent" points="197,-321 197,-336 437,-336 437,-321 197,-321"/>
<text text-anchor="start" x="199" y="-326" font-family="Ubuntu" font-size="10.00">data_points</text>
<polygon fill="#fdbf6f" stroke="transparent" points="197,-306 197,-321 214,-321 214,-306 197,-306"/>
<text text-anchor="start" x="222" y="-311" font-family="Ubuntu" font-size="10.00">4</text>
<text text-anchor="start" x="233" y="-311" font-family="Ubuntu" font-size="10.00">bool_array</text>
<polygon fill="#fb9a99" stroke="transparent" points="302,-306 302,-321 437,-321 437,-306 302,-306"/>
<text text-anchor="start" x="386" y="-312" font-family="Ubuntu" font-weight="bold" font-size="10.00">BoolArray</text>
<polygon fill="#fdbf6f" stroke="transparent" points="197,-291 197,-306 214,-306 214,-291 197,-291"/>
<text text-anchor="start" x="222" y="-296" font-family="Ubuntu" font-size="10.00">5</text>
<text text-anchor="start" x="233" y="-296" font-family="Ubuntu" font-size="10.00">i32_array</text>
<polygon fill="#fb9a99" stroke="transparent" points="302,-291 302,-306 437,-306 437,-291 302,-291"/>
<text text-anchor="start" x="393" y="-297" font-family="Ubuntu" font-weight="bold" font-size="10.00">I32Array</text>
<polygon fill="#fdbf6f" stroke="transparent" points="197,-276 197,-291 214,-291 214,-276 197,-276"/>
<text text-anchor="start" x="222" y="-281" font-family="Ubuntu" font-size="10.00">6</text>
<text text-anchor="start" x="233" y="-281" font-family="Ubuntu" font-size="10.00">u32_array</text>
<polygon fill="#fb9a99" stroke="transparent" points="302,-276 302,-291 437,-291 437,-276 302,-276"/>
<text text-anchor="start" x="389" y="-282" font-family="Ubuntu" font-weight="bold" font-size="10.00">U32Array</text>
<polygon fill="#fdbf6f" stroke="transparent" points="197,-261 197,-276 214,-276 214,-261 197,-261"/>
<text text-anchor="start" x="222" y="-266" font-family="Ubuntu" font-size="10.00">7</text>
<text text-anchor="start" x="233" y="-266" font-family="Ubuntu" font-size="10.00">i64_array</text>
<polygon fill="#fb9a99" stroke="transparent" points="302,-261 302,-276 437,-276 437,-261 302,-261"/>
<text text-anchor="start" x="393" y="-267" font-family="Ubuntu" font-weight="bold" font-size="10.00">I64Array</text>
<polygon fill="#fdbf6f" stroke="transparent" points="197,-246 197,-261 214,-261 214,-246 197,-246"/>
<text text-anchor="start" x="222" y="-251" font-family="Ubuntu" font-size="10.00">8</text>
<text text-anchor="start" x="233" y="-251" font-family="Ubuntu" font-size="10.00">u64_array</text>
<polygon fill="#fb9a99" stroke="transparent" points="302,-246 302,-261 437,-261 437,-246 302,-246"/>
<text text-anchor="start" x="389" y="-252" font-family="Ubuntu" font-weight="bold" font-size="10.00">U64Array</text>
<polygon fill="#fdbf6f" stroke="transparent" points="197,-231 197,-246 214,-246 214,-231 197,-231"/>
<text text-anchor="start" x="222" y="-236" font-family="Ubuntu" font-size="10.00">9</text>
<text text-anchor="start" x="233" y="-236" font-family="Ubuntu" font-size="10.00">f32_array</text>
<polygon fill="#fb9a99" stroke="transparent" points="302,-231 302,-246 437,-246 437,-231 302,-231"/>
<text text-anchor="start" x="390" y="-237" font-family="Ubuntu" font-weight="bold" font-size="10.00">F32Array</text>
<polygon fill="#fdbf6f" stroke="transparent" points="197,-216 197,-231 214,-231 214,-216 197,-216"/>
<text text-anchor="start" x="216" y="-221" font-family="Ubuntu" font-size="10.00">10</text>
<text text-anchor="start" x="233" y="-221" font-family="Ubuntu" font-size="10.00">f64_array</text>
<polygon fill="#fb9a99" stroke="transparent" points="302,-216 302,-231 437,-231 437,-216 302,-216"/>
<text text-anchor="start" x="390" y="-222" font-family="Ubuntu" font-weight="bold" font-size="10.00">F64Array</text>
<polygon fill="#fdbf6f" stroke="transparent" points="197,-212 197,-216 437,-216 437,-212 197,-212"/>
<polygon fill="none" stroke="black" points="196,-211 196,-397 438,-397 438,-211 196,-211"/>
</a>
</g>
</g>
<!-- Node_Ja_106&#45;&gt;Node_Ja_114 -->
<g id="edge2" class="edge">
<title>Node_Ja_106:e&#45;&gt;Node_Ja_114:header</title>
<g id="a_edge2"><a xlink:title="Ja_106 &#45;&#45;&gt; Ja_114">
<path fill="none" stroke="#000000" d="M144,-389C163.32,-389 170.53,-389 185.87,-389"/>
<polygon fill="#000000" stroke="#000000" points="186,-392.5 196,-389 186,-385.5 186,-392.5"/>
</a>
</g>
</g>
<!-- Node_Ja_108 -->
<g id="node8" class="node">
<title>Node_Ja_108</title>
<g id="a_node8"><a xlink:title="mcfs.data.I32Array">
<polygon fill="#fffaf0" stroke="transparent" points="498.5,-317 498.5,-349 585.5,-349 585.5,-317 498.5,-317"/>
<polygon fill="#e31a1c" stroke="transparent" points="500,-333 500,-348 585,-348 585,-333 500,-333"/>
<text text-anchor="start" x="541" y="-339" font-family="Ubuntu" font-weight="bold" font-size="10.00">I32Array</text>
<text text-anchor="start" x="502" y="-323" font-family="Ubuntu" font-size="10.00">[...]</text>
<text text-anchor="start" x="519" y="-323" font-family="Ubuntu" font-size="10.00">1</text>
<text text-anchor="start" x="530" y="-323" font-family="Ubuntu" font-size="10.00">data</text>
<polygon fill="#a6cee3" stroke="transparent" points="553,-318 553,-333 585,-333 585,-318 553,-318"/>
<text text-anchor="start" x="555" y="-324" font-family="Ubuntu" font-style="italic" font-size="10.00">sint32</text>
<polygon fill="none" stroke="black" points="498.5,-317 498.5,-349 585.5,-349 585.5,-317 498.5,-317"/>
</a>
</g>
</g>
<!-- Node_Ja_109 -->
<g id="node9" class="node">
<title>Node_Ja_109</title>
<g id="a_node9"><a xlink:title="mcfs.data.U32Array">
<polygon fill="#fffaf0" stroke="transparent" points="498,-259 498,-291 586,-291 586,-259 498,-259"/>
<polygon fill="#e31a1c" stroke="transparent" points="499,-275 499,-290 585,-290 585,-275 499,-275"/>
<text text-anchor="start" x="537" y="-281" font-family="Ubuntu" font-weight="bold" font-size="10.00">U32Array</text>
<text text-anchor="start" x="501" y="-265" font-family="Ubuntu" font-size="10.00">[...]</text>
<text text-anchor="start" x="518" y="-265" font-family="Ubuntu" font-size="10.00">1</text>
<text text-anchor="start" x="529" y="-265" font-family="Ubuntu" font-size="10.00">data</text>
<polygon fill="#a6cee3" stroke="transparent" points="552,-260 552,-275 585,-275 585,-260 552,-260"/>
<text text-anchor="start" x="554" y="-266" font-family="Ubuntu" font-style="italic" font-size="10.00">uint32</text>
<polygon fill="none" stroke="black" points="498,-259 498,-291 586,-291 586,-259 498,-259"/>
</a>
</g>
</g>
<!-- Node_Ja_111 -->
<g id="node10" class="node">
<title>Node_Ja_111</title>
<g id="a_node10"><a xlink:title="mcfs.data.U64Array">
<polygon fill="#fffaf0" stroke="transparent" points="498,-143 498,-175 586,-175 586,-143 498,-143"/>
<polygon fill="#e31a1c" stroke="transparent" points="499,-159 499,-174 585,-174 585,-159 499,-159"/>
<text text-anchor="start" x="537" y="-165" font-family="Ubuntu" font-weight="bold" font-size="10.00">U64Array</text>
<text text-anchor="start" x="501" y="-149" font-family="Ubuntu" font-size="10.00">[...]</text>
<text text-anchor="start" x="518" y="-149" font-family="Ubuntu" font-size="10.00">1</text>
<text text-anchor="start" x="529" y="-149" font-family="Ubuntu" font-size="10.00">data</text>
<polygon fill="#a6cee3" stroke="transparent" points="552,-144 552,-159 585,-159 585,-144 552,-144"/>
<text text-anchor="start" x="554" y="-150" font-family="Ubuntu" font-style="italic" font-size="10.00">uint32</text>
<polygon fill="none" stroke="black" points="498,-143 498,-175 586,-175 586,-143 498,-143"/>
</a>
</g>
</g>
<!-- Node_Ja_113 -->
<g id="node11" class="node">
<title>Node_Ja_113</title>
<g id="a_node11"><a xlink:title="mcfs.data.F64Array">
<polygon fill="#fffaf0" stroke="transparent" points="497.5,-27 497.5,-59 586.5,-59 586.5,-27 497.5,-27"/>
<polygon fill="#e31a1c" stroke="transparent" points="499,-43 499,-58 586,-58 586,-43 499,-43"/>
<text text-anchor="start" x="539" y="-49" font-family="Ubuntu" font-weight="bold" font-size="10.00">F64Array</text>
<text text-anchor="start" x="501" y="-33" font-family="Ubuntu" font-size="10.00">[...]</text>
<text text-anchor="start" x="518" y="-33" font-family="Ubuntu" font-size="10.00">1</text>
<text text-anchor="start" x="529" y="-33" font-family="Ubuntu" font-size="10.00">data</text>
<polygon fill="#a6cee3" stroke="transparent" points="552,-28 552,-43 586,-43 586,-28 552,-28"/>
<text text-anchor="start" x="554" y="-34" font-family="Ubuntu" font-style="italic" font-size="10.00">double</text>
<polygon fill="none" stroke="black" points="497.5,-27 497.5,-59 586.5,-59 586.5,-27 497.5,-27"/>
</a>
</g>
</g>
<!-- Node_Ja_107 -->
<g id="node12" class="node">
<title>Node_Ja_107</title>
<g id="a_node12"><a xlink:title="mcfs.data.BoolArray">
<polygon fill="#fffaf0" stroke="transparent" points="503,-375 503,-407 581,-407 581,-375 503,-375"/>
<polygon fill="#e31a1c" stroke="transparent" points="504,-391 504,-406 580,-406 580,-391 504,-391"/>
<text text-anchor="start" x="529" y="-397" font-family="Ubuntu" font-weight="bold" font-size="10.00">BoolArray</text>
<text text-anchor="start" x="506" y="-381" font-family="Ubuntu" font-size="10.00">[...]</text>
<text text-anchor="start" x="523" y="-381" font-family="Ubuntu" font-size="10.00">1</text>
<text text-anchor="start" x="534" y="-381" font-family="Ubuntu" font-size="10.00">data</text>
<polygon fill="#a6cee3" stroke="transparent" points="557,-376 557,-391 580,-391 580,-376 557,-376"/>
<text text-anchor="start" x="559" y="-382" font-family="Ubuntu" font-style="italic" font-size="10.00">bool</text>
<polygon fill="none" stroke="black" points="503,-375 503,-407 581,-407 581,-375 503,-375"/>
</a>
</g>
</g>
<!-- Node_Ja_112 -->
<g id="node13" class="node">
<title>Node_Ja_112</title>
<g id="a_node13"><a xlink:title="mcfs.data.F32Array">
<polygon fill="#fffaf0" stroke="transparent" points="501.5,-85 501.5,-117 582.5,-117 582.5,-85 501.5,-85"/>
<polygon fill="#e31a1c" stroke="transparent" points="503,-101 503,-116 582,-116 582,-101 503,-101"/>
<text text-anchor="start" x="535" y="-107" font-family="Ubuntu" font-weight="bold" font-size="10.00">F32Array</text>
<text text-anchor="start" x="505" y="-91" font-family="Ubuntu" font-size="10.00">[...]</text>
<text text-anchor="start" x="522" y="-91" font-family="Ubuntu" font-size="10.00">1</text>
<text text-anchor="start" x="533" y="-91" font-family="Ubuntu" font-size="10.00">data</text>
<polygon fill="#a6cee3" stroke="transparent" points="556,-86 556,-101 582,-101 582,-86 556,-86"/>
<text text-anchor="start" x="558" y="-92" font-family="Ubuntu" font-style="italic" font-size="10.00">float</text>
<polygon fill="none" stroke="black" points="501.5,-85 501.5,-117 582.5,-117 582.5,-85 501.5,-85"/>
</a>
</g>
</g>
<!-- Node_Ja_114&#45;&gt;Node_Ja_105 -->
<g id="edge3" class="edge">
<title>Node_Ja_114:e&#45;&gt;Node_Ja_105:header</title>
<g id="a_edge3"><a xlink:title="Ja_114 &#45;&#45;&gt; Ja_105">
<path fill="none" stroke="#000000" d="M438,-359C491.28,-359 448.5,-457.49 489.02,-470.57"/>
<polygon fill="#000000" stroke="#000000" points="488.6,-474.05 499,-472 489.6,-467.12 488.6,-474.05"/>
</a>
</g>
</g>
<!-- Node_Ja_114&#45;&gt;Node_Ja_110 -->
<g id="edge10" class="edge">
<title>Node_Ja_114:e&#45;&gt;Node_Ja_110:header</title>
<g id="a_edge10"><a xlink:title="Ja_114 &#45;&#45;&gt; Ja_110">
<path fill="none" stroke="#000000" d="M438,-268C468.06,-268 467.69,-234.19 490.86,-226.53"/>
<polygon fill="#000000" stroke="#000000" points="491.63,-229.95 501,-225 490.59,-223.03 491.63,-229.95"/>
</a>
</g>
</g>
<!-- Node_Ja_114&#45;&gt;Node_Ja_108 -->
<g id="edge9" class="edge">
<title>Node_Ja_114:e&#45;&gt;Node_Ja_108:header</title>
<g id="a_edge9"><a xlink:title="Ja_114 &#45;&#45;&gt; Ja_108">
<path fill="none" stroke="#000000" d="M438,-298C467.41,-298 466.55,-331.81 489.1,-339.47"/>
<polygon fill="#000000" stroke="#000000" points="488.58,-342.93 499,-341 489.65,-336.01 488.58,-342.93"/>
</a>
</g>
</g>
<!-- Node_Ja_114&#45;&gt;Node_Ja_109 -->
<g id="edge5" class="edge">
<title>Node_Ja_114:e&#45;&gt;Node_Ja_109:header</title>
<g id="a_edge5"><a xlink:title="Ja_114 &#45;&#45;&gt; Ja_109">
<path fill="none" stroke="#000000" d="M438,-283C460.92,-283 469.06,-283 487.83,-283"/>
<polygon fill="#000000" stroke="#000000" points="488,-286.5 498,-283 488,-279.5 488,-286.5"/>
</a>
</g>
</g>
<!-- Node_Ja_114&#45;&gt;Node_Ja_111 -->
<g id="edge6" class="edge">
<title>Node_Ja_114:e&#45;&gt;Node_Ja_111:header</title>
<g id="a_edge6"><a xlink:title="Ja_114 &#45;&#45;&gt; Ja_111">
<path fill="none" stroke="#000000" d="M438,-253C480.78,-253 456.31,-180.53 488.05,-168.64"/>
<polygon fill="#000000" stroke="#000000" points="488.7,-172.08 498,-167 487.56,-165.17 488.7,-172.08"/>
</a>
</g>
</g>
<!-- Node_Ja_114&#45;&gt;Node_Ja_113 -->
<g id="edge11" class="edge">
<title>Node_Ja_114:e&#45;&gt;Node_Ja_113:header</title>
<g id="a_edge11"><a xlink:title="Ja_114 &#45;&#45;&gt; Ja_113">
<path fill="none" stroke="#000000" d="M438,-223C515.17,-223 426.19,-66.75 487.78,-52.1"/>
<polygon fill="#000000" stroke="#000000" points="488.43,-55.55 498,-51 487.68,-48.59 488.43,-55.55"/>
</a>
</g>
</g>
<!-- Node_Ja_114&#45;&gt;Node_Ja_107 -->
<g id="edge4" class="edge">
<title>Node_Ja_114:e&#45;&gt;Node_Ja_107:header</title>
<g id="a_edge4"><a xlink:title="Ja_114 &#45;&#45;&gt; Ja_107">
<path fill="none" stroke="#000000" d="M438,-314C481.66,-314 459.86,-385.63 492.78,-397.38"/>
<polygon fill="#000000" stroke="#000000" points="492.57,-400.89 503,-399 493.67,-393.98 492.57,-400.89"/>
</a>
</g>
</g>
<!-- Node_Ja_114&#45;&gt;Node_Ja_112 -->
<g id="edge1" class="edge">
<title>Node_Ja_114:e&#45;&gt;Node_Ja_112:header</title>
<g id="a_edge1"><a xlink:title="Ja_114 &#45;&#45;&gt; Ja_112">
<path fill="none" stroke="#000000" d="M438,-238C498.25,-238 445.06,-123.67 492.02,-110.28"/>
<polygon fill="#000000" stroke="#000000" points="492.52,-113.74 502,-109 491.64,-106.8 492.52,-113.74"/>
</a>
</g>
</g>
<!-- Node_Ja_100 -->
<g id="node15" class="node">
<title>Node_Ja_100</title>
<g id="a_node15"><a xlink:title="mcfs.device.NodeIdentifier">
<polygon fill="#fffaf0" stroke="transparent" points="490,-536 490,-598 594,-598 594,-536 490,-536"/>
<polygon fill="#e31a1c" stroke="transparent" points="491,-582 491,-597 593,-597 593,-582 491,-582"/>
<text text-anchor="start" x="519" y="-588" font-family="Ubuntu" font-weight="bold" font-size="10.00">NodeIdentifier</text>
<text text-anchor="start" x="497" y="-572" font-family="Ubuntu" font-size="10.00">1</text>
<text text-anchor="start" x="508" y="-572" font-family="Ubuntu" font-size="10.00">board_id</text>
<polygon fill="#a6cee3" stroke="transparent" points="551,-567 551,-582 593,-582 593,-567 551,-567"/>
<text text-anchor="start" x="562" y="-573" font-family="Ubuntu" font-style="italic" font-size="10.00">uint32</text>
<text text-anchor="start" x="497" y="-557" font-family="Ubuntu" font-size="10.00">2</text>
<text text-anchor="start" x="508" y="-557" font-family="Ubuntu" font-size="10.00">channel</text>
<polygon fill="#b2df8a" stroke="transparent" points="551,-552 551,-567 593,-567 593,-552 551,-552"/>
<text text-anchor="start" x="553" y="-558" font-family="Ubuntu" text-decoration="underline" font-size="10.00">Channel</text>
<text text-anchor="start" x="497" y="-542" font-family="Ubuntu" font-size="10.00">3</text>
<text text-anchor="start" x="508" y="-542" font-family="Ubuntu" font-size="10.00">node_id</text>
<polygon fill="#a6cee3" stroke="transparent" points="551,-537 551,-552 593,-552 593,-537 551,-537"/>
<text text-anchor="start" x="562" y="-543" font-family="Ubuntu" font-style="italic" font-size="10.00">uint32</text>
<polygon fill="none" stroke="black" points="490,-536 490,-598 594,-598 594,-536 490,-536"/>
</a>
</g>
</g>
<!-- Node_Ja_114&#45;&gt;Node_Ja_100 -->
<g id="edge8" class="edge">
<title>Node_Ja_114:e&#45;&gt;Node_Ja_100:header</title>
<g id="a_edge8"><a xlink:title="Ja_114 &#45;&#45;&gt; Ja_100">
<path fill="none" stroke="#000000" d="M438,-374C483.71,-374 447.04,-559.13 480.52,-586.61"/>
<polygon fill="#000000" stroke="#000000" points="479.41,-589.93 490,-590 481.76,-583.34 479.41,-589.93"/>
</a>
</g>
</g>
<!-- Node_Ja_100&#45;&gt;Node_Ja_101 -->
<g id="edge7" class="edge">
<title>Node_Ja_100:e&#45;&gt;Node_Ja_101</title>
<g id="a_edge7"><a xlink:title="Ja_100 &#45;&#45;&gt; Ja_101">
<path fill="none" stroke="#008000" d="M594,-559C604.83,-559 616.19,-559 627.46,-559"/>
<polygon fill="#008000" stroke="#008000" points="627.75,-562.5 637.75,-559 627.75,-555.5 627.75,-562.5"/>
</a>
</g>
</g>
</g>
</svg>
