<?xml version="1.0" encoding="UTF-8" standalone="no"?>
<!DOCTYPE svg PUBLIC "-//W3C//DTD SVG 1.1//EN"
 "http://www.w3.org/Graphics/SVG/1.1/DTD/svg11.dtd">
<!-- Generated by graphviz version 2.43.0 (0)
 -->
<!-- Title: protodot Pages: 1 -->
<svg width="886pt" height="790pt"
 viewBox="0.00 0.00 886.00 790.00" xmlns="http://www.w3.org/2000/svg" xmlns:xlink="http://www.w3.org/1999/xlink">
<g id="graph0" class="graph" transform="scale(1 1) rotate(0) translate(4 786)">
<title>protodot</title>
<g id="a_graph0"><a xlink:title="mcfs.data">
<text text-anchor="middle" x="439" y="-7.8" font-family="Times,serif" font-size="14.00">mcfs.data</text>
</a>
</g>
<g id="clust1" class="cluster">
<title>cluster_d12fc5b0b749</title>
<g id="a_clust1"><a xlink:title="board.proto">
<polygon fill="#caff70" stroke="black" points="508,-524 508,-633 687,-633 687,-524 508,-524"/>
<text text-anchor="middle" x="597.5" y="-617.8" font-family="Times,serif" font-size="14.00">board.proto</text>
</a>
</g>
</g>
<g id="clust2" class="cluster">
<title>cluster_4a45dd18e682</title>
<g id="a_clust2"><a xlink:title="mcfs.board">
<polygon fill="#caff70" stroke="black" points="707,-264 707,-774 870,-774 870,-264 707,-264"/>
<text text-anchor="middle" x="788.5" y="-758.8" font-family="Times,serif" font-size="14.00">mcfs.board</text>
</a>
</g>
</g>
<g id="clust3" class="cluster">
<title>cluster_61262a03deff</title>
<g id="a_clust3"><a xlink:title="external/timestamp.proto">
<polygon fill="#caff70" stroke="black" points="529.5,-421 529.5,-516 665.5,-516 665.5,-421 529.5,-421"/>
<text text-anchor="middle" x="597.5" y="-500.8" font-family="Times,serif" font-size="14.00">timestamp.proto</text>
</a>
</g>
</g>
<!-- Node_Ja_106 -->
<g id="node1" class="node">
<title>Node_Ja_106</title>
<g id="a_node1"><a xlink:title="mcfs.data.Data">
<polygon fill="#fffaf0" stroke="transparent" points="8,-381 8,-413 170,-413 170,-381 8,-381"/>
<polygon fill="#e31a1c" stroke="transparent" points="9,-397 9,-412 169,-412 169,-397 9,-397"/>
<text text-anchor="start" x="144" y="-403" font-family="Ubuntu" font-weight="bold" font-size="10.00">Data</text>
<text text-anchor="start" x="11" y="-387" font-family="Ubuntu" font-size="10.00">[...]</text>
<text text-anchor="start" x="28" y="-387" font-family="Ubuntu" font-size="10.00">1</text>
<text text-anchor="start" x="39" y="-387" font-family="Ubuntu" font-size="10.00">channel_data</text>
<polygon fill="#fb9a99" stroke="transparent" points="103,-382 103,-397 169,-397 169,-382 103,-382"/>
<text text-anchor="start" x="105" y="-388" font-family="Ubuntu" font-weight="bold" font-size="10.00">ChannelData</text>
<polygon fill="none" stroke="black" points="8,-381 8,-413 170,-413 170,-381 8,-381"/>
</a>
</g>
</g>
<!-- Node_Ja_114 -->
<g id="node9" class="node">
<title>Node_Ja_114</title>
<g id="a_node9"><a xlink:title="mcfs.data.ChannelData">
<polygon fill="#fffaf0" stroke="transparent" points="222,-211 222,-397 472,-397 472,-211 222,-211"/>
<polygon fill="#e31a1c" stroke="transparent" points="223,-381 223,-396 471,-396 471,-381 223,-381"/>
<text text-anchor="start" x="407" y="-387" font-family="Ubuntu" font-weight="bold" font-size="10.00">ChannelData</text>
<text text-anchor="start" x="248" y="-371" font-family="Ubuntu" font-size="10.00">1</text>
<text text-anchor="start" x="259" y="-371" font-family="Ubuntu" font-size="10.00">channel</text>
<polygon fill="#fb9a99" stroke="transparent" points="328,-366 328,-381 471,-381 471,-366 328,-366"/>
<text text-anchor="start" x="330" y="-372" font-family="Ubuntu" font-weight="bold" font-size="10.00">mcfs.board.ChannelIdentifier</text>
<text text-anchor="start" x="248" y="-356" font-family="Ubuntu" font-size="10.00">2</text>
<text text-anchor="start" x="259" y="-356" font-family="Ubuntu" font-size="10.00">timestamp</text>
<polygon fill="#fb9a99" stroke="transparent" points="328,-351 328,-366 471,-366 471,-351 328,-351"/>
<text text-anchor="start" x="338" y="-357" font-family="Ubuntu" font-weight="bold" font-size="10.00">google.protobuf.Timestamp</text>
<text text-anchor="start" x="225" y="-341" font-family="Ubuntu" font-size="10.00">[...]</text>
<text text-anchor="start" x="248" y="-341" font-family="Ubuntu" font-size="10.00">3</text>
<text text-anchor="start" x="259" y="-341" font-family="Ubuntu" font-size="10.00">micros_offsets</text>
<polygon fill="#a6cee3" stroke="transparent" points="328,-336 328,-351 471,-351 471,-336 328,-336"/>
<text text-anchor="start" x="440" y="-342" font-family="Ubuntu" font-style="italic" font-size="10.00">uint32</text>
<polygon fill="#fdbf6f" stroke="transparent" points="223,-321 223,-336 471,-336 471,-321 223,-321"/>
<text text-anchor="start" x="225" y="-326" font-family="Ubuntu" font-size="10.00">data_points</text>
<polygon fill="#fdbf6f" stroke="transparent" points="223,-306 223,-321 240,-321 240,-306 223,-306"/>
<text text-anchor="start" x="248" y="-311" font-family="Ubuntu" font-size="10.00">4</text>
<text text-anchor="start" x="259" y="-311" font-family="Ubuntu" font-size="10.00">bool_array</text>
<polygon fill="#fb9a99" stroke="transparent" points="328,-306 328,-321 471,-321 471,-306 328,-306"/>
<text text-anchor="start" x="420" y="-312" font-family="Ubuntu" font-weight="bold" font-size="10.00">BoolArray</text>
<polygon fill="#fdbf6f" stroke="transparent" points="223,-291 223,-306 240,-306 240,-291 223,-291"/>
<text text-anchor="start" x="248" y="-296" font-family="Ubuntu" font-size="10.00">5</text>
<text text-anchor="start" x="259" y="-296" font-family="Ubuntu" font-size="10.00">i32_array</text>
<polygon fill="#fb9a99" stroke="transparent" points="328,-291 328,-306 471,-306 471,-291 328,-291"/>
<text text-anchor="start" x="427" y="-297" font-family="Ubuntu" font-weight="bold" font-size="10.00">I32Array</text>
<polygon fill="#fdbf6f" stroke="transparent" points="223,-276 223,-291 240,-291 240,-276 223,-276"/>
<text text-anchor="start" x="248" y="-281" font-family="Ubuntu" font-size="10.00">6</text>
<text text-anchor="start" x="259" y="-281" font-family="Ubuntu" font-size="10.00">u32_array</text>
<polygon fill="#fb9a99" stroke="transparent" points="328,-276 328,-291 471,-291 471,-276 328,-276"/>
<text text-anchor="start" x="423" y="-282" font-family="Ubuntu" font-weight="bold" font-size="10.00">U32Array</text>
<polygon fill="#fdbf6f" stroke="transparent" points="223,-261 223,-276 240,-276 240,-261 223,-261"/>
<text text-anchor="start" x="248" y="-266" font-family="Ubuntu" font-size="10.00">7</text>
<text text-anchor="start" x="259" y="-266" font-family="Ubuntu" font-size="10.00">i64_array</text>
<polygon fill="#fb9a99" stroke="transparent" points="328,-261 328,-276 471,-276 471,-261 328,-261"/>
<text text-anchor="start" x="427" y="-267" font-family="Ubuntu" font-weight="bold" font-size="10.00">I64Array</text>
<polygon fill="#fdbf6f" stroke="transparent" points="223,-246 223,-261 240,-261 240,-246 223,-246"/>
<text text-anchor="start" x="248" y="-251" font-family="Ubuntu" font-size="10.00">8</text>
<text text-anchor="start" x="259" y="-251" font-family="Ubuntu" font-size="10.00">u64_array</text>
<polygon fill="#fb9a99" stroke="transparent" points="328,-246 328,-261 471,-261 471,-246 328,-246"/>
<text text-anchor="start" x="423" y="-252" font-family="Ubuntu" font-weight="bold" font-size="10.00">U64Array</text>
<polygon fill="#fdbf6f" stroke="transparent" points="223,-231 223,-246 240,-246 240,-231 223,-231"/>
<text text-anchor="start" x="248" y="-236" font-family="Ubuntu" font-size="10.00">9</text>
<text text-anchor="start" x="259" y="-236" font-family="Ubuntu" font-size="10.00">f32_array</text>
<polygon fill="#fb9a99" stroke="transparent" points="328,-231 328,-246 471,-246 471,-231 328,-231"/>
<text text-anchor="start" x="424" y="-237" font-family="Ubuntu" font-weight="bold" font-size="10.00">F32Array</text>
<polygon fill="#fdbf6f" stroke="transparent" points="223,-216 223,-231 240,-231 240,-216 223,-216"/>
<text text-anchor="start" x="242" y="-221" font-family="Ubuntu" font-size="10.00">10</text>
<text text-anchor="start" x="259" y="-221" font-family="Ubuntu" font-size="10.00">f64_array</text>
<polygon fill="#fb9a99" stroke="transparent" points="328,-216 328,-231 471,-231 471,-216 328,-216"/>
<text text-anchor="start" x="424" y="-222" font-family="Ubuntu" font-weight="bold" font-size="10.00">F64Array</text>
<polygon fill="#fdbf6f" stroke="transparent" points="223,-212 223,-216 471,-216 471,-212 223,-212"/>
<polygon fill="none" stroke="black" points="222,-211 222,-397 472,-397 472,-211 222,-211"/>
</a>
</g>
</g>
<!-- Node_Ja_106&#45;&gt;Node_Ja_114 -->
<g id="edge5" class="edge">
<title>Node_Ja_106:e&#45;&gt;Node_Ja_114:header</title>
<g id="a_edge5"><a xlink:title="Ja_106 &#45;&#45;&gt; Ja_114">
<path fill="none" stroke="#000000" d="M170,-389C189.32,-389 196.53,-389 211.87,-389"/>
<polygon fill="#000000" stroke="#000000" points="212,-392.5 222,-389 212,-385.5 212,-392.5"/>
</a>
</g>
</g>
<!-- Node_Ja_108 -->
<g id="node2" class="node">
<title>Node_Ja_108</title>
<g id="a_node2"><a xlink:title="mcfs.data.I32Array">
<polygon fill="#fffaf0" stroke="transparent" points="554,-317 554,-349 641,-349 641,-317 554,-317"/>
<polygon fill="#e31a1c" stroke="transparent" points="555.5,-333 555.5,-348 640.5,-348 640.5,-333 555.5,-333"/>
<text text-anchor="start" x="596.5" y="-339" font-family="Ubuntu" font-weight="bold" font-size="10.00">I32Array</text>
<text text-anchor="start" x="557.5" y="-323" font-family="Ubuntu" font-size="10.00">[...]</text>
<text text-anchor="start" x="574.5" y="-323" font-family="Ubuntu" font-size="10.00">1</text>
<text text-anchor="start" x="585.5" y="-323" font-family="Ubuntu" font-size="10.00">data</text>
<polygon fill="#a6cee3" stroke="transparent" points="608.5,-318 608.5,-333 640.5,-333 640.5,-318 608.5,-318"/>
<text text-anchor="start" x="610.5" y="-324" font-family="Ubuntu" font-style="italic" font-size="10.00">sint32</text>
<polygon fill="none" stroke="black" points="554,-317 554,-349 641,-349 641,-317 554,-317"/>
</a>
</g>
</g>
<!-- Node_Ja_111 -->
<g id="node3" class="node">
<title>Node_Ja_111</title>
<g id="a_node3"><a xlink:title="mcfs.data.U64Array">
<polygon fill="#fffaf0" stroke="transparent" points="553.5,-143 553.5,-175 641.5,-175 641.5,-143 553.5,-143"/>
<polygon fill="#e31a1c" stroke="transparent" points="554.5,-159 554.5,-174 640.5,-174 640.5,-159 554.5,-159"/>
<text text-anchor="start" x="592.5" y="-165" font-family="Ubuntu" font-weight="bold" font-size="10.00">U64Array</text>
<text text-anchor="start" x="556.5" y="-149" font-family="Ubuntu" font-size="10.00">[...]</text>
<text text-anchor="start" x="573.5" y="-149" font-family="Ubuntu" font-size="10.00">1</text>
<text text-anchor="start" x="584.5" y="-149" font-family="Ubuntu" font-size="10.00">data</text>
<polygon fill="#a6cee3" stroke="transparent" points="607.5,-144 607.5,-159 640.5,-159 640.5,-144 607.5,-144"/>
<text text-anchor="start" x="609.5" y="-150" font-family="Ubuntu" font-style="italic" font-size="10.00">uint32</text>
<polygon fill="none" stroke="black" points="553.5,-143 553.5,-175 641.5,-175 641.5,-143 553.5,-143"/>
</a>
</g>
</g>
<!-- Node_Ja_112 -->
<g id="node4" class="node">
<title>Node_Ja_112</title>
<g id="a_node4"><a xlink:title="mcfs.data.F32Array">
<polygon fill="#fffaf0" stroke="transparent" points="557,-85 557,-117 638,-117 638,-85 557,-85"/>
<polygon fill="#e31a1c" stroke="transparent" points="558.5,-101 558.5,-116 637.5,-116 637.5,-101 558.5,-101"/>
<text text-anchor="start" x="590.5" y="-107" font-family="Ubuntu" font-weight="bold" font-size="10.00">F32Array</text>
<text text-anchor="start" x="560.5" y="-91" font-family="Ubuntu" font-size="10.00">[...]</text>
<text text-anchor="start" x="577.5" y="-91" font-family="Ubuntu" font-size="10.00">1</text>
<text text-anchor="start" x="588.5" y="-91" font-family="Ubuntu" font-size="10.00">data</text>
<polygon fill="#a6cee3" stroke="transparent" points="611.5,-86 611.5,-101 637.5,-101 637.5,-86 611.5,-86"/>
<text text-anchor="start" x="613.5" y="-92" font-family="Ubuntu" font-style="italic" font-size="10.00">float</text>
<polygon fill="none" stroke="black" points="557,-85 557,-117 638,-117 638,-85 557,-85"/>
</a>
</g>
</g>
<!-- Node_Ja_113 -->
<g id="node5" class="node">
<title>Node_Ja_113</title>
<g id="a_node5"><a xlink:title="mcfs.data.F64Array">
<polygon fill="#fffaf0" stroke="transparent" points="553,-27 553,-59 642,-59 642,-27 553,-27"/>
<polygon fill="#e31a1c" stroke="transparent" points="554.5,-43 554.5,-58 641.5,-58 641.5,-43 554.5,-43"/>
<text text-anchor="start" x="594.5" y="-49" font-family="Ubuntu" font-weight="bold" font-size="10.00">F64Array</text>
<text text-anchor="start" x="556.5" y="-33" font-family="Ubuntu" font-size="10.00">[...]</text>
<text text-anchor="start" x="573.5" y="-33" font-family="Ubuntu" font-size="10.00">1</text>
<text text-anchor="start" x="584.5" y="-33" font-family="Ubuntu" font-size="10.00">data</text>
<polygon fill="#a6cee3" stroke="transparent" points="607.5,-28 607.5,-43 641.5,-43 641.5,-28 607.5,-28"/>
<text text-anchor="start" x="609.5" y="-34" font-family="Ubuntu" font-style="italic" font-size="10.00">double</text>
<polygon fill="none" stroke="black" points="553,-27 553,-59 642,-59 642,-27 553,-27"/>
</a>
</g>
</g>
<!-- Node_Ja_107 -->
<g id="node6" class="node">
<title>Node_Ja_107</title>
<g id="a_node6"><a xlink:title="mcfs.data.BoolArray">
<polygon fill="#fffaf0" stroke="transparent" points="558.5,-375 558.5,-407 636.5,-407 636.5,-375 558.5,-375"/>
<polygon fill="#e31a1c" stroke="transparent" points="559.5,-391 559.5,-406 635.5,-406 635.5,-391 559.5,-391"/>
<text text-anchor="start" x="584.5" y="-397" font-family="Ubuntu" font-weight="bold" font-size="10.00">BoolArray</text>
<text text-anchor="start" x="561.5" y="-381" font-family="Ubuntu" font-size="10.00">[...]</text>
<text text-anchor="start" x="578.5" y="-381" font-family="Ubuntu" font-size="10.00">1</text>
<text text-anchor="start" x="589.5" y="-381" font-family="Ubuntu" font-size="10.00">data</text>
<polygon fill="#a6cee3" stroke="transparent" points="612.5,-376 612.5,-391 635.5,-391 635.5,-376 612.5,-376"/>
<text text-anchor="start" x="614.5" y="-382" font-family="Ubuntu" font-style="italic" font-size="10.00">bool</text>
<polygon fill="none" stroke="black" points="558.5,-375 558.5,-407 636.5,-407 636.5,-375 558.5,-375"/>
</a>
</g>
</g>
<!-- Node_Ja_109 -->
<g id="node7" class="node">
<title>Node_Ja_109</title>
<g id="a_node7"><a xlink:title="mcfs.data.U32Array">
<polygon fill="#fffaf0" stroke="transparent" points="553.5,-259 553.5,-291 641.5,-291 641.5,-259 553.5,-259"/>
<polygon fill="#e31a1c" stroke="transparent" points="554.5,-275 554.5,-290 640.5,-290 640.5,-275 554.5,-275"/>
<text text-anchor="start" x="592.5" y="-281" font-family="Ubuntu" font-weight="bold" font-size="10.00">U32Array</text>
<text text-anchor="start" x="556.5" y="-265" font-family="Ubuntu" font-size="10.00">[...]</text>
<text text-anchor="start" x="573.5" y="-265" font-family="Ubuntu" font-size="10.00">1</text>
<text text-anchor="start" x="584.5" y="-265" font-family="Ubuntu" font-size="10.00">data</text>
<polygon fill="#a6cee3" stroke="transparent" points="607.5,-260 607.5,-275 640.5,-275 640.5,-260 607.5,-260"/>
<text text-anchor="start" x="609.5" y="-266" font-family="Ubuntu" font-style="italic" font-size="10.00">uint32</text>
<polygon fill="none" stroke="black" points="553.5,-259 553.5,-291 641.5,-291 641.5,-259 553.5,-259"/>
</a>
</g>
</g>
<!-- Node_Ja_110 -->
<g id="node8" class="node">
<title>Node_Ja_110</title>
<g id="a_node8"><a xlink:title="mcfs.data.I64Array">
<polygon fill="#fffaf0" stroke="transparent" points="556,-201 556,-233 639,-233 639,-201 556,-201"/>
<polygon fill="#e31a1c" stroke="transparent" points="557.5,-217 557.5,-232 638.5,-232 638.5,-217 557.5,-217"/>
<text text-anchor="start" x="594.5" y="-223" font-family="Ubuntu" font-weight="bold" font-size="10.00">I64Array</text>
<text text-anchor="start" x="559.5" y="-207" font-family="Ubuntu" font-size="10.00">[...]</text>
<text text-anchor="start" x="576.5" y="-207" font-family="Ubuntu" font-size="10.00">1</text>
<text text-anchor="start" x="587.5" y="-207" font-family="Ubuntu" font-size="10.00">data</text>
<polygon fill="#a6cee3" stroke="transparent" points="610.5,-202 610.5,-217 638.5,-217 638.5,-202 610.5,-202"/>
<text text-anchor="start" x="612.5" y="-208" font-family="Ubuntu" font-style="italic" font-size="10.00">int32</text>
<polygon fill="none" stroke="black" points="556,-201 556,-233 639,-233 639,-201 556,-201"/>
</a>
</g>
</g>
<!-- Node_Ja_114&#45;&gt;Node_Ja_108 -->
<g id="edge9" class="edge">
<title>Node_Ja_114:e&#45;&gt;Node_Ja_108:header</title>
<g id="a_edge9"><a xlink:title="Ja_114 &#45;&#45;&gt; Ja_108">
<path fill="none" stroke="#000000" d="M472,-298C509.63,-298 512.85,-333.62 544.3,-340.02"/>
<polygon fill="#000000" stroke="#000000" points="544.21,-343.53 554.5,-341 544.88,-336.56 544.21,-343.53"/>
</a>
</g>
</g>
<!-- Node_Ja_114&#45;&gt;Node_Ja_111 -->
<g id="edge3" class="edge">
<title>Node_Ja_114:e&#45;&gt;Node_Ja_111:header</title>
<g id="a_edge3"><a xlink:title="Ja_114 &#45;&#45;&gt; Ja_111">
<path fill="none" stroke="#000000" d="M472,-253C505.02,-253 483.81,-210.48 508,-188 521.51,-175.45 528.57,-169.28 543.25,-167.54"/>
<polygon fill="#000000" stroke="#000000" points="543.7,-171.02 553.5,-167 543.33,-164.03 543.7,-171.02"/>
</a>
</g>
</g>
<!-- Node_Ja_114&#45;&gt;Node_Ja_112 -->
<g id="edge4" class="edge">
<title>Node_Ja_114:e&#45;&gt;Node_Ja_112:header</title>
<g id="a_edge4"><a xlink:title="Ja_114 &#45;&#45;&gt; Ja_112">
<path fill="none" stroke="#000000" d="M472,-238C522.6,-238 473.67,-167.17 508,-130 521.68,-115.19 530.5,-110.42 547.28,-109.29"/>
<polygon fill="#000000" stroke="#000000" points="547.6,-112.79 557.5,-109 547.4,-105.79 547.6,-112.79"/>
</a>
</g>
</g>
<!-- Node_Ja_114&#45;&gt;Node_Ja_113 -->
<g id="edge11" class="edge">
<title>Node_Ja_114:e&#45;&gt;Node_Ja_113:header</title>
<g id="a_edge11"><a xlink:title="Ja_114 &#45;&#45;&gt; Ja_113">
<path fill="none" stroke="#000000" d="M472,-223C540.99,-223 464.29,-125.38 508,-72 519.69,-57.73 527.95,-52.69 543.09,-51.38"/>
<polygon fill="#000000" stroke="#000000" points="543.64,-54.87 553.5,-51 543.38,-47.87 543.64,-54.87"/>
</a>
</g>
</g>
<!-- Node_Ja_114&#45;&gt;Node_Ja_107 -->
<g id="edge8" class="edge">
<title>Node_Ja_114:e&#45;&gt;Node_Ja_107:header</title>
<g id="a_edge8"><a xlink:title="Ja_114 &#45;&#45;&gt; Ja_107">
<path fill="none" stroke="#000000" d="M472,-314C498.67,-314 489.04,-343.25 508,-362 525.08,-378.89 529.57,-394.19 548.38,-398.06"/>
<polygon fill="#000000" stroke="#000000" points="548.22,-401.56 558.5,-399 548.87,-394.59 548.22,-401.56"/>
</a>
</g>
</g>
<!-- Node_Ja_114&#45;&gt;Node_Ja_109 -->
<g id="edge10" class="edge">
<title>Node_Ja_114:e&#45;&gt;Node_Ja_109:header</title>
<g id="a_edge10"><a xlink:title="Ja_114 &#45;&#45;&gt; Ja_109">
<path fill="none" stroke="#000000" d="M472,-283C504.54,-283 515.16,-283 543.25,-283"/>
<polygon fill="#000000" stroke="#000000" points="543.5,-286.5 553.5,-283 543.5,-279.5 543.5,-286.5"/>
</a>
</g>
</g>
<!-- Node_Ja_114&#45;&gt;Node_Ja_110 -->
<g id="edge2" class="edge">
<title>Node_Ja_114:e&#45;&gt;Node_Ja_110:header</title>
<g id="a_edge2"><a xlink:title="Ja_114 &#45;&#45;&gt; Ja_110">
<path fill="none" stroke="#000000" d="M472,-268C490.75,-268 491.36,-254.64 508,-246 525.43,-236.96 531.2,-228.36 546.34,-225.78"/>
<polygon fill="#000000" stroke="#000000" points="546.8,-229.26 556.5,-225 546.26,-222.28 546.8,-229.26"/>
</a>
</g>
</g>
<!-- Node_Ja_100 -->
<g id="node10" class="node">
<title>Node_Ja_100</title>
<g id="a_node10"><a xlink:title="mcfs.board.ChannelIdentifier">
<polygon fill="#fffaf0" stroke="transparent" points="524,-536 524,-598 671,-598 671,-536 524,-536"/>
<polygon fill="#e31a1c" stroke="transparent" points="525.5,-582 525.5,-597 670.5,-597 670.5,-582 525.5,-582"/>
<text text-anchor="start" x="583.5" y="-588" font-family="Ubuntu" font-weight="bold" font-size="10.00">ChannelIdentifier</text>
<text text-anchor="start" x="531.5" y="-572" font-family="Ubuntu" font-size="10.00">1</text>
<text text-anchor="start" x="542.5" y="-572" font-family="Ubuntu" font-size="10.00">board_id</text>
<polygon fill="#a6cee3" stroke="transparent" points="606.5,-567 606.5,-582 670.5,-582 670.5,-567 606.5,-567"/>
<text text-anchor="start" x="639.5" y="-573" font-family="Ubuntu" font-style="italic" font-size="10.00">uint32</text>
<text text-anchor="start" x="531.5" y="-557" font-family="Ubuntu" font-size="10.00">2</text>
<text text-anchor="start" x="542.5" y="-557" font-family="Ubuntu" font-size="10.00">channel_type</text>
<polygon fill="#b2df8a" stroke="transparent" points="606.5,-552 606.5,-567 670.5,-567 670.5,-552 606.5,-552"/>
<text text-anchor="start" x="608.5" y="-558" font-family="Ubuntu" text-decoration="underline" font-size="10.00">ChannelType</text>
<text text-anchor="start" x="531.5" y="-542" font-family="Ubuntu" font-size="10.00">3</text>
<text text-anchor="start" x="542.5" y="-542" font-family="Ubuntu" font-size="10.00">channel</text>
<polygon fill="#a6cee3" stroke="transparent" points="606.5,-537 606.5,-552 670.5,-552 670.5,-537 606.5,-537"/>
<text text-anchor="start" x="639.5" y="-543" font-family="Ubuntu" font-style="italic" font-size="10.00">uint32</text>
<polygon fill="none" stroke="black" points="524,-536 524,-598 671,-598 671,-536 524,-536"/>
</a>
</g>
</g>
<!-- Node_Ja_114&#45;&gt;Node_Ja_100 -->
<g id="edge6" class="edge">
<title>Node_Ja_114:e&#45;&gt;Node_Ja_100:header</title>
<g id="a_edge6"><a xlink:title="Ja_114 &#45;&#45;&gt; Ja_100">
<path fill="none" stroke="#000000" d="M472,-374C517.73,-374 481.45,-559.13 515,-586.61"/>
<polygon fill="#000000" stroke="#000000" points="513.91,-589.93 524.5,-590 516.26,-583.34 513.91,-589.93"/>
</a>
</g>
</g>
<!-- Node_Ja_105 -->
<g id="node15" class="node">
<title>Node_Ja_105</title>
<g id="a_node15"><a xlink:title="google.protobuf.Timestamp">
<polygon fill="#fffaf0" stroke="transparent" points="554.5,-433.5 554.5,-480.5 640.5,-480.5 640.5,-433.5 554.5,-433.5"/>
<polygon fill="#e31a1c" stroke="transparent" points="555.5,-464 555.5,-479 639.5,-479 639.5,-464 555.5,-464"/>
<text text-anchor="start" x="585.5" y="-470" font-family="Ubuntu" font-weight="bold" font-size="10.00">Timestamp</text>
<text text-anchor="start" x="561.5" y="-454" font-family="Ubuntu" font-size="10.00">1</text>
<text text-anchor="start" x="572.5" y="-454" font-family="Ubuntu" font-size="10.00">seconds</text>
<polygon fill="#a6cee3" stroke="transparent" points="611.5,-449 611.5,-464 639.5,-464 639.5,-449 611.5,-449"/>
<text text-anchor="start" x="613.5" y="-455" font-family="Ubuntu" font-style="italic" font-size="10.00">int64</text>
<text text-anchor="start" x="561.5" y="-439" font-family="Ubuntu" font-size="10.00">2</text>
<text text-anchor="start" x="572.5" y="-439" font-family="Ubuntu" font-size="10.00">nanos</text>
<polygon fill="#a6cee3" stroke="transparent" points="611.5,-434 611.5,-449 639.5,-449 639.5,-434 611.5,-434"/>
<text text-anchor="start" x="613.5" y="-440" font-family="Ubuntu" font-style="italic" font-size="10.00">int32</text>
<polygon fill="none" stroke="black" points="554.5,-433.5 554.5,-480.5 640.5,-480.5 640.5,-433.5 554.5,-433.5"/>
</a>
</g>
</g>
<!-- Node_Ja_114&#45;&gt;Node_Ja_105 -->
<g id="edge7" class="edge">
<title>Node_Ja_114:e&#45;&gt;Node_Ja_105:header</title>
<g id="a_edge7"><a xlink:title="Ja_114 &#45;&#45;&gt; Ja_105">
<path fill="none" stroke="#000000" d="M472,-359C503.48,-359 489.42,-394.59 508,-420 524.01,-441.9 523.87,-465.29 544.35,-470.79"/>
<polygon fill="#000000" stroke="#000000" points="544.16,-474.29 554.5,-472 544.98,-467.34 544.16,-474.29"/>
</a>
</g>
</g>
<!-- Node_Ja_101 -->
<g id="node12" class="node">
<title>Node_Ja_101</title>
<g id="a_node12"><a xlink:title="ChannelType">
<polygon fill="#b2df8a" stroke="transparent" points="723,-453 723,-665 854,-665 854,-453 723,-453"/>
<polygon fill="#33a02c" stroke="transparent" points="724.5,-649 724.5,-664 853.5,-664 853.5,-649 724.5,-649"/>
<text text-anchor="start" x="761.5" y="-655" font-family="Ubuntu" font-size="10.00">enum </text>
<text text-anchor="start" x="789.5" y="-655" font-family="Ubuntu" font-weight="bold" font-size="10.00">ChannelType</text>
<polygon fill="#b2df8a" stroke="transparent" points="724.5,-634 724.5,-649 836.5,-649 836.5,-634 724.5,-634"/>
<text text-anchor="start" x="726.5" y="-639" font-family="Ubuntu" font-size="10.00">GPIO</text>
<polygon fill="#b2df8a" stroke="transparent" points="836.5,-634 836.5,-649 853.5,-649 853.5,-634 836.5,-634"/>
<text text-anchor="start" x="838.5" y="-639" font-family="Ubuntu" font-size="10.00">0</text>
<polygon fill="#b2df8a" stroke="transparent" points="724.5,-619 724.5,-634 836.5,-634 836.5,-619 724.5,-619"/>
<text text-anchor="start" x="726.5" y="-624" font-family="Ubuntu" font-size="10.00">LED</text>
<polygon fill="#b2df8a" stroke="transparent" points="836.5,-619 836.5,-634 853.5,-634 853.5,-619 836.5,-619"/>
<text text-anchor="start" x="838.5" y="-624" font-family="Ubuntu" font-size="10.00">1</text>
<polygon fill="#b2df8a" stroke="transparent" points="724.5,-604 724.5,-619 836.5,-619 836.5,-604 724.5,-604"/>
<text text-anchor="start" x="726.5" y="-609" font-family="Ubuntu" font-size="10.00">RAIL_3V3</text>
<polygon fill="#b2df8a" stroke="transparent" points="836.5,-604 836.5,-619 853.5,-619 853.5,-604 836.5,-604"/>
<text text-anchor="start" x="838.5" y="-609" font-family="Ubuntu" font-size="10.00">2</text>
<polygon fill="#b2df8a" stroke="transparent" points="724.5,-589 724.5,-604 836.5,-604 836.5,-589 724.5,-589"/>
<text text-anchor="start" x="726.5" y="-594" font-family="Ubuntu" font-size="10.00">RAIL_5V</text>
<polygon fill="#b2df8a" stroke="transparent" points="836.5,-589 836.5,-604 853.5,-604 853.5,-589 836.5,-589"/>
<text text-anchor="start" x="838.5" y="-594" font-family="Ubuntu" font-size="10.00">3</text>
<polygon fill="#b2df8a" stroke="transparent" points="724.5,-574 724.5,-589 836.5,-589 836.5,-574 724.5,-574"/>
<text text-anchor="start" x="726.5" y="-579" font-family="Ubuntu" font-size="10.00">RAIL_5V5</text>
<polygon fill="#b2df8a" stroke="transparent" points="836.5,-574 836.5,-589 853.5,-589 853.5,-574 836.5,-574"/>
<text text-anchor="start" x="838.5" y="-579" font-family="Ubuntu" font-size="10.00">4</text>
<polygon fill="#b2df8a" stroke="transparent" points="724.5,-559 724.5,-574 836.5,-574 836.5,-559 724.5,-559"/>
<text text-anchor="start" x="726.5" y="-564" font-family="Ubuntu" font-size="10.00">RAIL_24V</text>
<polygon fill="#b2df8a" stroke="transparent" points="836.5,-559 836.5,-574 853.5,-574 853.5,-559 836.5,-559"/>
<text text-anchor="start" x="838.5" y="-564" font-family="Ubuntu" font-size="10.00">5</text>
<polygon fill="#b2df8a" stroke="transparent" points="724.5,-544 724.5,-559 836.5,-559 836.5,-544 724.5,-544"/>
<text text-anchor="start" x="726.5" y="-549" font-family="Ubuntu" font-size="10.00">CURRENT_LOOP</text>
<polygon fill="#b2df8a" stroke="transparent" points="836.5,-544 836.5,-559 853.5,-559 853.5,-544 836.5,-544"/>
<text text-anchor="start" x="838.5" y="-549" font-family="Ubuntu" font-size="10.00">6</text>
<polygon fill="#b2df8a" stroke="transparent" points="724.5,-529 724.5,-544 836.5,-544 836.5,-529 724.5,-529"/>
<text text-anchor="start" x="726.5" y="-534" font-family="Ubuntu" font-size="10.00">DIFFERENTIAL_SIGNAL</text>
<polygon fill="#b2df8a" stroke="transparent" points="836.5,-529 836.5,-544 853.5,-544 853.5,-529 836.5,-529"/>
<text text-anchor="start" x="838.5" y="-534" font-family="Ubuntu" font-size="10.00">7</text>
<polygon fill="#b2df8a" stroke="transparent" points="724.5,-514 724.5,-529 836.5,-529 836.5,-514 724.5,-514"/>
<text text-anchor="start" x="726.5" y="-519" font-family="Ubuntu" font-size="10.00">TC</text>
<polygon fill="#b2df8a" stroke="transparent" points="836.5,-514 836.5,-529 853.5,-529 853.5,-514 836.5,-514"/>
<text text-anchor="start" x="838.5" y="-519" font-family="Ubuntu" font-size="10.00">8</text>
<polygon fill="#b2df8a" stroke="transparent" points="724.5,-499 724.5,-514 836.5,-514 836.5,-499 724.5,-499"/>
<text text-anchor="start" x="726.5" y="-504" font-family="Ubuntu" font-size="10.00">RTD</text>
<polygon fill="#b2df8a" stroke="transparent" points="836.5,-499 836.5,-514 853.5,-514 853.5,-499 836.5,-499"/>
<text text-anchor="start" x="838.5" y="-504" font-family="Ubuntu" font-size="10.00">9</text>
<polygon fill="#b2df8a" stroke="transparent" points="724.5,-484 724.5,-499 836.5,-499 836.5,-484 724.5,-484"/>
<text text-anchor="start" x="726.5" y="-489" font-family="Ubuntu" font-size="10.00">VALVE</text>
<polygon fill="#b2df8a" stroke="transparent" points="836.5,-484 836.5,-499 853.5,-499 853.5,-484 836.5,-484"/>
<text text-anchor="start" x="838.5" y="-489" font-family="Ubuntu" font-size="10.00">10</text>
<polygon fill="#b2df8a" stroke="transparent" points="724.5,-469 724.5,-484 836.5,-484 836.5,-469 724.5,-469"/>
<text text-anchor="start" x="726.5" y="-474" font-family="Ubuntu" font-size="10.00">VALVE_CURRENT</text>
<polygon fill="#b2df8a" stroke="transparent" points="836.5,-469 836.5,-484 853.5,-484 853.5,-469 836.5,-469"/>
<text text-anchor="start" x="838.5" y="-474" font-family="Ubuntu" font-size="10.00">11</text>
<polygon fill="#b2df8a" stroke="transparent" points="724.5,-454 724.5,-469 836.5,-469 836.5,-454 724.5,-454"/>
<text text-anchor="start" x="726.5" y="-459" font-family="Ubuntu" font-size="10.00">VALVE_VOLTAGE</text>
<polygon fill="#b2df8a" stroke="transparent" points="836.5,-454 836.5,-469 853.5,-469 853.5,-454 836.5,-454"/>
<text text-anchor="start" x="838.5" y="-459" font-family="Ubuntu" font-size="10.00">12</text>
<polygon fill="none" stroke="black" points="723,-453 723,-665 854,-665 854,-453 723,-453"/>
</a>
</g>
</g>
<!-- Node_Ja_100&#45;&gt;Node_Ja_101 -->
<g id="edge1" class="edge">
<title>Node_Ja_100:e&#45;&gt;Node_Ja_101</title>
<g id="a_edge1"><a xlink:title="Ja_100 &#45;&#45;&gt; Ja_101">
<path fill="none" stroke="#008000" d="M671.5,-559C682.22,-559 693.49,-559 704.62,-559"/>
<polygon fill="#008000" stroke="#008000" points="704.79,-562.5 714.79,-559 704.79,-555.5 704.79,-562.5"/>
</a>
</g>
</g>
<!-- Node_Ja_102 -->
<g id="node11" class="node">
<title>Node_Ja_102</title>
<g id="a_node11"><a xlink:title="ValveState">
<polygon fill="#b2df8a" stroke="transparent" points="743.5,-691.5 743.5,-738.5 833.5,-738.5 833.5,-691.5 743.5,-691.5"/>
<polygon fill="#33a02c" stroke="transparent" points="744.5,-722 744.5,-737 832.5,-737 832.5,-722 744.5,-722"/>
<text text-anchor="start" x="749.5" y="-728" font-family="Ubuntu" font-size="10.00">enum </text>
<text text-anchor="start" x="777.5" y="-728" font-family="Ubuntu" font-weight="bold" font-size="10.00">ValveState</text>
<polygon fill="#b2df8a" stroke="transparent" points="744.5,-707 744.5,-722 821.5,-722 821.5,-707 744.5,-707"/>
<text text-anchor="start" x="746.5" y="-712" font-family="Ubuntu" font-size="10.00">VALVE_OPEN</text>
<polygon fill="#b2df8a" stroke="transparent" points="821.5,-707 821.5,-722 832.5,-722 832.5,-707 821.5,-707"/>
<text text-anchor="start" x="823.5" y="-712" font-family="Ubuntu" font-size="10.00">0</text>
<polygon fill="#b2df8a" stroke="transparent" points="744.5,-692 744.5,-707 821.5,-707 821.5,-692 744.5,-692"/>
<text text-anchor="start" x="746.5" y="-697" font-family="Ubuntu" font-size="10.00">VALVE_CLOSED</text>
<polygon fill="#b2df8a" stroke="transparent" points="821.5,-692 821.5,-707 832.5,-707 832.5,-692 821.5,-692"/>
<text text-anchor="start" x="823.5" y="-697" font-family="Ubuntu" font-size="10.00">1</text>
<polygon fill="none" stroke="black" points="743.5,-691.5 743.5,-738.5 833.5,-738.5 833.5,-691.5 743.5,-691.5"/>
</a>
</g>
</g>
<!-- Node_Ja_103 -->
<g id="node13" class="node">
<title>Node_Ja_103</title>
<g id="a_node13"><a xlink:title="LEDState">
<polygon fill="#b2df8a" stroke="transparent" points="748.5,-379.5 748.5,-426.5 828.5,-426.5 828.5,-379.5 748.5,-379.5"/>
<polygon fill="#33a02c" stroke="transparent" points="749.5,-410 749.5,-425 827.5,-425 827.5,-410 749.5,-410"/>
<text text-anchor="start" x="751.5" y="-416" font-family="Ubuntu" font-size="10.00">enum </text>
<text text-anchor="start" x="779.5" y="-416" font-family="Ubuntu" font-weight="bold" font-size="10.00">LEDState</text>
<polygon fill="#b2df8a" stroke="transparent" points="749.5,-395 749.5,-410 806.5,-410 806.5,-395 749.5,-395"/>
<text text-anchor="start" x="751.5" y="-400" font-family="Ubuntu" font-size="10.00">LED_OFF</text>
<polygon fill="#b2df8a" stroke="transparent" points="806.5,-395 806.5,-410 827.5,-410 827.5,-395 806.5,-395"/>
<text text-anchor="start" x="808.5" y="-400" font-family="Ubuntu" font-size="10.00">0</text>
<polygon fill="#b2df8a" stroke="transparent" points="749.5,-380 749.5,-395 806.5,-395 806.5,-380 749.5,-380"/>
<text text-anchor="start" x="751.5" y="-385" font-family="Ubuntu" font-size="10.00">LED_ON</text>
<polygon fill="#b2df8a" stroke="transparent" points="806.5,-380 806.5,-395 827.5,-395 827.5,-380 806.5,-380"/>
<text text-anchor="start" x="808.5" y="-385" font-family="Ubuntu" font-size="10.00">1</text>
<polygon fill="none" stroke="black" points="748.5,-379.5 748.5,-426.5 828.5,-426.5 828.5,-379.5 748.5,-379.5"/>
</a>
</g>
</g>
<!-- Node_Ja_104 -->
<g id="node14" class="node">
<title>Node_Ja_104</title>
<g id="a_node14"><a xlink:title="BoardType">
<polygon fill="#b2df8a" stroke="transparent" points="729.5,-276.5 729.5,-353.5 847.5,-353.5 847.5,-276.5 729.5,-276.5"/>
<polygon fill="#33a02c" stroke="transparent" points="730.5,-337 730.5,-352 846.5,-352 846.5,-337 730.5,-337"/>
<text text-anchor="start" x="765.5" y="-343" font-family="Ubuntu" font-size="10.00">enum </text>
<text text-anchor="start" x="793.5" y="-343" font-family="Ubuntu" font-weight="bold" font-size="10.00">BoardType</text>
<polygon fill="#b2df8a" stroke="transparent" points="730.5,-322 730.5,-337 835.5,-337 835.5,-322 730.5,-322"/>
<text text-anchor="start" x="732.5" y="-327" font-family="Ubuntu" font-size="10.00">SERVER</text>
<polygon fill="#b2df8a" stroke="transparent" points="835.5,-322 835.5,-337 846.5,-337 846.5,-322 835.5,-322"/>
<text text-anchor="start" x="837.5" y="-327" font-family="Ubuntu" font-size="10.00">0</text>
<polygon fill="#b2df8a" stroke="transparent" points="730.5,-307 730.5,-322 835.5,-322 835.5,-307 730.5,-307"/>
<text text-anchor="start" x="732.5" y="-312" font-family="Ubuntu" font-size="10.00">FLIGHT_COMPUTER</text>
<polygon fill="#b2df8a" stroke="transparent" points="835.5,-307 835.5,-322 846.5,-322 846.5,-307 835.5,-307"/>
<text text-anchor="start" x="837.5" y="-312" font-family="Ubuntu" font-size="10.00">1</text>
<polygon fill="#b2df8a" stroke="transparent" points="730.5,-292 730.5,-307 835.5,-307 835.5,-292 730.5,-292"/>
<text text-anchor="start" x="732.5" y="-297" font-family="Ubuntu" font-size="10.00">GROUND_COMPUTER</text>
<polygon fill="#b2df8a" stroke="transparent" points="835.5,-292 835.5,-307 846.5,-307 846.5,-292 835.5,-292"/>
<text text-anchor="start" x="837.5" y="-297" font-family="Ubuntu" font-size="10.00">2</text>
<polygon fill="#b2df8a" stroke="transparent" points="730.5,-277 730.5,-292 835.5,-292 835.5,-277 730.5,-277"/>
<text text-anchor="start" x="732.5" y="-282" font-family="Ubuntu" font-size="10.00">SAM</text>
<polygon fill="#b2df8a" stroke="transparent" points="835.5,-277 835.5,-292 846.5,-292 846.5,-277 835.5,-277"/>
<text text-anchor="start" x="837.5" y="-282" font-family="Ubuntu" font-size="10.00">3</text>
<polygon fill="none" stroke="black" points="729.5,-276.5 729.5,-353.5 847.5,-353.5 847.5,-276.5 729.5,-276.5"/>
</a>
</g>
</g>
</g>
</svg>
