<?xml version="1.0" encoding="UTF-8" standalone="no"?>
<!DOCTYPE svg PUBLIC "-//W3C//DTD SVG 1.1//EN"
 "http://www.w3.org/Graphics/SVG/1.1/DTD/svg11.dtd">
<!-- Generated by graphviz version 2.43.0 (0)
 -->
<!-- Title: protodot Pages: 1 -->
<svg width="370pt" height="556pt"
 viewBox="0.00 0.00 370.00 556.00" xmlns="http://www.w3.org/2000/svg" xmlns:xlink="http://www.w3.org/1999/xlink">
<g id="graph0" class="graph" transform="scale(1 1) rotate(0) translate(4 552)">
<title>protodot</title>
<g id="a_graph0"><a xlink:title="mcfs.device">
<text text-anchor="middle" x="181" y="-7.8" font-family="Times,serif" font-size="14.00">mcfs.device</text>
</a>
</g>
<g id="clust1" class="cluster">
<title>cluster_008970577f45</title>
<g id="a_clust1"><a xlink:title="mcfs.device">
<polygon fill="#caff70" stroke="black" points="191,-31 191,-540 354,-540 354,-31 191,-31"/>
<text text-anchor="middle" x="272.5" y="-524.8" font-family="Times,serif" font-size="14.00">mcfs.device</text>
</a>
</g>
</g>
<!-- Node_Ja_100 -->
<g id="node1" class="node">
<title>Node_Ja_100</title>
<g id="a_node1"><a xlink:title="mcfs.device.ChannelIdentifier">
<polygon fill="#fffaf0" stroke="transparent" points="8,-376 8,-438 155,-438 155,-376 8,-376"/>
<polygon fill="#e31a1c" stroke="transparent" points="9.5,-422 9.5,-437 154.5,-437 154.5,-422 9.5,-422"/>
<text text-anchor="start" x="67.5" y="-428" font-family="Ubuntu" font-weight="bold" font-size="10.00">ChannelIdentifier</text>
<text text-anchor="start" x="15.5" y="-412" font-family="Ubuntu" font-size="10.00">1</text>
<text text-anchor="start" x="26.5" y="-412" font-family="Ubuntu" font-size="10.00">board_id</text>
<polygon fill="#a6cee3" stroke="transparent" points="90.5,-407 90.5,-422 154.5,-422 154.5,-407 90.5,-407"/>
<text text-anchor="start" x="123.5" y="-413" font-family="Ubuntu" font-style="italic" font-size="10.00">uint32</text>
<text text-anchor="start" x="15.5" y="-397" font-family="Ubuntu" font-size="10.00">2</text>
<text text-anchor="start" x="26.5" y="-397" font-family="Ubuntu" font-size="10.00">channel_type</text>
<polygon fill="#b2df8a" stroke="transparent" points="90.5,-392 90.5,-407 154.5,-407 154.5,-392 90.5,-392"/>
<text text-anchor="start" x="92.5" y="-398" font-family="Ubuntu" text-decoration="underline" font-size="10.00">ChannelType</text>
<text text-anchor="start" x="15.5" y="-382" font-family="Ubuntu" font-size="10.00">3</text>
<text text-anchor="start" x="26.5" y="-382" font-family="Ubuntu" font-size="10.00">channel</text>
<polygon fill="#a6cee3" stroke="transparent" points="90.5,-377 90.5,-392 154.5,-392 154.5,-377 90.5,-377"/>
<text text-anchor="start" x="123.5" y="-383" font-family="Ubuntu" font-style="italic" font-size="10.00">uint32</text>
<polygon fill="none" stroke="black" points="8,-376 8,-438 155,-438 155,-376 8,-376"/>
</a>
</g>
</g>
<!-- Node_Ja_101 -->
<g id="node2" class="node">
<title>Node_Ja_101</title>
<g id="a_node2"><a xlink:title="ChannelType">
<polygon fill="#b2df8a" stroke="transparent" points="207,-293 207,-505 338,-505 338,-293 207,-293"/>
<polygon fill="#33a02c" stroke="transparent" points="208.5,-489 208.5,-504 337.5,-504 337.5,-489 208.5,-489"/>
<text text-anchor="start" x="245.5" y="-495" font-family="Ubuntu" font-size="10.00">enum </text>
<text text-anchor="start" x="273.5" y="-495" font-family="Ubuntu" font-weight="bold" font-size="10.00">ChannelType</text>
<polygon fill="#b2df8a" stroke="transparent" points="208.5,-474 208.5,-489 320.5,-489 320.5,-474 208.5,-474"/>
<text text-anchor="start" x="210.5" y="-479" font-family="Ubuntu" font-size="10.00">GPIO</text>
<polygon fill="#b2df8a" stroke="transparent" points="320.5,-474 320.5,-489 337.5,-489 337.5,-474 320.5,-474"/>
<text text-anchor="start" x="322.5" y="-479" font-family="Ubuntu" font-size="10.00">0</text>
<polygon fill="#b2df8a" stroke="transparent" points="208.5,-459 208.5,-474 320.5,-474 320.5,-459 208.5,-459"/>
<text text-anchor="start" x="210.5" y="-464" font-family="Ubuntu" font-size="10.00">LED</text>
<polygon fill="#b2df8a" stroke="transparent" points="320.5,-459 320.5,-474 337.5,-474 337.5,-459 320.5,-459"/>
<text text-anchor="start" x="322.5" y="-464" font-family="Ubuntu" font-size="10.00">1</text>
<polygon fill="#b2df8a" stroke="transparent" points="208.5,-444 208.5,-459 320.5,-459 320.5,-444 208.5,-444"/>
<text text-anchor="start" x="210.5" y="-449" font-family="Ubuntu" font-size="10.00">RAIL_3V3</text>
<polygon fill="#b2df8a" stroke="transparent" points="320.5,-444 320.5,-459 337.5,-459 337.5,-444 320.5,-444"/>
<text text-anchor="start" x="322.5" y="-449" font-family="Ubuntu" font-size="10.00">2</text>
<polygon fill="#b2df8a" stroke="transparent" points="208.5,-429 208.5,-444 320.5,-444 320.5,-429 208.5,-429"/>
<text text-anchor="start" x="210.5" y="-434" font-family="Ubuntu" font-size="10.00">RAIL_5V</text>
<polygon fill="#b2df8a" stroke="transparent" points="320.5,-429 320.5,-444 337.5,-444 337.5,-429 320.5,-429"/>
<text text-anchor="start" x="322.5" y="-434" font-family="Ubuntu" font-size="10.00">3</text>
<polygon fill="#b2df8a" stroke="transparent" points="208.5,-414 208.5,-429 320.5,-429 320.5,-414 208.5,-414"/>
<text text-anchor="start" x="210.5" y="-419" font-family="Ubuntu" font-size="10.00">RAIL_5V5</text>
<polygon fill="#b2df8a" stroke="transparent" points="320.5,-414 320.5,-429 337.5,-429 337.5,-414 320.5,-414"/>
<text text-anchor="start" x="322.5" y="-419" font-family="Ubuntu" font-size="10.00">4</text>
<polygon fill="#b2df8a" stroke="transparent" points="208.5,-399 208.5,-414 320.5,-414 320.5,-399 208.5,-399"/>
<text text-anchor="start" x="210.5" y="-404" font-family="Ubuntu" font-size="10.00">RAIL_24V</text>
<polygon fill="#b2df8a" stroke="transparent" points="320.5,-399 320.5,-414 337.5,-414 337.5,-399 320.5,-399"/>
<text text-anchor="start" x="322.5" y="-404" font-family="Ubuntu" font-size="10.00">5</text>
<polygon fill="#b2df8a" stroke="transparent" points="208.5,-384 208.5,-399 320.5,-399 320.5,-384 208.5,-384"/>
<text text-anchor="start" x="210.5" y="-389" font-family="Ubuntu" font-size="10.00">CURRENT_LOOP</text>
<polygon fill="#b2df8a" stroke="transparent" points="320.5,-384 320.5,-399 337.5,-399 337.5,-384 320.5,-384"/>
<text text-anchor="start" x="322.5" y="-389" font-family="Ubuntu" font-size="10.00">6</text>
<polygon fill="#b2df8a" stroke="transparent" points="208.5,-369 208.5,-384 320.5,-384 320.5,-369 208.5,-369"/>
<text text-anchor="start" x="210.5" y="-374" font-family="Ubuntu" font-size="10.00">DIFFERENTIAL_SIGNAL</text>
<polygon fill="#b2df8a" stroke="transparent" points="320.5,-369 320.5,-384 337.5,-384 337.5,-369 320.5,-369"/>
<text text-anchor="start" x="322.5" y="-374" font-family="Ubuntu" font-size="10.00">7</text>
<polygon fill="#b2df8a" stroke="transparent" points="208.5,-354 208.5,-369 320.5,-369 320.5,-354 208.5,-354"/>
<text text-anchor="start" x="210.5" y="-359" font-family="Ubuntu" font-size="10.00">TC</text>
<polygon fill="#b2df8a" stroke="transparent" points="320.5,-354 320.5,-369 337.5,-369 337.5,-354 320.5,-354"/>
<text text-anchor="start" x="322.5" y="-359" font-family="Ubuntu" font-size="10.00">8</text>
<polygon fill="#b2df8a" stroke="transparent" points="208.5,-339 208.5,-354 320.5,-354 320.5,-339 208.5,-339"/>
<text text-anchor="start" x="210.5" y="-344" font-family="Ubuntu" font-size="10.00">RTD</text>
<polygon fill="#b2df8a" stroke="transparent" points="320.5,-339 320.5,-354 337.5,-354 337.5,-339 320.5,-339"/>
<text text-anchor="start" x="322.5" y="-344" font-family="Ubuntu" font-size="10.00">9</text>
<polygon fill="#b2df8a" stroke="transparent" points="208.5,-324 208.5,-339 320.5,-339 320.5,-324 208.5,-324"/>
<text text-anchor="start" x="210.5" y="-329" font-family="Ubuntu" font-size="10.00">VALVE</text>
<polygon fill="#b2df8a" stroke="transparent" points="320.5,-324 320.5,-339 337.5,-339 337.5,-324 320.5,-324"/>
<text text-anchor="start" x="322.5" y="-329" font-family="Ubuntu" font-size="10.00">10</text>
<polygon fill="#b2df8a" stroke="transparent" points="208.5,-309 208.5,-324 320.5,-324 320.5,-309 208.5,-309"/>
<text text-anchor="start" x="210.5" y="-314" font-family="Ubuntu" font-size="10.00">VALVE_CURRENT</text>
<polygon fill="#b2df8a" stroke="transparent" points="320.5,-309 320.5,-324 337.5,-324 337.5,-309 320.5,-309"/>
<text text-anchor="start" x="322.5" y="-314" font-family="Ubuntu" font-size="10.00">11</text>
<polygon fill="#b2df8a" stroke="transparent" points="208.5,-294 208.5,-309 320.5,-309 320.5,-294 208.5,-294"/>
<text text-anchor="start" x="210.5" y="-299" font-family="Ubuntu" font-size="10.00">VALVE_VOLTAGE</text>
<polygon fill="#b2df8a" stroke="transparent" points="320.5,-294 320.5,-309 337.5,-309 337.5,-294 320.5,-294"/>
<text text-anchor="start" x="322.5" y="-299" font-family="Ubuntu" font-size="10.00">12</text>
<polygon fill="none" stroke="black" points="207,-293 207,-505 338,-505 338,-293 207,-293"/>
</a>
</g>
</g>
<!-- Node_Ja_100&#45;&gt;Node_Ja_101 -->
<g id="edge1" class="edge">
<title>Node_Ja_100:e&#45;&gt;Node_Ja_101</title>
<g id="a_edge1"><a xlink:title="Ja_100 &#45;&#45;&gt; Ja_101">
<path fill="none" stroke="#008000" d="M155.5,-399C166.22,-399 177.49,-399 188.62,-399"/>
<polygon fill="#008000" stroke="#008000" points="188.79,-402.5 198.79,-399 188.79,-395.5 188.79,-402.5"/>
</a>
</g>
</g>
<!-- Node_Ja_102 -->
<g id="node3" class="node">
<title>Node_Ja_102</title>
<g id="a_node3"><a xlink:title="ValveState">
<polygon fill="#b2df8a" stroke="transparent" points="227.5,-219.5 227.5,-266.5 317.5,-266.5 317.5,-219.5 227.5,-219.5"/>
<polygon fill="#33a02c" stroke="transparent" points="228.5,-250 228.5,-265 316.5,-265 316.5,-250 228.5,-250"/>
<text text-anchor="start" x="233.5" y="-256" font-family="Ubuntu" font-size="10.00">enum </text>
<text text-anchor="start" x="261.5" y="-256" font-family="Ubuntu" font-weight="bold" font-size="10.00">ValveState</text>
<polygon fill="#b2df8a" stroke="transparent" points="228.5,-235 228.5,-250 305.5,-250 305.5,-235 228.5,-235"/>
<text text-anchor="start" x="230.5" y="-240" font-family="Ubuntu" font-size="10.00">VALVE_OPEN</text>
<polygon fill="#b2df8a" stroke="transparent" points="305.5,-235 305.5,-250 316.5,-250 316.5,-235 305.5,-235"/>
<text text-anchor="start" x="307.5" y="-240" font-family="Ubuntu" font-size="10.00">0</text>
<polygon fill="#b2df8a" stroke="transparent" points="228.5,-220 228.5,-235 305.5,-235 305.5,-220 228.5,-220"/>
<text text-anchor="start" x="230.5" y="-225" font-family="Ubuntu" font-size="10.00">VALVE_CLOSED</text>
<polygon fill="#b2df8a" stroke="transparent" points="305.5,-220 305.5,-235 316.5,-235 316.5,-220 305.5,-220"/>
<text text-anchor="start" x="307.5" y="-225" font-family="Ubuntu" font-size="10.00">1</text>
<polygon fill="none" stroke="black" points="227.5,-219.5 227.5,-266.5 317.5,-266.5 317.5,-219.5 227.5,-219.5"/>
</a>
</g>
</g>
<!-- Node_Ja_103 -->
<g id="node4" class="node">
<title>Node_Ja_103</title>
<g id="a_node4"><a xlink:title="LEDState">
<polygon fill="#b2df8a" stroke="transparent" points="232.5,-146.5 232.5,-193.5 312.5,-193.5 312.5,-146.5 232.5,-146.5"/>
<polygon fill="#33a02c" stroke="transparent" points="233.5,-177 233.5,-192 311.5,-192 311.5,-177 233.5,-177"/>
<text text-anchor="start" x="235.5" y="-183" font-family="Ubuntu" font-size="10.00">enum </text>
<text text-anchor="start" x="263.5" y="-183" font-family="Ubuntu" font-weight="bold" font-size="10.00">LEDState</text>
<polygon fill="#b2df8a" stroke="transparent" points="233.5,-162 233.5,-177 290.5,-177 290.5,-162 233.5,-162"/>
<text text-anchor="start" x="235.5" y="-167" font-family="Ubuntu" font-size="10.00">LED_OFF</text>
<polygon fill="#b2df8a" stroke="transparent" points="290.5,-162 290.5,-177 311.5,-177 311.5,-162 290.5,-162"/>
<text text-anchor="start" x="292.5" y="-167" font-family="Ubuntu" font-size="10.00">0</text>
<polygon fill="#b2df8a" stroke="transparent" points="233.5,-147 233.5,-162 290.5,-162 290.5,-147 233.5,-147"/>
<text text-anchor="start" x="235.5" y="-152" font-family="Ubuntu" font-size="10.00">LED_ON</text>
<polygon fill="#b2df8a" stroke="transparent" points="290.5,-147 290.5,-162 311.5,-162 311.5,-147 290.5,-147"/>
<text text-anchor="start" x="292.5" y="-152" font-family="Ubuntu" font-size="10.00">1</text>
<polygon fill="none" stroke="black" points="232.5,-146.5 232.5,-193.5 312.5,-193.5 312.5,-146.5 232.5,-146.5"/>
</a>
</g>
</g>
<!-- Node_Ja_104 -->
<g id="node5" class="node">
<title>Node_Ja_104</title>
<g id="a_node5"><a xlink:title="DeviceType">
<polygon fill="#b2df8a" stroke="transparent" points="213.5,-43.5 213.5,-120.5 331.5,-120.5 331.5,-43.5 213.5,-43.5"/>
<polygon fill="#33a02c" stroke="transparent" points="214.5,-104 214.5,-119 330.5,-119 330.5,-104 214.5,-104"/>
<text text-anchor="start" x="245.5" y="-110" font-family="Ubuntu" font-size="10.00">enum </text>
<text text-anchor="start" x="273.5" y="-110" font-family="Ubuntu" font-weight="bold" font-size="10.00">DeviceType</text>
<polygon fill="#b2df8a" stroke="transparent" points="214.5,-89 214.5,-104 319.5,-104 319.5,-89 214.5,-89"/>
<text text-anchor="start" x="216.5" y="-94" font-family="Ubuntu" font-size="10.00">SERVER</text>
<polygon fill="#b2df8a" stroke="transparent" points="319.5,-89 319.5,-104 330.5,-104 330.5,-89 319.5,-89"/>
<text text-anchor="start" x="321.5" y="-94" font-family="Ubuntu" font-size="10.00">0</text>
<polygon fill="#b2df8a" stroke="transparent" points="214.5,-74 214.5,-89 319.5,-89 319.5,-74 214.5,-74"/>
<text text-anchor="start" x="216.5" y="-79" font-family="Ubuntu" font-size="10.00">FLIGHT_COMPUTER</text>
<polygon fill="#b2df8a" stroke="transparent" points="319.5,-74 319.5,-89 330.5,-89 330.5,-74 319.5,-74"/>
<text text-anchor="start" x="321.5" y="-79" font-family="Ubuntu" font-size="10.00">1</text>
<polygon fill="#b2df8a" stroke="transparent" points="214.5,-59 214.5,-74 319.5,-74 319.5,-59 214.5,-59"/>
<text text-anchor="start" x="216.5" y="-64" font-family="Ubuntu" font-size="10.00">GROUND_COMPUTER</text>
<polygon fill="#b2df8a" stroke="transparent" points="319.5,-59 319.5,-74 330.5,-74 330.5,-59 319.5,-59"/>
<text text-anchor="start" x="321.5" y="-64" font-family="Ubuntu" font-size="10.00">2</text>
<polygon fill="#b2df8a" stroke="transparent" points="214.5,-44 214.5,-59 319.5,-59 319.5,-44 214.5,-44"/>
<text text-anchor="start" x="216.5" y="-49" font-family="Ubuntu" font-size="10.00">SAM</text>
<polygon fill="#b2df8a" stroke="transparent" points="319.5,-44 319.5,-59 330.5,-59 330.5,-44 319.5,-44"/>
<text text-anchor="start" x="321.5" y="-49" font-family="Ubuntu" font-size="10.00">3</text>
<polygon fill="none" stroke="black" points="213.5,-43.5 213.5,-120.5 331.5,-120.5 331.5,-43.5 213.5,-43.5"/>
</a>
</g>
</g>
</g>
</svg>
