<?xml version="1.0" encoding="UTF-8" standalone="no"?>
<!DOCTYPE svg PUBLIC "-//W3C//DTD SVG 1.1//EN"
 "http://www.w3.org/Graphics/SVG/1.1/DTD/svg11.dtd">
<!-- Generated by graphviz version 2.43.0 (0)
 -->
<!-- Title: protodot Pages: 1 -->
<svg width="339pt" height="496pt"
 viewBox="0.00 0.00 339.00 496.00" xmlns="http://www.w3.org/2000/svg" xmlns:xlink="http://www.w3.org/1999/xlink">
<g id="graph0" class="graph" transform="scale(1 1) rotate(0) translate(4 492)">
<title>protodot</title>
<g id="a_graph0"><a xlink:title="mcfs.device">
<text text-anchor="middle" x="165.5" y="-7.8" font-family="Times,serif" font-size="14.00">mcfs.device</text>
</a>
</g>
<g id="clust1" class="cluster">
<title>cluster_008970577f45</title>
<g id="a_clust1"><a xlink:title="mcfs.device">
<polygon fill="#caff70" stroke="black" points="148,-31 148,-480 323,-480 323,-31 148,-31"/>
<text text-anchor="middle" x="235.5" y="-464.8" font-family="Times,serif" font-size="14.00">mcfs.device</text>
</a>
</g>
</g>
<!-- Node_Ja_100 -->
<g id="node1" class="node">
<title>Node_Ja_100</title>
<g id="a_node1"><a xlink:title="mcfs.device.NodeIdentifier">
<polygon fill="#fffaf0" stroke="transparent" points="8,-338 8,-400 112,-400 112,-338 8,-338"/>
<polygon fill="#e31a1c" stroke="transparent" points="9,-384 9,-399 111,-399 111,-384 9,-384"/>
<text text-anchor="start" x="37" y="-390" font-family="Ubuntu" font-weight="bold" font-size="10.00">NodeIdentifier</text>
<text text-anchor="start" x="15" y="-374" font-family="Ubuntu" font-size="10.00">1</text>
<text text-anchor="start" x="26" y="-374" font-family="Ubuntu" font-size="10.00">board_id</text>
<polygon fill="#a6cee3" stroke="transparent" points="69,-369 69,-384 111,-384 111,-369 69,-369"/>
<text text-anchor="start" x="80" y="-375" font-family="Ubuntu" font-style="italic" font-size="10.00">uint32</text>
<text text-anchor="start" x="15" y="-359" font-family="Ubuntu" font-size="10.00">2</text>
<text text-anchor="start" x="26" y="-359" font-family="Ubuntu" font-size="10.00">channel</text>
<polygon fill="#b2df8a" stroke="transparent" points="69,-354 69,-369 111,-369 111,-354 69,-354"/>
<text text-anchor="start" x="71" y="-360" font-family="Ubuntu" text-decoration="underline" font-size="10.00">Channel</text>
<text text-anchor="start" x="15" y="-344" font-family="Ubuntu" font-size="10.00">3</text>
<text text-anchor="start" x="26" y="-344" font-family="Ubuntu" font-size="10.00">node_id</text>
<polygon fill="#a6cee3" stroke="transparent" points="69,-339 69,-354 111,-354 111,-339 69,-339"/>
<text text-anchor="start" x="80" y="-345" font-family="Ubuntu" font-style="italic" font-size="10.00">uint32</text>
<polygon fill="none" stroke="black" points="8,-338 8,-400 112,-400 112,-338 8,-338"/>
</a>
</g>
</g>
<!-- Node_Ja_101 -->
<g id="node2" class="node">
<title>Node_Ja_101</title>
<g id="a_node2"><a xlink:title="Channel">
<polygon fill="#b2df8a" stroke="transparent" points="164,-277.5 164,-444.5 307,-444.5 307,-277.5 164,-277.5"/>
<polygon fill="#33a02c" stroke="transparent" points="165.5,-428 165.5,-443 306.5,-443 306.5,-428 165.5,-428"/>
<text text-anchor="start" x="236.5" y="-434" font-family="Ubuntu" font-size="10.00">enum </text>
<text text-anchor="start" x="264.5" y="-434" font-family="Ubuntu" font-weight="bold" font-size="10.00">Channel</text>
<polygon fill="#b2df8a" stroke="transparent" points="165.5,-413 165.5,-428 295.5,-428 295.5,-413 165.5,-413"/>
<text text-anchor="start" x="167.5" y="-418" font-family="Ubuntu" font-size="10.00">GPIO</text>
<polygon fill="#b2df8a" stroke="transparent" points="295.5,-413 295.5,-428 306.5,-428 306.5,-413 295.5,-413"/>
<text text-anchor="start" x="297.5" y="-418" font-family="Ubuntu" font-size="10.00">0</text>
<polygon fill="#b2df8a" stroke="transparent" points="165.5,-398 165.5,-413 295.5,-413 295.5,-398 165.5,-398"/>
<text text-anchor="start" x="167.5" y="-403" font-family="Ubuntu" font-size="10.00">LED</text>
<polygon fill="#b2df8a" stroke="transparent" points="295.5,-398 295.5,-413 306.5,-413 306.5,-398 295.5,-398"/>
<text text-anchor="start" x="297.5" y="-403" font-family="Ubuntu" font-size="10.00">1</text>
<polygon fill="#b2df8a" stroke="transparent" points="165.5,-383 165.5,-398 295.5,-398 295.5,-383 165.5,-383"/>
<text text-anchor="start" x="167.5" y="-388" font-family="Ubuntu" font-size="10.00">RAIL_3V3</text>
<polygon fill="#b2df8a" stroke="transparent" points="295.5,-383 295.5,-398 306.5,-398 306.5,-383 295.5,-383"/>
<text text-anchor="start" x="297.5" y="-388" font-family="Ubuntu" font-size="10.00">2</text>
<polygon fill="#b2df8a" stroke="transparent" points="165.5,-368 165.5,-383 295.5,-383 295.5,-368 165.5,-368"/>
<text text-anchor="start" x="167.5" y="-373" font-family="Ubuntu" font-size="10.00">RAIL_5V</text>
<polygon fill="#b2df8a" stroke="transparent" points="295.5,-368 295.5,-383 306.5,-383 306.5,-368 295.5,-368"/>
<text text-anchor="start" x="297.5" y="-373" font-family="Ubuntu" font-size="10.00">3</text>
<polygon fill="#b2df8a" stroke="transparent" points="165.5,-353 165.5,-368 295.5,-368 295.5,-353 165.5,-353"/>
<text text-anchor="start" x="167.5" y="-358" font-family="Ubuntu" font-size="10.00">RAIL_5V5</text>
<polygon fill="#b2df8a" stroke="transparent" points="295.5,-353 295.5,-368 306.5,-368 306.5,-353 295.5,-353"/>
<text text-anchor="start" x="297.5" y="-358" font-family="Ubuntu" font-size="10.00">4</text>
<polygon fill="#b2df8a" stroke="transparent" points="165.5,-338 165.5,-353 295.5,-353 295.5,-338 165.5,-338"/>
<text text-anchor="start" x="167.5" y="-343" font-family="Ubuntu" font-size="10.00">RAIL_24V</text>
<polygon fill="#b2df8a" stroke="transparent" points="295.5,-338 295.5,-353 306.5,-353 306.5,-338 295.5,-338"/>
<text text-anchor="start" x="297.5" y="-343" font-family="Ubuntu" font-size="10.00">5</text>
<polygon fill="#b2df8a" stroke="transparent" points="165.5,-323 165.5,-338 295.5,-338 295.5,-323 165.5,-323"/>
<text text-anchor="start" x="167.5" y="-328" font-family="Ubuntu" font-size="10.00">CURRENT_LOOP</text>
<polygon fill="#b2df8a" stroke="transparent" points="295.5,-323 295.5,-338 306.5,-338 306.5,-323 295.5,-323"/>
<text text-anchor="start" x="297.5" y="-328" font-family="Ubuntu" font-size="10.00">6</text>
<polygon fill="#b2df8a" stroke="transparent" points="165.5,-308 165.5,-323 295.5,-323 295.5,-308 165.5,-308"/>
<text text-anchor="start" x="167.5" y="-313" font-family="Ubuntu" font-size="10.00">DIFFERENTIAL_SIGNAL</text>
<polygon fill="#b2df8a" stroke="transparent" points="295.5,-308 295.5,-323 306.5,-323 306.5,-308 295.5,-308"/>
<text text-anchor="start" x="297.5" y="-313" font-family="Ubuntu" font-size="10.00">7</text>
<polygon fill="#b2df8a" stroke="transparent" points="165.5,-293 165.5,-308 295.5,-308 295.5,-293 165.5,-293"/>
<text text-anchor="start" x="167.5" y="-298" font-family="Ubuntu" font-size="10.00">TEMPERATURE_DETECTOR</text>
<polygon fill="#b2df8a" stroke="transparent" points="295.5,-293 295.5,-308 306.5,-308 306.5,-293 295.5,-293"/>
<text text-anchor="start" x="297.5" y="-298" font-family="Ubuntu" font-size="10.00">8</text>
<polygon fill="#b2df8a" stroke="transparent" points="165.5,-278 165.5,-293 295.5,-293 295.5,-278 165.5,-278"/>
<text text-anchor="start" x="167.5" y="-283" font-family="Ubuntu" font-size="10.00">VALVE</text>
<polygon fill="#b2df8a" stroke="transparent" points="295.5,-278 295.5,-293 306.5,-293 306.5,-278 295.5,-278"/>
<text text-anchor="start" x="297.5" y="-283" font-family="Ubuntu" font-size="10.00">9</text>
<polygon fill="none" stroke="black" points="164,-277.5 164,-444.5 307,-444.5 307,-277.5 164,-277.5"/>
</a>
</g>
</g>
<!-- Node_Ja_100&#45;&gt;Node_Ja_101 -->
<g id="edge1" class="edge">
<title>Node_Ja_100:e&#45;&gt;Node_Ja_101</title>
<g id="a_edge1"><a xlink:title="Ja_100 &#45;&#45;&gt; Ja_101">
<path fill="none" stroke="#008000" d="M112,-361C122.83,-361 134.19,-361 145.46,-361"/>
<polygon fill="#008000" stroke="#008000" points="145.75,-364.5 155.75,-361 145.75,-357.5 145.75,-364.5"/>
</a>
</g>
</g>
<!-- Node_Ja_102 -->
<g id="node3" class="node">
<title>Node_Ja_102</title>
<g id="a_node3"><a xlink:title="ValveState">
<polygon fill="#b2df8a" stroke="transparent" points="190.5,-204.5 190.5,-251.5 280.5,-251.5 280.5,-204.5 190.5,-204.5"/>
<polygon fill="#33a02c" stroke="transparent" points="191.5,-235 191.5,-250 279.5,-250 279.5,-235 191.5,-235"/>
<text text-anchor="start" x="196.5" y="-241" font-family="Ubuntu" font-size="10.00">enum </text>
<text text-anchor="start" x="224.5" y="-241" font-family="Ubuntu" font-weight="bold" font-size="10.00">ValveState</text>
<polygon fill="#b2df8a" stroke="transparent" points="191.5,-220 191.5,-235 268.5,-235 268.5,-220 191.5,-220"/>
<text text-anchor="start" x="193.5" y="-225" font-family="Ubuntu" font-size="10.00">VALVE_OPEN</text>
<polygon fill="#b2df8a" stroke="transparent" points="268.5,-220 268.5,-235 279.5,-235 279.5,-220 268.5,-220"/>
<text text-anchor="start" x="270.5" y="-225" font-family="Ubuntu" font-size="10.00">0</text>
<polygon fill="#b2df8a" stroke="transparent" points="191.5,-205 191.5,-220 268.5,-220 268.5,-205 191.5,-205"/>
<text text-anchor="start" x="193.5" y="-210" font-family="Ubuntu" font-size="10.00">VALVE_CLOSED</text>
<polygon fill="#b2df8a" stroke="transparent" points="268.5,-205 268.5,-220 279.5,-220 279.5,-205 268.5,-205"/>
<text text-anchor="start" x="270.5" y="-210" font-family="Ubuntu" font-size="10.00">1</text>
<polygon fill="none" stroke="black" points="190.5,-204.5 190.5,-251.5 280.5,-251.5 280.5,-204.5 190.5,-204.5"/>
</a>
</g>
</g>
<!-- Node_Ja_103 -->
<g id="node4" class="node">
<title>Node_Ja_103</title>
<g id="a_node4"><a xlink:title="LEDState">
<polygon fill="#b2df8a" stroke="transparent" points="195.5,-131.5 195.5,-178.5 275.5,-178.5 275.5,-131.5 195.5,-131.5"/>
<polygon fill="#33a02c" stroke="transparent" points="196.5,-162 196.5,-177 274.5,-177 274.5,-162 196.5,-162"/>
<text text-anchor="start" x="198.5" y="-168" font-family="Ubuntu" font-size="10.00">enum </text>
<text text-anchor="start" x="226.5" y="-168" font-family="Ubuntu" font-weight="bold" font-size="10.00">LEDState</text>
<polygon fill="#b2df8a" stroke="transparent" points="196.5,-147 196.5,-162 253.5,-162 253.5,-147 196.5,-147"/>
<text text-anchor="start" x="198.5" y="-152" font-family="Ubuntu" font-size="10.00">LED_OFF</text>
<polygon fill="#b2df8a" stroke="transparent" points="253.5,-147 253.5,-162 274.5,-162 274.5,-147 253.5,-147"/>
<text text-anchor="start" x="255.5" y="-152" font-family="Ubuntu" font-size="10.00">0</text>
<polygon fill="#b2df8a" stroke="transparent" points="196.5,-132 196.5,-147 253.5,-147 253.5,-132 196.5,-132"/>
<text text-anchor="start" x="198.5" y="-137" font-family="Ubuntu" font-size="10.00">LED_ON</text>
<polygon fill="#b2df8a" stroke="transparent" points="253.5,-132 253.5,-147 274.5,-147 274.5,-132 253.5,-132"/>
<text text-anchor="start" x="255.5" y="-137" font-family="Ubuntu" font-size="10.00">1</text>
<polygon fill="none" stroke="black" points="195.5,-131.5 195.5,-178.5 275.5,-178.5 275.5,-131.5 195.5,-131.5"/>
</a>
</g>
</g>
<!-- Node_Ja_104 -->
<g id="node5" class="node">
<title>Node_Ja_104</title>
<g id="a_node5"><a xlink:title="DeviceType">
<polygon fill="#b2df8a" stroke="transparent" points="181,-43 181,-105 290,-105 290,-43 181,-43"/>
<polygon fill="#33a02c" stroke="transparent" points="182.5,-89 182.5,-104 289.5,-104 289.5,-89 182.5,-89"/>
<text text-anchor="start" x="204.5" y="-95" font-family="Ubuntu" font-size="10.00">enum </text>
<text text-anchor="start" x="232.5" y="-95" font-family="Ubuntu" font-weight="bold" font-size="10.00">DeviceType</text>
<polygon fill="#b2df8a" stroke="transparent" points="182.5,-74 182.5,-89 278.5,-89 278.5,-74 182.5,-74"/>
<text text-anchor="start" x="184.5" y="-79" font-family="Ubuntu" font-size="10.00">SERVER</text>
<polygon fill="#b2df8a" stroke="transparent" points="278.5,-74 278.5,-89 289.5,-89 289.5,-74 278.5,-74"/>
<text text-anchor="start" x="280.5" y="-79" font-family="Ubuntu" font-size="10.00">0</text>
<polygon fill="#b2df8a" stroke="transparent" points="182.5,-59 182.5,-74 278.5,-74 278.5,-59 182.5,-59"/>
<text text-anchor="start" x="184.5" y="-64" font-family="Ubuntu" font-size="10.00">FLIGHT_COMPUTER</text>
<polygon fill="#b2df8a" stroke="transparent" points="278.5,-59 278.5,-74 289.5,-74 289.5,-59 278.5,-59"/>
<text text-anchor="start" x="280.5" y="-64" font-family="Ubuntu" font-size="10.00">1</text>
<polygon fill="#b2df8a" stroke="transparent" points="182.5,-44 182.5,-59 278.5,-59 278.5,-44 182.5,-44"/>
<text text-anchor="start" x="184.5" y="-49" font-family="Ubuntu" font-size="10.00">SAM</text>
<polygon fill="#b2df8a" stroke="transparent" points="278.5,-44 278.5,-59 289.5,-59 289.5,-44 278.5,-44"/>
<text text-anchor="start" x="280.5" y="-49" font-family="Ubuntu" font-size="10.00">2</text>
<polygon fill="none" stroke="black" points="181,-43 181,-105 290,-105 290,-43 181,-43"/>
</a>
</g>
</g>
</g>
</svg>
