<?xml version="1.0" encoding="UTF-8" standalone="no"?>
<!DOCTYPE svg PUBLIC "-//W3C//DTD SVG 1.1//EN"
 "http://www.w3.org/Graphics/SVG/1.1/DTD/svg11.dtd">
<!-- Generated by graphviz version 2.43.0 (0)
 -->
<!-- Title: protodot Pages: 1 -->
<svg width="669pt" height="557pt"
 viewBox="0.00 0.00 669.00 557.00" xmlns="http://www.w3.org/2000/svg" xmlns:xlink="http://www.w3.org/1999/xlink">
<g id="graph0" class="graph" transform="scale(1 1) rotate(0) translate(4 553)">
<title>protodot</title>
<g id="a_graph0"><a xlink:title="mcfs.mapping">
<text text-anchor="middle" x="330.5" y="-7.8" font-family="Times,serif" font-size="14.00">mcfs.mapping</text>
</a>
</g>
<g id="clust1" class="cluster">
<title>cluster_d12fc5b0b749</title>
<g id="a_clust1"><a xlink:title="board.proto">
<polygon fill="#caff70" stroke="black" points="291,-261 291,-370 470,-370 470,-261 291,-261"/>
<text text-anchor="middle" x="380.5" y="-354.8" font-family="Times,serif" font-size="14.00">board.proto</text>
</a>
</g>
</g>
<g id="clust2" class="cluster">
<title>cluster_4a45dd18e682</title>
<g id="a_clust2"><a xlink:title="mcfs.board">
<polygon fill="#caff70" stroke="black" points="490,-31 490,-541 653,-541 653,-31 490,-31"/>
<text text-anchor="middle" x="571.5" y="-525.8" font-family="Times,serif" font-size="14.00">mcfs.board</text>
</a>
</g>
</g>
<!-- Node_Ja_100 -->
<g id="node1" class="node">
<title>Node_Ja_100</title>
<g id="a_node1"><a xlink:title="mcfs.board.ChannelIdentifier">
<polygon fill="#fffaf0" stroke="transparent" points="307,-273 307,-335 454,-335 454,-273 307,-273"/>
<polygon fill="#e31a1c" stroke="transparent" points="308.5,-319 308.5,-334 453.5,-334 453.5,-319 308.5,-319"/>
<text text-anchor="start" x="366.5" y="-325" font-family="Ubuntu" font-weight="bold" font-size="10.00">ChannelIdentifier</text>
<text text-anchor="start" x="314.5" y="-309" font-family="Ubuntu" font-size="10.00">1</text>
<text text-anchor="start" x="325.5" y="-309" font-family="Ubuntu" font-size="10.00">board_id</text>
<polygon fill="#a6cee3" stroke="transparent" points="389.5,-304 389.5,-319 453.5,-319 453.5,-304 389.5,-304"/>
<text text-anchor="start" x="422.5" y="-310" font-family="Ubuntu" font-style="italic" font-size="10.00">uint32</text>
<text text-anchor="start" x="314.5" y="-294" font-family="Ubuntu" font-size="10.00">2</text>
<text text-anchor="start" x="325.5" y="-294" font-family="Ubuntu" font-size="10.00">channel_type</text>
<polygon fill="#b2df8a" stroke="transparent" points="389.5,-289 389.5,-304 453.5,-304 453.5,-289 389.5,-289"/>
<text text-anchor="start" x="391.5" y="-295" font-family="Ubuntu" text-decoration="underline" font-size="10.00">ChannelType</text>
<text text-anchor="start" x="314.5" y="-279" font-family="Ubuntu" font-size="10.00">3</text>
<text text-anchor="start" x="325.5" y="-279" font-family="Ubuntu" font-size="10.00">channel</text>
<polygon fill="#a6cee3" stroke="transparent" points="389.5,-274 389.5,-289 453.5,-289 453.5,-274 389.5,-274"/>
<text text-anchor="start" x="422.5" y="-280" font-family="Ubuntu" font-style="italic" font-size="10.00">uint32</text>
<polygon fill="none" stroke="black" points="307,-273 307,-335 454,-335 454,-273 307,-273"/>
</a>
</g>
</g>
<!-- Node_Ja_101 -->
<g id="node3" class="node">
<title>Node_Ja_101</title>
<g id="a_node3"><a xlink:title="ChannelType">
<polygon fill="#b2df8a" stroke="transparent" points="506,-190 506,-402 637,-402 637,-190 506,-190"/>
<polygon fill="#33a02c" stroke="transparent" points="507.5,-386 507.5,-401 636.5,-401 636.5,-386 507.5,-386"/>
<text text-anchor="start" x="544.5" y="-392" font-family="Ubuntu" font-size="10.00">enum </text>
<text text-anchor="start" x="572.5" y="-392" font-family="Ubuntu" font-weight="bold" font-size="10.00">ChannelType</text>
<polygon fill="#b2df8a" stroke="transparent" points="507.5,-371 507.5,-386 619.5,-386 619.5,-371 507.5,-371"/>
<text text-anchor="start" x="509.5" y="-376" font-family="Ubuntu" font-size="10.00">GPIO</text>
<polygon fill="#b2df8a" stroke="transparent" points="619.5,-371 619.5,-386 636.5,-386 636.5,-371 619.5,-371"/>
<text text-anchor="start" x="621.5" y="-376" font-family="Ubuntu" font-size="10.00">0</text>
<polygon fill="#b2df8a" stroke="transparent" points="507.5,-356 507.5,-371 619.5,-371 619.5,-356 507.5,-356"/>
<text text-anchor="start" x="509.5" y="-361" font-family="Ubuntu" font-size="10.00">LED</text>
<polygon fill="#b2df8a" stroke="transparent" points="619.5,-356 619.5,-371 636.5,-371 636.5,-356 619.5,-356"/>
<text text-anchor="start" x="621.5" y="-361" font-family="Ubuntu" font-size="10.00">1</text>
<polygon fill="#b2df8a" stroke="transparent" points="507.5,-341 507.5,-356 619.5,-356 619.5,-341 507.5,-341"/>
<text text-anchor="start" x="509.5" y="-346" font-family="Ubuntu" font-size="10.00">RAIL_3V3</text>
<polygon fill="#b2df8a" stroke="transparent" points="619.5,-341 619.5,-356 636.5,-356 636.5,-341 619.5,-341"/>
<text text-anchor="start" x="621.5" y="-346" font-family="Ubuntu" font-size="10.00">2</text>
<polygon fill="#b2df8a" stroke="transparent" points="507.5,-326 507.5,-341 619.5,-341 619.5,-326 507.5,-326"/>
<text text-anchor="start" x="509.5" y="-331" font-family="Ubuntu" font-size="10.00">RAIL_5V</text>
<polygon fill="#b2df8a" stroke="transparent" points="619.5,-326 619.5,-341 636.5,-341 636.5,-326 619.5,-326"/>
<text text-anchor="start" x="621.5" y="-331" font-family="Ubuntu" font-size="10.00">3</text>
<polygon fill="#b2df8a" stroke="transparent" points="507.5,-311 507.5,-326 619.5,-326 619.5,-311 507.5,-311"/>
<text text-anchor="start" x="509.5" y="-316" font-family="Ubuntu" font-size="10.00">RAIL_5V5</text>
<polygon fill="#b2df8a" stroke="transparent" points="619.5,-311 619.5,-326 636.5,-326 636.5,-311 619.5,-311"/>
<text text-anchor="start" x="621.5" y="-316" font-family="Ubuntu" font-size="10.00">4</text>
<polygon fill="#b2df8a" stroke="transparent" points="507.5,-296 507.5,-311 619.5,-311 619.5,-296 507.5,-296"/>
<text text-anchor="start" x="509.5" y="-301" font-family="Ubuntu" font-size="10.00">RAIL_24V</text>
<polygon fill="#b2df8a" stroke="transparent" points="619.5,-296 619.5,-311 636.5,-311 636.5,-296 619.5,-296"/>
<text text-anchor="start" x="621.5" y="-301" font-family="Ubuntu" font-size="10.00">5</text>
<polygon fill="#b2df8a" stroke="transparent" points="507.5,-281 507.5,-296 619.5,-296 619.5,-281 507.5,-281"/>
<text text-anchor="start" x="509.5" y="-286" font-family="Ubuntu" font-size="10.00">CURRENT_LOOP</text>
<polygon fill="#b2df8a" stroke="transparent" points="619.5,-281 619.5,-296 636.5,-296 636.5,-281 619.5,-281"/>
<text text-anchor="start" x="621.5" y="-286" font-family="Ubuntu" font-size="10.00">6</text>
<polygon fill="#b2df8a" stroke="transparent" points="507.5,-266 507.5,-281 619.5,-281 619.5,-266 507.5,-266"/>
<text text-anchor="start" x="509.5" y="-271" font-family="Ubuntu" font-size="10.00">DIFFERENTIAL_SIGNAL</text>
<polygon fill="#b2df8a" stroke="transparent" points="619.5,-266 619.5,-281 636.5,-281 636.5,-266 619.5,-266"/>
<text text-anchor="start" x="621.5" y="-271" font-family="Ubuntu" font-size="10.00">7</text>
<polygon fill="#b2df8a" stroke="transparent" points="507.5,-251 507.5,-266 619.5,-266 619.5,-251 507.5,-251"/>
<text text-anchor="start" x="509.5" y="-256" font-family="Ubuntu" font-size="10.00">TC</text>
<polygon fill="#b2df8a" stroke="transparent" points="619.5,-251 619.5,-266 636.5,-266 636.5,-251 619.5,-251"/>
<text text-anchor="start" x="621.5" y="-256" font-family="Ubuntu" font-size="10.00">8</text>
<polygon fill="#b2df8a" stroke="transparent" points="507.5,-236 507.5,-251 619.5,-251 619.5,-236 507.5,-236"/>
<text text-anchor="start" x="509.5" y="-241" font-family="Ubuntu" font-size="10.00">RTD</text>
<polygon fill="#b2df8a" stroke="transparent" points="619.5,-236 619.5,-251 636.5,-251 636.5,-236 619.5,-236"/>
<text text-anchor="start" x="621.5" y="-241" font-family="Ubuntu" font-size="10.00">9</text>
<polygon fill="#b2df8a" stroke="transparent" points="507.5,-221 507.5,-236 619.5,-236 619.5,-221 507.5,-221"/>
<text text-anchor="start" x="509.5" y="-226" font-family="Ubuntu" font-size="10.00">VALVE</text>
<polygon fill="#b2df8a" stroke="transparent" points="619.5,-221 619.5,-236 636.5,-236 636.5,-221 619.5,-221"/>
<text text-anchor="start" x="621.5" y="-226" font-family="Ubuntu" font-size="10.00">10</text>
<polygon fill="#b2df8a" stroke="transparent" points="507.5,-206 507.5,-221 619.5,-221 619.5,-206 507.5,-206"/>
<text text-anchor="start" x="509.5" y="-211" font-family="Ubuntu" font-size="10.00">VALVE_CURRENT</text>
<polygon fill="#b2df8a" stroke="transparent" points="619.5,-206 619.5,-221 636.5,-221 636.5,-206 619.5,-206"/>
<text text-anchor="start" x="621.5" y="-211" font-family="Ubuntu" font-size="10.00">11</text>
<polygon fill="#b2df8a" stroke="transparent" points="507.5,-191 507.5,-206 619.5,-206 619.5,-191 507.5,-191"/>
<text text-anchor="start" x="509.5" y="-196" font-family="Ubuntu" font-size="10.00">VALVE_VOLTAGE</text>
<polygon fill="#b2df8a" stroke="transparent" points="619.5,-191 619.5,-206 636.5,-206 636.5,-191 619.5,-191"/>
<text text-anchor="start" x="621.5" y="-196" font-family="Ubuntu" font-size="10.00">12</text>
<polygon fill="none" stroke="black" points="506,-190 506,-402 637,-402 637,-190 506,-190"/>
</a>
</g>
</g>
<!-- Node_Ja_100&#45;&gt;Node_Ja_101 -->
<g id="edge1" class="edge">
<title>Node_Ja_100:e&#45;&gt;Node_Ja_101</title>
<g id="a_edge1"><a xlink:title="Ja_100 &#45;&#45;&gt; Ja_101">
<path fill="none" stroke="#008000" d="M454.5,-296C465.22,-296 476.49,-296 487.62,-296"/>
<polygon fill="#008000" stroke="#008000" points="487.79,-299.5 497.79,-296 487.79,-292.5 487.79,-299.5"/>
</a>
</g>
</g>
<!-- Node_Ja_104 -->
<g id="node2" class="node">
<title>Node_Ja_104</title>
<g id="a_node2"><a xlink:title="BoardType">
<polygon fill="#b2df8a" stroke="transparent" points="512.5,-428.5 512.5,-505.5 630.5,-505.5 630.5,-428.5 512.5,-428.5"/>
<polygon fill="#33a02c" stroke="transparent" points="513.5,-489 513.5,-504 629.5,-504 629.5,-489 513.5,-489"/>
<text text-anchor="start" x="548.5" y="-495" font-family="Ubuntu" font-size="10.00">enum </text>
<text text-anchor="start" x="576.5" y="-495" font-family="Ubuntu" font-weight="bold" font-size="10.00">BoardType</text>
<polygon fill="#b2df8a" stroke="transparent" points="513.5,-474 513.5,-489 618.5,-489 618.5,-474 513.5,-474"/>
<text text-anchor="start" x="515.5" y="-479" font-family="Ubuntu" font-size="10.00">SERVER</text>
<polygon fill="#b2df8a" stroke="transparent" points="618.5,-474 618.5,-489 629.5,-489 629.5,-474 618.5,-474"/>
<text text-anchor="start" x="620.5" y="-479" font-family="Ubuntu" font-size="10.00">0</text>
<polygon fill="#b2df8a" stroke="transparent" points="513.5,-459 513.5,-474 618.5,-474 618.5,-459 513.5,-459"/>
<text text-anchor="start" x="515.5" y="-464" font-family="Ubuntu" font-size="10.00">FLIGHT_COMPUTER</text>
<polygon fill="#b2df8a" stroke="transparent" points="618.5,-459 618.5,-474 629.5,-474 629.5,-459 618.5,-459"/>
<text text-anchor="start" x="620.5" y="-464" font-family="Ubuntu" font-size="10.00">1</text>
<polygon fill="#b2df8a" stroke="transparent" points="513.5,-444 513.5,-459 618.5,-459 618.5,-444 513.5,-444"/>
<text text-anchor="start" x="515.5" y="-449" font-family="Ubuntu" font-size="10.00">GROUND_COMPUTER</text>
<polygon fill="#b2df8a" stroke="transparent" points="618.5,-444 618.5,-459 629.5,-459 629.5,-444 618.5,-444"/>
<text text-anchor="start" x="620.5" y="-449" font-family="Ubuntu" font-size="10.00">2</text>
<polygon fill="#b2df8a" stroke="transparent" points="513.5,-429 513.5,-444 618.5,-444 618.5,-429 513.5,-429"/>
<text text-anchor="start" x="515.5" y="-434" font-family="Ubuntu" font-size="10.00">SAM</text>
<polygon fill="#b2df8a" stroke="transparent" points="618.5,-429 618.5,-444 629.5,-444 629.5,-429 618.5,-429"/>
<text text-anchor="start" x="620.5" y="-434" font-family="Ubuntu" font-size="10.00">3</text>
<polygon fill="none" stroke="black" points="512.5,-428.5 512.5,-505.5 630.5,-505.5 630.5,-428.5 512.5,-428.5"/>
</a>
</g>
</g>
<!-- Node_Ja_102 -->
<g id="node4" class="node">
<title>Node_Ja_102</title>
<g id="a_node4"><a xlink:title="ValveState">
<polygon fill="#b2df8a" stroke="transparent" points="526.5,-116.5 526.5,-163.5 616.5,-163.5 616.5,-116.5 526.5,-116.5"/>
<polygon fill="#33a02c" stroke="transparent" points="527.5,-147 527.5,-162 615.5,-162 615.5,-147 527.5,-147"/>
<text text-anchor="start" x="532.5" y="-153" font-family="Ubuntu" font-size="10.00">enum </text>
<text text-anchor="start" x="560.5" y="-153" font-family="Ubuntu" font-weight="bold" font-size="10.00">ValveState</text>
<polygon fill="#b2df8a" stroke="transparent" points="527.5,-132 527.5,-147 604.5,-147 604.5,-132 527.5,-132"/>
<text text-anchor="start" x="529.5" y="-137" font-family="Ubuntu" font-size="10.00">VALVE_OPEN</text>
<polygon fill="#b2df8a" stroke="transparent" points="604.5,-132 604.5,-147 615.5,-147 615.5,-132 604.5,-132"/>
<text text-anchor="start" x="606.5" y="-137" font-family="Ubuntu" font-size="10.00">0</text>
<polygon fill="#b2df8a" stroke="transparent" points="527.5,-117 527.5,-132 604.5,-132 604.5,-117 527.5,-117"/>
<text text-anchor="start" x="529.5" y="-122" font-family="Ubuntu" font-size="10.00">VALVE_CLOSED</text>
<polygon fill="#b2df8a" stroke="transparent" points="604.5,-117 604.5,-132 615.5,-132 615.5,-117 604.5,-117"/>
<text text-anchor="start" x="606.5" y="-122" font-family="Ubuntu" font-size="10.00">1</text>
<polygon fill="none" stroke="black" points="526.5,-116.5 526.5,-163.5 616.5,-163.5 616.5,-116.5 526.5,-116.5"/>
</a>
</g>
</g>
<!-- Node_Ja_103 -->
<g id="node5" class="node">
<title>Node_Ja_103</title>
<g id="a_node5"><a xlink:title="LEDState">
<polygon fill="#b2df8a" stroke="transparent" points="531.5,-43.5 531.5,-90.5 611.5,-90.5 611.5,-43.5 531.5,-43.5"/>
<polygon fill="#33a02c" stroke="transparent" points="532.5,-74 532.5,-89 610.5,-89 610.5,-74 532.5,-74"/>
<text text-anchor="start" x="534.5" y="-80" font-family="Ubuntu" font-size="10.00">enum </text>
<text text-anchor="start" x="562.5" y="-80" font-family="Ubuntu" font-weight="bold" font-size="10.00">LEDState</text>
<polygon fill="#b2df8a" stroke="transparent" points="532.5,-59 532.5,-74 589.5,-74 589.5,-59 532.5,-59"/>
<text text-anchor="start" x="534.5" y="-64" font-family="Ubuntu" font-size="10.00">LED_OFF</text>
<polygon fill="#b2df8a" stroke="transparent" points="589.5,-59 589.5,-74 610.5,-74 610.5,-59 589.5,-59"/>
<text text-anchor="start" x="591.5" y="-64" font-family="Ubuntu" font-size="10.00">0</text>
<polygon fill="#b2df8a" stroke="transparent" points="532.5,-44 532.5,-59 589.5,-59 589.5,-44 532.5,-44"/>
<text text-anchor="start" x="534.5" y="-49" font-family="Ubuntu" font-size="10.00">LED_ON</text>
<polygon fill="#b2df8a" stroke="transparent" points="589.5,-44 589.5,-59 610.5,-59 610.5,-44 589.5,-44"/>
<text text-anchor="start" x="591.5" y="-49" font-family="Ubuntu" font-size="10.00">1</text>
<polygon fill="none" stroke="black" points="531.5,-43.5 531.5,-90.5 611.5,-90.5 611.5,-43.5 531.5,-43.5"/>
</a>
</g>
</g>
<!-- Node_Ja_105 -->
<g id="node6" class="node">
<title>Node_Ja_105</title>
<g id="a_node6"><a xlink:title="mcfs.mapping.Mapping">
<polygon fill="#fffaf0" stroke="transparent" points="8,-319.5 8,-366.5 255,-366.5 255,-319.5 8,-319.5"/>
<polygon fill="#e31a1c" stroke="transparent" points="9.5,-350 9.5,-365 254.5,-365 254.5,-350 9.5,-350"/>
<text text-anchor="start" x="210.5" y="-356" font-family="Ubuntu" font-weight="bold" font-size="10.00">Mapping</text>
<text text-anchor="start" x="15.5" y="-340" font-family="Ubuntu" font-size="10.00">1</text>
<text text-anchor="start" x="26.5" y="-340" font-family="Ubuntu" font-size="10.00">name</text>
<polygon fill="#a6cee3" stroke="transparent" points="111.5,-335 111.5,-350 254.5,-350 254.5,-335 111.5,-335"/>
<text text-anchor="start" x="227.5" y="-341" font-family="Ubuntu" font-style="italic" font-size="10.00">string</text>
<text text-anchor="start" x="15.5" y="-325" font-family="Ubuntu" font-size="10.00">2</text>
<text text-anchor="start" x="26.5" y="-325" font-family="Ubuntu" font-size="10.00">channel_identifier</text>
<polygon fill="#fb9a99" stroke="transparent" points="111.5,-320 111.5,-335 254.5,-335 254.5,-320 111.5,-320"/>
<text text-anchor="start" x="113.5" y="-326" font-family="Ubuntu" font-weight="bold" font-size="10.00">mcfs.board.ChannelIdentifier</text>
<polygon fill="none" stroke="black" points="8,-319.5 8,-366.5 255,-366.5 255,-319.5 8,-319.5"/>
</a>
</g>
</g>
<!-- Node_Ja_105&#45;&gt;Node_Ja_100 -->
<g id="edge2" class="edge">
<title>Node_Ja_105:e&#45;&gt;Node_Ja_100:header</title>
<g id="a_edge2"><a xlink:title="Ja_105 &#45;&#45;&gt; Ja_100">
<path fill="none" stroke="#000000" d="M255.5,-327C274.82,-327 282.03,-327 297.37,-327"/>
<polygon fill="#000000" stroke="#000000" points="297.5,-330.5 307.5,-327 297.5,-323.5 297.5,-330.5"/>
</a>
</g>
</g>
</g>
</svg>
