<?xml version="1.0" encoding="UTF-8" standalone="no"?>
<!DOCTYPE svg PUBLIC "-//W3C//DTD SVG 1.1//EN"
 "http://www.w3.org/Graphics/SVG/1.1/DTD/svg11.dtd">
<!-- Generated by graphviz version 2.43.0 (0)
 -->
<!-- Title: protodot Pages: 1 -->
<svg width="1483pt" height="496pt"
 viewBox="0.00 0.00 1483.00 496.00" xmlns="http://www.w3.org/2000/svg" xmlns:xlink="http://www.w3.org/1999/xlink">
<g id="graph0" class="graph" transform="scale(1 1) rotate(0) translate(4 492)">
<title>protodot</title>
<g id="a_graph0"><a xlink:title="mcfs.procedure">
<text text-anchor="middle" x="737.5" y="-7.8" font-family="Times,serif" font-size="14.00">mcfs.procedure</text>
</a>
</g>
<g id="clust1" class="cluster">
<title>cluster_008970577f45</title>
<g id="a_clust1"><a xlink:title="mcfs.device">
<polygon fill="#caff70" stroke="black" points="1292,-31 1292,-480 1467,-480 1467,-31 1292,-31"/>
<text text-anchor="middle" x="1379.5" y="-464.8" font-family="Times,serif" font-size="14.00">mcfs.device</text>
</a>
</g>
</g>
<g id="clust2" class="cluster">
<title>cluster_c6829f1bbde1</title>
<g id="a_clust2"><a xlink:title="command.proto">
<polygon fill="#caff70" stroke="black" points="592,-67 592,-396 1097,-396 1097,-67 592,-67"/>
<text text-anchor="middle" x="844.5" y="-380.8" font-family="Times,serif" font-size="14.00">command.proto</text>
</a>
</g>
</g>
<g id="clust3" class="cluster">
<title>cluster_aff9eb45ba08</title>
<g id="a_clust3"><a xlink:title="device.proto">
<polygon fill="#caff70" stroke="black" points="1126.5,-336 1126.5,-445 1262.5,-445 1262.5,-336 1126.5,-336"/>
<text text-anchor="middle" x="1194.5" y="-429.8" font-family="Times,serif" font-size="14.00">device.proto</text>
</a>
</g>
</g>
<g id="clust4" class="cluster">
<title>cluster_60945c2a214e</title>
<g id="a_clust4"><a xlink:title="mcfs.common">
<polygon fill="#caff70" stroke="black" points="1117,-203 1117,-328 1272,-328 1272,-203 1117,-203"/>
<text text-anchor="middle" x="1194.5" y="-312.8" font-family="Times,serif" font-size="14.00">mcfs.common</text>
</a>
</g>
</g>
<!-- Node_Ja_102 -->
<g id="node1" class="node">
<title>Node_Ja_102</title>
<g id="a_node1"><a xlink:title="Channel">
<polygon fill="#b2df8a" stroke="transparent" points="1308,-277.5 1308,-444.5 1451,-444.5 1451,-277.5 1308,-277.5"/>
<polygon fill="#33a02c" stroke="transparent" points="1309.5,-428 1309.5,-443 1450.5,-443 1450.5,-428 1309.5,-428"/>
<text text-anchor="start" x="1380.5" y="-434" font-family="Ubuntu" font-size="10.00">enum </text>
<text text-anchor="start" x="1408.5" y="-434" font-family="Ubuntu" font-weight="bold" font-size="10.00">Channel</text>
<polygon fill="#b2df8a" stroke="transparent" points="1309.5,-413 1309.5,-428 1439.5,-428 1439.5,-413 1309.5,-413"/>
<text text-anchor="start" x="1311.5" y="-418" font-family="Ubuntu" font-size="10.00">GPIO</text>
<polygon fill="#b2df8a" stroke="transparent" points="1439.5,-413 1439.5,-428 1450.5,-428 1450.5,-413 1439.5,-413"/>
<text text-anchor="start" x="1441.5" y="-418" font-family="Ubuntu" font-size="10.00">0</text>
<polygon fill="#b2df8a" stroke="transparent" points="1309.5,-398 1309.5,-413 1439.5,-413 1439.5,-398 1309.5,-398"/>
<text text-anchor="start" x="1311.5" y="-403" font-family="Ubuntu" font-size="10.00">LED</text>
<polygon fill="#b2df8a" stroke="transparent" points="1439.5,-398 1439.5,-413 1450.5,-413 1450.5,-398 1439.5,-398"/>
<text text-anchor="start" x="1441.5" y="-403" font-family="Ubuntu" font-size="10.00">1</text>
<polygon fill="#b2df8a" stroke="transparent" points="1309.5,-383 1309.5,-398 1439.5,-398 1439.5,-383 1309.5,-383"/>
<text text-anchor="start" x="1311.5" y="-388" font-family="Ubuntu" font-size="10.00">RAIL_3V3</text>
<polygon fill="#b2df8a" stroke="transparent" points="1439.5,-383 1439.5,-398 1450.5,-398 1450.5,-383 1439.5,-383"/>
<text text-anchor="start" x="1441.5" y="-388" font-family="Ubuntu" font-size="10.00">2</text>
<polygon fill="#b2df8a" stroke="transparent" points="1309.5,-368 1309.5,-383 1439.5,-383 1439.5,-368 1309.5,-368"/>
<text text-anchor="start" x="1311.5" y="-373" font-family="Ubuntu" font-size="10.00">RAIL_5V</text>
<polygon fill="#b2df8a" stroke="transparent" points="1439.5,-368 1439.5,-383 1450.5,-383 1450.5,-368 1439.5,-368"/>
<text text-anchor="start" x="1441.5" y="-373" font-family="Ubuntu" font-size="10.00">3</text>
<polygon fill="#b2df8a" stroke="transparent" points="1309.5,-353 1309.5,-368 1439.5,-368 1439.5,-353 1309.5,-353"/>
<text text-anchor="start" x="1311.5" y="-358" font-family="Ubuntu" font-size="10.00">RAIL_5V5</text>
<polygon fill="#b2df8a" stroke="transparent" points="1439.5,-353 1439.5,-368 1450.5,-368 1450.5,-353 1439.5,-353"/>
<text text-anchor="start" x="1441.5" y="-358" font-family="Ubuntu" font-size="10.00">4</text>
<polygon fill="#b2df8a" stroke="transparent" points="1309.5,-338 1309.5,-353 1439.5,-353 1439.5,-338 1309.5,-338"/>
<text text-anchor="start" x="1311.5" y="-343" font-family="Ubuntu" font-size="10.00">RAIL_24V</text>
<polygon fill="#b2df8a" stroke="transparent" points="1439.5,-338 1439.5,-353 1450.5,-353 1450.5,-338 1439.5,-338"/>
<text text-anchor="start" x="1441.5" y="-343" font-family="Ubuntu" font-size="10.00">5</text>
<polygon fill="#b2df8a" stroke="transparent" points="1309.5,-323 1309.5,-338 1439.5,-338 1439.5,-323 1309.5,-323"/>
<text text-anchor="start" x="1311.5" y="-328" font-family="Ubuntu" font-size="10.00">CURRENT_LOOP</text>
<polygon fill="#b2df8a" stroke="transparent" points="1439.5,-323 1439.5,-338 1450.5,-338 1450.5,-323 1439.5,-323"/>
<text text-anchor="start" x="1441.5" y="-328" font-family="Ubuntu" font-size="10.00">6</text>
<polygon fill="#b2df8a" stroke="transparent" points="1309.5,-308 1309.5,-323 1439.5,-323 1439.5,-308 1309.5,-308"/>
<text text-anchor="start" x="1311.5" y="-313" font-family="Ubuntu" font-size="10.00">DIFFERENTIAL_SIGNAL</text>
<polygon fill="#b2df8a" stroke="transparent" points="1439.5,-308 1439.5,-323 1450.5,-323 1450.5,-308 1439.5,-308"/>
<text text-anchor="start" x="1441.5" y="-313" font-family="Ubuntu" font-size="10.00">7</text>
<polygon fill="#b2df8a" stroke="transparent" points="1309.5,-293 1309.5,-308 1439.5,-308 1439.5,-293 1309.5,-293"/>
<text text-anchor="start" x="1311.5" y="-298" font-family="Ubuntu" font-size="10.00">TEMPERATURE_DETECTOR</text>
<polygon fill="#b2df8a" stroke="transparent" points="1439.5,-293 1439.5,-308 1450.5,-308 1450.5,-293 1439.5,-293"/>
<text text-anchor="start" x="1441.5" y="-298" font-family="Ubuntu" font-size="10.00">8</text>
<polygon fill="#b2df8a" stroke="transparent" points="1309.5,-278 1309.5,-293 1439.5,-293 1439.5,-278 1309.5,-278"/>
<text text-anchor="start" x="1311.5" y="-283" font-family="Ubuntu" font-size="10.00">VALVE</text>
<polygon fill="#b2df8a" stroke="transparent" points="1439.5,-278 1439.5,-293 1450.5,-293 1450.5,-278 1439.5,-278"/>
<text text-anchor="start" x="1441.5" y="-283" font-family="Ubuntu" font-size="10.00">9</text>
<polygon fill="none" stroke="black" points="1308,-277.5 1308,-444.5 1451,-444.5 1451,-277.5 1308,-277.5"/>
</a>
</g>
</g>
<!-- Node_Ja_104 -->
<g id="node2" class="node">
<title>Node_Ja_104</title>
<g id="a_node2"><a xlink:title="LEDState">
<polygon fill="#b2df8a" stroke="transparent" points="1339.5,-131.5 1339.5,-178.5 1419.5,-178.5 1419.5,-131.5 1339.5,-131.5"/>
<polygon fill="#33a02c" stroke="transparent" points="1340.5,-162 1340.5,-177 1418.5,-177 1418.5,-162 1340.5,-162"/>
<text text-anchor="start" x="1342.5" y="-168" font-family="Ubuntu" font-size="10.00">enum </text>
<text text-anchor="start" x="1370.5" y="-168" font-family="Ubuntu" font-weight="bold" font-size="10.00">LEDState</text>
<polygon fill="#b2df8a" stroke="transparent" points="1340.5,-147 1340.5,-162 1397.5,-162 1397.5,-147 1340.5,-147"/>
<text text-anchor="start" x="1342.5" y="-152" font-family="Ubuntu" font-size="10.00">LED_OFF</text>
<polygon fill="#b2df8a" stroke="transparent" points="1397.5,-147 1397.5,-162 1418.5,-162 1418.5,-147 1397.5,-147"/>
<text text-anchor="start" x="1399.5" y="-152" font-family="Ubuntu" font-size="10.00">0</text>
<polygon fill="#b2df8a" stroke="transparent" points="1340.5,-132 1340.5,-147 1397.5,-147 1397.5,-132 1340.5,-132"/>
<text text-anchor="start" x="1342.5" y="-137" font-family="Ubuntu" font-size="10.00">LED_ON</text>
<polygon fill="#b2df8a" stroke="transparent" points="1397.5,-132 1397.5,-147 1418.5,-147 1418.5,-132 1397.5,-132"/>
<text text-anchor="start" x="1399.5" y="-137" font-family="Ubuntu" font-size="10.00">1</text>
<polygon fill="none" stroke="black" points="1339.5,-131.5 1339.5,-178.5 1419.5,-178.5 1419.5,-131.5 1339.5,-131.5"/>
</a>
</g>
</g>
<!-- Node_Ja_105 -->
<g id="node3" class="node">
<title>Node_Ja_105</title>
<g id="a_node3"><a xlink:title="DeviceType">
<polygon fill="#b2df8a" stroke="transparent" points="1325,-43 1325,-105 1434,-105 1434,-43 1325,-43"/>
<polygon fill="#33a02c" stroke="transparent" points="1326.5,-89 1326.5,-104 1433.5,-104 1433.5,-89 1326.5,-89"/>
<text text-anchor="start" x="1348.5" y="-95" font-family="Ubuntu" font-size="10.00">enum </text>
<text text-anchor="start" x="1376.5" y="-95" font-family="Ubuntu" font-weight="bold" font-size="10.00">DeviceType</text>
<polygon fill="#b2df8a" stroke="transparent" points="1326.5,-74 1326.5,-89 1422.5,-89 1422.5,-74 1326.5,-74"/>
<text text-anchor="start" x="1328.5" y="-79" font-family="Ubuntu" font-size="10.00">SERVER</text>
<polygon fill="#b2df8a" stroke="transparent" points="1422.5,-74 1422.5,-89 1433.5,-89 1433.5,-74 1422.5,-74"/>
<text text-anchor="start" x="1424.5" y="-79" font-family="Ubuntu" font-size="10.00">0</text>
<polygon fill="#b2df8a" stroke="transparent" points="1326.5,-59 1326.5,-74 1422.5,-74 1422.5,-59 1326.5,-59"/>
<text text-anchor="start" x="1328.5" y="-64" font-family="Ubuntu" font-size="10.00">FLIGHT_COMPUTER</text>
<polygon fill="#b2df8a" stroke="transparent" points="1422.5,-59 1422.5,-74 1433.5,-74 1433.5,-59 1422.5,-59"/>
<text text-anchor="start" x="1424.5" y="-64" font-family="Ubuntu" font-size="10.00">1</text>
<polygon fill="#b2df8a" stroke="transparent" points="1326.5,-44 1326.5,-59 1422.5,-59 1422.5,-44 1326.5,-44"/>
<text text-anchor="start" x="1328.5" y="-49" font-family="Ubuntu" font-size="10.00">SAM</text>
<polygon fill="#b2df8a" stroke="transparent" points="1422.5,-44 1422.5,-59 1433.5,-59 1433.5,-44 1422.5,-44"/>
<text text-anchor="start" x="1424.5" y="-49" font-family="Ubuntu" font-size="10.00">2</text>
<polygon fill="none" stroke="black" points="1325,-43 1325,-105 1434,-105 1434,-43 1325,-43"/>
</a>
</g>
</g>
<!-- Node_Ja_103 -->
<g id="node4" class="node">
<title>Node_Ja_103</title>
<g id="a_node4"><a xlink:title="ValveState">
<polygon fill="#b2df8a" stroke="transparent" points="1334.5,-204.5 1334.5,-251.5 1424.5,-251.5 1424.5,-204.5 1334.5,-204.5"/>
<polygon fill="#33a02c" stroke="transparent" points="1335.5,-235 1335.5,-250 1423.5,-250 1423.5,-235 1335.5,-235"/>
<text text-anchor="start" x="1340.5" y="-241" font-family="Ubuntu" font-size="10.00">enum </text>
<text text-anchor="start" x="1368.5" y="-241" font-family="Ubuntu" font-weight="bold" font-size="10.00">ValveState</text>
<polygon fill="#b2df8a" stroke="transparent" points="1335.5,-220 1335.5,-235 1412.5,-235 1412.5,-220 1335.5,-220"/>
<text text-anchor="start" x="1337.5" y="-225" font-family="Ubuntu" font-size="10.00">VALVE_OPEN</text>
<polygon fill="#b2df8a" stroke="transparent" points="1412.5,-220 1412.5,-235 1423.5,-235 1423.5,-220 1412.5,-220"/>
<text text-anchor="start" x="1414.5" y="-225" font-family="Ubuntu" font-size="10.00">0</text>
<polygon fill="#b2df8a" stroke="transparent" points="1335.5,-205 1335.5,-220 1412.5,-220 1412.5,-205 1335.5,-205"/>
<text text-anchor="start" x="1337.5" y="-210" font-family="Ubuntu" font-size="10.00">VALVE_CLOSED</text>
<polygon fill="#b2df8a" stroke="transparent" points="1412.5,-205 1412.5,-220 1423.5,-220 1423.5,-205 1412.5,-205"/>
<text text-anchor="start" x="1414.5" y="-210" font-family="Ubuntu" font-size="10.00">1</text>
<polygon fill="none" stroke="black" points="1334.5,-204.5 1334.5,-251.5 1424.5,-251.5 1424.5,-204.5 1334.5,-204.5"/>
</a>
</g>
</g>
<!-- Node_Ja_107 -->
<g id="node5" class="node">
<title>Node_Ja_107</title>
<g id="a_node5"><a xlink:title="mcfs.command.DataDirective">
<polygon fill="#fffaf0" stroke="transparent" points="860.5,-283.5 860.5,-360.5 1061.5,-360.5 1061.5,-283.5 860.5,-283.5"/>
<polygon fill="#e31a1c" stroke="transparent" points="862,-344 862,-359 1061,-359 1061,-344 862,-344"/>
<text text-anchor="start" x="992" y="-350" font-family="Ubuntu" font-weight="bold" font-size="10.00">DataDirective</text>
<text text-anchor="start" x="868" y="-334" font-family="Ubuntu" font-size="10.00">1</text>
<text text-anchor="start" x="879" y="-334" font-family="Ubuntu" font-size="10.00">node</text>
<polygon fill="#fb9a99" stroke="transparent" points="927,-329 927,-344 1061,-344 1061,-329 927,-329"/>
<text text-anchor="start" x="929" y="-335" font-family="Ubuntu" font-weight="bold" font-size="10.00">mcfs.device.NodeIdentifier</text>
<text text-anchor="start" x="868" y="-319" font-family="Ubuntu" font-size="10.00">2</text>
<text text-anchor="start" x="879" y="-319" font-family="Ubuntu" font-size="10.00">level</text>
<polygon fill="#b2df8a" stroke="transparent" points="927,-314 927,-329 1061,-329 1061,-314 927,-314"/>
<text text-anchor="start" x="953" y="-320" font-family="Ubuntu" text-decoration="underline" font-size="10.00">mcfs.common.LogLevel</text>
<text text-anchor="start" x="868" y="-304" font-family="Ubuntu" font-size="10.00">3</text>
<text text-anchor="start" x="879" y="-304" font-family="Ubuntu" font-size="10.00">freq_log</text>
<polygon fill="#a6cee3" stroke="transparent" points="927,-299 927,-314 1061,-314 1061,-299 927,-299"/>
<text text-anchor="start" x="1037" y="-305" font-family="Ubuntu" font-style="italic" font-size="10.00">float</text>
<text text-anchor="start" x="868" y="-289" font-family="Ubuntu" font-size="10.00">4</text>
<text text-anchor="start" x="879" y="-289" font-family="Ubuntu" font-size="10.00">freq_send</text>
<polygon fill="#a6cee3" stroke="transparent" points="927,-284 927,-299 1061,-299 1061,-284 927,-284"/>
<text text-anchor="start" x="1037" y="-290" font-family="Ubuntu" font-style="italic" font-size="10.00">float</text>
<polygon fill="none" stroke="black" points="860.5,-283.5 860.5,-360.5 1061.5,-360.5 1061.5,-283.5 860.5,-283.5"/>
</a>
</g>
</g>
<!-- Node_Ja_101 -->
<g id="node13" class="node">
<title>Node_Ja_101</title>
<g id="a_node13"><a xlink:title="mcfs.device.NodeIdentifier">
<polygon fill="#fffaf0" stroke="transparent" points="1142.5,-348 1142.5,-410 1246.5,-410 1246.5,-348 1142.5,-348"/>
<polygon fill="#e31a1c" stroke="transparent" points="1143.5,-394 1143.5,-409 1245.5,-409 1245.5,-394 1143.5,-394"/>
<text text-anchor="start" x="1171.5" y="-400" font-family="Ubuntu" font-weight="bold" font-size="10.00">NodeIdentifier</text>
<text text-anchor="start" x="1149.5" y="-384" font-family="Ubuntu" font-size="10.00">1</text>
<text text-anchor="start" x="1160.5" y="-384" font-family="Ubuntu" font-size="10.00">board_id</text>
<polygon fill="#a6cee3" stroke="transparent" points="1203.5,-379 1203.5,-394 1245.5,-394 1245.5,-379 1203.5,-379"/>
<text text-anchor="start" x="1214.5" y="-385" font-family="Ubuntu" font-style="italic" font-size="10.00">uint32</text>
<text text-anchor="start" x="1149.5" y="-369" font-family="Ubuntu" font-size="10.00">2</text>
<text text-anchor="start" x="1160.5" y="-369" font-family="Ubuntu" font-size="10.00">channel</text>
<polygon fill="#b2df8a" stroke="transparent" points="1203.5,-364 1203.5,-379 1245.5,-379 1245.5,-364 1203.5,-364"/>
<text text-anchor="start" x="1205.5" y="-370" font-family="Ubuntu" text-decoration="underline" font-size="10.00">Channel</text>
<text text-anchor="start" x="1149.5" y="-354" font-family="Ubuntu" font-size="10.00">3</text>
<text text-anchor="start" x="1160.5" y="-354" font-family="Ubuntu" font-size="10.00">node_id</text>
<polygon fill="#a6cee3" stroke="transparent" points="1203.5,-349 1203.5,-364 1245.5,-364 1245.5,-349 1203.5,-349"/>
<text text-anchor="start" x="1214.5" y="-355" font-family="Ubuntu" font-style="italic" font-size="10.00">uint32</text>
<polygon fill="none" stroke="black" points="1142.5,-348 1142.5,-410 1246.5,-410 1246.5,-348 1142.5,-348"/>
</a>
</g>
</g>
<!-- Node_Ja_107&#45;&gt;Node_Ja_101 -->
<g id="edge14" class="edge">
<title>Node_Ja_107:e&#45;&gt;Node_Ja_101:header</title>
<g id="a_edge14"><a xlink:title="Ja_107 &#45;&#45;&gt; Ja_101">
<path fill="none" stroke="#000000" d="M1062,-337C1104.21,-337 1098.01,-391.77 1132.28,-400.76"/>
<polygon fill="#000000" stroke="#000000" points="1132.15,-404.27 1142.5,-402 1132.99,-397.32 1132.15,-404.27"/>
</a>
</g>
</g>
<!-- Node_Ja_100 -->
<g id="node14" class="node">
<title>Node_Ja_100</title>
<g id="a_node14"><a xlink:title="LogLevel">
<polygon fill="#b2df8a" stroke="transparent" points="1133,-215.5 1133,-292.5 1256,-292.5 1256,-215.5 1133,-215.5"/>
<polygon fill="#33a02c" stroke="transparent" points="1134.5,-276 1134.5,-291 1255.5,-291 1255.5,-276 1134.5,-276"/>
<text text-anchor="start" x="1180.5" y="-282" font-family="Ubuntu" font-size="10.00">enum </text>
<text text-anchor="start" x="1208.5" y="-282" font-family="Ubuntu" font-weight="bold" font-size="10.00">LogLevel</text>
<polygon fill="#b2df8a" stroke="transparent" points="1134.5,-261 1134.5,-276 1244.5,-276 1244.5,-261 1134.5,-261"/>
<text text-anchor="start" x="1136.5" y="-266" font-family="Ubuntu" font-size="10.00">LOG_LEVEL_DATA</text>
<polygon fill="#b2df8a" stroke="transparent" points="1244.5,-261 1244.5,-276 1255.5,-276 1255.5,-261 1244.5,-261"/>
<text text-anchor="start" x="1246.5" y="-266" font-family="Ubuntu" font-size="10.00">0</text>
<polygon fill="#b2df8a" stroke="transparent" points="1134.5,-246 1134.5,-261 1244.5,-261 1244.5,-246 1134.5,-246"/>
<text text-anchor="start" x="1136.5" y="-251" font-family="Ubuntu" font-size="10.00">LOG_LEVEL_DEBUG</text>
<polygon fill="#b2df8a" stroke="transparent" points="1244.5,-246 1244.5,-261 1255.5,-261 1255.5,-246 1244.5,-246"/>
<text text-anchor="start" x="1246.5" y="-251" font-family="Ubuntu" font-size="10.00">1</text>
<polygon fill="#b2df8a" stroke="transparent" points="1134.5,-231 1134.5,-246 1244.5,-246 1244.5,-231 1134.5,-231"/>
<text text-anchor="start" x="1136.5" y="-236" font-family="Ubuntu" font-size="10.00">LOG_LEVEL_WARNING</text>
<polygon fill="#b2df8a" stroke="transparent" points="1244.5,-231 1244.5,-246 1255.5,-246 1255.5,-231 1244.5,-231"/>
<text text-anchor="start" x="1246.5" y="-236" font-family="Ubuntu" font-size="10.00">2</text>
<polygon fill="#b2df8a" stroke="transparent" points="1134.5,-216 1134.5,-231 1244.5,-231 1244.5,-216 1134.5,-216"/>
<text text-anchor="start" x="1136.5" y="-221" font-family="Ubuntu" font-size="10.00">LOG_LEVEL_ERROR</text>
<polygon fill="#b2df8a" stroke="transparent" points="1244.5,-216 1244.5,-231 1255.5,-231 1255.5,-216 1244.5,-216"/>
<text text-anchor="start" x="1246.5" y="-221" font-family="Ubuntu" font-size="10.00">3</text>
<polygon fill="none" stroke="black" points="1133,-215.5 1133,-292.5 1256,-292.5 1256,-215.5 1133,-215.5"/>
</a>
</g>
</g>
<!-- Node_Ja_107&#45;&gt;Node_Ja_100 -->
<g id="edge3" class="edge">
<title>Node_Ja_107:e&#45;&gt;Node_Ja_100</title>
<g id="a_edge3"><a xlink:title="Ja_107 &#45;&#45;&gt; Ja_100">
<path fill="none" stroke="#008000" d="M1062,-321C1085.32,-321 1108.69,-312.53 1129.11,-301.61"/>
<polygon fill="#008000" stroke="#008000" points="1130.98,-304.58 1137.98,-296.62 1127.55,-298.48 1130.98,-304.58"/>
</a>
</g>
</g>
<!-- Node_Ja_109 -->
<g id="node6" class="node">
<title>Node_Ja_109</title>
<g id="a_node6"><a xlink:title="mcfs.command.SetLED">
<polygon fill="#fffaf0" stroke="transparent" points="872,-137.5 872,-184.5 1050,-184.5 1050,-137.5 872,-137.5"/>
<polygon fill="#e31a1c" stroke="transparent" points="873,-168 873,-183 1049,-183 1049,-168 873,-168"/>
<text text-anchor="start" x="1010" y="-174" font-family="Ubuntu" font-weight="bold" font-size="10.00">SetLED</text>
<text text-anchor="start" x="879" y="-158" font-family="Ubuntu" font-size="10.00">1</text>
<text text-anchor="start" x="890" y="-158" font-family="Ubuntu" font-size="10.00">led</text>
<polygon fill="#fb9a99" stroke="transparent" points="915,-153 915,-168 1049,-168 1049,-153 915,-153"/>
<text text-anchor="start" x="917" y="-159" font-family="Ubuntu" font-weight="bold" font-size="10.00">mcfs.device.NodeIdentifier</text>
<text text-anchor="start" x="879" y="-143" font-family="Ubuntu" font-size="10.00">2</text>
<text text-anchor="start" x="890" y="-143" font-family="Ubuntu" font-size="10.00">state</text>
<polygon fill="#b2df8a" stroke="transparent" points="915,-138 915,-153 1049,-153 1049,-138 915,-138"/>
<text text-anchor="start" x="951" y="-144" font-family="Ubuntu" text-decoration="underline" font-size="10.00">mcfs.device.LEDState</text>
<polygon fill="none" stroke="black" points="872,-137.5 872,-184.5 1050,-184.5 1050,-137.5 872,-137.5"/>
</a>
</g>
</g>
<!-- Node_Ja_109&#45;&gt;Node_Ja_104 -->
<g id="edge4" class="edge">
<title>Node_Ja_109:e&#45;&gt;Node_Ja_104</title>
<g id="a_edge4"><a xlink:title="Ja_109 &#45;&#45;&gt; Ja_104">
<path fill="none" stroke="#008000" d="M1050,-145C1145.19,-145 1255.82,-149.25 1321.34,-152.21"/>
<polygon fill="#008000" stroke="#008000" points="1321.31,-155.71 1331.46,-152.67 1321.63,-148.71 1321.31,-155.71"/>
</a>
</g>
</g>
<!-- Node_Ja_109&#45;&gt;Node_Ja_101 -->
<g id="edge12" class="edge">
<title>Node_Ja_109:e&#45;&gt;Node_Ja_101:header</title>
<g id="a_edge12"><a xlink:title="Ja_109 &#45;&#45;&gt; Ja_101">
<path fill="none" stroke="#000000" d="M1050,-160C1076.86,-160 1083.66,-174.68 1097,-198 1141.32,-275.49 1056.7,-392.43 1132.45,-401.45"/>
<polygon fill="#000000" stroke="#000000" points="1132.32,-404.94 1142.5,-402 1132.71,-397.95 1132.32,-404.94"/>
</a>
</g>
</g>
<!-- Node_Ja_110 -->
<g id="node7" class="node">
<title>Node_Ja_110</title>
<g id="a_node7"><a xlink:title="mcfs.command.DeviceDiscovery">
<polygon fill="#fffaf0" stroke="transparent" points="841,-79 841,-111 1081,-111 1081,-79 841,-79"/>
<polygon fill="#e31a1c" stroke="transparent" points="842,-95 842,-110 1080,-110 1080,-95 842,-95"/>
<text text-anchor="start" x="999" y="-101" font-family="Ubuntu" font-weight="bold" font-size="10.00">DeviceDiscovery</text>
<text text-anchor="start" x="848" y="-85" font-family="Ubuntu" font-size="10.00">1</text>
<text text-anchor="start" x="859" y="-85" font-family="Ubuntu" font-size="10.00">requesting_device_type</text>
<polygon fill="#b2df8a" stroke="transparent" points="970,-80 970,-95 1080,-95 1080,-80 970,-80"/>
<text text-anchor="start" x="972" y="-86" font-family="Ubuntu" text-decoration="underline" font-size="10.00">mcfs.device.DeviceType</text>
<polygon fill="none" stroke="black" points="841,-79 841,-111 1081,-111 1081,-79 841,-79"/>
</a>
</g>
</g>
<!-- Node_Ja_110&#45;&gt;Node_Ja_105 -->
<g id="edge13" class="edge">
<title>Node_Ja_110:e&#45;&gt;Node_Ja_105</title>
<g id="a_edge13"><a xlink:title="Ja_110 &#45;&#45;&gt; Ja_105">
<path fill="none" stroke="#008000" d="M1081,-87C1158.22,-87 1246.6,-82.57 1306.83,-78.89"/>
<polygon fill="#008000" stroke="#008000" points="1307.23,-82.37 1317,-78.26 1306.8,-75.38 1307.23,-82.37"/>
</a>
</g>
</g>
<!-- Node_Ja_106 -->
<g id="node8" class="node">
<title>Node_Ja_106</title>
<g id="a_node8"><a xlink:title="mcfs.command.Command">
<polygon fill="#fffaf0" stroke="transparent" points="608,-178 608,-274 789,-274 789,-178 608,-178"/>
<polygon fill="#e31a1c" stroke="transparent" points="609.5,-258 609.5,-273 788.5,-273 788.5,-258 609.5,-258"/>
<text text-anchor="start" x="740.5" y="-264" font-family="Ubuntu" font-weight="bold" font-size="10.00">Command</text>
<polygon fill="#fdbf6f" stroke="transparent" points="609.5,-243 609.5,-258 788.5,-258 788.5,-243 609.5,-243"/>
<text text-anchor="start" x="611.5" y="-248" font-family="Ubuntu" font-size="10.00">command</text>
<polygon fill="#fdbf6f" stroke="transparent" points="609.5,-228 609.5,-243 613.5,-243 613.5,-228 609.5,-228"/>
<text text-anchor="start" x="615.5" y="-233" font-family="Ubuntu" font-size="10.00">1</text>
<text text-anchor="start" x="626.5" y="-233" font-family="Ubuntu" font-size="10.00">data_directive</text>
<polygon fill="#fb9a99" stroke="transparent" points="705.5,-228 705.5,-243 788.5,-243 788.5,-228 705.5,-228"/>
<text text-anchor="start" x="719.5" y="-234" font-family="Ubuntu" font-weight="bold" font-size="10.00">DataDirective</text>
<polygon fill="#fdbf6f" stroke="transparent" points="609.5,-213 609.5,-228 613.5,-228 613.5,-213 609.5,-213"/>
<text text-anchor="start" x="615.5" y="-218" font-family="Ubuntu" font-size="10.00">2</text>
<text text-anchor="start" x="626.5" y="-218" font-family="Ubuntu" font-size="10.00">click_valve</text>
<polygon fill="#fb9a99" stroke="transparent" points="705.5,-213 705.5,-228 788.5,-228 788.5,-213 705.5,-213"/>
<text text-anchor="start" x="735.5" y="-219" font-family="Ubuntu" font-weight="bold" font-size="10.00">ClickValve</text>
<polygon fill="#fdbf6f" stroke="transparent" points="609.5,-198 609.5,-213 613.5,-213 613.5,-198 609.5,-198"/>
<text text-anchor="start" x="615.5" y="-203" font-family="Ubuntu" font-size="10.00">3</text>
<text text-anchor="start" x="626.5" y="-203" font-family="Ubuntu" font-size="10.00">set_led</text>
<polygon fill="#fb9a99" stroke="transparent" points="705.5,-198 705.5,-213 788.5,-213 788.5,-198 705.5,-198"/>
<text text-anchor="start" x="749.5" y="-204" font-family="Ubuntu" font-weight="bold" font-size="10.00">SetLED</text>
<polygon fill="#fdbf6f" stroke="transparent" points="609.5,-183 609.5,-198 613.5,-198 613.5,-183 609.5,-183"/>
<text text-anchor="start" x="615.5" y="-188" font-family="Ubuntu" font-size="10.00">4</text>
<text text-anchor="start" x="626.5" y="-188" font-family="Ubuntu" font-size="10.00">device_discovery</text>
<polygon fill="#fb9a99" stroke="transparent" points="705.5,-183 705.5,-198 788.5,-198 788.5,-183 705.5,-183"/>
<text text-anchor="start" x="707.5" y="-189" font-family="Ubuntu" font-weight="bold" font-size="10.00">DeviceDiscovery</text>
<polygon fill="#fdbf6f" stroke="transparent" points="609.5,-179 609.5,-183 788.5,-183 788.5,-179 609.5,-179"/>
<polygon fill="none" stroke="black" points="608,-178 608,-274 789,-274 789,-178 608,-178"/>
</a>
</g>
</g>
<!-- Node_Ja_106&#45;&gt;Node_Ja_107 -->
<g id="edge6" class="edge">
<title>Node_Ja_106:e&#45;&gt;Node_Ja_107:header</title>
<g id="a_edge6"><a xlink:title="Ja_106 &#45;&#45;&gt; Ja_107">
<path fill="none" stroke="#000000" d="M789.5,-236C846.28,-236 806.21,-337.95 850.88,-350.7"/>
<polygon fill="#000000" stroke="#000000" points="850.63,-354.19 861,-352 851.53,-347.25 850.63,-354.19"/>
</a>
</g>
</g>
<!-- Node_Ja_106&#45;&gt;Node_Ja_109 -->
<g id="edge1" class="edge">
<title>Node_Ja_106:e&#45;&gt;Node_Ja_109:header</title>
<g id="a_edge1"><a xlink:title="Ja_106 &#45;&#45;&gt; Ja_109">
<path fill="none" stroke="#000000" d="M789.5,-205C824.72,-205 831.94,-181.18 861.91,-176.72"/>
<polygon fill="#000000" stroke="#000000" points="862.27,-180.2 872,-176 861.78,-173.22 862.27,-180.2"/>
</a>
</g>
</g>
<!-- Node_Ja_106&#45;&gt;Node_Ja_110 -->
<g id="edge2" class="edge">
<title>Node_Ja_106:e&#45;&gt;Node_Ja_110:header</title>
<g id="a_edge2"><a xlink:title="Ja_106 &#45;&#45;&gt; Ja_110">
<path fill="none" stroke="#000000" d="M789.5,-190C830.57,-190 802.05,-117.31 831.16,-104.82"/>
<polygon fill="#000000" stroke="#000000" points="831.8,-108.26 841,-103 830.53,-101.37 831.8,-108.26"/>
</a>
</g>
</g>
<!-- Node_Ja_108 -->
<g id="node9" class="node">
<title>Node_Ja_108</title>
<g id="a_node9"><a xlink:title="mcfs.command.ClickValve">
<polygon fill="#fffaf0" stroke="transparent" points="871,-210.5 871,-257.5 1051,-257.5 1051,-210.5 871,-210.5"/>
<polygon fill="#e31a1c" stroke="transparent" points="872,-241 872,-256 1050,-256 1050,-241 872,-241"/>
<text text-anchor="start" x="997" y="-247" font-family="Ubuntu" font-weight="bold" font-size="10.00">ClickValve</text>
<text text-anchor="start" x="878" y="-231" font-family="Ubuntu" font-size="10.00">1</text>
<text text-anchor="start" x="889" y="-231" font-family="Ubuntu" font-size="10.00">valve</text>
<polygon fill="#fb9a99" stroke="transparent" points="916,-226 916,-241 1050,-241 1050,-226 916,-226"/>
<text text-anchor="start" x="918" y="-232" font-family="Ubuntu" font-weight="bold" font-size="10.00">mcfs.device.NodeIdentifier</text>
<text text-anchor="start" x="878" y="-216" font-family="Ubuntu" font-size="10.00">2</text>
<text text-anchor="start" x="889" y="-216" font-family="Ubuntu" font-size="10.00">state</text>
<polygon fill="#b2df8a" stroke="transparent" points="916,-211 916,-226 1050,-226 1050,-211 916,-211"/>
<text text-anchor="start" x="946" y="-217" font-family="Ubuntu" text-decoration="underline" font-size="10.00">mcfs.device.ValveState</text>
<polygon fill="none" stroke="black" points="871,-210.5 871,-257.5 1051,-257.5 1051,-210.5 871,-210.5"/>
</a>
</g>
</g>
<!-- Node_Ja_106&#45;&gt;Node_Ja_108 -->
<g id="edge11" class="edge">
<title>Node_Ja_106:e&#45;&gt;Node_Ja_108:header</title>
<g id="a_edge11"><a xlink:title="Ja_106 &#45;&#45;&gt; Ja_108">
<path fill="none" stroke="#000000" d="M789.5,-220C824.34,-220 831.39,-243.82 861.02,-248.28"/>
<polygon fill="#000000" stroke="#000000" points="860.77,-251.77 871,-249 861.28,-244.79 860.77,-251.77"/>
</a>
</g>
</g>
<!-- Node_Ja_108&#45;&gt;Node_Ja_103 -->
<g id="edge8" class="edge">
<title>Node_Ja_108:e&#45;&gt;Node_Ja_103</title>
<g id="a_edge8"><a xlink:title="Ja_108 &#45;&#45;&gt; Ja_103">
<path fill="none" stroke="#008000" d="M1051,-218C1081.52,-218 1086.77,-203.26 1117,-199 1185.21,-189.38 1203.72,-189.87 1272,-199 1286.58,-200.95 1302,-204.34 1316.44,-208.13"/>
<polygon fill="#008000" stroke="#008000" points="1315.68,-211.55 1326.25,-210.8 1317.52,-204.8 1315.68,-211.55"/>
</a>
</g>
</g>
<!-- Node_Ja_108&#45;&gt;Node_Ja_101 -->
<g id="edge7" class="edge">
<title>Node_Ja_108:e&#45;&gt;Node_Ja_101:header</title>
<g id="a_edge7"><a xlink:title="Ja_108 &#45;&#45;&gt; Ja_101">
<path fill="none" stroke="#000000" d="M1051,-233C1077.52,-233 1082.06,-249.09 1097,-271 1129.63,-318.84 1086.71,-392.41 1132.5,-401.14"/>
<polygon fill="#000000" stroke="#000000" points="1132.24,-404.63 1142.5,-402 1132.84,-397.66 1132.24,-404.63"/>
</a>
</g>
</g>
<!-- Node_Ja_111 -->
<g id="node10" class="node">
<title>Node_Ja_111</title>
<g id="a_node10"><a xlink:title="mcfs.procedure.Procedure">
<polygon fill="#fffaf0" stroke="transparent" points="8,-305.5 8,-352.5 104,-352.5 104,-305.5 8,-305.5"/>
<polygon fill="#e31a1c" stroke="transparent" points="9,-336 9,-351 103,-351 103,-336 9,-336"/>
<text text-anchor="start" x="52" y="-342" font-family="Ubuntu" font-weight="bold" font-size="10.00">Procedure</text>
<text text-anchor="start" x="28" y="-326" font-family="Ubuntu" font-size="10.00">1</text>
<text text-anchor="start" x="39" y="-326" font-family="Ubuntu" font-size="10.00">name</text>
<polygon fill="#a6cee3" stroke="transparent" points="71,-321 71,-336 103,-336 103,-321 71,-321"/>
<text text-anchor="start" x="76" y="-327" font-family="Ubuntu" font-style="italic" font-size="10.00">string</text>
<text text-anchor="start" x="11" y="-311" font-family="Ubuntu" font-size="10.00">[...]</text>
<text text-anchor="start" x="28" y="-311" font-family="Ubuntu" font-size="10.00">2</text>
<text text-anchor="start" x="39" y="-311" font-family="Ubuntu" font-size="10.00">stages</text>
<polygon fill="#fb9a99" stroke="transparent" points="71,-306 71,-321 103,-321 103,-306 71,-306"/>
<text text-anchor="start" x="73" y="-312" font-family="Ubuntu" font-weight="bold" font-size="10.00">Stage</text>
<polygon fill="none" stroke="black" points="8,-305.5 8,-352.5 104,-352.5 104,-305.5 8,-305.5"/>
</a>
</g>
</g>
<!-- Node_Ja_112 -->
<g id="node12" class="node">
<title>Node_Ja_112</title>
<g id="a_node12"><a xlink:title="mcfs.procedure.Stage">
<polygon fill="#fffaf0" stroke="transparent" points="156,-274.5 156,-321.5 316,-321.5 316,-274.5 156,-274.5"/>
<polygon fill="#e31a1c" stroke="transparent" points="157,-305 157,-320 315,-320 315,-305 157,-305"/>
<text text-anchor="start" x="285" y="-311" font-family="Ubuntu" font-weight="bold" font-size="10.00">Stage</text>
<text text-anchor="start" x="176" y="-295" font-family="Ubuntu" font-size="10.00">1</text>
<text text-anchor="start" x="187" y="-295" font-family="Ubuntu" font-size="10.00">name</text>
<polygon fill="#a6cee3" stroke="transparent" points="232,-290 232,-305 315,-305 315,-290 232,-290"/>
<text text-anchor="start" x="288" y="-296" font-family="Ubuntu" font-style="italic" font-size="10.00">string</text>
<text text-anchor="start" x="159" y="-280" font-family="Ubuntu" font-size="10.00">[...]</text>
<text text-anchor="start" x="176" y="-280" font-family="Ubuntu" font-size="10.00">2</text>
<text text-anchor="start" x="187" y="-280" font-family="Ubuntu" font-size="10.00">sequence</text>
<polygon fill="#fb9a99" stroke="transparent" points="232,-275 232,-290 315,-290 315,-275 232,-275"/>
<text text-anchor="start" x="234" y="-281" font-family="Ubuntu" font-weight="bold" font-size="10.00">SequenceAction</text>
<polygon fill="none" stroke="black" points="156,-274.5 156,-321.5 316,-321.5 316,-274.5 156,-274.5"/>
</a>
</g>
</g>
<!-- Node_Ja_111&#45;&gt;Node_Ja_112 -->
<g id="edge9" class="edge">
<title>Node_Ja_111:e&#45;&gt;Node_Ja_112:header</title>
<g id="a_edge9"><a xlink:title="Ja_111 &#45;&#45;&gt; Ja_112">
<path fill="none" stroke="#000000" d="M104,-313C123.32,-313 130.53,-313 145.87,-313"/>
<polygon fill="#000000" stroke="#000000" points="146,-316.5 156,-313 146,-309.5 146,-316.5"/>
</a>
</g>
</g>
<!-- Node_Ja_113 -->
<g id="node11" class="node">
<title>Node_Ja_113</title>
<g id="a_node11"><a xlink:title="mcfs.procedure.SequenceAction">
<polygon fill="#fffaf0" stroke="transparent" points="368,-243.5 368,-290.5 556,-290.5 556,-243.5 368,-243.5"/>
<polygon fill="#e31a1c" stroke="transparent" points="369,-274 369,-289 555,-289 555,-274 369,-274"/>
<text text-anchor="start" x="474" y="-280" font-family="Ubuntu" font-weight="bold" font-size="10.00">SequenceAction</text>
<text text-anchor="start" x="375" y="-264" font-family="Ubuntu" font-size="10.00">1</text>
<text text-anchor="start" x="386" y="-264" font-family="Ubuntu" font-size="10.00">command</text>
<polygon fill="#fb9a99" stroke="transparent" points="433,-259 433,-274 555,-274 555,-259 433,-259"/>
<text text-anchor="start" x="435" y="-265" font-family="Ubuntu" font-weight="bold" font-size="10.00">mcfs.command.Command</text>
<text text-anchor="start" x="375" y="-249" font-family="Ubuntu" font-size="10.00">2</text>
<text text-anchor="start" x="386" y="-249" font-family="Ubuntu" font-size="10.00">time</text>
<polygon fill="#a6cee3" stroke="transparent" points="433,-244 433,-259 555,-259 555,-244 433,-244"/>
<text text-anchor="start" x="524" y="-250" font-family="Ubuntu" font-style="italic" font-size="10.00">uint32</text>
<polygon fill="none" stroke="black" points="368,-243.5 368,-290.5 556,-290.5 556,-243.5 368,-243.5"/>
</a>
</g>
</g>
<!-- Node_Ja_113&#45;&gt;Node_Ja_106 -->
<g id="edge15" class="edge">
<title>Node_Ja_113:e&#45;&gt;Node_Ja_106:header</title>
<g id="a_edge15"><a xlink:title="Ja_113 &#45;&#45;&gt; Ja_106">
<path fill="none" stroke="#000000" d="M556,-266C575.51,-266 582.78,-266 598.27,-266"/>
<polygon fill="#000000" stroke="#000000" points="598.5,-269.5 608.5,-266 598.5,-262.5 598.5,-269.5"/>
</a>
</g>
</g>
<!-- Node_Ja_112&#45;&gt;Node_Ja_113 -->
<g id="edge10" class="edge">
<title>Node_Ja_112:e&#45;&gt;Node_Ja_113:header</title>
<g id="a_edge10"><a xlink:title="Ja_112 &#45;&#45;&gt; Ja_113">
<path fill="none" stroke="#000000" d="M316,-282C335.32,-282 342.53,-282 357.87,-282"/>
<polygon fill="#000000" stroke="#000000" points="358,-285.5 368,-282 358,-278.5 358,-285.5"/>
</a>
</g>
</g>
<!-- Node_Ja_101&#45;&gt;Node_Ja_102 -->
<g id="edge5" class="edge">
<title>Node_Ja_101:e&#45;&gt;Node_Ja_102</title>
<g id="a_edge5"><a xlink:title="Ja_101 &#45;&#45;&gt; Ja_102">
<path fill="none" stroke="#008000" d="M1246.5,-371C1260.37,-371 1275.04,-370.44 1289.35,-369.59"/>
<polygon fill="#008000" stroke="#008000" points="1289.95,-373.06 1299.7,-368.93 1289.5,-366.08 1289.95,-373.06"/>
</a>
</g>
</g>
</g>
</svg>
