<?xml version="1.0" encoding="UTF-8" standalone="no"?>
<!DOCTYPE svg PUBLIC "-//W3C//DTD SVG 1.1//EN"
 "http://www.w3.org/Graphics/SVG/1.1/DTD/svg11.dtd">
<!-- Generated by graphviz version 2.43.0 (0)
 -->
<!-- Title: protodot Pages: 1 -->
<svg width="1388pt" height="556pt"
 viewBox="0.00 0.00 1388.00 556.00" xmlns="http://www.w3.org/2000/svg" xmlns:xlink="http://www.w3.org/1999/xlink">
<g id="graph0" class="graph" transform="scale(1 1) rotate(0) translate(4 552)">
<title>protodot</title>
<g id="a_graph0"><a xlink:title="mcfs.procedure">
<text text-anchor="middle" x="690" y="-7.8" font-family="Times,serif" font-size="14.00">mcfs.procedure</text>
</a>
</g>
<g id="clust1" class="cluster">
<title>cluster_d12fc5b0b749</title>
<g id="a_clust1"><a xlink:title="board.proto">
<polygon fill="#caff70" stroke="black" points="1010,-160 1010,-269 1189,-269 1189,-160 1010,-160"/>
<text text-anchor="middle" x="1099.5" y="-253.8" font-family="Times,serif" font-size="14.00">board.proto</text>
</a>
</g>
</g>
<g id="clust2" class="cluster">
<title>cluster_4a45dd18e682</title>
<g id="a_clust2"><a xlink:title="mcfs.board">
<polygon fill="#caff70" stroke="black" points="1209,-31 1209,-540 1372,-540 1372,-31 1209,-31"/>
<text text-anchor="middle" x="1290.5" y="-524.8" font-family="Times,serif" font-size="14.00">mcfs.board</text>
</a>
</g>
</g>
<g id="clust3" class="cluster">
<title>cluster_c6829f1bbde1</title>
<g id="a_clust3"><a xlink:title="command.proto">
<polygon fill="#caff70" stroke="black" points="592,-91 592,-259 990,-259 990,-91 592,-91"/>
<text text-anchor="middle" x="791" y="-243.8" font-family="Times,serif" font-size="14.00">command.proto</text>
</a>
</g>
</g>
<!-- Node_Ja_109 -->
<g id="node1" class="node">
<title>Node_Ja_109</title>
<g id="a_node1"><a xlink:title="mcfs.procedure.Stage">
<polygon fill="#fffaf0" stroke="transparent" points="156,-210.5 156,-257.5 316,-257.5 316,-210.5 156,-210.5"/>
<polygon fill="#e31a1c" stroke="transparent" points="157,-241 157,-256 315,-256 315,-241 157,-241"/>
<text text-anchor="start" x="285" y="-247" font-family="Ubuntu" font-weight="bold" font-size="10.00">Stage</text>
<text text-anchor="start" x="176" y="-231" font-family="Ubuntu" font-size="10.00">1</text>
<text text-anchor="start" x="187" y="-231" font-family="Ubuntu" font-size="10.00">name</text>
<polygon fill="#a6cee3" stroke="transparent" points="232,-226 232,-241 315,-241 315,-226 232,-226"/>
<text text-anchor="start" x="288" y="-232" font-family="Ubuntu" font-style="italic" font-size="10.00">string</text>
<text text-anchor="start" x="159" y="-216" font-family="Ubuntu" font-size="10.00">[...]</text>
<text text-anchor="start" x="176" y="-216" font-family="Ubuntu" font-size="10.00">2</text>
<text text-anchor="start" x="187" y="-216" font-family="Ubuntu" font-size="10.00">sequence</text>
<polygon fill="#fb9a99" stroke="transparent" points="232,-211 232,-226 315,-226 315,-211 232,-211"/>
<text text-anchor="start" x="234" y="-217" font-family="Ubuntu" font-weight="bold" font-size="10.00">SequenceAction</text>
<polygon fill="none" stroke="black" points="156,-210.5 156,-257.5 316,-257.5 316,-210.5 156,-210.5"/>
</a>
</g>
</g>
<!-- Node_Ja_110 -->
<g id="node2" class="node">
<title>Node_Ja_110</title>
<g id="a_node2"><a xlink:title="mcfs.procedure.SequenceAction">
<polygon fill="#fffaf0" stroke="transparent" points="368,-179.5 368,-226.5 556,-226.5 556,-179.5 368,-179.5"/>
<polygon fill="#e31a1c" stroke="transparent" points="369,-210 369,-225 555,-225 555,-210 369,-210"/>
<text text-anchor="start" x="474" y="-216" font-family="Ubuntu" font-weight="bold" font-size="10.00">SequenceAction</text>
<text text-anchor="start" x="375" y="-200" font-family="Ubuntu" font-size="10.00">1</text>
<text text-anchor="start" x="386" y="-200" font-family="Ubuntu" font-size="10.00">command</text>
<polygon fill="#fb9a99" stroke="transparent" points="433,-195 433,-210 555,-210 555,-195 433,-195"/>
<text text-anchor="start" x="435" y="-201" font-family="Ubuntu" font-weight="bold" font-size="10.00">mcfs.command.Command</text>
<text text-anchor="start" x="375" y="-185" font-family="Ubuntu" font-size="10.00">2</text>
<text text-anchor="start" x="386" y="-185" font-family="Ubuntu" font-size="10.00">time</text>
<polygon fill="#a6cee3" stroke="transparent" points="433,-180 433,-195 555,-195 555,-180 433,-180"/>
<text text-anchor="start" x="524" y="-186" font-family="Ubuntu" font-style="italic" font-size="10.00">uint32</text>
<polygon fill="none" stroke="black" points="368,-179.5 368,-226.5 556,-226.5 556,-179.5 368,-179.5"/>
</a>
</g>
</g>
<!-- Node_Ja_109&#45;&gt;Node_Ja_110 -->
<g id="edge9" class="edge">
<title>Node_Ja_109:e&#45;&gt;Node_Ja_110:header</title>
<g id="a_edge9"><a xlink:title="Ja_109 &#45;&#45;&gt; Ja_110">
<path fill="none" stroke="#000000" d="M316,-218C335.32,-218 342.53,-218 357.87,-218"/>
<polygon fill="#000000" stroke="#000000" points="358,-221.5 368,-218 358,-214.5 358,-221.5"/>
</a>
</g>
</g>
<!-- Node_Ja_105 -->
<g id="node9" class="node">
<title>Node_Ja_105</title>
<g id="a_node9"><a xlink:title="mcfs.command.Command">
<polygon fill="#fffaf0" stroke="transparent" points="608,-144 608,-210 733,-210 733,-144 608,-144"/>
<polygon fill="#e31a1c" stroke="transparent" points="609.5,-194 609.5,-209 732.5,-209 732.5,-194 609.5,-194"/>
<text text-anchor="start" x="684.5" y="-200" font-family="Ubuntu" font-weight="bold" font-size="10.00">Command</text>
<polygon fill="#fdbf6f" stroke="transparent" points="609.5,-179 609.5,-194 732.5,-194 732.5,-179 609.5,-179"/>
<text text-anchor="start" x="611.5" y="-184" font-family="Ubuntu" font-size="10.00">command</text>
<polygon fill="#fdbf6f" stroke="transparent" points="609.5,-164 609.5,-179 613.5,-179 613.5,-164 609.5,-164"/>
<text text-anchor="start" x="615.5" y="-169" font-family="Ubuntu" font-size="10.00">1</text>
<text text-anchor="start" x="626.5" y="-169" font-family="Ubuntu" font-size="10.00">click_valve</text>
<polygon fill="#fb9a99" stroke="transparent" points="677.5,-164 677.5,-179 732.5,-179 732.5,-164 677.5,-164"/>
<text text-anchor="start" x="679.5" y="-170" font-family="Ubuntu" font-weight="bold" font-size="10.00">ClickValve</text>
<polygon fill="#fdbf6f" stroke="transparent" points="609.5,-149 609.5,-164 613.5,-164 613.5,-149 609.5,-149"/>
<text text-anchor="start" x="615.5" y="-154" font-family="Ubuntu" font-size="10.00">2</text>
<text text-anchor="start" x="626.5" y="-154" font-family="Ubuntu" font-size="10.00">set_led</text>
<polygon fill="#fb9a99" stroke="transparent" points="677.5,-149 677.5,-164 732.5,-164 732.5,-149 677.5,-149"/>
<text text-anchor="start" x="693.5" y="-155" font-family="Ubuntu" font-weight="bold" font-size="10.00">SetLED</text>
<polygon fill="#fdbf6f" stroke="transparent" points="609.5,-145 609.5,-149 732.5,-149 732.5,-145 609.5,-145"/>
<polygon fill="none" stroke="black" points="608,-144 608,-210 733,-210 733,-144 608,-144"/>
</a>
</g>
</g>
<!-- Node_Ja_110&#45;&gt;Node_Ja_105 -->
<g id="edge10" class="edge">
<title>Node_Ja_110:e&#45;&gt;Node_Ja_105:header</title>
<g id="a_edge10"><a xlink:title="Ja_110 &#45;&#45;&gt; Ja_105">
<path fill="none" stroke="#000000" d="M556,-202C575.51,-202 582.78,-202 598.27,-202"/>
<polygon fill="#000000" stroke="#000000" points="598.5,-205.5 608.5,-202 598.5,-198.5 598.5,-205.5"/>
</a>
</g>
</g>
<!-- Node_Ja_108 -->
<g id="node3" class="node">
<title>Node_Ja_108</title>
<g id="a_node3"><a xlink:title="mcfs.procedure.Procedure">
<polygon fill="#fffaf0" stroke="transparent" points="8,-241.5 8,-288.5 104,-288.5 104,-241.5 8,-241.5"/>
<polygon fill="#e31a1c" stroke="transparent" points="9,-272 9,-287 103,-287 103,-272 9,-272"/>
<text text-anchor="start" x="52" y="-278" font-family="Ubuntu" font-weight="bold" font-size="10.00">Procedure</text>
<text text-anchor="start" x="28" y="-262" font-family="Ubuntu" font-size="10.00">1</text>
<text text-anchor="start" x="39" y="-262" font-family="Ubuntu" font-size="10.00">name</text>
<polygon fill="#a6cee3" stroke="transparent" points="71,-257 71,-272 103,-272 103,-257 71,-257"/>
<text text-anchor="start" x="76" y="-263" font-family="Ubuntu" font-style="italic" font-size="10.00">string</text>
<text text-anchor="start" x="11" y="-247" font-family="Ubuntu" font-size="10.00">[...]</text>
<text text-anchor="start" x="28" y="-247" font-family="Ubuntu" font-size="10.00">2</text>
<text text-anchor="start" x="39" y="-247" font-family="Ubuntu" font-size="10.00">stages</text>
<polygon fill="#fb9a99" stroke="transparent" points="71,-242 71,-257 103,-257 103,-242 71,-242"/>
<text text-anchor="start" x="73" y="-248" font-family="Ubuntu" font-weight="bold" font-size="10.00">Stage</text>
<polygon fill="none" stroke="black" points="8,-241.5 8,-288.5 104,-288.5 104,-241.5 8,-241.5"/>
</a>
</g>
</g>
<!-- Node_Ja_108&#45;&gt;Node_Ja_109 -->
<g id="edge8" class="edge">
<title>Node_Ja_108:e&#45;&gt;Node_Ja_109:header</title>
<g id="a_edge8"><a xlink:title="Ja_108 &#45;&#45;&gt; Ja_109">
<path fill="none" stroke="#000000" d="M104,-249C123.32,-249 130.53,-249 145.87,-249"/>
<polygon fill="#000000" stroke="#000000" points="146,-252.5 156,-249 146,-245.5 146,-252.5"/>
</a>
</g>
</g>
<!-- Node_Ja_100 -->
<g id="node4" class="node">
<title>Node_Ja_100</title>
<g id="a_node4"><a xlink:title="mcfs.board.ChannelIdentifier">
<polygon fill="#fffaf0" stroke="transparent" points="1026,-172 1026,-234 1173,-234 1173,-172 1026,-172"/>
<polygon fill="#e31a1c" stroke="transparent" points="1027.5,-218 1027.5,-233 1172.5,-233 1172.5,-218 1027.5,-218"/>
<text text-anchor="start" x="1085.5" y="-224" font-family="Ubuntu" font-weight="bold" font-size="10.00">ChannelIdentifier</text>
<text text-anchor="start" x="1033.5" y="-208" font-family="Ubuntu" font-size="10.00">1</text>
<text text-anchor="start" x="1044.5" y="-208" font-family="Ubuntu" font-size="10.00">board_id</text>
<polygon fill="#a6cee3" stroke="transparent" points="1108.5,-203 1108.5,-218 1172.5,-218 1172.5,-203 1108.5,-203"/>
<text text-anchor="start" x="1141.5" y="-209" font-family="Ubuntu" font-style="italic" font-size="10.00">uint32</text>
<text text-anchor="start" x="1033.5" y="-193" font-family="Ubuntu" font-size="10.00">2</text>
<text text-anchor="start" x="1044.5" y="-193" font-family="Ubuntu" font-size="10.00">channel_type</text>
<polygon fill="#b2df8a" stroke="transparent" points="1108.5,-188 1108.5,-203 1172.5,-203 1172.5,-188 1108.5,-188"/>
<text text-anchor="start" x="1110.5" y="-194" font-family="Ubuntu" text-decoration="underline" font-size="10.00">ChannelType</text>
<text text-anchor="start" x="1033.5" y="-178" font-family="Ubuntu" font-size="10.00">3</text>
<text text-anchor="start" x="1044.5" y="-178" font-family="Ubuntu" font-size="10.00">channel</text>
<polygon fill="#a6cee3" stroke="transparent" points="1108.5,-173 1108.5,-188 1172.5,-188 1172.5,-173 1108.5,-173"/>
<text text-anchor="start" x="1141.5" y="-179" font-family="Ubuntu" font-style="italic" font-size="10.00">uint32</text>
<polygon fill="none" stroke="black" points="1026,-172 1026,-234 1173,-234 1173,-172 1026,-172"/>
</a>
</g>
</g>
<!-- Node_Ja_101 -->
<g id="node5" class="node">
<title>Node_Ja_101</title>
<g id="a_node5"><a xlink:title="ChannelType">
<polygon fill="#b2df8a" stroke="transparent" points="1225,-293 1225,-505 1356,-505 1356,-293 1225,-293"/>
<polygon fill="#33a02c" stroke="transparent" points="1226.5,-489 1226.5,-504 1355.5,-504 1355.5,-489 1226.5,-489"/>
<text text-anchor="start" x="1263.5" y="-495" font-family="Ubuntu" font-size="10.00">enum </text>
<text text-anchor="start" x="1291.5" y="-495" font-family="Ubuntu" font-weight="bold" font-size="10.00">ChannelType</text>
<polygon fill="#b2df8a" stroke="transparent" points="1226.5,-474 1226.5,-489 1338.5,-489 1338.5,-474 1226.5,-474"/>
<text text-anchor="start" x="1228.5" y="-479" font-family="Ubuntu" font-size="10.00">GPIO</text>
<polygon fill="#b2df8a" stroke="transparent" points="1338.5,-474 1338.5,-489 1355.5,-489 1355.5,-474 1338.5,-474"/>
<text text-anchor="start" x="1340.5" y="-479" font-family="Ubuntu" font-size="10.00">0</text>
<polygon fill="#b2df8a" stroke="transparent" points="1226.5,-459 1226.5,-474 1338.5,-474 1338.5,-459 1226.5,-459"/>
<text text-anchor="start" x="1228.5" y="-464" font-family="Ubuntu" font-size="10.00">LED</text>
<polygon fill="#b2df8a" stroke="transparent" points="1338.5,-459 1338.5,-474 1355.5,-474 1355.5,-459 1338.5,-459"/>
<text text-anchor="start" x="1340.5" y="-464" font-family="Ubuntu" font-size="10.00">1</text>
<polygon fill="#b2df8a" stroke="transparent" points="1226.5,-444 1226.5,-459 1338.5,-459 1338.5,-444 1226.5,-444"/>
<text text-anchor="start" x="1228.5" y="-449" font-family="Ubuntu" font-size="10.00">RAIL_3V3</text>
<polygon fill="#b2df8a" stroke="transparent" points="1338.5,-444 1338.5,-459 1355.5,-459 1355.5,-444 1338.5,-444"/>
<text text-anchor="start" x="1340.5" y="-449" font-family="Ubuntu" font-size="10.00">2</text>
<polygon fill="#b2df8a" stroke="transparent" points="1226.5,-429 1226.5,-444 1338.5,-444 1338.5,-429 1226.5,-429"/>
<text text-anchor="start" x="1228.5" y="-434" font-family="Ubuntu" font-size="10.00">RAIL_5V</text>
<polygon fill="#b2df8a" stroke="transparent" points="1338.5,-429 1338.5,-444 1355.5,-444 1355.5,-429 1338.5,-429"/>
<text text-anchor="start" x="1340.5" y="-434" font-family="Ubuntu" font-size="10.00">3</text>
<polygon fill="#b2df8a" stroke="transparent" points="1226.5,-414 1226.5,-429 1338.5,-429 1338.5,-414 1226.5,-414"/>
<text text-anchor="start" x="1228.5" y="-419" font-family="Ubuntu" font-size="10.00">RAIL_5V5</text>
<polygon fill="#b2df8a" stroke="transparent" points="1338.5,-414 1338.5,-429 1355.5,-429 1355.5,-414 1338.5,-414"/>
<text text-anchor="start" x="1340.5" y="-419" font-family="Ubuntu" font-size="10.00">4</text>
<polygon fill="#b2df8a" stroke="transparent" points="1226.5,-399 1226.5,-414 1338.5,-414 1338.5,-399 1226.5,-399"/>
<text text-anchor="start" x="1228.5" y="-404" font-family="Ubuntu" font-size="10.00">RAIL_24V</text>
<polygon fill="#b2df8a" stroke="transparent" points="1338.5,-399 1338.5,-414 1355.5,-414 1355.5,-399 1338.5,-399"/>
<text text-anchor="start" x="1340.5" y="-404" font-family="Ubuntu" font-size="10.00">5</text>
<polygon fill="#b2df8a" stroke="transparent" points="1226.5,-384 1226.5,-399 1338.5,-399 1338.5,-384 1226.5,-384"/>
<text text-anchor="start" x="1228.5" y="-389" font-family="Ubuntu" font-size="10.00">CURRENT_LOOP</text>
<polygon fill="#b2df8a" stroke="transparent" points="1338.5,-384 1338.5,-399 1355.5,-399 1355.5,-384 1338.5,-384"/>
<text text-anchor="start" x="1340.5" y="-389" font-family="Ubuntu" font-size="10.00">6</text>
<polygon fill="#b2df8a" stroke="transparent" points="1226.5,-369 1226.5,-384 1338.5,-384 1338.5,-369 1226.5,-369"/>
<text text-anchor="start" x="1228.5" y="-374" font-family="Ubuntu" font-size="10.00">DIFFERENTIAL_SIGNAL</text>
<polygon fill="#b2df8a" stroke="transparent" points="1338.5,-369 1338.5,-384 1355.5,-384 1355.5,-369 1338.5,-369"/>
<text text-anchor="start" x="1340.5" y="-374" font-family="Ubuntu" font-size="10.00">7</text>
<polygon fill="#b2df8a" stroke="transparent" points="1226.5,-354 1226.5,-369 1338.5,-369 1338.5,-354 1226.5,-354"/>
<text text-anchor="start" x="1228.5" y="-359" font-family="Ubuntu" font-size="10.00">TC</text>
<polygon fill="#b2df8a" stroke="transparent" points="1338.5,-354 1338.5,-369 1355.5,-369 1355.5,-354 1338.5,-354"/>
<text text-anchor="start" x="1340.5" y="-359" font-family="Ubuntu" font-size="10.00">8</text>
<polygon fill="#b2df8a" stroke="transparent" points="1226.5,-339 1226.5,-354 1338.5,-354 1338.5,-339 1226.5,-339"/>
<text text-anchor="start" x="1228.5" y="-344" font-family="Ubuntu" font-size="10.00">RTD</text>
<polygon fill="#b2df8a" stroke="transparent" points="1338.5,-339 1338.5,-354 1355.5,-354 1355.5,-339 1338.5,-339"/>
<text text-anchor="start" x="1340.5" y="-344" font-family="Ubuntu" font-size="10.00">9</text>
<polygon fill="#b2df8a" stroke="transparent" points="1226.5,-324 1226.5,-339 1338.5,-339 1338.5,-324 1226.5,-324"/>
<text text-anchor="start" x="1228.5" y="-329" font-family="Ubuntu" font-size="10.00">VALVE</text>
<polygon fill="#b2df8a" stroke="transparent" points="1338.5,-324 1338.5,-339 1355.5,-339 1355.5,-324 1338.5,-324"/>
<text text-anchor="start" x="1340.5" y="-329" font-family="Ubuntu" font-size="10.00">10</text>
<polygon fill="#b2df8a" stroke="transparent" points="1226.5,-309 1226.5,-324 1338.5,-324 1338.5,-309 1226.5,-309"/>
<text text-anchor="start" x="1228.5" y="-314" font-family="Ubuntu" font-size="10.00">VALVE_CURRENT</text>
<polygon fill="#b2df8a" stroke="transparent" points="1338.5,-309 1338.5,-324 1355.5,-324 1355.5,-309 1338.5,-309"/>
<text text-anchor="start" x="1340.5" y="-314" font-family="Ubuntu" font-size="10.00">11</text>
<polygon fill="#b2df8a" stroke="transparent" points="1226.5,-294 1226.5,-309 1338.5,-309 1338.5,-294 1226.5,-294"/>
<text text-anchor="start" x="1228.5" y="-299" font-family="Ubuntu" font-size="10.00">VALVE_VOLTAGE</text>
<polygon fill="#b2df8a" stroke="transparent" points="1338.5,-294 1338.5,-309 1355.5,-309 1355.5,-294 1338.5,-294"/>
<text text-anchor="start" x="1340.5" y="-299" font-family="Ubuntu" font-size="10.00">12</text>
<polygon fill="none" stroke="black" points="1225,-293 1225,-505 1356,-505 1356,-293 1225,-293"/>
</a>
</g>
</g>
<!-- Node_Ja_100&#45;&gt;Node_Ja_101 -->
<g id="edge6" class="edge">
<title>Node_Ja_100:e&#45;&gt;Node_Ja_101</title>
<g id="a_edge6"><a xlink:title="Ja_100 &#45;&#45;&gt; Ja_101">
<path fill="none" stroke="#008000" d="M1173.5,-195C1214.44,-195 1189.55,-243.98 1209,-280 1209.93,-281.73 1210.89,-283.46 1211.85,-285.2"/>
<polygon fill="#008000" stroke="#008000" points="1208.83,-286.97 1216.83,-293.92 1214.91,-283.5 1208.83,-286.97"/>
</a>
</g>
</g>
<!-- Node_Ja_104 -->
<g id="node6" class="node">
<title>Node_Ja_104</title>
<g id="a_node6"><a xlink:title="BoardType">
<polygon fill="#b2df8a" stroke="transparent" points="1231.5,-189.5 1231.5,-266.5 1349.5,-266.5 1349.5,-189.5 1231.5,-189.5"/>
<polygon fill="#33a02c" stroke="transparent" points="1232.5,-250 1232.5,-265 1348.5,-265 1348.5,-250 1232.5,-250"/>
<text text-anchor="start" x="1267.5" y="-256" font-family="Ubuntu" font-size="10.00">enum </text>
<text text-anchor="start" x="1295.5" y="-256" font-family="Ubuntu" font-weight="bold" font-size="10.00">BoardType</text>
<polygon fill="#b2df8a" stroke="transparent" points="1232.5,-235 1232.5,-250 1337.5,-250 1337.5,-235 1232.5,-235"/>
<text text-anchor="start" x="1234.5" y="-240" font-family="Ubuntu" font-size="10.00">SERVER</text>
<polygon fill="#b2df8a" stroke="transparent" points="1337.5,-235 1337.5,-250 1348.5,-250 1348.5,-235 1337.5,-235"/>
<text text-anchor="start" x="1339.5" y="-240" font-family="Ubuntu" font-size="10.00">0</text>
<polygon fill="#b2df8a" stroke="transparent" points="1232.5,-220 1232.5,-235 1337.5,-235 1337.5,-220 1232.5,-220"/>
<text text-anchor="start" x="1234.5" y="-225" font-family="Ubuntu" font-size="10.00">FLIGHT_COMPUTER</text>
<polygon fill="#b2df8a" stroke="transparent" points="1337.5,-220 1337.5,-235 1348.5,-235 1348.5,-220 1337.5,-220"/>
<text text-anchor="start" x="1339.5" y="-225" font-family="Ubuntu" font-size="10.00">1</text>
<polygon fill="#b2df8a" stroke="transparent" points="1232.5,-205 1232.5,-220 1337.5,-220 1337.5,-205 1232.5,-205"/>
<text text-anchor="start" x="1234.5" y="-210" font-family="Ubuntu" font-size="10.00">GROUND_COMPUTER</text>
<polygon fill="#b2df8a" stroke="transparent" points="1337.5,-205 1337.5,-220 1348.5,-220 1348.5,-205 1337.5,-205"/>
<text text-anchor="start" x="1339.5" y="-210" font-family="Ubuntu" font-size="10.00">2</text>
<polygon fill="#b2df8a" stroke="transparent" points="1232.5,-190 1232.5,-205 1337.5,-205 1337.5,-190 1232.5,-190"/>
<text text-anchor="start" x="1234.5" y="-195" font-family="Ubuntu" font-size="10.00">SAM</text>
<polygon fill="#b2df8a" stroke="transparent" points="1337.5,-190 1337.5,-205 1348.5,-205 1348.5,-190 1337.5,-190"/>
<text text-anchor="start" x="1339.5" y="-195" font-family="Ubuntu" font-size="10.00">3</text>
<polygon fill="none" stroke="black" points="1231.5,-189.5 1231.5,-266.5 1349.5,-266.5 1349.5,-189.5 1231.5,-189.5"/>
</a>
</g>
</g>
<!-- Node_Ja_102 -->
<g id="node7" class="node">
<title>Node_Ja_102</title>
<g id="a_node7"><a xlink:title="ValveState">
<polygon fill="#b2df8a" stroke="transparent" points="1245.5,-116.5 1245.5,-163.5 1335.5,-163.5 1335.5,-116.5 1245.5,-116.5"/>
<polygon fill="#33a02c" stroke="transparent" points="1246.5,-147 1246.5,-162 1334.5,-162 1334.5,-147 1246.5,-147"/>
<text text-anchor="start" x="1251.5" y="-153" font-family="Ubuntu" font-size="10.00">enum </text>
<text text-anchor="start" x="1279.5" y="-153" font-family="Ubuntu" font-weight="bold" font-size="10.00">ValveState</text>
<polygon fill="#b2df8a" stroke="transparent" points="1246.5,-132 1246.5,-147 1323.5,-147 1323.5,-132 1246.5,-132"/>
<text text-anchor="start" x="1248.5" y="-137" font-family="Ubuntu" font-size="10.00">VALVE_OPEN</text>
<polygon fill="#b2df8a" stroke="transparent" points="1323.5,-132 1323.5,-147 1334.5,-147 1334.5,-132 1323.5,-132"/>
<text text-anchor="start" x="1325.5" y="-137" font-family="Ubuntu" font-size="10.00">0</text>
<polygon fill="#b2df8a" stroke="transparent" points="1246.5,-117 1246.5,-132 1323.5,-132 1323.5,-117 1246.5,-117"/>
<text text-anchor="start" x="1248.5" y="-122" font-family="Ubuntu" font-size="10.00">VALVE_CLOSED</text>
<polygon fill="#b2df8a" stroke="transparent" points="1323.5,-117 1323.5,-132 1334.5,-132 1334.5,-117 1323.5,-117"/>
<text text-anchor="start" x="1325.5" y="-122" font-family="Ubuntu" font-size="10.00">1</text>
<polygon fill="none" stroke="black" points="1245.5,-116.5 1245.5,-163.5 1335.5,-163.5 1335.5,-116.5 1245.5,-116.5"/>
</a>
</g>
</g>
<!-- Node_Ja_103 -->
<g id="node8" class="node">
<title>Node_Ja_103</title>
<g id="a_node8"><a xlink:title="LEDState">
<polygon fill="#b2df8a" stroke="transparent" points="1250.5,-43.5 1250.5,-90.5 1330.5,-90.5 1330.5,-43.5 1250.5,-43.5"/>
<polygon fill="#33a02c" stroke="transparent" points="1251.5,-74 1251.5,-89 1329.5,-89 1329.5,-74 1251.5,-74"/>
<text text-anchor="start" x="1253.5" y="-80" font-family="Ubuntu" font-size="10.00">enum </text>
<text text-anchor="start" x="1281.5" y="-80" font-family="Ubuntu" font-weight="bold" font-size="10.00">LEDState</text>
<polygon fill="#b2df8a" stroke="transparent" points="1251.5,-59 1251.5,-74 1308.5,-74 1308.5,-59 1251.5,-59"/>
<text text-anchor="start" x="1253.5" y="-64" font-family="Ubuntu" font-size="10.00">LED_OFF</text>
<polygon fill="#b2df8a" stroke="transparent" points="1308.5,-59 1308.5,-74 1329.5,-74 1329.5,-59 1308.5,-59"/>
<text text-anchor="start" x="1310.5" y="-64" font-family="Ubuntu" font-size="10.00">0</text>
<polygon fill="#b2df8a" stroke="transparent" points="1251.5,-44 1251.5,-59 1308.5,-59 1308.5,-44 1251.5,-44"/>
<text text-anchor="start" x="1253.5" y="-49" font-family="Ubuntu" font-size="10.00">LED_ON</text>
<polygon fill="#b2df8a" stroke="transparent" points="1308.5,-44 1308.5,-59 1329.5,-59 1329.5,-44 1308.5,-44"/>
<text text-anchor="start" x="1310.5" y="-49" font-family="Ubuntu" font-size="10.00">1</text>
<polygon fill="none" stroke="black" points="1250.5,-43.5 1250.5,-90.5 1330.5,-90.5 1330.5,-43.5 1250.5,-43.5"/>
</a>
</g>
</g>
<!-- Node_Ja_106 -->
<g id="node10" class="node">
<title>Node_Ja_106</title>
<g id="a_node10"><a xlink:title="mcfs.command.ClickValve">
<polygon fill="#fffaf0" stroke="transparent" points="785,-176.5 785,-223.5 974,-223.5 974,-176.5 785,-176.5"/>
<polygon fill="#e31a1c" stroke="transparent" points="786.5,-207 786.5,-222 973.5,-222 973.5,-207 786.5,-207"/>
<text text-anchor="start" x="920.5" y="-213" font-family="Ubuntu" font-weight="bold" font-size="10.00">ClickValve</text>
<text text-anchor="start" x="792.5" y="-197" font-family="Ubuntu" font-size="10.00">1</text>
<text text-anchor="start" x="803.5" y="-197" font-family="Ubuntu" font-size="10.00">valve</text>
<polygon fill="#fb9a99" stroke="transparent" points="830.5,-192 830.5,-207 973.5,-207 973.5,-192 830.5,-192"/>
<text text-anchor="start" x="832.5" y="-198" font-family="Ubuntu" font-weight="bold" font-size="10.00">mcfs.board.ChannelIdentifier</text>
<text text-anchor="start" x="792.5" y="-182" font-family="Ubuntu" font-size="10.00">2</text>
<text text-anchor="start" x="803.5" y="-182" font-family="Ubuntu" font-size="10.00">state</text>
<polygon fill="#b2df8a" stroke="transparent" points="830.5,-177 830.5,-192 973.5,-192 973.5,-177 830.5,-177"/>
<text text-anchor="start" x="871.5" y="-183" font-family="Ubuntu" text-decoration="underline" font-size="10.00">mcfs.board.ValveState</text>
<polygon fill="none" stroke="black" points="785,-176.5 785,-223.5 974,-223.5 974,-176.5 785,-176.5"/>
</a>
</g>
</g>
<!-- Node_Ja_105&#45;&gt;Node_Ja_106 -->
<g id="edge1" class="edge">
<title>Node_Ja_105:e&#45;&gt;Node_Ja_106:header</title>
<g id="a_edge1"><a xlink:title="Ja_105 &#45;&#45;&gt; Ja_106">
<path fill="none" stroke="#000000" d="M733.5,-171C759.75,-171 756.81,-204.09 775.31,-212.88"/>
<polygon fill="#000000" stroke="#000000" points="775,-216.39 785.5,-215 776.42,-209.53 775,-216.39"/>
</a>
</g>
</g>
<!-- Node_Ja_107 -->
<g id="node11" class="node">
<title>Node_Ja_107</title>
<g id="a_node11"><a xlink:title="mcfs.command.SetLED">
<polygon fill="#fffaf0" stroke="transparent" points="786,-103.5 786,-150.5 973,-150.5 973,-103.5 786,-103.5"/>
<polygon fill="#e31a1c" stroke="transparent" points="787.5,-134 787.5,-149 972.5,-149 972.5,-134 787.5,-134"/>
<text text-anchor="start" x="933.5" y="-140" font-family="Ubuntu" font-weight="bold" font-size="10.00">SetLED</text>
<text text-anchor="start" x="793.5" y="-124" font-family="Ubuntu" font-size="10.00">1</text>
<text text-anchor="start" x="804.5" y="-124" font-family="Ubuntu" font-size="10.00">led</text>
<polygon fill="#fb9a99" stroke="transparent" points="829.5,-119 829.5,-134 972.5,-134 972.5,-119 829.5,-119"/>
<text text-anchor="start" x="831.5" y="-125" font-family="Ubuntu" font-weight="bold" font-size="10.00">mcfs.board.ChannelIdentifier</text>
<text text-anchor="start" x="793.5" y="-109" font-family="Ubuntu" font-size="10.00">2</text>
<text text-anchor="start" x="804.5" y="-109" font-family="Ubuntu" font-size="10.00">state</text>
<polygon fill="#b2df8a" stroke="transparent" points="829.5,-104 829.5,-119 972.5,-119 972.5,-104 829.5,-104"/>
<text text-anchor="start" x="876.5" y="-110" font-family="Ubuntu" text-decoration="underline" font-size="10.00">mcfs.board.LEDState</text>
<polygon fill="none" stroke="black" points="786,-103.5 786,-150.5 973,-150.5 973,-103.5 786,-103.5"/>
</a>
</g>
</g>
<!-- Node_Ja_105&#45;&gt;Node_Ja_107 -->
<g id="edge2" class="edge">
<title>Node_Ja_105:e&#45;&gt;Node_Ja_107:header</title>
<g id="a_edge2"><a xlink:title="Ja_105 &#45;&#45;&gt; Ja_107">
<path fill="none" stroke="#000000" d="M733.5,-156C754.06,-156 760.31,-146.03 776.4,-142.92"/>
<polygon fill="#000000" stroke="#000000" points="776.86,-146.39 786.5,-142 776.22,-139.42 776.86,-146.39"/>
</a>
</g>
</g>
<!-- Node_Ja_106&#45;&gt;Node_Ja_100 -->
<g id="edge3" class="edge">
<title>Node_Ja_106:e&#45;&gt;Node_Ja_100:header</title>
<g id="a_edge3"><a xlink:title="Ja_106 &#45;&#45;&gt; Ja_100">
<path fill="none" stroke="#000000" d="M974.5,-199C996.68,-199 999.91,-218.58 1016.46,-224.39"/>
<polygon fill="#000000" stroke="#000000" points="1016.07,-227.87 1026.5,-226 1017.18,-220.96 1016.07,-227.87"/>
</a>
</g>
</g>
<!-- Node_Ja_106&#45;&gt;Node_Ja_102 -->
<g id="edge4" class="edge">
<title>Node_Ja_106:e&#45;&gt;Node_Ja_102</title>
<g id="a_edge4"><a xlink:title="Ja_106 &#45;&#45;&gt; Ja_102">
<path fill="none" stroke="#008000" d="M974.5,-184C994.59,-184 991.21,-163.13 1010,-156 1080.84,-129.13 1169.05,-129.05 1227.2,-133.1"/>
<polygon fill="#008000" stroke="#008000" points="1227.11,-136.6 1237.34,-133.87 1227.64,-129.62 1227.11,-136.6"/>
</a>
</g>
</g>
<!-- Node_Ja_107&#45;&gt;Node_Ja_100 -->
<g id="edge7" class="edge">
<title>Node_Ja_107:e&#45;&gt;Node_Ja_100:header</title>
<g id="a_edge7"><a xlink:title="Ja_107 &#45;&#45;&gt; Ja_100">
<path fill="none" stroke="#000000" d="M973.5,-126C1019.87,-126 983.04,-210.99 1016.41,-224.26"/>
<polygon fill="#000000" stroke="#000000" points="1016.05,-227.75 1026.5,-226 1017.24,-220.86 1016.05,-227.75"/>
</a>
</g>
</g>
<!-- Node_Ja_107&#45;&gt;Node_Ja_103 -->
<g id="edge5" class="edge">
<title>Node_Ja_107:e&#45;&gt;Node_Ja_103</title>
<g id="a_edge5"><a xlink:title="Ja_107 &#45;&#45;&gt; Ja_103">
<path fill="none" stroke="#008000" d="M973.5,-111C1064.67,-111 1169.22,-92.81 1232.27,-79.82"/>
<polygon fill="#008000" stroke="#008000" points="1233.33,-83.18 1242.41,-77.71 1231.9,-76.33 1233.33,-83.18"/>
</a>
</g>
</g>
</g>
</svg>
