<?xml version="1.0" encoding="UTF-8" standalone="no"?>
<!DOCTYPE svg PUBLIC "-//W3C//DTD SVG 1.1//EN"
 "http://www.w3.org/Graphics/SVG/1.1/DTD/svg11.dtd">
<!-- Generated by graphviz version 2.43.0 (0)
 -->
<!-- Title: protodot Pages: 1 -->
<svg width="877pt" height="556pt"
 viewBox="0.00 0.00 877.00 556.00" xmlns="http://www.w3.org/2000/svg" xmlns:xlink="http://www.w3.org/1999/xlink">
<g id="graph0" class="graph" transform="scale(1 1) rotate(0) translate(4 552)">
<title>protodot</title>
<g id="a_graph0"><a xlink:title="mcfs.status">
<text text-anchor="middle" x="434.5" y="-7.8" font-family="Times,serif" font-size="14.00">mcfs.status</text>
</a>
</g>
<g id="clust1" class="cluster">
<title>cluster_298dbc098f42</title>
<g id="a_clust1"><a xlink:title="mcfs.status">
<polygon fill="#caff70" stroke="black" points="483.5,-320 483.5,-517 659.5,-517 659.5,-320 483.5,-320"/>
<text text-anchor="middle" x="571.5" y="-501.8" font-family="Times,serif" font-size="14.00">mcfs.status</text>
</a>
</g>
</g>
<g id="clust2" class="cluster">
<title>cluster_4a45dd18e682</title>
<g id="a_clust2"><a xlink:title="mcfs.board">
<polygon fill="#caff70" stroke="black" points="698,-31 698,-540 861,-540 861,-31 698,-31"/>
<text text-anchor="middle" x="779.5" y="-524.8" font-family="Times,serif" font-size="14.00">mcfs.board</text>
</a>
</g>
</g>
<g id="clust3" class="cluster">
<title>cluster_d12fc5b0b749</title>
<g id="a_clust3"><a xlink:title="board.proto">
<polygon fill="#caff70" stroke="black" points="482,-203 482,-312 661,-312 661,-203 482,-203"/>
<text text-anchor="middle" x="571.5" y="-296.8" font-family="Times,serif" font-size="14.00">board.proto</text>
</a>
</g>
</g>
<!-- Node_Ja_110 -->
<g id="node1" class="node">
<title>Node_Ja_110</title>
<g id="a_node1"><a xlink:title="ChannelStatusCode">
<polygon fill="#b2df8a" stroke="transparent" points="499.5,-332 499.5,-394 643.5,-394 643.5,-332 499.5,-332"/>
<polygon fill="#33a02c" stroke="transparent" points="500.5,-378 500.5,-393 642.5,-393 642.5,-378 500.5,-378"/>
<text text-anchor="start" x="518.5" y="-384" font-family="Ubuntu" font-size="10.00">enum </text>
<text text-anchor="start" x="546.5" y="-384" font-family="Ubuntu" font-weight="bold" font-size="10.00">ChannelStatusCode</text>
<polygon fill="#b2df8a" stroke="transparent" points="500.5,-363 500.5,-378 631.5,-378 631.5,-363 500.5,-363"/>
<text text-anchor="start" x="502.5" y="-368" font-family="Ubuntu" font-size="10.00">CHANNEL_CONNECTED</text>
<polygon fill="#b2df8a" stroke="transparent" points="631.5,-363 631.5,-378 642.5,-378 642.5,-363 631.5,-363"/>
<text text-anchor="start" x="633.5" y="-368" font-family="Ubuntu" font-size="10.00">0</text>
<polygon fill="#b2df8a" stroke="transparent" points="500.5,-348 500.5,-363 631.5,-363 631.5,-348 500.5,-348"/>
<text text-anchor="start" x="502.5" y="-353" font-family="Ubuntu" font-size="10.00">CHANNEL_DISCONNECTED</text>
<polygon fill="#b2df8a" stroke="transparent" points="631.5,-348 631.5,-363 642.5,-363 642.5,-348 631.5,-348"/>
<text text-anchor="start" x="633.5" y="-353" font-family="Ubuntu" font-size="10.00">1</text>
<polygon fill="#b2df8a" stroke="transparent" points="500.5,-333 500.5,-348 631.5,-348 631.5,-333 500.5,-333"/>
<text text-anchor="start" x="502.5" y="-338" font-family="Ubuntu" font-size="10.00">CHANNEL_ERROR</text>
<polygon fill="#b2df8a" stroke="transparent" points="631.5,-333 631.5,-348 642.5,-348 642.5,-333 631.5,-333"/>
<text text-anchor="start" x="633.5" y="-338" font-family="Ubuntu" font-size="10.00">2</text>
<polygon fill="none" stroke="black" points="499.5,-332 499.5,-394 643.5,-394 643.5,-332 499.5,-332"/>
</a>
</g>
</g>
<!-- Node_Ja_109 -->
<g id="node2" class="node">
<title>Node_Ja_109</title>
<g id="a_node2"><a xlink:title="BoardStatusCode">
<polygon fill="#b2df8a" stroke="transparent" points="505.5,-420 505.5,-482 637.5,-482 637.5,-420 505.5,-420"/>
<polygon fill="#33a02c" stroke="transparent" points="506.5,-466 506.5,-481 636.5,-481 636.5,-466 506.5,-466"/>
<text text-anchor="start" x="523.5" y="-472" font-family="Ubuntu" font-size="10.00">enum </text>
<text text-anchor="start" x="551.5" y="-472" font-family="Ubuntu" font-weight="bold" font-size="10.00">BoardStatusCode</text>
<polygon fill="#b2df8a" stroke="transparent" points="506.5,-451 506.5,-466 625.5,-466 625.5,-451 506.5,-451"/>
<text text-anchor="start" x="508.5" y="-456" font-family="Ubuntu" font-size="10.00">BOARD_CONNECTED</text>
<polygon fill="#b2df8a" stroke="transparent" points="625.5,-451 625.5,-466 636.5,-466 636.5,-451 625.5,-451"/>
<text text-anchor="start" x="627.5" y="-456" font-family="Ubuntu" font-size="10.00">0</text>
<polygon fill="#b2df8a" stroke="transparent" points="506.5,-436 506.5,-451 625.5,-451 625.5,-436 506.5,-436"/>
<text text-anchor="start" x="508.5" y="-441" font-family="Ubuntu" font-size="10.00">BOARD_DISCONNECTED</text>
<polygon fill="#b2df8a" stroke="transparent" points="625.5,-436 625.5,-451 636.5,-451 636.5,-436 625.5,-436"/>
<text text-anchor="start" x="627.5" y="-441" font-family="Ubuntu" font-size="10.00">1</text>
<polygon fill="#b2df8a" stroke="transparent" points="506.5,-421 506.5,-436 625.5,-436 625.5,-421 506.5,-421"/>
<text text-anchor="start" x="508.5" y="-426" font-family="Ubuntu" font-size="10.00">BOARD_ERROR</text>
<polygon fill="#b2df8a" stroke="transparent" points="625.5,-421 625.5,-436 636.5,-436 636.5,-421 625.5,-421"/>
<text text-anchor="start" x="627.5" y="-426" font-family="Ubuntu" font-size="10.00">2</text>
<polygon fill="none" stroke="black" points="505.5,-420 505.5,-482 637.5,-482 637.5,-420 505.5,-420"/>
</a>
</g>
</g>
<!-- Node_Ja_101 -->
<g id="node3" class="node">
<title>Node_Ja_101</title>
<g id="a_node3"><a xlink:title="ChannelType">
<polygon fill="#b2df8a" stroke="transparent" points="714,-293 714,-505 845,-505 845,-293 714,-293"/>
<polygon fill="#33a02c" stroke="transparent" points="715.5,-489 715.5,-504 844.5,-504 844.5,-489 715.5,-489"/>
<text text-anchor="start" x="752.5" y="-495" font-family="Ubuntu" font-size="10.00">enum </text>
<text text-anchor="start" x="780.5" y="-495" font-family="Ubuntu" font-weight="bold" font-size="10.00">ChannelType</text>
<polygon fill="#b2df8a" stroke="transparent" points="715.5,-474 715.5,-489 827.5,-489 827.5,-474 715.5,-474"/>
<text text-anchor="start" x="717.5" y="-479" font-family="Ubuntu" font-size="10.00">GPIO</text>
<polygon fill="#b2df8a" stroke="transparent" points="827.5,-474 827.5,-489 844.5,-489 844.5,-474 827.5,-474"/>
<text text-anchor="start" x="829.5" y="-479" font-family="Ubuntu" font-size="10.00">0</text>
<polygon fill="#b2df8a" stroke="transparent" points="715.5,-459 715.5,-474 827.5,-474 827.5,-459 715.5,-459"/>
<text text-anchor="start" x="717.5" y="-464" font-family="Ubuntu" font-size="10.00">LED</text>
<polygon fill="#b2df8a" stroke="transparent" points="827.5,-459 827.5,-474 844.5,-474 844.5,-459 827.5,-459"/>
<text text-anchor="start" x="829.5" y="-464" font-family="Ubuntu" font-size="10.00">1</text>
<polygon fill="#b2df8a" stroke="transparent" points="715.5,-444 715.5,-459 827.5,-459 827.5,-444 715.5,-444"/>
<text text-anchor="start" x="717.5" y="-449" font-family="Ubuntu" font-size="10.00">RAIL_3V3</text>
<polygon fill="#b2df8a" stroke="transparent" points="827.5,-444 827.5,-459 844.5,-459 844.5,-444 827.5,-444"/>
<text text-anchor="start" x="829.5" y="-449" font-family="Ubuntu" font-size="10.00">2</text>
<polygon fill="#b2df8a" stroke="transparent" points="715.5,-429 715.5,-444 827.5,-444 827.5,-429 715.5,-429"/>
<text text-anchor="start" x="717.5" y="-434" font-family="Ubuntu" font-size="10.00">RAIL_5V</text>
<polygon fill="#b2df8a" stroke="transparent" points="827.5,-429 827.5,-444 844.5,-444 844.5,-429 827.5,-429"/>
<text text-anchor="start" x="829.5" y="-434" font-family="Ubuntu" font-size="10.00">3</text>
<polygon fill="#b2df8a" stroke="transparent" points="715.5,-414 715.5,-429 827.5,-429 827.5,-414 715.5,-414"/>
<text text-anchor="start" x="717.5" y="-419" font-family="Ubuntu" font-size="10.00">RAIL_5V5</text>
<polygon fill="#b2df8a" stroke="transparent" points="827.5,-414 827.5,-429 844.5,-429 844.5,-414 827.5,-414"/>
<text text-anchor="start" x="829.5" y="-419" font-family="Ubuntu" font-size="10.00">4</text>
<polygon fill="#b2df8a" stroke="transparent" points="715.5,-399 715.5,-414 827.5,-414 827.5,-399 715.5,-399"/>
<text text-anchor="start" x="717.5" y="-404" font-family="Ubuntu" font-size="10.00">RAIL_24V</text>
<polygon fill="#b2df8a" stroke="transparent" points="827.5,-399 827.5,-414 844.5,-414 844.5,-399 827.5,-399"/>
<text text-anchor="start" x="829.5" y="-404" font-family="Ubuntu" font-size="10.00">5</text>
<polygon fill="#b2df8a" stroke="transparent" points="715.5,-384 715.5,-399 827.5,-399 827.5,-384 715.5,-384"/>
<text text-anchor="start" x="717.5" y="-389" font-family="Ubuntu" font-size="10.00">CURRENT_LOOP</text>
<polygon fill="#b2df8a" stroke="transparent" points="827.5,-384 827.5,-399 844.5,-399 844.5,-384 827.5,-384"/>
<text text-anchor="start" x="829.5" y="-389" font-family="Ubuntu" font-size="10.00">6</text>
<polygon fill="#b2df8a" stroke="transparent" points="715.5,-369 715.5,-384 827.5,-384 827.5,-369 715.5,-369"/>
<text text-anchor="start" x="717.5" y="-374" font-family="Ubuntu" font-size="10.00">DIFFERENTIAL_SIGNAL</text>
<polygon fill="#b2df8a" stroke="transparent" points="827.5,-369 827.5,-384 844.5,-384 844.5,-369 827.5,-369"/>
<text text-anchor="start" x="829.5" y="-374" font-family="Ubuntu" font-size="10.00">7</text>
<polygon fill="#b2df8a" stroke="transparent" points="715.5,-354 715.5,-369 827.5,-369 827.5,-354 715.5,-354"/>
<text text-anchor="start" x="717.5" y="-359" font-family="Ubuntu" font-size="10.00">TC</text>
<polygon fill="#b2df8a" stroke="transparent" points="827.5,-354 827.5,-369 844.5,-369 844.5,-354 827.5,-354"/>
<text text-anchor="start" x="829.5" y="-359" font-family="Ubuntu" font-size="10.00">8</text>
<polygon fill="#b2df8a" stroke="transparent" points="715.5,-339 715.5,-354 827.5,-354 827.5,-339 715.5,-339"/>
<text text-anchor="start" x="717.5" y="-344" font-family="Ubuntu" font-size="10.00">RTD</text>
<polygon fill="#b2df8a" stroke="transparent" points="827.5,-339 827.5,-354 844.5,-354 844.5,-339 827.5,-339"/>
<text text-anchor="start" x="829.5" y="-344" font-family="Ubuntu" font-size="10.00">9</text>
<polygon fill="#b2df8a" stroke="transparent" points="715.5,-324 715.5,-339 827.5,-339 827.5,-324 715.5,-324"/>
<text text-anchor="start" x="717.5" y="-329" font-family="Ubuntu" font-size="10.00">VALVE</text>
<polygon fill="#b2df8a" stroke="transparent" points="827.5,-324 827.5,-339 844.5,-339 844.5,-324 827.5,-324"/>
<text text-anchor="start" x="829.5" y="-329" font-family="Ubuntu" font-size="10.00">10</text>
<polygon fill="#b2df8a" stroke="transparent" points="715.5,-309 715.5,-324 827.5,-324 827.5,-309 715.5,-309"/>
<text text-anchor="start" x="717.5" y="-314" font-family="Ubuntu" font-size="10.00">VALVE_CURRENT</text>
<polygon fill="#b2df8a" stroke="transparent" points="827.5,-309 827.5,-324 844.5,-324 844.5,-309 827.5,-309"/>
<text text-anchor="start" x="829.5" y="-314" font-family="Ubuntu" font-size="10.00">11</text>
<polygon fill="#b2df8a" stroke="transparent" points="715.5,-294 715.5,-309 827.5,-309 827.5,-294 715.5,-294"/>
<text text-anchor="start" x="717.5" y="-299" font-family="Ubuntu" font-size="10.00">VALVE_VOLTAGE</text>
<polygon fill="#b2df8a" stroke="transparent" points="827.5,-294 827.5,-309 844.5,-309 844.5,-294 827.5,-294"/>
<text text-anchor="start" x="829.5" y="-299" font-family="Ubuntu" font-size="10.00">12</text>
<polygon fill="none" stroke="black" points="714,-293 714,-505 845,-505 845,-293 714,-293"/>
</a>
</g>
</g>
<!-- Node_Ja_102 -->
<g id="node4" class="node">
<title>Node_Ja_102</title>
<g id="a_node4"><a xlink:title="ValveState">
<polygon fill="#b2df8a" stroke="transparent" points="734.5,-219.5 734.5,-266.5 824.5,-266.5 824.5,-219.5 734.5,-219.5"/>
<polygon fill="#33a02c" stroke="transparent" points="735.5,-250 735.5,-265 823.5,-265 823.5,-250 735.5,-250"/>
<text text-anchor="start" x="740.5" y="-256" font-family="Ubuntu" font-size="10.00">enum </text>
<text text-anchor="start" x="768.5" y="-256" font-family="Ubuntu" font-weight="bold" font-size="10.00">ValveState</text>
<polygon fill="#b2df8a" stroke="transparent" points="735.5,-235 735.5,-250 812.5,-250 812.5,-235 735.5,-235"/>
<text text-anchor="start" x="737.5" y="-240" font-family="Ubuntu" font-size="10.00">VALVE_OPEN</text>
<polygon fill="#b2df8a" stroke="transparent" points="812.5,-235 812.5,-250 823.5,-250 823.5,-235 812.5,-235"/>
<text text-anchor="start" x="814.5" y="-240" font-family="Ubuntu" font-size="10.00">0</text>
<polygon fill="#b2df8a" stroke="transparent" points="735.5,-220 735.5,-235 812.5,-235 812.5,-220 735.5,-220"/>
<text text-anchor="start" x="737.5" y="-225" font-family="Ubuntu" font-size="10.00">VALVE_CLOSED</text>
<polygon fill="#b2df8a" stroke="transparent" points="812.5,-220 812.5,-235 823.5,-235 823.5,-220 812.5,-220"/>
<text text-anchor="start" x="814.5" y="-225" font-family="Ubuntu" font-size="10.00">1</text>
<polygon fill="none" stroke="black" points="734.5,-219.5 734.5,-266.5 824.5,-266.5 824.5,-219.5 734.5,-219.5"/>
</a>
</g>
</g>
<!-- Node_Ja_103 -->
<g id="node5" class="node">
<title>Node_Ja_103</title>
<g id="a_node5"><a xlink:title="LEDState">
<polygon fill="#b2df8a" stroke="transparent" points="739.5,-146.5 739.5,-193.5 819.5,-193.5 819.5,-146.5 739.5,-146.5"/>
<polygon fill="#33a02c" stroke="transparent" points="740.5,-177 740.5,-192 818.5,-192 818.5,-177 740.5,-177"/>
<text text-anchor="start" x="742.5" y="-183" font-family="Ubuntu" font-size="10.00">enum </text>
<text text-anchor="start" x="770.5" y="-183" font-family="Ubuntu" font-weight="bold" font-size="10.00">LEDState</text>
<polygon fill="#b2df8a" stroke="transparent" points="740.5,-162 740.5,-177 797.5,-177 797.5,-162 740.5,-162"/>
<text text-anchor="start" x="742.5" y="-167" font-family="Ubuntu" font-size="10.00">LED_OFF</text>
<polygon fill="#b2df8a" stroke="transparent" points="797.5,-162 797.5,-177 818.5,-177 818.5,-162 797.5,-162"/>
<text text-anchor="start" x="799.5" y="-167" font-family="Ubuntu" font-size="10.00">0</text>
<polygon fill="#b2df8a" stroke="transparent" points="740.5,-147 740.5,-162 797.5,-162 797.5,-147 740.5,-147"/>
<text text-anchor="start" x="742.5" y="-152" font-family="Ubuntu" font-size="10.00">LED_ON</text>
<polygon fill="#b2df8a" stroke="transparent" points="797.5,-147 797.5,-162 818.5,-162 818.5,-147 797.5,-147"/>
<text text-anchor="start" x="799.5" y="-152" font-family="Ubuntu" font-size="10.00">1</text>
<polygon fill="none" stroke="black" points="739.5,-146.5 739.5,-193.5 819.5,-193.5 819.5,-146.5 739.5,-146.5"/>
</a>
</g>
</g>
<!-- Node_Ja_104 -->
<g id="node6" class="node">
<title>Node_Ja_104</title>
<g id="a_node6"><a xlink:title="BoardType">
<polygon fill="#b2df8a" stroke="transparent" points="720.5,-43.5 720.5,-120.5 838.5,-120.5 838.5,-43.5 720.5,-43.5"/>
<polygon fill="#33a02c" stroke="transparent" points="721.5,-104 721.5,-119 837.5,-119 837.5,-104 721.5,-104"/>
<text text-anchor="start" x="756.5" y="-110" font-family="Ubuntu" font-size="10.00">enum </text>
<text text-anchor="start" x="784.5" y="-110" font-family="Ubuntu" font-weight="bold" font-size="10.00">BoardType</text>
<polygon fill="#b2df8a" stroke="transparent" points="721.5,-89 721.5,-104 826.5,-104 826.5,-89 721.5,-89"/>
<text text-anchor="start" x="723.5" y="-94" font-family="Ubuntu" font-size="10.00">SERVER</text>
<polygon fill="#b2df8a" stroke="transparent" points="826.5,-89 826.5,-104 837.5,-104 837.5,-89 826.5,-89"/>
<text text-anchor="start" x="828.5" y="-94" font-family="Ubuntu" font-size="10.00">0</text>
<polygon fill="#b2df8a" stroke="transparent" points="721.5,-74 721.5,-89 826.5,-89 826.5,-74 721.5,-74"/>
<text text-anchor="start" x="723.5" y="-79" font-family="Ubuntu" font-size="10.00">FLIGHT_COMPUTER</text>
<polygon fill="#b2df8a" stroke="transparent" points="826.5,-74 826.5,-89 837.5,-89 837.5,-74 826.5,-74"/>
<text text-anchor="start" x="828.5" y="-79" font-family="Ubuntu" font-size="10.00">1</text>
<polygon fill="#b2df8a" stroke="transparent" points="721.5,-59 721.5,-74 826.5,-74 826.5,-59 721.5,-59"/>
<text text-anchor="start" x="723.5" y="-64" font-family="Ubuntu" font-size="10.00">GROUND_COMPUTER</text>
<polygon fill="#b2df8a" stroke="transparent" points="826.5,-59 826.5,-74 837.5,-74 837.5,-59 826.5,-59"/>
<text text-anchor="start" x="828.5" y="-64" font-family="Ubuntu" font-size="10.00">2</text>
<polygon fill="#b2df8a" stroke="transparent" points="721.5,-44 721.5,-59 826.5,-59 826.5,-44 721.5,-44"/>
<text text-anchor="start" x="723.5" y="-49" font-family="Ubuntu" font-size="10.00">SAM</text>
<polygon fill="#b2df8a" stroke="transparent" points="826.5,-44 826.5,-59 837.5,-59 837.5,-44 826.5,-44"/>
<text text-anchor="start" x="828.5" y="-49" font-family="Ubuntu" font-size="10.00">3</text>
<polygon fill="none" stroke="black" points="720.5,-43.5 720.5,-120.5 838.5,-120.5 838.5,-43.5 720.5,-43.5"/>
</a>
</g>
</g>
<!-- Node_Ja_105 -->
<g id="node7" class="node">
<title>Node_Ja_105</title>
<g id="a_node7"><a xlink:title="mcfs.status.Status">
<polygon fill="#fffaf0" stroke="transparent" points="8,-289 8,-385 176,-385 176,-289 8,-289"/>
<polygon fill="#e31a1c" stroke="transparent" points="9,-369 9,-384 175,-384 175,-369 9,-369"/>
<text text-anchor="start" x="142" y="-375" font-family="Ubuntu" font-weight="bold" font-size="10.00">Status</text>
<text text-anchor="start" x="15" y="-359" font-family="Ubuntu" font-size="10.00">1</text>
<text text-anchor="start" x="26" y="-359" font-family="Ubuntu" font-size="10.00">status_message</text>
<polygon fill="#a6cee3" stroke="transparent" points="101,-354 101,-369 175,-369 175,-354 101,-354"/>
<text text-anchor="start" x="148" y="-360" font-family="Ubuntu" font-style="italic" font-size="10.00">string</text>
<polygon fill="#fdbf6f" stroke="transparent" points="9,-339 9,-354 175,-354 175,-339 9,-339"/>
<text text-anchor="start" x="11" y="-344" font-family="Ubuntu" font-size="10.00">status</text>
<polygon fill="#fdbf6f" stroke="transparent" points="9,-324 9,-339 13,-339 13,-324 9,-324"/>
<text text-anchor="start" x="15" y="-329" font-family="Ubuntu" font-size="10.00">2</text>
<text text-anchor="start" x="26" y="-329" font-family="Ubuntu" font-size="10.00">board_status</text>
<polygon fill="#fb9a99" stroke="transparent" points="101,-324 101,-339 175,-339 175,-324 101,-324"/>
<text text-anchor="start" x="114" y="-330" font-family="Ubuntu" font-weight="bold" font-size="10.00">BoardStatus</text>
<polygon fill="#fdbf6f" stroke="transparent" points="9,-309 9,-324 13,-324 13,-309 9,-309"/>
<text text-anchor="start" x="15" y="-314" font-family="Ubuntu" font-size="10.00">3</text>
<text text-anchor="start" x="26" y="-314" font-family="Ubuntu" font-size="10.00">channel_status</text>
<polygon fill="#fb9a99" stroke="transparent" points="101,-309 101,-324 175,-324 175,-309 101,-309"/>
<text text-anchor="start" x="103" y="-315" font-family="Ubuntu" font-weight="bold" font-size="10.00">ChannelStatus</text>
<polygon fill="#fdbf6f" stroke="transparent" points="9,-294 9,-309 13,-309 13,-294 9,-294"/>
<text text-anchor="start" x="15" y="-299" font-family="Ubuntu" font-size="10.00">4</text>
<text text-anchor="start" x="26" y="-299" font-family="Ubuntu" font-size="10.00">board_info</text>
<polygon fill="#fb9a99" stroke="transparent" points="101,-294 101,-309 175,-309 175,-294 101,-294"/>
<text text-anchor="start" x="125" y="-300" font-family="Ubuntu" font-weight="bold" font-size="10.00">BoardInfo</text>
<polygon fill="#fdbf6f" stroke="transparent" points="9,-290 9,-294 175,-294 175,-290 9,-290"/>
<polygon fill="none" stroke="black" points="8,-289 8,-385 176,-385 176,-289 8,-289"/>
</a>
</g>
</g>
<!-- Node_Ja_107 -->
<g id="node8" class="node">
<title>Node_Ja_107</title>
<g id="a_node8"><a xlink:title="mcfs.status.ChannelStatus">
<polygon fill="#fffaf0" stroke="transparent" points="228,-277.5 228,-324.5 429,-324.5 429,-277.5 228,-277.5"/>
<polygon fill="#e31a1c" stroke="transparent" points="229.5,-308 229.5,-323 428.5,-323 428.5,-308 229.5,-308"/>
<text text-anchor="start" x="356.5" y="-314" font-family="Ubuntu" font-weight="bold" font-size="10.00">ChannelStatus</text>
<text text-anchor="start" x="235.5" y="-298" font-family="Ubuntu" font-size="10.00">1</text>
<text text-anchor="start" x="246.5" y="-298" font-family="Ubuntu" font-size="10.00">channel</text>
<polygon fill="#fb9a99" stroke="transparent" points="285.5,-293 285.5,-308 428.5,-308 428.5,-293 285.5,-293"/>
<text text-anchor="start" x="287.5" y="-299" font-family="Ubuntu" font-weight="bold" font-size="10.00">mcfs.board.ChannelIdentifier</text>
<text text-anchor="start" x="235.5" y="-283" font-family="Ubuntu" font-size="10.00">2</text>
<text text-anchor="start" x="246.5" y="-283" font-family="Ubuntu" font-size="10.00">status</text>
<polygon fill="#b2df8a" stroke="transparent" points="285.5,-278 285.5,-293 428.5,-293 428.5,-278 285.5,-278"/>
<text text-anchor="start" x="336.5" y="-284" font-family="Ubuntu" text-decoration="underline" font-size="10.00">ChannelStatusCode</text>
<polygon fill="none" stroke="black" points="228,-277.5 228,-324.5 429,-324.5 429,-277.5 228,-277.5"/>
</a>
</g>
</g>
<!-- Node_Ja_105&#45;&gt;Node_Ja_107 -->
<g id="edge4" class="edge">
<title>Node_Ja_105:e&#45;&gt;Node_Ja_107:header</title>
<g id="a_edge4"><a xlink:title="Ja_105 &#45;&#45;&gt; Ja_107">
<path fill="none" stroke="#000000" d="M176,-316C195.51,-316 202.78,-316 218.27,-316"/>
<polygon fill="#000000" stroke="#000000" points="218.5,-319.5 228.5,-316 218.5,-312.5 218.5,-319.5"/>
</a>
</g>
</g>
<!-- Node_Ja_108 -->
<g id="node9" class="node">
<title>Node_Ja_108</title>
<g id="a_node9"><a xlink:title="mcfs.status.BoardInfo">
<polygon fill="#fffaf0" stroke="transparent" points="481,-96.5 481,-143.5 662,-143.5 662,-96.5 481,-96.5"/>
<polygon fill="#e31a1c" stroke="transparent" points="482.5,-127 482.5,-142 661.5,-142 661.5,-127 482.5,-127"/>
<text text-anchor="start" x="611.5" y="-133" font-family="Ubuntu" font-weight="bold" font-size="10.00">BoardInfo</text>
<text text-anchor="start" x="488.5" y="-117" font-family="Ubuntu" font-size="10.00">1</text>
<text text-anchor="start" x="499.5" y="-117" font-family="Ubuntu" font-size="10.00">board_id</text>
<polygon fill="#a6cee3" stroke="transparent" points="554.5,-112 554.5,-127 661.5,-127 661.5,-112 554.5,-112"/>
<text text-anchor="start" x="630.5" y="-118" font-family="Ubuntu" font-style="italic" font-size="10.00">uint32</text>
<text text-anchor="start" x="488.5" y="-102" font-family="Ubuntu" font-size="10.00">2</text>
<text text-anchor="start" x="499.5" y="-102" font-family="Ubuntu" font-size="10.00">board_type</text>
<polygon fill="#b2df8a" stroke="transparent" points="554.5,-97 554.5,-112 661.5,-112 661.5,-97 554.5,-97"/>
<text text-anchor="start" x="556.5" y="-103" font-family="Ubuntu" text-decoration="underline" font-size="10.00">mcfs.board.BoardType</text>
<polygon fill="none" stroke="black" points="481,-96.5 481,-143.5 662,-143.5 662,-96.5 481,-96.5"/>
</a>
</g>
</g>
<!-- Node_Ja_105&#45;&gt;Node_Ja_108 -->
<g id="edge5" class="edge">
<title>Node_Ja_105:e&#45;&gt;Node_Ja_108:header</title>
<g id="a_edge5"><a xlink:title="Ja_105 &#45;&#45;&gt; Ja_108">
<path fill="none" stroke="#000000" d="M176,-301C201.27,-301 198.78,-278.71 220,-265 326.15,-196.43 350.45,-138.15 471.45,-135.12"/>
<polygon fill="#000000" stroke="#000000" points="471.54,-138.62 481.5,-135 471.46,-131.62 471.54,-138.62"/>
</a>
</g>
</g>
<!-- Node_Ja_106 -->
<g id="node10" class="node">
<title>Node_Ja_106</title>
<g id="a_node10"><a xlink:title="mcfs.status.BoardStatus">
<polygon fill="#fffaf0" stroke="transparent" points="262,-412 262,-444 395,-444 395,-412 262,-412"/>
<polygon fill="#e31a1c" stroke="transparent" points="263.5,-428 263.5,-443 394.5,-443 394.5,-428 263.5,-428"/>
<text text-anchor="start" x="333.5" y="-434" font-family="Ubuntu" font-weight="bold" font-size="10.00">BoardStatus</text>
<text text-anchor="start" x="269.5" y="-418" font-family="Ubuntu" font-size="10.00">1</text>
<text text-anchor="start" x="280.5" y="-418" font-family="Ubuntu" font-size="10.00">status</text>
<polygon fill="#b2df8a" stroke="transparent" points="310.5,-413 310.5,-428 394.5,-428 394.5,-413 310.5,-413"/>
<text text-anchor="start" x="312.5" y="-419" font-family="Ubuntu" text-decoration="underline" font-size="10.00">BoardStatusCode</text>
<polygon fill="none" stroke="black" points="262,-412 262,-444 395,-444 395,-412 262,-412"/>
</a>
</g>
</g>
<!-- Node_Ja_105&#45;&gt;Node_Ja_106 -->
<g id="edge3" class="edge">
<title>Node_Ja_105:e&#45;&gt;Node_Ja_106:header</title>
<g id="a_edge3"><a xlink:title="Ja_105 &#45;&#45;&gt; Ja_106">
<path fill="none" stroke="#000000" d="M176,-331C232.8,-331 205.86,-423.67 252.52,-434.89"/>
<polygon fill="#000000" stroke="#000000" points="252.17,-438.38 262.5,-436 252.95,-431.42 252.17,-438.38"/>
</a>
</g>
</g>
<!-- Node_Ja_107&#45;&gt;Node_Ja_110 -->
<g id="edge8" class="edge">
<title>Node_Ja_107:e&#45;&gt;Node_Ja_110</title>
<g id="a_edge8"><a xlink:title="Ja_107 &#45;&#45;&gt; Ja_110">
<path fill="none" stroke="#008000" d="M429.5,-285C453.24,-285 452.57,-303.91 473,-316 477.08,-318.41 481.31,-320.81 485.6,-323.17"/>
<polygon fill="#008000" stroke="#008000" points="484.04,-326.3 494.51,-327.94 487.35,-320.13 484.04,-326.3"/>
</a>
</g>
</g>
<!-- Node_Ja_100 -->
<g id="node11" class="node">
<title>Node_Ja_100</title>
<g id="a_node11"><a xlink:title="mcfs.board.ChannelIdentifier">
<polygon fill="#fffaf0" stroke="transparent" points="498,-215 498,-277 645,-277 645,-215 498,-215"/>
<polygon fill="#e31a1c" stroke="transparent" points="499.5,-261 499.5,-276 644.5,-276 644.5,-261 499.5,-261"/>
<text text-anchor="start" x="557.5" y="-267" font-family="Ubuntu" font-weight="bold" font-size="10.00">ChannelIdentifier</text>
<text text-anchor="start" x="505.5" y="-251" font-family="Ubuntu" font-size="10.00">1</text>
<text text-anchor="start" x="516.5" y="-251" font-family="Ubuntu" font-size="10.00">board_id</text>
<polygon fill="#a6cee3" stroke="transparent" points="580.5,-246 580.5,-261 644.5,-261 644.5,-246 580.5,-246"/>
<text text-anchor="start" x="613.5" y="-252" font-family="Ubuntu" font-style="italic" font-size="10.00">uint32</text>
<text text-anchor="start" x="505.5" y="-236" font-family="Ubuntu" font-size="10.00">2</text>
<text text-anchor="start" x="516.5" y="-236" font-family="Ubuntu" font-size="10.00">channel_type</text>
<polygon fill="#b2df8a" stroke="transparent" points="580.5,-231 580.5,-246 644.5,-246 644.5,-231 580.5,-231"/>
<text text-anchor="start" x="582.5" y="-237" font-family="Ubuntu" text-decoration="underline" font-size="10.00">ChannelType</text>
<text text-anchor="start" x="505.5" y="-221" font-family="Ubuntu" font-size="10.00">3</text>
<text text-anchor="start" x="516.5" y="-221" font-family="Ubuntu" font-size="10.00">channel</text>
<polygon fill="#a6cee3" stroke="transparent" points="580.5,-216 580.5,-231 644.5,-231 644.5,-216 580.5,-216"/>
<text text-anchor="start" x="613.5" y="-222" font-family="Ubuntu" font-style="italic" font-size="10.00">uint32</text>
<polygon fill="none" stroke="black" points="498,-215 498,-277 645,-277 645,-215 498,-215"/>
</a>
</g>
</g>
<!-- Node_Ja_107&#45;&gt;Node_Ja_100 -->
<g id="edge7" class="edge">
<title>Node_Ja_107:e&#45;&gt;Node_Ja_100:header</title>
<g id="a_edge7"><a xlink:title="Ja_107 &#45;&#45;&gt; Ja_100">
<path fill="none" stroke="#000000" d="M429.5,-300C459.44,-300 464.11,-275.41 488.53,-270.03"/>
<polygon fill="#000000" stroke="#000000" points="488.91,-273.51 498.5,-269 488.19,-266.55 488.91,-273.51"/>
</a>
</g>
</g>
<!-- Node_Ja_108&#45;&gt;Node_Ja_104 -->
<g id="edge1" class="edge">
<title>Node_Ja_108:e&#45;&gt;Node_Ja_104</title>
<g id="a_edge1"><a xlink:title="Ja_108 &#45;&#45;&gt; Ja_104">
<path fill="none" stroke="#008000" d="M662.5,-104C675.49,-104 689.15,-102.65 702.36,-100.62"/>
<polygon fill="#008000" stroke="#008000" points="703.07,-104.06 712.35,-98.95 701.91,-97.15 703.07,-104.06"/>
</a>
</g>
</g>
<!-- Node_Ja_106&#45;&gt;Node_Ja_109 -->
<g id="edge6" class="edge">
<title>Node_Ja_106:e&#45;&gt;Node_Ja_109</title>
<g id="a_edge6"><a xlink:title="Ja_106 &#45;&#45;&gt; Ja_109">
<path fill="none" stroke="#008000" d="M395.5,-420C425.72,-420 458.44,-424.54 487.31,-430.14"/>
<polygon fill="#008000" stroke="#008000" points="486.86,-433.62 497.36,-432.16 488.24,-426.76 486.86,-433.62"/>
</a>
</g>
</g>
<!-- Node_Ja_100&#45;&gt;Node_Ja_101 -->
<g id="edge2" class="edge">
<title>Node_Ja_100:e&#45;&gt;Node_Ja_101</title>
<g id="a_edge2"><a xlink:title="Ja_100 &#45;&#45;&gt; Ja_101">
<path fill="none" stroke="#008000" d="M645.5,-238C654.44,-238 676.26,-261.92 699.69,-291.33"/>
<polygon fill="#008000" stroke="#008000" points="697.06,-293.64 706,-299.33 702.55,-289.31 697.06,-293.64"/>
</a>
</g>
</g>
</g>
</svg>
