<?xml version="1.0" encoding="UTF-8" standalone="no"?>
<!DOCTYPE svg PUBLIC "-//W3C//DTD SVG 1.1//EN"
 "http://www.w3.org/Graphics/SVG/1.1/DTD/svg11.dtd">
<!-- Generated by graphviz version 2.43.0 (0)
 -->
<!-- Title: protodot Pages: 1 -->
<svg width="876pt" height="577pt"
 viewBox="0.00 0.00 876.00 577.48" xmlns="http://www.w3.org/2000/svg" xmlns:xlink="http://www.w3.org/1999/xlink">
<g id="graph0" class="graph" transform="scale(1 1) rotate(0) translate(4 573.48)">
<title>protodot</title>
<g id="a_graph0"><a xlink:title="mcfs.status">
<text text-anchor="middle" x="434" y="-7.8" font-family="Times,serif" font-size="14.00">mcfs.status</text>
</a>
</g>
<g id="clust1" class="cluster">
<title>cluster_298dbc098f42</title>
<g id="a_clust1"><a xlink:title="mcfs.status">
<polygon fill="#caff70" stroke="black" points="468,-245 468,-530 644,-530 644,-245 468,-245"/>
<text text-anchor="middle" x="556" y="-514.8" font-family="Times,serif" font-size="14.00">mcfs.status</text>
</a>
</g>
</g>
<g id="clust2" class="cluster">
<title>cluster_aff9eb45ba08</title>
<g id="a_clust2"><a xlink:title="device.proto">
<polygon fill="#caff70" stroke="black" points="488,-128 488,-237 624,-237 624,-128 488,-128"/>
<text text-anchor="middle" x="556" y="-221.8" font-family="Times,serif" font-size="14.00">device.proto</text>
</a>
</g>
</g>
<g id="clust3" class="cluster">
<title>cluster_008970577f45</title>
<g id="a_clust3"><a xlink:title="mcfs.device">
<polygon fill="#caff70" stroke="black" points="685,-31 685,-480 860,-480 860,-31 685,-31"/>
<text text-anchor="middle" x="772.5" y="-464.8" font-family="Times,serif" font-size="14.00">mcfs.device</text>
</a>
</g>
</g>
<!-- Node_Ja_105 -->
<g id="node1" class="node">
<title>Node_Ja_105</title>
<g id="a_node1"><a xlink:title="mcfs.status.Status">
<polygon fill="#fffaf0" stroke="transparent" points="8,-328.5 8,-439.5 176,-439.5 176,-328.5 8,-328.5"/>
<polygon fill="#e31a1c" stroke="transparent" points="9,-423 9,-438 175,-438 175,-423 9,-423"/>
<text text-anchor="start" x="142" y="-429" font-family="Ubuntu" font-weight="bold" font-size="10.00">Status</text>
<text text-anchor="start" x="15" y="-413" font-family="Ubuntu" font-size="10.00">1</text>
<text text-anchor="start" x="26" y="-413" font-family="Ubuntu" font-size="10.00">status_message</text>
<polygon fill="#a6cee3" stroke="transparent" points="101,-408 101,-423 175,-423 175,-408 101,-408"/>
<text text-anchor="start" x="148" y="-414" font-family="Ubuntu" font-style="italic" font-size="10.00">string</text>
<polygon fill="#fdbf6f" stroke="transparent" points="9,-393 9,-408 175,-408 175,-393 9,-393"/>
<text text-anchor="start" x="11" y="-398" font-family="Ubuntu" font-size="10.00">status</text>
<polygon fill="#fdbf6f" stroke="transparent" points="9,-378 9,-393 13,-393 13,-378 9,-378"/>
<text text-anchor="start" x="15" y="-383" font-family="Ubuntu" font-size="10.00">2</text>
<text text-anchor="start" x="26" y="-383" font-family="Ubuntu" font-size="10.00">device_status</text>
<polygon fill="#fb9a99" stroke="transparent" points="101,-378 101,-393 175,-393 175,-378 101,-378"/>
<text text-anchor="start" x="109" y="-384" font-family="Ubuntu" font-weight="bold" font-size="10.00">DeviceStatus</text>
<polygon fill="#fdbf6f" stroke="transparent" points="9,-363 9,-378 13,-378 13,-363 9,-363"/>
<text text-anchor="start" x="15" y="-368" font-family="Ubuntu" font-size="10.00">3</text>
<text text-anchor="start" x="26" y="-368" font-family="Ubuntu" font-size="10.00">channel_status</text>
<polygon fill="#fb9a99" stroke="transparent" points="101,-363 101,-378 175,-378 175,-363 101,-363"/>
<text text-anchor="start" x="103" y="-369" font-family="Ubuntu" font-weight="bold" font-size="10.00">ChannelStatus</text>
<polygon fill="#fdbf6f" stroke="transparent" points="9,-348 9,-363 13,-363 13,-348 9,-348"/>
<text text-anchor="start" x="15" y="-353" font-family="Ubuntu" font-size="10.00">4</text>
<text text-anchor="start" x="26" y="-353" font-family="Ubuntu" font-size="10.00">node_status</text>
<polygon fill="#fb9a99" stroke="transparent" points="101,-348 101,-363 175,-363 175,-348 101,-348"/>
<text text-anchor="start" x="116" y="-354" font-family="Ubuntu" font-weight="bold" font-size="10.00">NodeStatus</text>
<polygon fill="#fdbf6f" stroke="transparent" points="9,-333 9,-348 13,-348 13,-333 9,-333"/>
<text text-anchor="start" x="15" y="-338" font-family="Ubuntu" font-size="10.00">5</text>
<text text-anchor="start" x="26" y="-338" font-family="Ubuntu" font-size="10.00">device_info</text>
<polygon fill="#fb9a99" stroke="transparent" points="101,-333 101,-348 175,-348 175,-333 101,-333"/>
<text text-anchor="start" x="121" y="-339" font-family="Ubuntu" font-weight="bold" font-size="10.00">DeviceInfo</text>
<polygon fill="#fdbf6f" stroke="transparent" points="9,-329 9,-333 175,-333 175,-329 9,-329"/>
<polygon fill="none" stroke="black" points="8,-328.5 8,-439.5 176,-439.5 176,-328.5 8,-328.5"/>
</a>
</g>
</g>
<!-- Node_Ja_109 -->
<g id="node2" class="node">
<title>Node_Ja_109</title>
<g id="a_node2"><a xlink:title="mcfs.status.DeviceInfo">
<polygon fill="#fffaf0" stroke="transparent" points="463,-66.5 463,-113.5 649,-113.5 649,-66.5 463,-66.5"/>
<polygon fill="#e31a1c" stroke="transparent" points="464,-97 464,-112 648,-112 648,-97 464,-97"/>
<text text-anchor="start" x="594" y="-103" font-family="Ubuntu" font-weight="bold" font-size="10.00">DeviceInfo</text>
<text text-anchor="start" x="470" y="-87" font-family="Ubuntu" font-size="10.00">1</text>
<text text-anchor="start" x="481" y="-87" font-family="Ubuntu" font-size="10.00">board_id</text>
<polygon fill="#a6cee3" stroke="transparent" points="538,-82 538,-97 648,-97 648,-82 538,-82"/>
<text text-anchor="start" x="617" y="-88" font-family="Ubuntu" font-style="italic" font-size="10.00">uint32</text>
<text text-anchor="start" x="470" y="-72" font-family="Ubuntu" font-size="10.00">2</text>
<text text-anchor="start" x="481" y="-72" font-family="Ubuntu" font-size="10.00">device_type</text>
<polygon fill="#b2df8a" stroke="transparent" points="538,-67 538,-82 648,-82 648,-67 538,-67"/>
<text text-anchor="start" x="540" y="-73" font-family="Ubuntu" text-decoration="underline" font-size="10.00">mcfs.device.DeviceType</text>
<polygon fill="none" stroke="black" points="463,-66.5 463,-113.5 649,-113.5 649,-66.5 463,-66.5"/>
</a>
</g>
</g>
<!-- Node_Ja_105&#45;&gt;Node_Ja_109 -->
<g id="edge4" class="edge">
<title>Node_Ja_105:e&#45;&gt;Node_Ja_109:header</title>
<g id="a_edge4"><a xlink:title="Ja_105 &#45;&#45;&gt; Ja_109">
<path fill="none" stroke="#000000" d="M176,-340C213.88,-340 193.83,-294.39 220,-267 307.3,-175.62 331.91,-108.61 452.95,-105.14"/>
<polygon fill="#000000" stroke="#000000" points="453.05,-108.64 463,-105 452.95,-101.64 453.05,-108.64"/>
</a>
</g>
</g>
<!-- Node_Ja_107 -->
<g id="node3" class="node">
<title>Node_Ja_107</title>
<g id="a_node3"><a xlink:title="mcfs.status.ChannelStatus">
<polygon fill="#fffaf0" stroke="transparent" points="242.5,-368.5 242.5,-415.5 396.5,-415.5 396.5,-368.5 242.5,-368.5"/>
<polygon fill="#e31a1c" stroke="transparent" points="243.5,-399 243.5,-414 395.5,-414 395.5,-399 243.5,-399"/>
<text text-anchor="start" x="323.5" y="-405" font-family="Ubuntu" font-weight="bold" font-size="10.00">ChannelStatus</text>
<text text-anchor="start" x="249.5" y="-389" font-family="Ubuntu" font-size="10.00">1</text>
<text text-anchor="start" x="260.5" y="-389" font-family="Ubuntu" font-size="10.00">channel</text>
<polygon fill="#b2df8a" stroke="transparent" points="299.5,-384 299.5,-399 395.5,-399 395.5,-384 299.5,-384"/>
<text text-anchor="start" x="301.5" y="-390" font-family="Ubuntu" text-decoration="underline" font-size="10.00">mcfs.device.Channel</text>
<text text-anchor="start" x="249.5" y="-374" font-family="Ubuntu" font-size="10.00">2</text>
<text text-anchor="start" x="260.5" y="-374" font-family="Ubuntu" font-size="10.00">status</text>
<polygon fill="#b2df8a" stroke="transparent" points="299.5,-369 299.5,-384 395.5,-384 395.5,-369 299.5,-369"/>
<text text-anchor="start" x="303.5" y="-375" font-family="Ubuntu" text-decoration="underline" font-size="10.00">ChannelStatusCode</text>
<polygon fill="none" stroke="black" points="242.5,-368.5 242.5,-415.5 396.5,-415.5 396.5,-368.5 242.5,-368.5"/>
</a>
</g>
</g>
<!-- Node_Ja_105&#45;&gt;Node_Ja_107 -->
<g id="edge3" class="edge">
<title>Node_Ja_105:e&#45;&gt;Node_Ja_107:header</title>
<g id="a_edge3"><a xlink:title="Ja_105 &#45;&#45;&gt; Ja_107">
<path fill="none" stroke="#000000" d="M176,-370C206.12,-370 208.51,-399.35 232.57,-405.77"/>
<polygon fill="#000000" stroke="#000000" points="232.15,-409.24 242.5,-407 233.01,-402.3 232.15,-409.24"/>
</a>
</g>
</g>
<!-- Node_Ja_108 -->
<g id="node4" class="node">
<title>Node_Ja_108</title>
<g id="a_node4"><a xlink:title="mcfs.status.NodeStatus">
<polygon fill="#fffaf0" stroke="transparent" points="228,-280.5 228,-327.5 411,-327.5 411,-280.5 228,-280.5"/>
<polygon fill="#e31a1c" stroke="transparent" points="229.5,-311 229.5,-326 410.5,-326 410.5,-311 229.5,-311"/>
<text text-anchor="start" x="351.5" y="-317" font-family="Ubuntu" font-weight="bold" font-size="10.00">NodeStatus</text>
<text text-anchor="start" x="235.5" y="-301" font-family="Ubuntu" font-size="10.00">1</text>
<text text-anchor="start" x="246.5" y="-301" font-family="Ubuntu" font-size="10.00">node</text>
<polygon fill="#fb9a99" stroke="transparent" points="276.5,-296 276.5,-311 410.5,-311 410.5,-296 276.5,-296"/>
<text text-anchor="start" x="278.5" y="-302" font-family="Ubuntu" font-weight="bold" font-size="10.00">mcfs.device.NodeIdentifier</text>
<text text-anchor="start" x="235.5" y="-286" font-family="Ubuntu" font-size="10.00">2</text>
<text text-anchor="start" x="246.5" y="-286" font-family="Ubuntu" font-size="10.00">status</text>
<polygon fill="#b2df8a" stroke="transparent" points="276.5,-281 276.5,-296 410.5,-296 410.5,-281 276.5,-281"/>
<text text-anchor="start" x="331.5" y="-287" font-family="Ubuntu" text-decoration="underline" font-size="10.00">NodeStatusCode</text>
<polygon fill="none" stroke="black" points="228,-280.5 228,-327.5 411,-327.5 411,-280.5 228,-280.5"/>
</a>
</g>
</g>
<!-- Node_Ja_105&#45;&gt;Node_Ja_108 -->
<g id="edge8" class="edge">
<title>Node_Ja_105:e&#45;&gt;Node_Ja_108:header</title>
<g id="a_edge8"><a xlink:title="Ja_105 &#45;&#45;&gt; Ja_108">
<path fill="none" stroke="#000000" d="M176,-355C200.31,-355 200.72,-328.41 218.3,-320.94"/>
<polygon fill="#000000" stroke="#000000" points="219.33,-324.3 228.5,-319 218.02,-317.43 219.33,-324.3"/>
</a>
</g>
</g>
<!-- Node_Ja_106 -->
<g id="node5" class="node">
<title>Node_Ja_106</title>
<g id="a_node5"><a xlink:title="mcfs.status.DeviceStatus">
<polygon fill="#fffaf0" stroke="transparent" points="252,-449 252,-481 387,-481 387,-449 252,-449"/>
<polygon fill="#e31a1c" stroke="transparent" points="253.5,-465 253.5,-480 386.5,-480 386.5,-465 253.5,-465"/>
<text text-anchor="start" x="320.5" y="-471" font-family="Ubuntu" font-weight="bold" font-size="10.00">DeviceStatus</text>
<text text-anchor="start" x="259.5" y="-455" font-family="Ubuntu" font-size="10.00">1</text>
<text text-anchor="start" x="270.5" y="-455" font-family="Ubuntu" font-size="10.00">status</text>
<polygon fill="#b2df8a" stroke="transparent" points="300.5,-450 300.5,-465 386.5,-465 386.5,-450 300.5,-450"/>
<text text-anchor="start" x="302.5" y="-456" font-family="Ubuntu" text-decoration="underline" font-size="10.00">DeviceStatusCode</text>
<polygon fill="none" stroke="black" points="252,-449 252,-481 387,-481 387,-449 252,-449"/>
</a>
</g>
</g>
<!-- Node_Ja_105&#45;&gt;Node_Ja_106 -->
<g id="edge2" class="edge">
<title>Node_Ja_105:e&#45;&gt;Node_Ja_106:header</title>
<g id="a_edge2"><a xlink:title="Ja_105 &#45;&#45;&gt; Ja_106">
<path fill="none" stroke="#000000" d="M176,-386C223.67,-386 204.51,-460.57 242.26,-471.63"/>
<polygon fill="#000000" stroke="#000000" points="242.12,-475.15 252.5,-473 243.05,-468.21 242.12,-475.15"/>
</a>
</g>
</g>
<!-- Node_Ja_104 -->
<g id="node13" class="node">
<title>Node_Ja_104</title>
<g id="a_node13"><a xlink:title="DeviceType">
<polygon fill="#b2df8a" stroke="transparent" points="718,-43 718,-105 827,-105 827,-43 718,-43"/>
<polygon fill="#33a02c" stroke="transparent" points="719.5,-89 719.5,-104 826.5,-104 826.5,-89 719.5,-89"/>
<text text-anchor="start" x="741.5" y="-95" font-family="Ubuntu" font-size="10.00">enum </text>
<text text-anchor="start" x="769.5" y="-95" font-family="Ubuntu" font-weight="bold" font-size="10.00">DeviceType</text>
<polygon fill="#b2df8a" stroke="transparent" points="719.5,-74 719.5,-89 815.5,-89 815.5,-74 719.5,-74"/>
<text text-anchor="start" x="721.5" y="-79" font-family="Ubuntu" font-size="10.00">SERVER</text>
<polygon fill="#b2df8a" stroke="transparent" points="815.5,-74 815.5,-89 826.5,-89 826.5,-74 815.5,-74"/>
<text text-anchor="start" x="817.5" y="-79" font-family="Ubuntu" font-size="10.00">0</text>
<polygon fill="#b2df8a" stroke="transparent" points="719.5,-59 719.5,-74 815.5,-74 815.5,-59 719.5,-59"/>
<text text-anchor="start" x="721.5" y="-64" font-family="Ubuntu" font-size="10.00">FLIGHT_COMPUTER</text>
<polygon fill="#b2df8a" stroke="transparent" points="815.5,-59 815.5,-74 826.5,-74 826.5,-59 815.5,-59"/>
<text text-anchor="start" x="817.5" y="-64" font-family="Ubuntu" font-size="10.00">1</text>
<polygon fill="#b2df8a" stroke="transparent" points="719.5,-44 719.5,-59 815.5,-59 815.5,-44 719.5,-44"/>
<text text-anchor="start" x="721.5" y="-49" font-family="Ubuntu" font-size="10.00">SAM</text>
<polygon fill="#b2df8a" stroke="transparent" points="815.5,-44 815.5,-59 826.5,-59 826.5,-44 815.5,-44"/>
<text text-anchor="start" x="817.5" y="-49" font-family="Ubuntu" font-size="10.00">2</text>
<polygon fill="none" stroke="black" points="718,-43 718,-105 827,-105 827,-43 718,-43"/>
</a>
</g>
</g>
<!-- Node_Ja_109&#45;&gt;Node_Ja_104 -->
<g id="edge11" class="edge">
<title>Node_Ja_109:e&#45;&gt;Node_Ja_104</title>
<g id="a_edge11"><a xlink:title="Ja_109 &#45;&#45;&gt; Ja_104">
<path fill="none" stroke="#008000" d="M649,-74C665.38,-74 682.99,-74 699.61,-74"/>
<polygon fill="#008000" stroke="#008000" points="699.81,-77.5 709.81,-74 699.81,-70.5 699.81,-77.5"/>
</a>
</g>
</g>
<!-- Node_Ja_111 -->
<g id="node6" class="node">
<title>Node_Ja_111</title>
<g id="a_node6"><a xlink:title="ChannelStatusCode">
<polygon fill="#b2df8a" stroke="transparent" points="484,-345 484,-407 628,-407 628,-345 484,-345"/>
<polygon fill="#33a02c" stroke="transparent" points="485,-391 485,-406 627,-406 627,-391 485,-391"/>
<text text-anchor="start" x="503" y="-397" font-family="Ubuntu" font-size="10.00">enum </text>
<text text-anchor="start" x="531" y="-397" font-family="Ubuntu" font-weight="bold" font-size="10.00">ChannelStatusCode</text>
<polygon fill="#b2df8a" stroke="transparent" points="485,-376 485,-391 616,-391 616,-376 485,-376"/>
<text text-anchor="start" x="487" y="-381" font-family="Ubuntu" font-size="10.00">CHANNEL_CONNECTED</text>
<polygon fill="#b2df8a" stroke="transparent" points="616,-376 616,-391 627,-391 627,-376 616,-376"/>
<text text-anchor="start" x="618" y="-381" font-family="Ubuntu" font-size="10.00">0</text>
<polygon fill="#b2df8a" stroke="transparent" points="485,-361 485,-376 616,-376 616,-361 485,-361"/>
<text text-anchor="start" x="487" y="-366" font-family="Ubuntu" font-size="10.00">CHANNEL_DISCONNECTED</text>
<polygon fill="#b2df8a" stroke="transparent" points="616,-361 616,-376 627,-376 627,-361 616,-361"/>
<text text-anchor="start" x="618" y="-366" font-family="Ubuntu" font-size="10.00">1</text>
<polygon fill="#b2df8a" stroke="transparent" points="485,-346 485,-361 616,-361 616,-346 485,-346"/>
<text text-anchor="start" x="487" y="-351" font-family="Ubuntu" font-size="10.00">CHANNEL_ERROR</text>
<polygon fill="#b2df8a" stroke="transparent" points="616,-346 616,-361 627,-361 627,-346 616,-346"/>
<text text-anchor="start" x="618" y="-351" font-family="Ubuntu" font-size="10.00">2</text>
<polygon fill="none" stroke="black" points="484,-345 484,-407 628,-407 628,-345 484,-345"/>
</a>
</g>
</g>
<!-- Node_Ja_107&#45;&gt;Node_Ja_111 -->
<g id="edge7" class="edge">
<title>Node_Ja_107:e&#45;&gt;Node_Ja_111</title>
<g id="a_edge7"><a xlink:title="Ja_107 &#45;&#45;&gt; Ja_111">
<path fill="none" stroke="#008000" d="M396.5,-376C418.93,-376 443.15,-376 465.74,-376"/>
<polygon fill="#008000" stroke="#008000" points="465.99,-379.5 475.99,-376 465.99,-372.5 465.99,-379.5"/>
</a>
</g>
</g>
<!-- Node_Ja_101 -->
<g id="node10" class="node">
<title>Node_Ja_101</title>
<g id="a_node10"><a xlink:title="Channel">
<polygon fill="#b2df8a" stroke="transparent" points="701,-277.5 701,-444.5 844,-444.5 844,-277.5 701,-277.5"/>
<polygon fill="#33a02c" stroke="transparent" points="702.5,-428 702.5,-443 843.5,-443 843.5,-428 702.5,-428"/>
<text text-anchor="start" x="773.5" y="-434" font-family="Ubuntu" font-size="10.00">enum </text>
<text text-anchor="start" x="801.5" y="-434" font-family="Ubuntu" font-weight="bold" font-size="10.00">Channel</text>
<polygon fill="#b2df8a" stroke="transparent" points="702.5,-413 702.5,-428 832.5,-428 832.5,-413 702.5,-413"/>
<text text-anchor="start" x="704.5" y="-418" font-family="Ubuntu" font-size="10.00">GPIO</text>
<polygon fill="#b2df8a" stroke="transparent" points="832.5,-413 832.5,-428 843.5,-428 843.5,-413 832.5,-413"/>
<text text-anchor="start" x="834.5" y="-418" font-family="Ubuntu" font-size="10.00">0</text>
<polygon fill="#b2df8a" stroke="transparent" points="702.5,-398 702.5,-413 832.5,-413 832.5,-398 702.5,-398"/>
<text text-anchor="start" x="704.5" y="-403" font-family="Ubuntu" font-size="10.00">LED</text>
<polygon fill="#b2df8a" stroke="transparent" points="832.5,-398 832.5,-413 843.5,-413 843.5,-398 832.5,-398"/>
<text text-anchor="start" x="834.5" y="-403" font-family="Ubuntu" font-size="10.00">1</text>
<polygon fill="#b2df8a" stroke="transparent" points="702.5,-383 702.5,-398 832.5,-398 832.5,-383 702.5,-383"/>
<text text-anchor="start" x="704.5" y="-388" font-family="Ubuntu" font-size="10.00">RAIL_3V3</text>
<polygon fill="#b2df8a" stroke="transparent" points="832.5,-383 832.5,-398 843.5,-398 843.5,-383 832.5,-383"/>
<text text-anchor="start" x="834.5" y="-388" font-family="Ubuntu" font-size="10.00">2</text>
<polygon fill="#b2df8a" stroke="transparent" points="702.5,-368 702.5,-383 832.5,-383 832.5,-368 702.5,-368"/>
<text text-anchor="start" x="704.5" y="-373" font-family="Ubuntu" font-size="10.00">RAIL_5V</text>
<polygon fill="#b2df8a" stroke="transparent" points="832.5,-368 832.5,-383 843.5,-383 843.5,-368 832.5,-368"/>
<text text-anchor="start" x="834.5" y="-373" font-family="Ubuntu" font-size="10.00">3</text>
<polygon fill="#b2df8a" stroke="transparent" points="702.5,-353 702.5,-368 832.5,-368 832.5,-353 702.5,-353"/>
<text text-anchor="start" x="704.5" y="-358" font-family="Ubuntu" font-size="10.00">RAIL_5V5</text>
<polygon fill="#b2df8a" stroke="transparent" points="832.5,-353 832.5,-368 843.5,-368 843.5,-353 832.5,-353"/>
<text text-anchor="start" x="834.5" y="-358" font-family="Ubuntu" font-size="10.00">4</text>
<polygon fill="#b2df8a" stroke="transparent" points="702.5,-338 702.5,-353 832.5,-353 832.5,-338 702.5,-338"/>
<text text-anchor="start" x="704.5" y="-343" font-family="Ubuntu" font-size="10.00">RAIL_24V</text>
<polygon fill="#b2df8a" stroke="transparent" points="832.5,-338 832.5,-353 843.5,-353 843.5,-338 832.5,-338"/>
<text text-anchor="start" x="834.5" y="-343" font-family="Ubuntu" font-size="10.00">5</text>
<polygon fill="#b2df8a" stroke="transparent" points="702.5,-323 702.5,-338 832.5,-338 832.5,-323 702.5,-323"/>
<text text-anchor="start" x="704.5" y="-328" font-family="Ubuntu" font-size="10.00">CURRENT_LOOP</text>
<polygon fill="#b2df8a" stroke="transparent" points="832.5,-323 832.5,-338 843.5,-338 843.5,-323 832.5,-323"/>
<text text-anchor="start" x="834.5" y="-328" font-family="Ubuntu" font-size="10.00">6</text>
<polygon fill="#b2df8a" stroke="transparent" points="702.5,-308 702.5,-323 832.5,-323 832.5,-308 702.5,-308"/>
<text text-anchor="start" x="704.5" y="-313" font-family="Ubuntu" font-size="10.00">DIFFERENTIAL_SIGNAL</text>
<polygon fill="#b2df8a" stroke="transparent" points="832.5,-308 832.5,-323 843.5,-323 843.5,-308 832.5,-308"/>
<text text-anchor="start" x="834.5" y="-313" font-family="Ubuntu" font-size="10.00">7</text>
<polygon fill="#b2df8a" stroke="transparent" points="702.5,-293 702.5,-308 832.5,-308 832.5,-293 702.5,-293"/>
<text text-anchor="start" x="704.5" y="-298" font-family="Ubuntu" font-size="10.00">TEMPERATURE_DETECTOR</text>
<polygon fill="#b2df8a" stroke="transparent" points="832.5,-293 832.5,-308 843.5,-308 843.5,-293 832.5,-293"/>
<text text-anchor="start" x="834.5" y="-298" font-family="Ubuntu" font-size="10.00">8</text>
<polygon fill="#b2df8a" stroke="transparent" points="702.5,-278 702.5,-293 832.5,-293 832.5,-278 702.5,-278"/>
<text text-anchor="start" x="704.5" y="-283" font-family="Ubuntu" font-size="10.00">VALVE</text>
<polygon fill="#b2df8a" stroke="transparent" points="832.5,-278 832.5,-293 843.5,-293 843.5,-278 832.5,-278"/>
<text text-anchor="start" x="834.5" y="-283" font-family="Ubuntu" font-size="10.00">9</text>
<polygon fill="none" stroke="black" points="701,-277.5 701,-444.5 844,-444.5 844,-277.5 701,-277.5"/>
</a>
</g>
</g>
<!-- Node_Ja_107&#45;&gt;Node_Ja_101 -->
<g id="edge6" class="edge">
<title>Node_Ja_107:e&#45;&gt;Node_Ja_101</title>
<g id="a_edge6"><a xlink:title="Ja_107 &#45;&#45;&gt; Ja_101">
<path fill="none" stroke="#008000" d="M396.5,-391C465.17,-391 398.69,-494.7 455,-534 528.62,-585.38 577.92,-576.49 657,-534 688.33,-517.16 712.53,-487.57 730.43,-457.58"/>
<polygon fill="#008000" stroke="#008000" points="733.59,-459.1 735.55,-448.69 727.53,-455.61 733.59,-459.1"/>
</a>
</g>
</g>
<!-- Node_Ja_112 -->
<g id="node8" class="node">
<title>Node_Ja_112</title>
<g id="a_node8"><a xlink:title="NodeStatusCode">
<polygon fill="#b2df8a" stroke="transparent" points="493,-257 493,-319 619,-319 619,-257 493,-257"/>
<polygon fill="#33a02c" stroke="transparent" points="494,-303 494,-318 618,-318 618,-303 494,-303"/>
<text text-anchor="start" x="507" y="-309" font-family="Ubuntu" font-size="10.00">enum </text>
<text text-anchor="start" x="535" y="-309" font-family="Ubuntu" font-weight="bold" font-size="10.00">NodeStatusCode</text>
<polygon fill="#b2df8a" stroke="transparent" points="494,-288 494,-303 607,-303 607,-288 494,-288"/>
<text text-anchor="start" x="496" y="-293" font-family="Ubuntu" font-size="10.00">NODE_CONNECTED</text>
<polygon fill="#b2df8a" stroke="transparent" points="607,-288 607,-303 618,-303 618,-288 607,-288"/>
<text text-anchor="start" x="609" y="-293" font-family="Ubuntu" font-size="10.00">0</text>
<polygon fill="#b2df8a" stroke="transparent" points="494,-273 494,-288 607,-288 607,-273 494,-273"/>
<text text-anchor="start" x="496" y="-278" font-family="Ubuntu" font-size="10.00">NODE_DISCONNECTED</text>
<polygon fill="#b2df8a" stroke="transparent" points="607,-273 607,-288 618,-288 618,-273 607,-273"/>
<text text-anchor="start" x="609" y="-278" font-family="Ubuntu" font-size="10.00">1</text>
<polygon fill="#b2df8a" stroke="transparent" points="494,-258 494,-273 607,-273 607,-258 494,-258"/>
<text text-anchor="start" x="496" y="-263" font-family="Ubuntu" font-size="10.00">NODE_ERROR</text>
<polygon fill="#b2df8a" stroke="transparent" points="607,-258 607,-273 618,-273 618,-258 607,-258"/>
<text text-anchor="start" x="609" y="-263" font-family="Ubuntu" font-size="10.00">2</text>
<polygon fill="none" stroke="black" points="493,-257 493,-319 619,-319 619,-257 493,-257"/>
</a>
</g>
</g>
<!-- Node_Ja_108&#45;&gt;Node_Ja_112 -->
<g id="edge10" class="edge">
<title>Node_Ja_108:e&#45;&gt;Node_Ja_112</title>
<g id="a_edge10"><a xlink:title="Ja_108 &#45;&#45;&gt; Ja_112">
<path fill="none" stroke="#008000" d="M411.5,-288C432.05,-288 454.26,-288 474.93,-288"/>
<polygon fill="#008000" stroke="#008000" points="474.93,-291.5 484.93,-288 474.93,-284.5 474.93,-291.5"/>
</a>
</g>
</g>
<!-- Node_Ja_100 -->
<g id="node9" class="node">
<title>Node_Ja_100</title>
<g id="a_node9"><a xlink:title="mcfs.device.NodeIdentifier">
<polygon fill="#fffaf0" stroke="transparent" points="504,-140 504,-202 608,-202 608,-140 504,-140"/>
<polygon fill="#e31a1c" stroke="transparent" points="505,-186 505,-201 607,-201 607,-186 505,-186"/>
<text text-anchor="start" x="533" y="-192" font-family="Ubuntu" font-weight="bold" font-size="10.00">NodeIdentifier</text>
<text text-anchor="start" x="511" y="-176" font-family="Ubuntu" font-size="10.00">1</text>
<text text-anchor="start" x="522" y="-176" font-family="Ubuntu" font-size="10.00">board_id</text>
<polygon fill="#a6cee3" stroke="transparent" points="565,-171 565,-186 607,-186 607,-171 565,-171"/>
<text text-anchor="start" x="576" y="-177" font-family="Ubuntu" font-style="italic" font-size="10.00">uint32</text>
<text text-anchor="start" x="511" y="-161" font-family="Ubuntu" font-size="10.00">2</text>
<text text-anchor="start" x="522" y="-161" font-family="Ubuntu" font-size="10.00">channel</text>
<polygon fill="#b2df8a" stroke="transparent" points="565,-156 565,-171 607,-171 607,-156 565,-156"/>
<text text-anchor="start" x="567" y="-162" font-family="Ubuntu" text-decoration="underline" font-size="10.00">Channel</text>
<text text-anchor="start" x="511" y="-146" font-family="Ubuntu" font-size="10.00">3</text>
<text text-anchor="start" x="522" y="-146" font-family="Ubuntu" font-size="10.00">node_id</text>
<polygon fill="#a6cee3" stroke="transparent" points="565,-141 565,-156 607,-156 607,-141 565,-141"/>
<text text-anchor="start" x="576" y="-147" font-family="Ubuntu" font-style="italic" font-size="10.00">uint32</text>
<polygon fill="none" stroke="black" points="504,-140 504,-202 608,-202 608,-140 504,-140"/>
</a>
</g>
</g>
<!-- Node_Ja_108&#45;&gt;Node_Ja_100 -->
<g id="edge9" class="edge">
<title>Node_Ja_108:e&#45;&gt;Node_Ja_100:header</title>
<g id="a_edge9"><a xlink:title="Ja_108 &#45;&#45;&gt; Ja_100">
<path fill="none" stroke="#000000" d="M411.5,-303C445.16,-303 433.08,-266.55 455,-241 472.19,-220.96 473.71,-200.01 494.04,-195.08"/>
<polygon fill="#000000" stroke="#000000" points="494.44,-198.56 504,-194 493.68,-191.6 494.44,-198.56"/>
</a>
</g>
</g>
<!-- Node_Ja_110 -->
<g id="node7" class="node">
<title>Node_Ja_110</title>
<g id="a_node7"><a xlink:title="DeviceStatusCode">
<polygon fill="#b2df8a" stroke="transparent" points="489.5,-433 489.5,-495 622.5,-495 622.5,-433 489.5,-433"/>
<polygon fill="#33a02c" stroke="transparent" points="491,-479 491,-494 622,-494 622,-479 491,-479"/>
<text text-anchor="start" x="504" y="-485" font-family="Ubuntu" font-size="10.00">enum </text>
<text text-anchor="start" x="532" y="-485" font-family="Ubuntu" font-weight="bold" font-size="10.00">DeviceStatusCode</text>
<polygon fill="#b2df8a" stroke="transparent" points="491,-464 491,-479 611,-479 611,-464 491,-464"/>
<text text-anchor="start" x="493" y="-469" font-family="Ubuntu" font-size="10.00">DEVICE_CONNECTED</text>
<polygon fill="#b2df8a" stroke="transparent" points="611,-464 611,-479 622,-479 622,-464 611,-464"/>
<text text-anchor="start" x="613" y="-469" font-family="Ubuntu" font-size="10.00">0</text>
<polygon fill="#b2df8a" stroke="transparent" points="491,-449 491,-464 611,-464 611,-449 491,-449"/>
<text text-anchor="start" x="493" y="-454" font-family="Ubuntu" font-size="10.00">DEVICE_DISCONNECTED</text>
<polygon fill="#b2df8a" stroke="transparent" points="611,-449 611,-464 622,-464 622,-449 611,-449"/>
<text text-anchor="start" x="613" y="-454" font-family="Ubuntu" font-size="10.00">1</text>
<polygon fill="#b2df8a" stroke="transparent" points="491,-434 491,-449 611,-449 611,-434 491,-434"/>
<text text-anchor="start" x="493" y="-439" font-family="Ubuntu" font-size="10.00">DEVICE_ERROR</text>
<polygon fill="#b2df8a" stroke="transparent" points="611,-434 611,-449 622,-449 622,-434 611,-434"/>
<text text-anchor="start" x="613" y="-439" font-family="Ubuntu" font-size="10.00">2</text>
<polygon fill="none" stroke="black" points="489.5,-433 489.5,-495 622.5,-495 622.5,-433 489.5,-433"/>
</a>
</g>
</g>
<!-- Node_Ja_106&#45;&gt;Node_Ja_110 -->
<g id="edge5" class="edge">
<title>Node_Ja_106:e&#45;&gt;Node_Ja_110</title>
<g id="a_edge5"><a xlink:title="Ja_106 &#45;&#45;&gt; Ja_110">
<path fill="none" stroke="#008000" d="M387.5,-457C414.73,-457 444.42,-457.93 471.15,-459.12"/>
<polygon fill="#008000" stroke="#008000" points="471.08,-462.62 481.23,-459.59 471.4,-455.63 471.08,-462.62"/>
</a>
</g>
</g>
<!-- Node_Ja_100&#45;&gt;Node_Ja_101 -->
<g id="edge1" class="edge">
<title>Node_Ja_100:e&#45;&gt;Node_Ja_101</title>
<g id="a_edge1"><a xlink:title="Ja_100 &#45;&#45;&gt; Ja_101">
<path fill="none" stroke="#008000" d="M608,-163C664.45,-163 649.08,-220.46 685,-264 685.48,-264.59 685.97,-265.18 686.46,-265.77"/>
<polygon fill="#008000" stroke="#008000" points="683.82,-268.07 692.92,-273.49 689.19,-263.58 683.82,-268.07"/>
</a>
</g>
</g>
<!-- Node_Ja_102 -->
<g id="node11" class="node">
<title>Node_Ja_102</title>
<g id="a_node11"><a xlink:title="ValveState">
<polygon fill="#b2df8a" stroke="transparent" points="727.5,-204.5 727.5,-251.5 817.5,-251.5 817.5,-204.5 727.5,-204.5"/>
<polygon fill="#33a02c" stroke="transparent" points="728.5,-235 728.5,-250 816.5,-250 816.5,-235 728.5,-235"/>
<text text-anchor="start" x="733.5" y="-241" font-family="Ubuntu" font-size="10.00">enum </text>
<text text-anchor="start" x="761.5" y="-241" font-family="Ubuntu" font-weight="bold" font-size="10.00">ValveState</text>
<polygon fill="#b2df8a" stroke="transparent" points="728.5,-220 728.5,-235 805.5,-235 805.5,-220 728.5,-220"/>
<text text-anchor="start" x="730.5" y="-225" font-family="Ubuntu" font-size="10.00">VALVE_OPEN</text>
<polygon fill="#b2df8a" stroke="transparent" points="805.5,-220 805.5,-235 816.5,-235 816.5,-220 805.5,-220"/>
<text text-anchor="start" x="807.5" y="-225" font-family="Ubuntu" font-size="10.00">0</text>
<polygon fill="#b2df8a" stroke="transparent" points="728.5,-205 728.5,-220 805.5,-220 805.5,-205 728.5,-205"/>
<text text-anchor="start" x="730.5" y="-210" font-family="Ubuntu" font-size="10.00">VALVE_CLOSED</text>
<polygon fill="#b2df8a" stroke="transparent" points="805.5,-205 805.5,-220 816.5,-220 816.5,-205 805.5,-205"/>
<text text-anchor="start" x="807.5" y="-210" font-family="Ubuntu" font-size="10.00">1</text>
<polygon fill="none" stroke="black" points="727.5,-204.5 727.5,-251.5 817.5,-251.5 817.5,-204.5 727.5,-204.5"/>
</a>
</g>
</g>
<!-- Node_Ja_103 -->
<g id="node12" class="node">
<title>Node_Ja_103</title>
<g id="a_node12"><a xlink:title="LEDState">
<polygon fill="#b2df8a" stroke="transparent" points="732.5,-131.5 732.5,-178.5 812.5,-178.5 812.5,-131.5 732.5,-131.5"/>
<polygon fill="#33a02c" stroke="transparent" points="733.5,-162 733.5,-177 811.5,-177 811.5,-162 733.5,-162"/>
<text text-anchor="start" x="735.5" y="-168" font-family="Ubuntu" font-size="10.00">enum </text>
<text text-anchor="start" x="763.5" y="-168" font-family="Ubuntu" font-weight="bold" font-size="10.00">LEDState</text>
<polygon fill="#b2df8a" stroke="transparent" points="733.5,-147 733.5,-162 790.5,-162 790.5,-147 733.5,-147"/>
<text text-anchor="start" x="735.5" y="-152" font-family="Ubuntu" font-size="10.00">LED_OFF</text>
<polygon fill="#b2df8a" stroke="transparent" points="790.5,-147 790.5,-162 811.5,-162 811.5,-147 790.5,-147"/>
<text text-anchor="start" x="792.5" y="-152" font-family="Ubuntu" font-size="10.00">0</text>
<polygon fill="#b2df8a" stroke="transparent" points="733.5,-132 733.5,-147 790.5,-147 790.5,-132 733.5,-132"/>
<text text-anchor="start" x="735.5" y="-137" font-family="Ubuntu" font-size="10.00">LED_ON</text>
<polygon fill="#b2df8a" stroke="transparent" points="790.5,-132 790.5,-147 811.5,-147 811.5,-132 790.5,-132"/>
<text text-anchor="start" x="792.5" y="-137" font-family="Ubuntu" font-size="10.00">1</text>
<polygon fill="none" stroke="black" points="732.5,-131.5 732.5,-178.5 812.5,-178.5 812.5,-131.5 732.5,-131.5"/>
</a>
</g>
</g>
</g>
</svg>
